<?xml version="1.0" encoding="utf-8"?>
<svg width="12px" height="20px" viewBox="0 0 12 20" version="1.1" xmlns:xlink="http://www.w3.org/1999/xlink" xmlns="http://www.w3.org/2000/svg">
  <defs>
    <path d="M1.68806 0.291815C1.3031 -0.0972716 0.673197 -0.0972716 0.288725 0.291815C-0.0962417 0.680901 -0.0962417 1.31754 0.288725 1.70613L7.50512 8.99975L0.288725 16.2934C-0.0962417 16.6825 -0.0962417 17.3191 0.288725 17.7082C0.673197 18.0973 1.3031 18.0973 1.68806 17.7082L9.60215 9.70941C9.79512 9.51436 9.89112 9.25681 9.89062 8.99975C9.89112 8.74269 9.79512 8.48564 9.60215 8.29059L1.68806 0.291815Z" transform="matrix(-1 8.742278E-08 -8.742278E-08 -1 10.49072 18.60001)" id="path_1" />
    <clipPath id="mask_1">
      <use xlink:href="#path_1" />
    </clipPath>
  </defs>
  <path d="M1.68806 0.291815C1.3031 -0.0972716 0.673197 -0.0972716 0.288725 0.291815C-0.0962417 0.680901 -0.0962417 1.31754 0.288725 1.70613L7.50512 8.99975L0.288725 16.2934C-0.0962417 16.6825 -0.0962417 17.3191 0.288725 17.7082C0.673197 18.0973 1.3031 18.0973 1.68806 17.7082L9.60215 9.70941C9.79512 9.51436 9.89112 9.25681 9.89062 8.99975C9.89112 8.74269 9.79512 8.48564 9.60215 8.29059L1.68806 0.291815Z" transform="matrix(-1 8.742278E-08 -8.742278E-08 -1 10.49072 18.60001)" id="Mask" fill="#FFFFFF" stroke="none" />
</svg>