<?xml version="1.0" encoding="utf-8"?>
<svg width="34px" height="34px" viewBox="0 0 34 34" version="1.1" xmlns:xlink="http://www.w3.org/1999/xlink" xmlns="http://www.w3.org/2000/svg">
  <defs>
    <path d="M2.999 0L29.001 0Q29.1483 0 29.295 0.014441Q29.4416 0.028882 29.5861 0.0576249Q29.7306 0.0863679 29.8716 0.129136Q30.0126 0.171904 30.1487 0.228285Q30.2848 0.284667 30.4147 0.354118Q30.5446 0.42357 30.6672 0.505423Q30.7897 0.587276 30.9035 0.680742Q31.0174 0.774208 31.1216 0.878387Q31.2258 0.982566 31.3193 1.09645Q31.4127 1.21034 31.4946 1.33284Q31.5764 1.45535 31.6459 1.58528Q31.7153 1.71522 31.7717 1.85133Q31.8281 1.98745 31.8709 2.12844Q31.9136 2.26942 31.9424 2.41392Q31.9711 2.55842 31.9856 2.70505Q32 2.85167 32 2.999L32 29.001Q32 29.1483 31.9856 29.295Q31.9711 29.4416 31.9424 29.5861Q31.9136 29.7306 31.8709 29.8716Q31.8281 30.0126 31.7717 30.1487Q31.7153 30.2848 31.6459 30.4147Q31.5764 30.5446 31.4946 30.6672Q31.4127 30.7897 31.3193 30.9035Q31.2258 31.0174 31.1216 31.1216Q31.0174 31.2258 30.9035 31.3193Q30.7897 31.4127 30.6672 31.4946Q30.5447 31.5764 30.4147 31.6459Q30.2848 31.7153 30.1487 31.7717Q30.0126 31.8281 29.8716 31.8709Q29.7306 31.9136 29.5861 31.9424Q29.4416 31.9711 29.295 31.9856Q29.1483 32 29.001 32L2.999 32Q2.85167 32 2.70505 31.9856Q2.55842 31.9711 2.41392 31.9424Q2.26942 31.9136 2.12844 31.8709Q1.98745 31.8281 1.85133 31.7717Q1.71522 31.7153 1.58528 31.6459Q1.45535 31.5764 1.33284 31.4946Q1.21034 31.4127 1.09645 31.3193Q0.982566 31.2258 0.878387 31.1216Q0.774208 31.0174 0.680742 30.9035Q0.587276 30.7897 0.505423 30.6672Q0.42357 30.5447 0.354118 30.4147Q0.284667 30.2848 0.228285 30.1487Q0.171904 30.0126 0.129136 29.8716Q0.0863679 29.7306 0.0576249 29.5861Q0.028882 29.4416 0.014441 29.295Q0 29.1483 0 29.001L0 2.999Q0 2.85167 0.014441 2.70505Q0.028882 2.55842 0.0576249 2.41392Q0.0863679 2.26942 0.129136 2.12844Q0.171904 1.98745 0.228285 1.85133Q0.284667 1.71522 0.354118 1.58528Q0.42357 1.45535 0.505423 1.33284Q0.587276 1.21034 0.680742 1.09645Q0.774208 0.982566 0.878387 0.878387Q0.982566 0.774208 1.09645 0.680742Q1.21034 0.587276 1.33284 0.505423Q1.45535 0.42357 1.58528 0.354118Q1.71522 0.284667 1.85133 0.228285Q1.98745 0.171904 2.12844 0.129136Q2.26942 0.0863679 2.41392 0.0576249Q2.55842 0.028882 2.70505 0.014441Q2.85167 0 2.999 0Z" id="path_1" />
    <clipPath id="clip_1">
      <use xlink:href="#path_1" />
    </clipPath>
  </defs>
  <g id="Group-6" transform="translate(1 1)">
    <g id="Rectangle">
      <g clip-path="url(#clip_1)">
        <use xlink:href="#path_1" fill="none" stroke="#FFFFFF" stroke-width="4" />
      </g>
    </g>
    <path d="M1.5 3C2.32843 3 3 2.32843 3 1.5C3 0.671573 2.32843 0 1.5 0C0.671573 0 0 0.671573 0 1.5C0 2.32843 0.671573 3 1.5 3Z" transform="translate(8 8)" id="Oval" fill="#FFFFFF" stroke="none" />
    <path d="M1.5 3C2.32843 3 3 2.32843 3 1.5C3 0.671573 2.32843 0 1.5 0C0.671573 0 0 0.671573 0 1.5C0 2.32843 0.671573 3 1.5 3Z" transform="translate(8 14.5)" id="Oval" fill="#FFFFFF" stroke="none" />
    <path d="M2.91434e-16 1L9 1" transform="translate(15 15)" id="Line" fill="none" stroke="#FFFFFF" stroke-width="2" stroke-linecap="round" />
    <path d="M1.5 3C2.32843 3 3 2.32843 3 1.5C3 0.671573 2.32843 0 1.5 0C0.671573 0 0 0.671573 0 1.5C0 2.32843 0.671573 3 1.5 3Z" transform="translate(8 21)" id="Oval" fill="#FFFFFF" stroke="none" />
    <path d="M0 0.5L9 0.5" transform="translate(15 22)" id="Line" fill="none" stroke="#FFFFFF" stroke-width="2" stroke-linecap="round" />
    <path d="M0 0.5L9 0.5" transform="translate(15 9)" id="Line" fill="none" stroke="#FFFFFF" stroke-width="2" stroke-linecap="round" />
  </g>
</svg>