<?xml version="1.0" encoding="utf-8"?>
<svg width="36px" height="35px" viewBox="0 0 36 35" version="1.1" xmlns:xlink="http://www.w3.org/1999/xlink" xmlns="http://www.w3.org/2000/svg">
  <g id="Group" transform="translate(1.5 1.5)">
    <path d="M4.26326e-14 5L10 5M5 2.34479e-13L5 10" transform="translate(20.5 20.5)" id="Combined-Shape" fill="none" stroke="#FFFFFF" stroke-width="3" stroke-linecap="round" stroke-linejoin="round" />
    <path d="M9.29226 0.00857143C7.01002 0.111429 5.76516 1.36071 6.29805 3.21643C6.59725 4.26214 7.48176 5.43429 8.82489 6.62786C4.45479 8.63143 0.879643 13.29 0.167671 18.1671C-0.952701 25.7936 3.52879 30 13.9987 30C14.692 30 15.3591 29.9816 16 29.9449L16 28.0317C15.3654 28.0682 14.6985 28.0864 13.9987 28.0864C4.64042 28.0864 1.16356 24.8229 2.10048 18.4393C2.72509 14.1493 5.95735 9.98786 9.79676 8.29714L9.87538 8.265C10.1222 8.42357 10.4891 8.57143 10.9979 8.69786C11.83 8.90143 12.9504 9.01929 14.4158 9.01929C16.4404 9.01929 17.8796 8.865 18.8231 8.49214C21.3757 9.78976 23.5964 12.2088 24.871 15L26.9844 15C25.6446 11.5845 23.057 8.57771 19.9828 6.91714C20.4567 6.50571 20.876 6.03643 21.1949 5.55214C22.0859 4.19143 22.1056 2.75143 20.6576 2.18571C19.0065 1.54071 17.3358 1.87929 15.7939 2.79857L15.4882 2.99143C15.2588 2.67643 14.9749 2.34214 14.6364 2.01C13.3544 0.756429 11.6946 0 9.66135 0C9.53905 0 9.41675 0.00428571 9.29226 0.00857143ZM14.0839 4.38429C13.8655 4.03714 13.5903 3.69 13.2583 3.36643C12.2646 2.39786 10.9979 1.85143 9.3818 1.92214C8.23522 1.97143 8.02993 2.17929 8.17626 2.69571C8.42086 3.54 9.47571 4.76571 11.153 6.045C11.217 6.07539 11.2791 6.11344 11.3392 6.15915C11.342 6.16146 11.3454 6.16412 11.3496 6.16714C11.3461 6.16445 11.3426 6.16179 11.3392 6.15915C11.324 6.14672 11.3278 6.14424 11.3517 6.14786L11.6313 6.22071C12.2384 6.37071 13.1513 6.465 14.4158 6.465C15.8551 6.465 16.9077 6.37286 17.5149 6.22929C18.2727 5.91643 19.0917 5.22 19.5525 4.515C19.7076 4.27714 19.8037 4.06929 19.8342 3.92786L19.6115 3.85929C18.7182 3.63214 17.7617 3.86786 16.8073 4.43786C16.3727 4.69286 16.0538 4.95 15.8966 5.10214C15.4074 5.57357 14.5884 5.41714 14.3176 4.79786L14.2586 4.68214L14.0839 4.38429Z" id="Combined-Shape" fill="#FFFFFF" fill-rule="evenodd" stroke="none" />
    <path d="M6.43854 8.94941L4.59801 8.94941L4.59801 11L3.40199 11L3.40199 8.94941L1.56146 8.94941L1.56146 7.91268L3.40199 7.91268L3.40199 6.64726L1.56146 6.64726L1.56146 5.61053L3.04319 5.61053L0 0L1.36213 0L3.94684 4.88635L4.05316 4.88635L6.63787 0L8 0L4.95681 5.61053L6.43854 5.61053L6.43854 6.64726L4.59801 6.64726L4.59801 7.91268L6.43854 7.91268L6.43854 8.94941Z" transform="translate(10.00006 13)" id="02" fill="#FFFFFF" stroke="none" />
  </g>
</svg>