<?xml version="1.0" encoding="utf-8"?>
<svg width="22px" height="25px" viewBox="0 0 22 25" version="1.1" xmlns:xlink="http://www.w3.org/1999/xlink" xmlns="http://www.w3.org/2000/svg">
  <g id="home/topBtn/el/icon/bank_color2" transform="translate(0.4958496 0.4960938)">
    <path d="M5 0C5 1.65685 3.88071 3 2.5 3C1.11929 3 0 1.65685 0 0L5 0Z" transform="translate(8 21)" id="Combined-Shape" fill="#FFFFFF" fill-rule="evenodd" stroke="none" />
    <path d="M13.8686 2.1438C13.3071 0.860512 11.9921 0 10.5139 0C9.04374 0 7.73439 0.851382 7.16799 2.12415C3.28136 3.43363 0.872302 7.01921 0.872302 11.4432L0.872302 17.0099C-1.05835 19.4318 0.363955 22 3.68112 22L17.3222 22C20.6325 22 22.0573 19.4291 20.131 17.0101L20.131 11.9796C20.131 7.43836 17.6659 3.50449 13.8686 2.1438ZM8.56308 2.994C8.8044 2.17917 9.59894 1.6001 10.5139 1.6001C11.4321 1.6001 12.2286 2.18309 12.4671 3.00171L12.5881 3.4172L13.0053 3.54445C16.3015 4.54982 18.5159 7.95082 18.5159 11.9797L18.5159 17.6035L18.7188 17.8306C19.9858 19.2482 19.3951 20.4001 17.3221 20.4001L3.68112 20.4001C1.60163 20.4001 1.01333 19.2519 2.28428 17.8307L2.48736 17.6036L2.48736 11.4433C2.48736 7.5597 4.61109 4.52449 8.01524 3.53651L8.43882 3.41357L8.56308 2.994Z" id="Combined-Shape" fill="#FFFFFF" fill-rule="evenodd" stroke="none" />
  </g>
</svg>