<?xml version="1.0" encoding="utf-8"?>
<svg width="31px" height="7px" viewBox="0 0 31 7" version="1.1" xmlns:xlink="http://www.w3.org/1999/xlink" xmlns="http://www.w3.org/2000/svg">
  <g id="icon" transform="translate(0.5 0.5)">
    <path d="M3 6C4.65685 6 6 4.65685 6 3C6 1.34315 4.65685 0 3 0C1.34315 0 0 1.34315 0 3C0 4.65685 1.34315 6 3 6Z" id="Oval" fill="#FFFFFF" stroke="none" />
    <path d="M3 6C4.65685 6 6 4.65685 6 3C6 1.34315 4.65685 0 3 0C1.34315 0 0 1.34315 0 3C0 4.65685 1.34315 6 3 6Z" transform="translate(12 0)" id="Oval-Copy" fill="#FFFFFF" stroke="none" />
    <path d="M3 6C4.65685 6 6 4.65685 6 3C6 1.34315 4.65685 0 3 0C1.34315 0 0 1.34315 0 3C0 4.65685 1.34315 6 3 6Z" transform="translate(24 0)" id="Oval-Copy-2" fill="#FFFFFF" stroke="none" />
  </g>
</svg>