<?xml version="1.0" encoding="utf-8"?>
<svg width="32px" height="32px" viewBox="0 0 32 32" version="1.1" xmlns:xlink="http://www.w3.org/1999/xlink" xmlns="http://www.w3.org/2000/svg">
  <path d="M10 10C15.5228 10 20 7.76142 20 5C20 2.23858 15.5228 0 10 0C4.47715 0 0 2.23858 0 5C0 7.76142 4.47715 10 10 10Z" transform="translate(1.25 0.75)" id="Oval" fill="none" stroke="#FFFFFF" stroke-width="1.5" />
  <path d="M7 6C10.866 6 14 4.65685 14 3C14 1.34315 10.866 0 7 0C3.13401 0 0 1.34315 0 3C0 4.65685 3.13401 6 7 6Z" transform="translate(4.25 2.75)" id="Oval" fill="none" stroke="#FFFFFF" stroke-width="0.5" />
  <path d="M0 0.5C0 0.5 3.75456 4.5 10.75 4.5C17.7454 4.5 21.5 0 21.5 0L21.5 1.801C21.5 1.9109 21.4109 1.99951 21.3011 2.00425C17.9246 2.15002 17.5984 6 10.75 6C3.83401 6 3.60515 2.0736 0.098993 2.00102C0.0443285 1.99989 0 1.95568 0 1.901L0 0.5ZM16.75 17.4239L16.75 17.501Q16.75 17.9832 16.9698 18.4123C15.6504 19.2449 13.8825 20 10.75 20C3.83401 20 3.60515 16.319 0.0989938 16.251C0.0443279 16.2499 0 16.2057 0 16.151L0 14.5C0 14.5 3.75456 18.5 10.75 18.5C13.1328 18.5 15.1395 18.0359 16.75 17.4239ZM21.5 11.5L21.5 11C21.5 11 21.3165 11.1955 20.9551 11.5L21.5 11.5ZM16.75 13.9239L16.75 14.9508C15.4537 15.7799 13.7118 16.5 10.75 16.5C3.83401 16.5 3.60515 12.5736 0.098993 12.501C0.0443285 12.4999 0 12.4557 0 12.401L0 11C0 11 3.75456 15 10.75 15C13.1328 15 15.1395 14.5359 16.75 13.9239ZM10.75 8C3.75456 8 0 4 0 4L0 5.401C0 5.45568 0.0443285 5.49989 0.098993 5.50102C3.60515 5.5736 3.83401 9.5 10.75 9.5C17.5984 9.5 17.9246 5.65002 21.3011 5.50425C21.4109 5.49951 21.5 5.4109 21.5 5.301L21.5 4C21.5 4 17.7454 8 10.75 8ZM0 7.5C0 7.5 3.75456 11.5 10.75 11.5C17.7454 11.5 21.5 7.5 21.5 7.5L21.5 8.801C21.5 8.9109 21.4109 8.99951 21.3011 9.00425C17.9246 9.15002 17.5984 13 10.75 13C3.83401 13 3.60515 9.0736 0.098993 9.00102C0.0443285 8.99989 0 8.95568 0 8.901L0 7.5Z" transform="translate(0.5 9.25)" id="Combined-Shape" fill="#FFFFFF" fill-rule="evenodd" stroke="none" />
  <path d="M5 0L5 10M0 5L10 5" transform="translate(20.25 19.75)" id="Combined-Shape" fill="none" stroke="#FFFFFF" stroke-width="3" stroke-linecap="round" stroke-linejoin="round" />
</svg>