<?xml version="1.0" encoding="utf-8"?>
<svg width="32px" height="32px" viewBox="0 0 32 32" version="1.1" xmlns:xlink="http://www.w3.org/1999/xlink" xmlns="http://www.w3.org/2000/svg">
  <path d="M2.00328 0L1.85207 0.0053966C0.36038 0.112599 -0.507741 1.79501 0.321883 3.08301L5.56728 11.227L5.41559 11.2436C4.45117 11.3864 3.71114 12.2177 3.71114 13.2219L3.71114 15.294L3.71663 15.4432C3.74571 15.8375 3.88908 16.1999 4.11372 16.4976L4.16328 16.56L4.11372 16.6222C3.861 16.9571 3.71114 17.374 3.71114 17.8259L3.71114 19.898L3.71663 20.0472C3.79297 21.0821 4.65678 21.898 5.71114 21.898L8.08328 21.897L8.08352 24C8.08352 25.1046 8.97896 26 10.0835 26L12.923 26L13.0723 25.9945C14.1071 25.9182 14.923 25.0544 14.923 24L14.9223 21.897L17.2954 21.898C18.4 21.898 19.2954 21.0025 19.2954 19.898L19.2954 17.8259L19.2899 17.6766C19.2608 17.2824 19.1175 16.9199 18.8928 16.6222L18.8423 16.56L18.8928 16.4976C19.1456 16.1627 19.2954 15.7458 19.2954 15.294L19.2954 13.2219L19.2899 13.0726C19.2172 12.087 18.4303 11.3001 17.4383 11.227L22.6847 3.08301C23.5419 1.75208 22.5864 0 21.0033 0L17.7663 0L17.5954 0.00729752C16.9734 0.060548 16.4079 0.40231 16.0725 0.936517L11.5033 8.212L6.93172 0.93601C6.56576 0.353528 5.92613 0 5.23823 0L2.00328 0ZM5.23823 2L11.3779 11.7722L11.6307 11.7722L17.7663 2L21.0033 2L13.7751 13.2219L17.2954 13.2219L17.2954 15.294L12.923 15.294L12.923 17.8259L17.2954 17.8259L17.2954 19.898L12.923 19.898L12.923 24L10.0835 24L10.0835 19.898L5.71114 19.898L5.71114 17.8259L10.0835 17.8259L10.0835 15.294L5.71114 15.294L5.71114 13.2219L9.23147 13.2219L2.00328 2L5.23823 2Z" id="Combined-Shape" fill="#FFFFFF" fill-rule="evenodd" stroke="none" />
  <path d="M5 0L5 10M0 5L10 5" transform="translate(20.00317 20)" id="Combined-Shape" fill="none" stroke="#FFFFFF" stroke-width="3" stroke-linecap="round" stroke-linejoin="round" />
</svg>