<?xml version="1.0" encoding="utf-8"?>
<svg width="25px" height="25px" viewBox="0 0 25 25" version="1.1" xmlns:xlink="http://www.w3.org/1999/xlink" xmlns="http://www.w3.org/2000/svg">
  <g id="Color">
    <path d="M24.1719 12.0859C24.1719 18.7608 18.7608 24.1719 12.0859 24.1719C5.41106 24.1719 0 18.7608 0 12.0859C0 5.41106 5.41106 0 12.0859 0C18.7608 0 24.1719 5.41106 24.1719 12.0859ZM1.75 12.0859C1.75 17.7943 6.37756 22.4219 12.0859 22.4219C17.7943 22.4219 22.4219 17.7943 22.4219 12.0859C22.4219 6.37756 17.7943 1.75 12.0859 1.75C6.37756 1.75 1.75 6.37756 1.75 12.0859Z" id="Oval-2" fill="#FFFFFF" fill-rule="evenodd" stroke="none" />
    <path d="M2.81873 7.43129L2.81873 8.09621C2.81873 8.19346 2.89945 8.2586 3.02081 8.25679L4.35692 8.25679C4.47829 8.25679 4.55901 8.1921 4.55901 8.09485L4.55901 7.57603C4.55901 7.02465 4.68093 6.79758 5.08566 6.35972L6.4421 4.86704C7.13076 4.10442 7.47396 3.53675 7.47396 2.75784C7.47396 1.15163 5.99616 0 3.81051 0C1.70502 0 0.30794 1.02226 0.00368783 2.57962C-0.0160688 2.67733 0.0443301 2.74201 0.166257 2.75829L1.44141 2.93696C1.56333 2.95325 1.64405 2.9044 1.66438 2.80714C1.9071 1.81745 2.63584 1.26606 3.7693 1.26606C4.92366 1.26606 5.73312 1.85002 5.73312 2.77458C5.73312 3.32642 5.49039 3.69959 4.78254 4.47804L3.42554 5.97072C3.00049 6.4416 2.81873 6.78175 2.81873 7.43129ZM2.92036 9.49219C2.79843 9.49219 2.71771 9.55687 2.71771 9.65412L2.71771 11.0491C2.71771 11.1463 2.79787 11.211 2.92036 11.211L4.45912 11.211C4.57992 11.211 4.6612 11.1468 4.6612 11.0491L4.6612 9.65412C4.6612 9.55732 4.58048 9.49219 4.45912 9.49219L2.92036 9.49219Z" transform="translate(8.348999 6.480469)" id="Shape" fill="#FFFFFF" fill-rule="evenodd" stroke="none" />
  </g>
</svg>