<?xml version="1.0" encoding="UTF-8"?>
<svg width="311px" height="205px" viewBox="0 0 311 205" version="1.1" xmlns="http://www.w3.org/2000/svg" xmlns:xlink="http://www.w3.org/1999/xlink">
    <!-- Generator: Sketch 62 (91390) - https://sketch.com -->
    <title>Group 10</title>
    <desc>Created with Sketch.</desc>
    <defs>
        <polygon id="path-1" points="0.4441 0.5996 76.975 0.5996 76.975 91.9996 0.4441 91.9996"></polygon>
        <polygon id="path-3" points="0 0.5996 75.8766 0.5996 75.8766 91.9996 0 91.9996"></polygon>
    </defs>
    <g id="Phase.1" stroke="none" stroke-width="1" fill="none" fill-rule="evenodd">
        <g id="A_3_コース詳細_初回_A" transform="translate(-32.000000, -667.000000)">
            <g id="Group-6" transform="translate(0.000000, 612.000000)">
                <g id="Group-10" transform="translate(32.000000, 55.000000)">
                    <g id="Group-13" transform="translate(0.000000, 0.500000)">
                        <path d="M154.9873,57.5 C165.7263,57.5 176.0593,59.233 185.7293,62.425 L203.5493,7.582 C188.4123,2.667 172.2623,0 155.4873,0 C138.7123,0 122.5623,2.667 107.4253,7.582 L125.1503,62.131 C134.5583,59.127 144.5823,57.5 154.9873,57.5" id="Fill-1" fill="#FFD500"></path>
                        <path d="M234.4439,98.1348 L281.2889,64.0998 C262.1889,37.8548 235.0789,17.8208 203.5489,7.5818 L185.7289,62.4258 C205.5029,68.9528 222.4879,81.6038 234.4439,98.1348" id="Fill-3" fill="#FF9933"></path>
                        <g id="Group-7" transform="translate(234.000000, 63.500000)">
                            <mask id="mask-2" fill="white">
                                <use xlink:href="#path-1"></use>
                            </mask>
                            <g id="Clip-6"></g>
                            <path d="M47.2891,0.5996 L0.4441,34.6346 C11.7481,50.2646 18.5591,69.3586 18.9681,90.0236 C18.9891,91.1186 19.8671,91.9996 20.9621,91.9996 L74.9711,91.9996 C76.0811,91.9996 76.9891,91.0926 76.9752598,89.9816 C76.5491,56.5956 65.5941,25.7506 47.2891,0.5996" id="Fill-5" fill="#FD5C5C" mask="url(#mask-2)"></path>
                        </g>
                        <path d="M125.1499,62.1313 L107.4259,7.5823 C75.8959,17.8203 48.7859,37.8543 29.6859,64.0993 L75.8769,97.6593 C87.9969,81.1103 105.1809,68.5073 125.1499,62.1313" id="Fill-8" fill="#93C664"></path>
                        <g id="Group-12" transform="translate(0.000000, 63.500000)">
                            <mask id="mask-4" fill="white">
                                <use xlink:href="#path-3"></use>
                            </mask>
                            <g id="Clip-11"></g>
                            <path d="M29.6856,0.5996 C11.3806,25.7506 0.4256,56.5956 -0.000559752508,89.9816 C-0.0144,91.0926 0.8936,91.9996 2.0036,91.9996 L55.0176,91.9996 C56.1096,91.9996 56.9856,91.1206 57.0066,90.0286 C57.4186,69.1506 64.3646,49.8776 75.8766,34.1596 L29.6856,0.5996 Z" id="Fill-10" fill="#20BF7A" mask="url(#mask-4)"></path>
                        </g>
                    </g>
                    <g id="Group-9" transform="translate(22.000000, 21.000000)" fill-rule="nonzero">
                        <path d="M2.976,104.996 C2.94,104.54 2.916,104.144 2.916,103.604 L2.916,96.884 C3.396,95.936 3.528,95.6 3.996,94.148 L2.616,93.8 C2.544,94.292 2.352,94.94 2.124,95.504 C1.644,96.716 1.032,97.676 0.192,98.552 C0.456,99.104 0.576,99.404 0.744,100.016 C1.14,99.56 1.428,99.164 1.704,98.708 C1.67314286,98.9548571 1.65991837,99.3251429 1.65676968,99.7810729 L1.656,103.592 C1.656,104.168 1.644,104.504 1.584,104.996 L2.976,104.996 Z M10.524,103.652 C10.896,103.652 11.208,103.424 11.376,103.04 C11.58,102.572 11.7,102.02 11.784,101.144 C11.424,100.928 11.124,100.688 10.812,100.364 C10.788,100.76 10.776,100.976 10.776,101.012 C10.752,101.432 10.692,101.816 10.632,101.948 C10.584,102.068 10.512,102.14 10.44,102.14 C10.2,102.14 9.816,101.612 9.468,100.808 C9.204,100.208 9.048,99.596 8.94,98.792 L10.164,98.756 C10.236,98.744 10.332,98.744 10.5,98.744 C10.872,98.744 11.004,98.744 11.34,98.768 L11.316,97.46 C10.968,97.532 10.776,97.544 10.164,97.556 L8.832,97.604 C8.772,96.476 8.772,96.464 8.76,95.624 C9.552,95.468 9.552,95.468 11.028,95.012 L10.044,93.836 C9.036,94.412 6.432,94.94 4.632,94.94 L4.344,94.94 L4.344,94.94 C4.38,95.216 4.392,95.432 4.392,96.032 L4.392,101.552 C3.72,101.672 3.72,101.672 3.36,101.684 L3.552,103.04 C3.732,102.992 3.828,102.968 4.056,102.92 C5.652,102.584 6.372,102.404 7.776,101.948 L7.776,100.76 C6.84,101.036 6.696,101.072 5.652,101.312 L5.652,98.888 L7.704,98.828 C7.86,100.064 8.112,100.94 8.52,101.756 C9.096,102.872 9.912,103.652 10.524,103.652 Z M5.652,97.688 L5.652,96.044 C6.504,95.984 6.768,95.96 7.5,95.852 C7.548,96.92 7.56,97.304 7.596,97.64 L5.652,97.688 Z M9.636,104.6 L9.636,103.304 C9.372,103.34 8.964,103.364 8.412,103.364 L4.908,103.364 C4.488,103.364 4.248,103.352 3.996,103.316 L3.996,104.6 C4.30457143,104.548571 4.5602449,104.532408 4.96705539,104.52884 L8.412,104.528 C8.916,104.528 9.228,104.54 9.636,104.6 Z M16.02,103.952 C17.04,103.952 17.736,102.98 18.36,100.64 C17.772,100.208 17.58,100.028 17.16,99.548 C17.028,100.352 16.812,101.072 16.524,101.72 C16.38,102.056 16.212,102.236 16.032,102.236 C15.648,102.236 15.264,101.468 15.06,100.22 C14.928,99.488 14.832,98.048 14.832,97.004 C14.832,96.212 14.868,95.624 14.928,95.18 L13.284,95.18 C13.32,95.444 13.32,95.528 13.332,95.948 C13.38,99.272 13.596,101.012 14.088,102.212 C14.568,103.364 15.216,103.952 16.02,103.952 Z M21.816,102.74 L23.304,102.176 C22.956,99.536 22.116,97.532 20.604,95.72 L19.344,96.32 C20.064,97.208 20.64,98.18 21.048,99.272 C21.468,100.364 21.744,101.612 21.816,102.74 Z" id="低い" fill="#F8F8F8"></path>
                        <path d="M255.376,93.9 L255.376,92.688 C254.992,92.736 254.656,92.76 254.116,92.76 L250.576,92.76 L250.576,92.604 C250.576,92.34 250.6,92.112 250.648,91.86 L249.172,91.86 C249.22,92.1 249.244,92.34 249.244,92.616 L249.244,92.76 L245.92,92.76 C245.356,92.76 244.996,92.736 244.612,92.688 L244.612,93.9 C245.008,93.852 245.308,93.84 245.848,93.84 L254.128,93.84 C254.68,93.84 254.98,93.852 255.376,93.9 Z M253.624,97.056 C253.603,96.804 253.591187,96.6714375 253.588562,96.3287109 L253.588,95.136 C253.588,94.752 253.6,94.572 253.624,94.26 C253.336,94.2908571 253.109714,94.3040816 252.748665,94.3072303 L247.564,94.308 C247.036,94.308 246.748,94.296 246.4,94.26 C246.424,94.548 246.436,94.752 246.436,95.136 L246.436,96.168 C246.436,96.576 246.424,96.804 246.4,97.056 C246.748,97.02 247.06,97.008 247.528,97.008 L252.496,97.008 C253.024,97.008 253.3,97.02 253.624,97.056 Z M252.328,96.012 L247.684,96.012 L247.684,95.28 L252.328,95.28 L252.328,96.012 Z M246.292,103.02 C246.2395,102.6525 246.22375,102.386062 246.220633,101.915203 L246.22,98.508 L253.78,98.508 L253.78,101.496 C253.78,101.688 253.72,101.748 253.492,101.748 C253.156,101.748 252.64,101.712 251.98,101.64 C252.16,102.024 252.22,102.3 252.244,102.84 L252.406816,102.840768 C252.46672,102.84192 252.5128,102.8448 252.628,102.852 C253.012,102.876 253.072,102.876 253.324,102.876 C254.164,102.876 254.524,102.804 254.764,102.588 C254.992,102.384 255.052,102.156 255.052,101.556 L255.052,98.496 C255.052,98.064 255.064,97.788 255.1,97.416 C254.827,97.4475 254.572375,97.460625 254.127109,97.4634141 L246.148,97.464 C245.632,97.464 245.284,97.452 244.9,97.416 C244.936,97.788 244.948,98.1 244.948,98.508 L244.948,101.7 C244.948,102.264 244.924,102.768 244.876,103.02 L246.292,103.02 Z M248.572,102.096 L248.572,101.496 L251.596,101.496 C251.92,101.496 252.364,101.508 252.592,101.532 C252.568,101.316 252.556,101.076 252.556,100.728 L252.556,99.708 C252.556,99.348 252.568,99.168 252.592,98.94 C252.283429,98.9605714 252.115918,98.9723265 251.787195,98.9752653 L248.32,98.976 C247.876,98.976 247.624,98.964 247.348,98.94 C247.372,99.18 247.384,99.384 247.384,99.732 L247.384,101.124 C247.384,101.604 247.372,101.868 247.336,102.096 L248.572,102.096 Z M251.404,100.548 L248.572,100.548 L248.572,99.888 L251.404,99.888 L251.404,100.548 Z M260.02,101.952 C261.04,101.952 261.736,100.98 262.36,98.64 C261.772,98.208 261.58,98.028 261.16,97.548 C261.028,98.352 260.812,99.072 260.524,99.72 C260.38,100.056 260.212,100.236 260.032,100.236 C259.648,100.236 259.264,99.468 259.06,98.22 C258.928,97.488 258.832,96.048 258.832,95.004 C258.832,94.212 258.868,93.624 258.928,93.18 L257.284,93.18 C257.32,93.444 257.32,93.528 257.332,93.948 C257.38,97.272 257.596,99.012 258.088,100.212 C258.568,101.364 259.216,101.952 260.02,101.952 Z M265.816,100.74 L267.304,100.176 C266.956,97.536 266.116,95.532 264.604,93.72 L263.344,94.32 C264.064,95.208 264.64,96.18 265.048,97.272 C265.468,98.364 265.744,99.612 265.816,100.74 Z" id="高い" fill="#FFFFFF"></path>
                        <path d="M129.696,15.008 C129.642667,14.6346667 129.617778,14.3182222 129.612905,13.7468313 L129.612,11.084 L132.588,11.084 L132.588,11.804 L134.004,11.804 C133.962857,11.5057143 133.948163,11.2338776 133.944805,10.8222391 L133.944,6.944 C133.944,6.476 133.956,6.224 133.992,5.888 C133.719,5.9195 133.491938,5.932625 133.085719,5.93541406 L129.612,5.936 L129.612,5.156 C129.612,4.58 129.636,4.268 129.684,3.896 L128.172,3.896 C128.232,4.292 128.244,4.58 128.244,5.204 L128.244,5.936 L125.088,5.936 C124.608,5.936 124.356,5.924 124.008,5.888 C124.044,6.272 124.056,6.488 124.056,6.932 L124.056,10.604 C124.056,11.108 124.044,11.408 123.996,11.804 L125.412,11.804 L125.412,11.084 L128.244,11.084 L128.244,13.52 C128.244,14.192 128.22,14.564 128.16,15.008 L129.696,15.008 Z M128.244,9.812 L125.412,9.812 L125.412,7.208 L128.244,7.208 L128.244,9.812 Z M132.588,9.812 L129.612,9.812 L129.612,7.208 L132.588,7.208 L132.588,9.812 Z M144.096,14.828 C144.84,14.828 145.2,14.792 145.452,14.684 C145.884,14.504 146.028,14.192 146.028,13.472 L146.028,5.612 C146.028,5.012 146.04,4.712 146.076,4.28 C145.782,4.3115 145.515562,4.324625 145.051594,4.32741406 L142.536,4.328 C141.924,4.328 141.636,4.316 141.312,4.28 C141.336,4.652 141.348,4.988 141.348,5.396 L141.348,7.232 C141.348,7.748 141.336,7.976 141.312,8.324 C141.612,8.3 141.996,8.288 142.416,8.288 L144.78,8.288 L144.78,13.304 C144.78,13.544 144.672,13.628 144.336,13.628 C144.12,13.628 143.688,13.592 143.424,13.568 C143.4,13.256 143.388,12.98 143.388,12.524 L143.388,10.088 C143.388,9.62 143.4,9.32 143.424,9.008 C143.125714,9.03885714 142.889143,9.05208163 142.510251,9.05523032 L139.632,9.056 C139.14,9.056 138.864,9.044 138.516,9.008 C138.54,9.332 138.552,9.668 138.552,10.088 L138.552,13.016 C138.552,13.448 138.516,13.928 138.468,14.216 L139.74,14.216 L139.74,13.544 L142.284,13.544 C142.38,13.544 142.608,13.544 142.956,13.556 C143.136,14.036 143.196,14.252 143.268,14.792 C143.88,14.828 143.928,14.828 144.096,14.828 Z M137.304,14.948 C137.261333,14.66 137.23763,14.2866667 137.232889,13.7015802 L137.232,8.288 L139.404,8.288 C139.824,8.288 140.196,8.3 140.508,8.324 C140.487,8.093 140.475188,7.8528125 140.472563,7.42657812 L140.472,5.396 C140.472,4.928 140.484,4.664 140.508,4.28 C140.22,4.312 139.969926,4.32503704 139.479654,4.32753909 L137.16,4.328 C136.572,4.328 136.26,4.316 135.924,4.28 C135.96,4.664 135.972,5 135.972,5.624 L135.972,13.46 C135.972,14.204 135.948,14.588 135.9,14.948 L137.304,14.948 Z M144.78,5.9 L142.536,5.9 L142.536,5.3 L144.78,5.3 L144.78,5.9 Z M139.296,5.9 L137.232,5.9 L137.232,5.3 L139.296,5.3 L139.296,5.9 Z M144.78,7.364 L142.536,7.364 L142.536,6.752 L144.78,6.752 L144.78,7.364 Z M139.296,7.364 L137.232,7.364 L137.232,6.752 L139.296,6.752 L139.296,7.364 Z M142.188,10.784 L139.74,10.784 L139.74,10.064 L142.188,10.064 L142.188,10.784 Z M142.188,12.536 L139.74,12.536 L139.74,11.756 L142.188,11.756 L142.188,12.536 Z" id="中間" fill="#242323" opacity="0.799409412"></path>
                        <path d="M49.656,30.84 L51.24,30.48 C51.144,30.24 51.12,30.156 51.06,29.904 C50.34,26.904 50.28,26.676 49.536,24.072 C51.564,23.472 52.284,23.328 53.136,23.328 C54.144,23.328 54.732,23.772 54.732,24.528 C54.732,24.948 54.552,25.32 54.24,25.548 C53.868,25.8 53.4,25.944 52.884,25.944 C52.272,25.944 51.684,25.8 50.964,25.476 C51.132,26.148 51.168,26.376 51.18,26.952 C51.816,27.168 52.452,27.288 53.04,27.288 C53.952,27.288 54.696,27.048 55.26,26.58 C55.872,26.076 56.232,25.296 56.232,24.492 C56.232,23.016 55.116,22.044 53.424,22.044 C53.184,22.044 53.016,22.056 52.728,22.08 C52.74,20.532 52.74,20.532 52.788,20.16 L51.276,20.16 C51.336,20.472 51.336,20.556 51.348,21.6 C51.36,22.02 51.36,22.02 51.36,22.26 C50.88,22.356 50.676,22.404 50.34,22.488 L49.176,22.812 C49.068,22.416 49.02,22.26 48.924,21.96 C48.576,20.928 48.576,20.928 48.504,20.544 L47.016,20.964 C47.244,21.384 47.472,22.02 47.832,23.196 C47.256,23.376 47.16,23.4 46.668,23.568 C46.08,23.772 45.924,23.808 45.576,23.88 L46.044,25.284 C46.356,25.128 47.16,24.804 47.592,24.672 C48.012,24.528 48.036,24.528 48.192,24.456 C48.936,27.036 49.596,29.88 49.656,30.84 Z M61.656,30.84 L63.24,30.48 C63.144,30.24 63.12,30.156 63.06,29.904 C62.34,26.904 62.28,26.676 61.536,24.072 C63.564,23.472 64.284,23.328 65.136,23.328 C66.144,23.328 66.732,23.772 66.732,24.528 C66.732,24.948 66.552,25.32 66.24,25.548 C65.868,25.8 65.4,25.944 64.884,25.944 C64.272,25.944 63.684,25.8 62.964,25.476 C63.132,26.148 63.168,26.376 63.18,26.952 C63.816,27.168 64.452,27.288 65.04,27.288 C65.952,27.288 66.696,27.048 67.26,26.58 C67.872,26.076 68.232,25.296 68.232,24.492 C68.232,23.016 67.116,22.044 65.424,22.044 C65.184,22.044 65.016,22.056 64.728,22.08 C64.74,20.532 64.74,20.532 64.788,20.16 L63.276,20.16 C63.336,20.472 63.336,20.556 63.348,21.6 C63.36,22.02 63.36,22.02 63.36,22.26 C62.88,22.356 62.676,22.404 62.34,22.488 L61.176,22.812 C61.068,22.416 61.02,22.26 60.924,21.96 C60.576,20.928 60.576,20.928 60.504,20.544 L59.016,20.964 C59.244,21.384 59.472,22.02 59.832,23.196 C59.256,23.376 59.16,23.4 58.668,23.568 C58.08,23.772 57.924,23.808 57.576,23.88 L58.044,25.284 C58.356,25.128 59.16,24.804 59.592,24.672 C60.012,24.528 60.036,24.528 60.192,24.456 C60.936,27.036 61.596,29.88 61.656,30.84 Z M47.976,46.996 C47.94,46.54 47.916,46.144 47.916,45.604 L47.916,38.884 C48.396,37.936 48.528,37.6 48.996,36.148 L47.616,35.8 C47.544,36.292 47.352,36.94 47.124,37.504 C46.644,38.716 46.032,39.676 45.192,40.552 C45.456,41.104 45.576,41.404 45.744,42.016 C46.14,41.56 46.428,41.164 46.704,40.708 C46.6731429,40.9548571 46.6599184,41.3251429 46.6567697,41.7810729 L46.656,45.592 C46.656,46.168 46.644,46.504 46.584,46.996 L47.976,46.996 Z M55.524,45.652 C55.896,45.652 56.208,45.424 56.376,45.04 C56.58,44.572 56.7,44.02 56.784,43.144 C56.424,42.928 56.124,42.688 55.812,42.364 C55.788,42.76 55.776,42.976 55.776,43.012 C55.752,43.432 55.692,43.816 55.632,43.948 C55.584,44.068 55.512,44.14 55.44,44.14 C55.2,44.14 54.816,43.612 54.468,42.808 C54.204,42.208 54.048,41.596 53.94,40.792 L55.164,40.756 C55.236,40.744 55.332,40.744 55.5,40.744 C55.872,40.744 56.004,40.744 56.34,40.768 L56.316,39.46 C55.968,39.532 55.776,39.544 55.164,39.556 L53.832,39.604 C53.772,38.476 53.772,38.464 53.76,37.624 C54.552,37.468 54.552,37.468 56.028,37.012 L55.044,35.836 C54.036,36.412 51.432,36.94 49.632,36.94 L49.344,36.94 L49.344,36.94 C49.38,37.216 49.392,37.432 49.392,38.032 L49.392,43.552 C48.72,43.672 48.72,43.672 48.36,43.684 L48.552,45.04 C48.732,44.992 48.828,44.968 49.056,44.92 C50.652,44.584 51.372,44.404 52.776,43.948 L52.776,42.76 C51.84,43.036 51.696,43.072 50.652,43.312 L50.652,40.888 L52.704,40.828 C52.86,42.064 53.112,42.94 53.52,43.756 C54.096,44.872 54.912,45.652 55.524,45.652 Z M50.652,39.688 L50.652,38.044 C51.504,37.984 51.768,37.96 52.5,37.852 C52.548,38.92 52.56,39.304 52.596,39.64 L50.652,39.688 Z M54.636,46.6 L54.636,45.304 C54.372,45.34 53.964,45.364 53.412,45.364 L49.908,45.364 C49.488,45.364 49.248,45.352 48.996,45.316 L48.996,46.6 C49.3045714,46.5485714 49.5602449,46.5324082 49.9670554,46.5288397 L53.412,46.528 C53.916,46.528 54.228,46.54 54.636,46.6 Z M61.02,45.952 C62.04,45.952 62.736,44.98 63.36,42.64 C62.772,42.208 62.58,42.028 62.16,41.548 C62.028,42.352 61.812,43.072 61.524,43.72 C61.38,44.056 61.212,44.236 61.032,44.236 C60.648,44.236 60.264,43.468 60.06,42.22 C59.928,41.488 59.832,40.048 59.832,39.004 C59.832,38.212 59.868,37.624 59.928,37.18 L58.284,37.18 C58.32,37.444 58.32,37.528 58.332,37.948 C58.38,41.272 58.596,43.012 59.088,44.212 C59.568,45.364 60.216,45.952 61.02,45.952 Z M66.816,44.74 L68.304,44.176 C67.956,41.536 67.116,39.532 65.604,37.72 L64.344,38.32 C65.064,39.208 65.64,40.18 66.048,41.272 C66.468,42.364 66.744,43.612 66.816,44.74 Z" id="やや低い" fill="#242323"></path>
                        <path d="M202.656,30.84 L204.24,30.48 C204.144,30.24 204.12,30.156 204.06,29.904 C203.34,26.904 203.28,26.676 202.536,24.072 C204.564,23.472 205.284,23.328 206.136,23.328 C207.144,23.328 207.732,23.772 207.732,24.528 C207.732,24.948 207.552,25.32 207.24,25.548 C206.868,25.8 206.4,25.944 205.884,25.944 C205.272,25.944 204.684,25.8 203.964,25.476 C204.132,26.148 204.168,26.376 204.18,26.952 C204.816,27.168 205.452,27.288 206.04,27.288 C206.952,27.288 207.696,27.048 208.26,26.58 C208.872,26.076 209.232,25.296 209.232,24.492 C209.232,23.016 208.116,22.044 206.424,22.044 C206.184,22.044 206.016,22.056 205.728,22.08 C205.74,20.532 205.74,20.532 205.788,20.16 L204.276,20.16 C204.336,20.472 204.336,20.556 204.348,21.6 C204.36,22.02 204.36,22.02 204.36,22.26 C203.88,22.356 203.676,22.404 203.34,22.488 L202.176,22.812 C202.068,22.416 202.02,22.26 201.924,21.96 C201.576,20.928 201.576,20.928 201.504,20.544 L200.016,20.964 C200.244,21.384 200.472,22.02 200.832,23.196 C200.256,23.376 200.16,23.4 199.668,23.568 C199.08,23.772 198.924,23.808 198.576,23.88 L199.044,25.284 C199.356,25.128 200.16,24.804 200.592,24.672 C201.012,24.528 201.036,24.528 201.192,24.456 C201.936,27.036 202.596,29.88 202.656,30.84 Z M214.656,30.84 L216.24,30.48 C216.144,30.24 216.12,30.156 216.06,29.904 C215.34,26.904 215.28,26.676 214.536,24.072 C216.564,23.472 217.284,23.328 218.136,23.328 C219.144,23.328 219.732,23.772 219.732,24.528 C219.732,24.948 219.552,25.32 219.24,25.548 C218.868,25.8 218.4,25.944 217.884,25.944 C217.272,25.944 216.684,25.8 215.964,25.476 C216.132,26.148 216.168,26.376 216.18,26.952 C216.816,27.168 217.452,27.288 218.04,27.288 C218.952,27.288 219.696,27.048 220.26,26.58 C220.872,26.076 221.232,25.296 221.232,24.492 C221.232,23.016 220.116,22.044 218.424,22.044 C218.184,22.044 218.016,22.056 217.728,22.08 C217.74,20.532 217.74,20.532 217.788,20.16 L216.276,20.16 C216.336,20.472 216.336,20.556 216.348,21.6 C216.36,22.02 216.36,22.02 216.36,22.26 C215.88,22.356 215.676,22.404 215.34,22.488 L214.176,22.812 C214.068,22.416 214.02,22.26 213.924,21.96 C213.576,20.928 213.576,20.928 213.504,20.544 L212.016,20.964 C212.244,21.384 212.472,22.02 212.832,23.196 C212.256,23.376 212.16,23.4 211.668,23.568 C211.08,23.772 210.924,23.808 210.576,23.88 L211.044,25.284 C211.356,25.128 212.16,24.804 212.592,24.672 C213.012,24.528 213.036,24.528 213.192,24.456 C213.936,27.036 214.596,29.88 214.656,30.84 Z M209.376,37.9 L209.376,36.688 C208.992,36.736 208.656,36.76 208.116,36.76 L204.576,36.76 L204.576,36.604 C204.576,36.34 204.6,36.112 204.648,35.86 L203.172,35.86 C203.22,36.1 203.244,36.34 203.244,36.616 L203.244,36.76 L199.92,36.76 C199.356,36.76 198.996,36.736 198.612,36.688 L198.612,37.9 C199.008,37.852 199.308,37.84 199.848,37.84 L208.128,37.84 C208.68,37.84 208.98,37.852 209.376,37.9 Z M207.624,41.056 C207.603,40.804 207.591187,40.6714375 207.588562,40.3287109 L207.588,39.136 C207.588,38.752 207.6,38.572 207.624,38.26 C207.336,38.2908571 207.109714,38.3040816 206.748665,38.3072303 L201.564,38.308 C201.036,38.308 200.748,38.296 200.4,38.26 C200.424,38.548 200.436,38.752 200.436,39.136 L200.436,40.168 C200.436,40.576 200.424,40.804 200.4,41.056 C200.748,41.02 201.06,41.008 201.528,41.008 L206.496,41.008 C207.024,41.008 207.3,41.02 207.624,41.056 Z M206.328,40.012 L201.684,40.012 L201.684,39.28 L206.328,39.28 L206.328,40.012 Z M200.292,47.02 C200.2395,46.6525 200.22375,46.3860625 200.220633,45.9152031 L200.22,42.508 L207.78,42.508 L207.78,45.496 C207.78,45.688 207.72,45.748 207.492,45.748 C207.156,45.748 206.64,45.712 205.98,45.64 C206.16,46.024 206.22,46.3 206.244,46.84 L206.406816,46.840768 C206.46672,46.84192 206.5128,46.8448 206.628,46.852 C207.012,46.876 207.072,46.876 207.324,46.876 C208.164,46.876 208.524,46.804 208.764,46.588 C208.992,46.384 209.052,46.156 209.052,45.556 L209.052,42.496 C209.052,42.064 209.064,41.788 209.1,41.416 C208.827,41.4475 208.572375,41.460625 208.127109,41.4634141 L200.148,41.464 C199.632,41.464 199.284,41.452 198.9,41.416 C198.936,41.788 198.948,42.1 198.948,42.508 L198.948,45.7 C198.948,46.264 198.924,46.768 198.876,47.02 L200.292,47.02 Z M202.572,46.096 L202.572,45.496 L205.596,45.496 C205.92,45.496 206.364,45.508 206.592,45.532 C206.568,45.316 206.556,45.076 206.556,44.728 L206.556,43.708 C206.556,43.348 206.568,43.168 206.592,42.94 C206.283429,42.9605714 206.115918,42.9723265 205.787195,42.9752653 L202.32,42.976 C201.876,42.976 201.624,42.964 201.348,42.94 C201.372,43.18 201.384,43.384 201.384,43.732 L201.384,45.124 C201.384,45.604 201.372,45.868 201.336,46.096 L202.572,46.096 Z M205.404,44.548 L202.572,44.548 L202.572,43.888 L205.404,43.888 L205.404,44.548 Z M214.02,45.952 C215.04,45.952 215.736,44.98 216.36,42.64 C215.772,42.208 215.58,42.028 215.16,41.548 C215.028,42.352 214.812,43.072 214.524,43.72 C214.38,44.056 214.212,44.236 214.032,44.236 C213.648,44.236 213.264,43.468 213.06,42.22 C212.928,41.488 212.832,40.048 212.832,39.004 C212.832,38.212 212.868,37.624 212.928,37.18 L211.284,37.18 C211.32,37.444 211.32,37.528 211.332,37.948 C211.38,41.272 211.596,43.012 212.088,44.212 C212.568,45.364 213.216,45.952 214.02,45.952 Z M219.816,44.74 L221.304,44.176 C220.956,41.536 220.116,39.532 218.604,37.72 L217.344,38.32 C218.064,39.208 218.64,40.18 219.048,41.272 C219.468,42.364 219.744,43.612 219.816,44.74 Z" id="やや高い" fill="#242323" opacity="0.797781808"></path>
                    </g>
                    <g id="Group-7" transform="translate(178.000000, 149.500000) rotate(72.000000) translate(-178.000000, -149.500000) translate(129.500000, 78.000000)" fill="#002970">
                        <path d="M49.5,8.64019967e-12 C51.0455592,8.63991575e-12 52.3245322,1.20213253 52.4201732,2.74472969 L59.6049802,118.628713 C59.8100364,121.936071 57.295124,124.783445 53.9877661,124.988501 C53.8641521,124.996165 53.7403304,125 53.6164791,125 L45.3835209,125 C42.0698124,125 39.3835209,122.313708 39.3835209,119 C39.3835209,118.876149 39.3873557,118.752327 39.3950198,118.628713 L46.5798268,2.74472969 C46.6754678,1.20213253 47.9544408,8.64048358e-12 49.5,8.64019967e-12 Z" id="Rectangle"></path>
                        <circle id="Oval" cx="48.5" cy="94.5" r="48"></circle>
                    </g>
                    <path d="M125.364,157.868 C126.008,157.574 126.274,157.42 126.666,157.168 C127.646,156.538 128.458,155.754 128.948,154.942 C129.438,154.13 129.732,153.192 129.886,151.89 L132.98,151.89 C133.876,151.89 134.142,151.904 134.66,151.96 L134.66,150.28 C134.181846,150.357538 133.942272,150.375432 133.15947,150.377726 L129.984,150.378 C130.012,149.902 130.012,149.902 130.026,148.012 C131.118,147.802 131.566,147.69 132.364,147.438 C133.372,147.102 133.372,147.102 133.54,147.06 L132.42,145.632 C131.944,145.898 131.538,146.052 130.726,146.29 C129.004,146.78 126.61,147.102 124.734,147.102 L124.546,147.101347 C124.378857,147.099714 124.176,147.094 123.866,147.074 C124.174,147.746 124.244,147.956 124.384,148.586 C126.694,148.474 127.128,148.432 128.262,148.264 C128.262,149.244 128.262,149.79 128.234,150.378 L124.65,150.378 C123.698,150.378 123.46,150.364 122.942,150.28 L122.942,151.96 C123.46,151.904 123.726,151.89 124.622,151.89 L128.08,151.89 C128.024,152.352 127.982,152.59 127.926,152.828 C127.688,153.738 127.156,154.536 126.316,155.208 C125.686,155.726 125.154,156.02 124.146,156.384 C124.734,156.888 124.958,157.154 125.364,157.868 Z M141.436,157.994 L143.186,157.686 C143.06,157.322 143.06,157.322 142.92,156.552 L141.926,151.372 L145.216,150.826 C145.566,150.77 145.566,150.77 145.734,150.728 C145.16,151.778 144.39,152.59 143.354,153.234 C143.942,153.542 144.152,153.696 144.656,154.228 C146,153.192 146.798,152.142 147.414,150.588 C147.554,150.252 147.638,150.098 147.764,149.916 L146.784,149.034 C146.504,149.146 146.266,149.216 145.86,149.272 L141.674,149.972 L141.464,148.894 C141.366,148.404 141.324,148.096 141.324,147.816 L139.658,148.068 C139.784,148.376 139.812,148.516 139.924,149.118 L140.134,150.224 L138.972,150.42 C138.44,150.504 138.09,150.546 137.642,150.546 L137.936,152.142 C138.342,152.002 138.678,151.918 139.168,151.834 L140.372,151.638 L141.324,156.86 C141.408,157.322 141.436,157.63 141.436,157.994 Z M153.364,157.504 C153.658,157.392 153.826,157.336 154.204,157.266 C156.472,156.832 157.9,156.286 159.3,155.348 C160.56,154.508 161.456,153.57 162.422,152.086 C161.82,151.582 161.638,151.386 161.092,150.658 C160.392,152.016 159.524,152.982 158.236,153.864 C157.186,154.592 155.87,155.124 154.414,155.404 L154.484,147.41 C154.498,146.724 154.512,146.374 154.568,145.996 L152.58,145.982 C152.65,146.444 152.65,146.444 152.65,147.424 L152.594,154.984 C152.594,155.796 152.566,156.048 152.468,156.426 L153.364,157.504 Z M168.498,150.854 L169.702,149.328 C168.624,148.306 167.756,147.662 166.09,146.626 L164.928,148.012 C166.23,148.74 167.378,149.664 168.498,150.854 Z M165.418,157.252 C165.74,157.14 165.782,157.126 166.342,157.014 C168.512,156.552 170.248,155.866 171.676,154.914 C173.594,153.64 174.924,151.988 176.114,149.426 C175.4,148.922 175.176,148.712 174.63,148.054 C174.21,149.188 173.818,149.958 173.202,150.854 C172.096,152.45 170.794,153.528 169.044,154.284 C167.77,154.844 166.104,155.25 164.9,155.32 L165.418,157.252 Z M190.002,147.41 L190.968,146.864 C190.534,146.066 190.142,145.534 189.512,144.89 L188.574,145.38 C189.12,145.982 189.582,146.64 190.002,147.41 Z M188.322,148.292 L189.302,147.774 C188.826,146.906 188.448,146.374 187.832,145.716 L186.852,146.206 C187.468,146.878 187.86,147.438 188.322,148.292 Z M183.38,149.342 L184.276,147.802 C183.268,147.172 181.868,146.5 180.552,145.996 L179.642,147.424 C180.664,147.746 182.246,148.572 183.38,149.342 Z M179.334,157.574 C179.6,157.49 179.712,157.462 180.314,157.336 C185.326,156.356 188.28,154.06 190.016,149.818 C189.372,149.384 189.106,149.16 188.56,148.572 C187.552,151.554 185.452,153.85 182.89,154.746 C181.406,155.32 179.936,155.642 178.844,155.656 L179.334,157.574 Z M182.33,152.87 L183.198,151.288 C182.148,150.602 180.776,149.902 179.474,149.384 L178.536,150.826 C179.824,151.302 181.406,152.156 182.33,152.87 Z M148.142,173.168 C148.092222,172.856889 148.07563,172.512593 148.072557,171.948291 L148.072336,163.708144 C148.07368,163.33048 148.0804,163.1804 148.114,162.878 C147.757636,162.898364 147.660446,162.903917 147.353898,162.905432 L140.162,162.906 C139.14,162.906 138.874,162.892 138.356,162.808 L138.356,164.628 C138.86,164.572 139.154,164.558 140.148,164.558 L146.28,164.558 L146.28,170.662 L139.91,170.662 C138.93,170.662 138.678,170.648 138.16,170.564 L138.16,172.37 C138.58,172.328 138.916,172.314 139.882,172.314 L146.266,172.314 L146.266,173.168 L148.142,173.168 Z M163.192,168.604 L163.192,166.658 C162.648471,166.732118 162.377433,166.751737 161.369065,166.755327 L153.016935,166.755327 C152.008567,166.751737 151.737529,166.732118 151.194,166.658 L151.194,168.604 C151.754,168.534 151.908,168.534 153.476,168.534 L160.91,168.534 C162.478,168.534 162.632,168.534 163.192,168.604 Z M174.518,173.462 L175.862,172.006 C174.168,170.368 174.168,170.368 173.818,170.06 C172.866,169.206 172.11,168.618 171.228,168.03 C172.082,166.882 172.768,165.664 173.412,164.166 C173.566,163.816 173.678,163.62 173.86,163.41 L172.936,162.458 C172.586,162.584 172.474,162.598 171.69,162.612 L166.762,162.682 L166.426,162.682 C165.852,162.682 165.586,162.668 165.194,162.598 L165.25,164.39 C165.726,164.32 166.104,164.292 166.776,164.278 C171.186,164.208 171.186,164.208 171.41,164.194 L171.256,164.558 C170.346,166.742 168.666,168.772 166.552,170.256 C165.502,170.998 164.83,171.376 163.752,171.796 C164.326,172.398 164.494,172.622 164.886,173.35 C167.028,172.3 168.638,171.068 170.22,169.304 C171.746,170.466 173.356,172.034 174.518,173.462 Z" id="チャレンジコース" fill="#FFFFFF" fill-rule="nonzero"></path>
                </g>
            </g>
        </g>
    </g>
</svg>