<?xml version="1.0" encoding="utf-8"?>
<svg width="49px" height="49px" viewBox="0 0 49 49" version="1.1" xmlns:xlink="http://www.w3.org/1999/xlink" xmlns="http://www.w3.org/2000/svg">
  <g id="Icon" transform="translate(0.5 0.5)">
    <path d="M24 48C37.2548 48 48 37.2548 48 24C48 10.7452 37.2548 0 24 0C10.7452 0 0 10.7452 0 24C0 37.2548 10.7452 48 24 48Z" id="Oval" fill="#FD8D8D" stroke="none" />
  </g>
  <path d="M31.4308 0.742675C31.1749 0.164857 30.5187 -0.137536 29.9044 0.0607971L23.8663 2.01032L23.7466 2.05573C23.1665 2.31031 22.8619 2.96801 23.0608 3.58392L23.1062 3.70356C23.3608 4.28372 24.0185 4.58824 24.6344 4.38939L27.8272 3.3584L23.4873 14.2313L19.1538 6.0854L19.0841 5.969C18.5389 5.15709 17.2742 5.26224 16.8923 6.20189L12.3503 17.3743L7.9755 8.33345L7.9104 8.21467C7.39771 7.38381 6.13276 7.43823 5.71287 8.35952L0.11287 20.6466L0.0657388 20.7655C-0.137421 21.3656 0.142976 22.034 0.731903 22.3024L0.850875 22.3495C1.45098 22.5527 2.11933 22.2723 2.38774 21.6834L6.88331 11.8173L11.3251 20.9953L11.3888 21.1119C11.9121 21.9647 13.2175 21.883 13.6083 20.9215L18.2013 9.61933L22.5468 17.7847L22.6168 17.9015C23.1639 18.7158 24.434 18.6062 24.8113 17.6608L30.0483 4.53786L31.0622 7.63882L31.1081 7.75829C31.3648 8.3375 32.0237 8.63958 32.6388 8.43843C33.295 8.22387 33.653 7.51801 33.4384 6.86184L31.4765 0.861844L31.4308 0.742675Z" transform="translate(7.249512 12.24967)" id="Combined-Shape" fill="#FFFFFF" fill-rule="evenodd" stroke="none" />
</svg>