<?xml version="1.0" encoding="UTF-8"?>
<svg width="198px" height="229px" viewBox="0 0 198 229" version="1.1" xmlns="http://www.w3.org/2000/svg" xmlns:xlink="http://www.w3.org/1999/xlink">
    <title>Group 4</title>
    <g id="Phase.1.5" stroke="none" stroke-width="1" fill="none" fill-rule="evenodd">
        <g id="A_X-キャンペーン" transform="translate(-88.000000, -142.000000)">
            <g id="Group-4" transform="translate(88.878000, 142.286000)">
                <path d="M16.434,3.258 L17.748,2.736 C17.316,1.674 16.902,0.954 16.164,-1.42108547e-14 L14.886,0.468 C15.48,1.278 16.002,2.196 16.434,3.258 Z M10.044,16.722 C9.972,16.236 9.954,15.696 9.954,14.706 L9.954,5.976 L14.112,5.976 C15.534,5.976 15.804,5.994 16.398,6.066 L16.398,3.852 C15.786,3.96 15.408,3.978 14.148,3.978 L15.39,3.51 C14.904,2.322 14.49,1.602 13.788,0.666 L12.456,1.134 C13.122,2.052 13.536,2.79 14.022,3.978 L9.954,3.978 L9.954,3.024 C9.954,1.872 9.972,1.584 10.026,1.098 L7.596,1.098 C7.66246154,1.49676923 7.69824852,1.86486391 7.70336095,2.74026855 L7.704,3.978 L3.28841016,3.97701562 C2.322,3.97209375 1.99125,3.9465 1.44,3.852 L1.44,6.066 C2.034,5.994 2.304,5.976 3.708,5.976 L7.704,5.976 L7.704,14.688 C7.704,15.696 7.668,16.236 7.596,16.722 L10.044,16.722 Z M2.718,15.372 C4.032,13.608 5.166,11.016 5.742,8.388 C5.778,8.208 5.814,8.1 5.814,8.082 C5.832,8.046 5.85,7.938 5.886,7.812 L3.672,7.272 C3.42,9.504 2.016,12.726 0.63,14.22 C1.494,14.544 1.872,14.76 2.718,15.372 Z M14.994,15.39 C15.804,14.814 16.146,14.598 17.064,14.13 C15.876,12.744 14.436,9.612 13.878,7.272 L11.754,7.812 C11.88,8.082 11.898,8.172 12.042,8.658 C12.888,11.52 13.698,13.356 14.994,15.39 Z M34.596,10.062 L34.596,7.56 C33.8873684,7.65663158 33.5389861,7.6812133 32.1970742,7.68531768 L21.5689258,7.68531768 C20.2270139,7.6812133 19.8786316,7.65663158 19.17,7.56 L19.17,10.062 C19.89,9.972 20.088,9.972 22.104,9.972 L31.662,9.972 C33.678,9.972 33.876,9.972 34.596,10.062 Z M40.554,16.632 C42.894,15.354 44.154,14.238 45.144,12.6 C45.972,11.214 46.278,10.026 46.44,7.524 L50.13,7.524 C51.318,7.524 51.786,7.542 52.434,7.614 L52.434,5.346 C51.7788,5.4468 51.40584,5.4692 50.3345973,5.47173867 L46.53,5.472 C46.53,5.274 46.53,5.274 46.548,4.086 L46.566,3.006 C46.584,1.872 46.584,1.854 46.656,1.278 L44.172,1.278 C44.236,1.71 44.2573333,2.12777778 44.261284,2.75888889 L44.261514,4.371264 C44.26038,4.62528 44.2566,4.9428 44.244,5.472 L39.708,5.472 C38.466,5.472 38.07,5.454 37.368,5.346 L37.368,7.614 C38.016,7.542 38.484,7.524 39.672,7.524 L44.136,7.524 C43.992,9.36 43.794,10.17 43.254,11.142 C42.444,12.636 41.076,13.752 38.916,14.688 C39.672,15.282 39.942,15.606 40.554,16.632 Z M68.418,16.308 L70.146,14.436 C67.968,12.33 67.968,12.33 67.518,11.934 C66.294,10.836 65.322,10.08 64.188,9.324 C65.286,7.848 66.168,6.282 66.996,4.356 C67.194,3.906 67.338,3.654 67.572,3.384 L66.384,2.16 C65.934,2.322 65.79,2.34 64.782,2.358 L58.446,2.448 L58.014,2.448 L58.014,2.448 C57.276,2.448 56.934,2.43 56.43,2.34 L56.502,4.644 C57.114,4.554 57.6,4.518 58.464,4.5 C64.134,4.41 64.134,4.41 64.422,4.392 L64.224,4.86 C63.054,7.668 60.894,10.278 58.176,12.186 C56.826,13.14 55.962,13.626 54.576,14.166 C55.314,14.94 55.53,15.228 56.034,16.164 C58.788,14.814 60.858,13.23 62.892,10.962 C64.854,12.456 66.924,14.472 68.418,16.308 Z M74.934,5.508 L76.356,3.96 C75.384,2.592 75.096,2.232 73.656,0.792 L72.216,2.124 C73.296,3.132 73.98,3.978 74.934,5.508 Z M83.376,14.778 C83.304,14.346 83.286,14.058 83.268,13.464 L86.832,13.464 C87.57,13.464 87.876,13.482 88.326,13.536 L88.326,11.844 C87.9696,11.9088 87.6861,11.92986 87.094962,11.933424 L83.268,11.934 L83.268,11.124 L86.004,11.124 C86.562,11.124 86.886,11.142 87.48,11.178 C87.43275,10.81575 87.4130625,10.5361875 87.4088789,10.0740234 L87.408,7.146 C87.408,6.57 87.426,6.228 87.48,5.814 C87.1074,5.8464 86.82228,5.86422 86.217858,5.86746 L83.25,5.868 L83.25,5.094 L85.806,5.094 C86.436,5.094 86.706,5.112 87.12,5.166 L87.12,4.518 L88.416,4.518 C88.344,4.176 88.326,3.834 88.326,3.348 L88.326,2.268 C88.326,1.782 88.344,1.458 88.398,1.116 C87.90975,1.16325 87.5179687,1.1829375 86.9453086,1.18712109 L78.3,1.188 C77.526,1.188 77.076,1.17 76.554,1.116 C76.608,1.476 76.626,1.854 76.626,2.304 L76.626,3.42 C76.626,3.852 76.608,4.14 76.554,4.518 L77.76,4.518 L77.76,5.166 C78.174,5.112 78.534,5.094 79.092,5.094 L81.468,5.094 L81.468,5.868 L78.912,5.868 C78.228,5.868 77.904,5.85 77.472,5.814 C77.526,6.21 77.526,6.354 77.526,7.146 L77.526,9.864 C77.526,10.584 77.526,10.764 77.472,11.178 C78.012,11.124 78.246,11.124 78.912,11.124 L81.486,11.124 L81.486,11.934 L78.12,11.934 C77.616,11.934 77.13,11.898 76.698,11.844 L76.698,13.554 C77.13,13.482 77.508,13.464 78.138,13.464 L81.468,13.464 C81.45,14.076 81.432,14.292 81.36,14.778 L83.376,14.778 Z M81.468,3.618 L79.002,3.618 C78.768,3.618 78.642,3.618 78.444,3.6 L78.444,2.736 L81.468,2.736 L81.468,3.618 Z M86.472,3.618 L83.25,3.618 L83.25,2.736 L86.472,2.736 L86.472,3.618 Z M81.468,7.92 L79.29,7.92 L79.29,7.128 L81.468,7.128 L81.468,7.92 Z M85.608,7.92 L83.25,7.92 L83.25,7.128 L85.608,7.128 L85.608,7.92 Z M72.612,17.01 C72.81,16.848 72.99,16.704 73.134,16.596 C73.944,16.038 74.34,15.696 75.222,14.886 C76.23,16.146 77.292,16.668 79.056,16.794 C79.7372308,16.8438462 81.0933018,16.8936923 82.1473464,16.901066 L82.404,16.902 C84.492,16.902 86.004,16.866 88.434,16.758 C88.542,16.038 88.668,15.624 88.974,14.85 C87.3476471,15.0363529 85.3864567,15.1270381 82.7002544,15.1370621 L82.188,15.138 C79.776,15.138 78.696,15.066 78.03,14.868 C77.112,14.598 76.662,14.256 76.194,13.464 L76.194,9.432 C76.194,8.46 76.212,8.028 76.266,7.47 C75.834,7.542 75.42,7.56 74.898,7.56 L73.566,7.56 C72.9,7.56 72.612,7.542 72.126,7.47 L72.126,9.414 C72.612,9.342 72.864,9.324 73.35,9.324 L74.304,9.324 L74.304,13.194 C73.224,14.112 72.396,14.67 71.73,14.958 L72.612,17.01 Z M81.468,9.846 L79.29,9.846 L79.29,9.09 L81.468,9.09 L81.468,9.846 Z M85.608,9.846 L83.25,9.846 L83.25,9.09 L85.608,9.09 L85.608,9.846 Z M91.602,17.226 C92.646,15.624 93.186,13.932 93.438,11.538 L97.578,11.538 L97.578,14.508 C97.578,15.57 97.542,16.092 97.47,16.632 L99.594,16.632 C99.522,16.11 99.504,15.534 99.504,14.49 L99.504,11.538 L103.824,11.538 L103.824,14.688 C103.824,15.066 103.662,15.138 102.924,15.138 C102.348,15.138 101.556,15.084 100.656,14.994 C100.944,15.75 101.07,16.182 101.16,16.866 C101.7,16.902 102.618,16.938 103.176,16.938 C105.228,16.938 105.768,16.56 105.768,15.066 L105.768,3.24 C105.768,2.268 105.786,1.818 105.84,1.206 C105.332727,1.25509091 104.870083,1.27442975 104.032832,1.2775402 L93.672,1.278 C92.7,1.278 92.232,1.26 91.602,1.206 C91.674,1.944 91.692,2.52 91.692,3.816 C91.692,5.94 91.62,8.496 91.53,10.008 C91.476,10.98 91.35,11.916 91.17,12.762 C90.918,13.914 90.504,14.868 89.856,15.804 C90.594,16.308 90.846,16.506 91.602,17.226 Z M97.578,5.526 L93.636,5.526 L93.654,5.022 L93.654,3.168 L97.578,3.168 L97.578,5.526 Z M103.824,5.526 L99.504,5.526 L99.504,3.168 L103.824,3.168 L103.824,5.526 Z M97.578,9.756 L93.564,9.756 C93.564,9.396 93.564,9.27 93.582,8.424 C93.582,8.172 93.6,7.812 93.6,7.29 L97.578,7.29 L97.578,9.756 Z M103.824,9.756 L99.504,9.756 L99.504,7.29 L103.824,7.29 L103.824,9.756 Z M109.764,16.38 L111.924,16.254 C111.888,15.912 111.888,15.894 111.888,15.768 C111.888,14.58 112.608,12.348 113.67,10.26 L112.176,9.594 C112.014,10.044 111.996,10.098 111.96,10.152 C111.78,10.584 111.78,10.584 111.618,10.962 C111.528,11.25 111.438,11.448 111.402,11.574 C111.276,11.898 111.276,11.898 111.186,12.096 L111.168,12.096 C111.186,11.898 111.186,11.862 111.186,11.718 L111.186667,11.2033333 C111.188,11.07 111.192,10.926 111.204,10.494 C111.222,7.362 111.906,3.024 112.644,1.458 L110.214,1.206 L110.214,1.278 L110.214,1.278 C110.214,1.458 110.142,1.98 110.016,2.61 C109.62,4.644 109.62,4.644 109.53,5.184 C109.296,6.75 109.188,8.334 109.188,9.954 C109.188,11.844 109.332,13.572 109.674,15.678 C109.746,16.092 109.746,16.2 109.764,16.38 Z M117.414,16.254 C119.16,16.254 120.42,15.624 120.834,14.562 C120.924,14.31 120.978,13.95 120.978,13.554 L120.978,13.302 L120.978,13.302 C121.086,13.374 121.5,13.644 122.112,14.04 C122.616,14.364 123.156,14.832 123.462,15.192 L124.326,13.014 C124.146,12.924 124.056,12.87 123.822,12.708 C122.742,11.934 122.292,11.682 120.996,11.07 C120.846,8.55 120.821,8.105 120.816833,7.44333333 L120.816,6.606 L120.816,6.606 C121.77,6.498 122.706,6.336 123.318,6.21 C123.642,6.138 123.66,6.138 123.84,6.12 L123.768,4.086 L123.624,4.122 C123.336,4.23 123.336,4.23 123.228,4.266 C122.526,4.446 121.734,4.59 120.798,4.698 L120.798,3.87 C120.798,2.592 120.834,1.728 120.924,1.224 L118.674,1.278 C118.71,1.476 118.728,1.746 118.728,2.142 C118.728,2.88 118.746,3.78 118.746,4.842 C118.116,4.878 117.72,4.878 117.09,4.878 C115.614,4.878 114.678,4.806 113.832,4.59 L113.796,6.66 C113.85,6.642 113.886,6.642 113.904,6.642 C113.94,6.642 113.994,6.642 114.084,6.66 C114.12,6.66 114.228,6.66 114.39,6.678 C114.48,6.678 114.678,6.696 114.93,6.696 C115.776,6.768 116.496,6.786 117.162,6.786 C117.63,6.786 118.062,6.768 118.782,6.75 C118.854,9.252 118.872,10.134 118.926,10.584 C118.44,10.404 117.99,10.332 117.324,10.332 C115.146,10.332 113.616,11.556 113.616,13.302 C113.616,15.138 115.056,16.254 117.414,16.254 Z M117.27,14.436 C116.262,14.436 115.614,13.986 115.614,13.32 C115.614,12.582 116.334,12.132 117.486,12.132 C118.026,12.132 118.368,12.204 118.962,12.42 L118.962,12.906 L118.962,12.906 C118.962,13.392 118.89,13.662 118.728,13.878 C118.458,14.238 117.936,14.436 117.27,14.436 Z M139.446,4.41 L140.688,3.708 C140.112,2.682 139.626,1.998 138.816,1.17 L137.61,1.8 C138.294,2.574 138.888,3.42 139.446,4.41 Z M133.83,16.47 C136.098,16.47 137.88,15.714 139.23,14.184 C140.112,13.194 140.652,12.024 141.372,9.594 C140.544,9.216 140.148,8.982 139.194,8.208 C138.996,9.45 138.762,10.296 138.366,11.232 C137.52,13.212 135.954,14.31 134.01,14.31 C132.876,14.31 132.012,13.968 131.598,13.374 C131.238,12.834 131.13,12.186 131.13,10.476 C131.13,9.198 131.238,5.544 131.31,3.87 C131.382,2.484 131.418,1.962 131.526,1.44 L129.006,1.404 C129.06,1.872 129.078,2.124 129.078,2.628 C129.078,2.88 129.078,3.258 129.06,3.798 C128.952,8.298 128.916,10.116 128.916,11.052 C128.916,13.464 129.438,14.85 130.68,15.678 C131.436,16.182 132.588,16.47 133.83,16.47 Z M137.286,5.544 L138.546,4.878 C137.916,3.762 137.43,3.078 136.656,2.232 L135.396,2.862 C136.17,3.726 136.674,4.446 137.286,5.544 Z M152.874,16.344 C154.26,16.056 154.944,15.858 155.808,15.48 C158.49,14.346 160.02,12.204 160.02,9.558 C160.02,7.686 159.264,6.156 157.824,5.094 C157.122,4.572 156.474,4.284 155.412,4.014 C155.484,3.762 155.718,2.88 155.97,1.908 C156.006,1.746 156.042,1.62 156.15,1.404 L153.882,0.954 C153.864,1.548 153.738,2.214 153.36,3.744 L152.874,3.744 L152.874,3.744 C151.686,3.744 150.624,3.96 149.4,4.464 C149.184,3.546 148.986,2.25 148.968,1.566 L146.79,1.98 C146.898,2.25 146.934,2.358 146.97,2.592 C147.168,3.6 147.492,5.166 147.582,5.436 C145.71,6.84 144.702,8.748 144.702,10.962 C144.702,13.392 145.944,15.012 147.798,15.012 C148.41,15.012 148.914,14.868 149.472,14.526 C150.192,14.112 150.966,13.374 151.614,12.546 C152.928,10.836 154.17,8.298 154.89,5.832 C155.628,6.048 156.024,6.228 156.51,6.606 C157.41,7.308 157.824,8.208 157.824,9.396 C157.824,10.188 157.608,10.944 157.212,11.61 C156.726,12.384 155.916,13.014 154.692,13.536 C153.702,13.968 153,14.13 151.758,14.238 C152.442,15.138 152.604,15.444 152.874,16.344 Z M150.966,9.954 L150.948,9.954 C150.93,9.864 150.912,9.828 150.858,9.684 C150.3,8.262 150.066,7.524 149.778,6.282 C150.732,5.76 151.632,5.562 152.874,5.562 C152.28,7.362 151.794,8.496 151.074,9.72 C151.02,9.81 151.02,9.828 150.966,9.954 Z M147.906,12.888 C147.186,12.888 146.682,12.078 146.682,10.908 C146.682,9.648 147.114,8.64 148.122,7.578 C148.482,9.072 148.77,9.9 149.598,11.718 C148.986,12.492 148.41,12.888 147.906,12.888 Z M167.508,16.668 C170.19,16.668 171.612,15.606 171.612,13.59 C171.612,13.32 171.594,13.158 171.576,13.014 C171.774,13.14 171.918,13.212 172.152,13.338 C173.106,13.788 173.664,14.148 174.528,14.814 C175.194,15.336 175.482,15.606 175.806,16.002 L177.21,13.968 C176.994,13.842 176.904,13.77 176.67,13.608 C175.302,12.654 174.996,12.438 174.348,12.078 C173.394,11.538 172.548,11.16 171.54,10.854 C171.414,9.09 171.378,8.28 171.342,6.876 C172.764,6.84 174.06,6.75 175.572,6.552 C176.382,6.462 176.382,6.462 176.742,6.444 L176.562,4.266 C175.428,4.644 173.448,4.86 171.288,4.878 C171.276429,4.32257143 171.272296,4.10188776 171.27082,3.94815306 L171.27,3.708 C171.27,2.394 171.306,1.512 171.396,0.918 L169.038,0.9 C169.11,1.404 169.11,1.584 169.128,2.484 C169.146,4.734 169.308,9.648 169.38,10.296 C169.38,10.422 169.38,10.422 169.398,10.476 C169.038,10.368 168.39,10.296 167.724,10.296 C165.132,10.296 163.278,11.646 163.278,13.518 C163.278,14.076 163.458,14.67 163.728,15.12 C164.394,16.146 165.672,16.668 167.508,16.668 Z M167.436,14.76 C166.95,14.76 166.464,14.652 166.122,14.49 C165.708,14.274 165.51,13.986 165.51,13.554 C165.51,12.762 166.41,12.222 167.76,12.222 C168.444,12.222 168.768,12.258 169.434,12.42 C169.434,12.438 169.452,12.942 169.452,13.266 C169.452,13.716 169.326,14.058 169.074,14.274 C168.714,14.58 168.12,14.76 167.436,14.76 Z M192.276,4.266 L192.582,2.052 L192.078,2.052 L192.078,2.052 C189.234,2.052 186.57,1.674 184.572,1.008 L183.87,3.132 C186.516,3.798 189,4.122 192.276,4.266 Z M185.562,16.722 C188.496,16.254 189.756,15.876 191.232,15.03 C193.41,13.788 194.652,11.916 194.652,9.864 C194.652,8.442 194.022,7.236 192.906,6.57 C192.078,6.066 190.962,5.832 189.504,5.832 C187.974,5.832 186.408,5.994 183.852,6.444 C182.232,6.732 182.232,6.732 181.764,6.75 L182.286,9.144 C183.78,8.532 187.38,7.902 189.414,7.902 C191.286,7.902 192.24,8.586 192.24,9.936 C192.24,11.178 191.466,12.312 190.044,13.104 C188.658,13.878 186.714,14.382 184.626,14.472 C185.184,15.318 185.382,15.768 185.562,16.722 Z M54.846,43.938 L57.258,43.506 C57.06,42.894 57.042,42.84 56.826,41.652 L56.178,38.16 L60.462,37.476 C60.822,37.422 61.056,37.386 61.182,37.368 C61.272,37.35 61.362,37.332 61.47,37.332 C61.848,37.26 61.92,37.26 62.298,37.242 L61.902,35.082 C61.416,35.226 60.786,35.37 60.03,35.496 L55.8,36.162 L55.26,33.21 L59.058,32.616 C60.3,32.418 60.3,32.418 60.786,32.382 L60.408,30.222 C59.94,30.384 59.562,30.474 58.68,30.618 L54.882,31.212 L54.594,29.646 C54.468,28.944 54.396,28.422 54.378,27.954 L52.002,28.332 C52.2,28.836 52.272,29.142 52.434,30.024 L52.704,31.554 L49.356,32.076 C48.6,32.184 48.024,32.256 47.376,32.274 L47.736,34.488 C48.222,34.344 48.888,34.218 49.716,34.074 L53.064,33.552 L53.604,36.504 L49.23,37.206 C48.456,37.332 47.934,37.386 47.322,37.386 L47.682,39.6 C48.33,39.42 48.654,39.348 49.518,39.204 L53.964,38.502 L54.612,42.048 C54.756,42.894 54.828,43.398 54.846,43.938 Z M70.974,43.992 L73.224,43.596 C73.062,43.128 73.062,43.128 72.882,42.138 L71.604,35.478 L75.834,34.776 C76.284,34.704 76.284,34.704 76.5,34.65 C75.762,36 74.772,37.044 73.44,37.872 C74.196,38.268 74.466,38.466 75.114,39.15 C76.842,37.818 77.868,36.468 78.66,34.47 C78.84,34.038 78.948,33.84 79.11,33.606 L77.85,32.472 C77.49,32.616 77.184,32.706 76.662,32.778 L71.28,33.678 L71.01,32.292 C70.884,31.662 70.83,31.266 70.83,30.906 L68.688,31.23 C68.85,31.626 68.886,31.806 69.03,32.58 L69.3,34.002 L67.806,34.254 C67.122,34.362 66.672,34.416 66.096,34.416 L66.474,36.468 C66.996,36.288 67.428,36.18 68.058,36.072 L69.606,35.82 L70.83,42.534 C70.938,43.128 70.974,43.524 70.974,43.992 Z M87.948,34.812 L89.496,32.85 C88.11,31.536 86.994,30.708 84.852,29.376 L83.358,31.158 C85.032,32.094 86.508,33.282 87.948,34.812 Z M83.988,43.038 C84.402,42.894 84.456,42.876 85.176,42.732 C87.966,42.138 90.198,41.256 92.034,40.032 C94.5,38.394 96.21,36.27 97.74,32.976 C96.822,32.328 96.534,32.058 95.832,31.212 C95.292,32.67 94.788,33.66 93.996,34.812 C92.574,36.864 90.9,38.25 88.65,39.222 C87.012,39.942 84.87,40.464 83.322,40.554 L83.988,43.038 Z M113.166,33.498 C114.318,33.498 115.254,32.562 115.254,31.41 C115.254,30.276 114.318,29.34 113.166,29.34 C112.032,29.34 111.096,30.276 111.096,31.41 C111.096,32.562 112.032,33.498 113.166,33.498 Z M113.166,32.598 C112.518,32.598 111.996,32.058 111.996,31.41 C111.996,30.762 112.518,30.24 113.166,30.24 C113.832,30.24 114.354,30.762 114.354,31.41 C114.354,32.058 113.832,32.598 113.166,32.598 Z M115.38,42.228 L116.514,39.762 C116.118,39.51 115.83,39.294 114.804,38.394 C112.788,36.666 111.114,35.028 108.972,32.652 C107.604,31.104 107.19,30.816 106.29,30.816 C105.858,30.816 105.444,30.924 105.066,31.158 C104.706,31.392 104.328,31.788 103.716,32.58 C101.304,35.604 100.368,36.666 99.846,36.954 L101.376,39.168 C101.628,38.844 101.7,38.754 101.988,38.412 C102.96,37.26 104.472,35.388 105.21,34.398 C105.948,33.408 106.02,33.354 106.308,33.354 C106.614,33.354 106.614,33.354 107.766,34.614 C111.096,38.232 112.014,39.15 115.38,42.228 Z M133.326,37.062 L133.326,34.56 C132.617368,34.6566316 132.268986,34.6812133 130.927074,34.6853177 L120.298926,34.6853177 C118.957014,34.6812133 118.608632,34.6566316 117.9,34.56 L117.9,37.062 C118.463478,36.9915652 118.707244,36.9762533 119.752927,36.9729246 L131.473073,36.9729246 C132.518756,36.9762533 132.762522,36.9915652 133.326,37.062 Z M140.328,34.812 L141.876,32.85 C140.49,31.536 139.374,30.708 137.232,29.376 L135.738,31.158 C137.412,32.094 138.888,33.282 140.328,34.812 Z M136.368,43.038 C136.782,42.894 136.836,42.876 137.556,42.732 C140.346,42.138 142.578,41.256 144.414,40.032 C146.88,38.394 148.59,36.27 150.12,32.976 C149.202,32.328 148.914,32.058 148.212,31.212 C147.672,32.67 147.168,33.66 146.376,34.812 C144.954,36.864 143.28,38.25 141.03,39.222 C139.392,39.942 137.25,40.464 135.702,40.554 L136.368,43.038 Z M3.204,59.508 L4.626,57.96 C3.654,56.592 3.366,56.232 1.926,54.792 L0.486,56.124 C1.566,57.132 2.25,57.978 3.204,59.508 Z M11.646,68.778 C11.574,68.346 11.556,68.058 11.538,67.464 L15.102,67.464 C15.84,67.464 16.146,67.482 16.596,67.536 L16.596,65.844 C16.2396,65.9088 15.9561,65.92986 15.364962,65.933424 L11.538,65.934 L11.538,65.124 L14.274,65.124 C14.832,65.124 15.156,65.142 15.75,65.178 C15.696,64.764 15.678,64.458 15.678,63.864 L15.678,61.146 C15.678,60.57 15.696,60.228 15.75,59.814 C15.3774,59.8464 15.09228,59.86422 14.487858,59.86746 L11.52,59.868 L11.52,59.094 L14.076,59.094 C14.706,59.094 14.976,59.112 15.39,59.166 L15.39,58.518 L16.686,58.518 C16.614,58.176 16.596,57.834 16.596,57.348 L16.596,56.268 C16.596,55.782 16.614,55.458 16.668,55.116 C16.11,55.17 15.678,55.188 14.958,55.188 L6.57,55.188 C5.796,55.188 5.346,55.17 4.824,55.116 C4.878,55.476 4.896,55.854 4.896,56.304 L4.896,57.42 C4.896,57.852 4.878,58.14 4.824,58.518 L6.03,58.518 L6.03,59.166 C6.444,59.112 6.804,59.094 7.362,59.094 L9.738,59.094 L9.738,59.868 L7.182,59.868 C6.498,59.868 6.174,59.85 5.742,59.814 C5.7825,60.111 5.792625,60.26625 5.79515625,60.6594375 L5.795568,64.237392 C5.79384,64.66536 5.7852,64.8468 5.742,65.178 C6.282,65.124 6.516,65.124 7.182,65.124 L9.756,65.124 L9.756,65.934 L6.39,65.934 C5.886,65.934 5.4,65.898 4.968,65.844 L4.968,67.554 C5.4,67.482 5.778,67.464 6.408,67.464 L9.738,67.464 C9.72,68.076 9.702,68.292 9.63,68.778 L11.646,68.778 Z M9.738,57.618 L7.272,57.618 C7.038,57.618 6.912,57.618 6.714,57.6 L6.714,56.736 L9.738,56.736 L9.738,57.618 Z M14.742,57.618 L11.52,57.618 L11.52,56.736 L14.742,56.736 L14.742,57.618 Z M9.738,61.92 L7.56,61.92 L7.56,61.128 L9.738,61.128 L9.738,61.92 Z M13.878,61.92 L11.52,61.92 L11.52,61.128 L13.878,61.128 L13.878,61.92 Z M0.882,71.01 C1.08,70.848 1.26,70.704 1.404,70.596 C2.214,70.038 2.61,69.696 3.492,68.886 C4.5,70.146 5.562,70.668 7.326,70.794 C8.064,70.848 9.594,70.902 10.674,70.902 C12.762,70.902 14.274,70.866 16.704,70.758 C16.812,70.038 16.938,69.624 17.244,68.85 C15.6176471,69.0363529 13.6564567,69.1270381 10.9702544,69.1370621 L10.458,69.138 C8.046,69.138 6.966,69.066 6.3,68.868 C5.382,68.598 4.932,68.256 4.464,67.464 L4.464,63.432 C4.464,62.46 4.482,62.028 4.536,61.47 C4.104,61.542 3.69,61.56 3.168,61.56 L1.836,61.56 C1.17,61.56 0.882,61.542 0.396,61.47 L0.396,63.414 C0.882,63.342 1.134,63.324 1.62,63.324 L2.574,63.324 L2.574,67.194 C1.494,68.112 0.666,68.67 -2.84217094e-14,68.958 L0.882,71.01 Z M9.738,63.846 L7.56,63.846 L7.56,63.09 L9.738,63.09 L9.738,63.846 Z M13.878,63.846 L11.52,63.846 L11.52,63.09 L13.878,63.09 L13.878,63.846 Z M19.872,71.226 C20.916,69.624 21.456,67.932 21.708,65.538 L25.848,65.538 L25.848,68.508 C25.848,69.57 25.812,70.092 25.74,70.632 L27.864,70.632 C27.792,70.11 27.774,69.534 27.774,68.49 L27.774,65.538 L32.094,65.538 L32.094,68.688 C32.094,69.066 31.932,69.138 31.194,69.138 C30.618,69.138 29.826,69.084 28.926,68.994 C29.214,69.75 29.34,70.182 29.43,70.866 C29.97,70.902 30.888,70.938 31.446,70.938 C33.498,70.938 34.038,70.56 34.038,69.066 L34.038,57.24 C34.038,56.268 34.056,55.818 34.11,55.206 C33.552,55.26 33.048,55.278 32.04,55.278 L21.942,55.278 C20.97,55.278 20.502,55.26 19.872,55.206 C19.9388571,55.8912857 19.9591531,56.4368878 19.9617114,57.5489847 L19.962,57.816 C19.962,59.94 19.89,62.496 19.8,64.008 C19.746,64.98 19.62,65.916 19.44,66.762 C19.188,67.914 18.774,68.868 18.126,69.804 C18.864,70.308 19.116,70.506 19.872,71.226 Z M25.848,59.526 L21.906,59.526 L21.924,59.022 L21.924,57.168 L25.848,57.168 L25.848,59.526 Z M32.094,59.526 L27.774,59.526 L27.774,57.168 L32.094,57.168 L32.094,59.526 Z M25.848,63.756 L21.834,63.756 C21.834,63.396 21.834,63.27 21.852,62.424 C21.852,62.172 21.87,61.812 21.87,61.29 L25.848,61.29 L25.848,63.756 Z M32.094,63.756 L27.774,63.756 L27.774,61.29 L32.094,61.29 L32.094,63.756 Z M44.586,71.352 C46.08,70.704 47.034,70.038 48.24,68.76 L46.926,67.626 L49.878,67.626 L48.618,68.778 C49.806,70.02 50.67,70.614 52.254,71.316 C52.56,70.65 52.866,70.146 53.334,69.588 C51.534,68.868 51.066,68.598 50.022,67.626 L50.634,67.626 C51.066,67.626 51.57,67.644 52.182,67.68 C52.146,67.032 52.128,66.6 52.128,65.826 L52.128,59.616 C52.128,58.932 52.146,58.518 52.182,58.014 C51.822,58.068 51.498,58.068 50.418,58.068 L49.23,58.068 C49.428,57.564 49.536,57.294 49.68,56.808 L50.958,56.808 C51.858,56.808 52.218,56.826 52.848,56.898 L52.848,54.99 C52.488,55.044 51.948,55.08 50.958,55.08 L46.26,55.08 C45.252,55.08 44.946,55.062 44.37,54.99 L44.37,56.142 C44.1245455,56.1583636 43.8344628,56.1747273 43.2292787,56.1775672 L41.562,56.178 L41.562,55.818 C41.562,55.242 41.58,54.99 41.652,54.666 L39.582,54.666 C39.654,55.044 39.672,55.296 39.672,55.8 L39.672,56.178 L37.98,56.178 C37.206,56.178 36.792,56.16 36.54,56.124 C36.576,56.574 36.594,57.006 36.594,57.33 L36.594,58.194 C36.594,58.59 36.576,58.914 36.522,59.346 L38.304,59.346 L38.304,57.78 L42.786,57.78 L42.786,59.04 C42.546,59.07 42.3935,59.075 42.1305833,59.0758333 L40.518,59.076 C40.68,58.788 40.68,58.788 40.788,58.572 C40.86,58.428 40.878,58.392 40.932,58.284 L39.258,57.942 C38.916,59.148 37.602,60.66 36.162,61.524 C36.612,61.956 36.828,62.298 37.116,62.928 C37.656,62.55 37.872,62.37 38.412,61.848 C38.754,62.262 38.934,62.442 39.474,62.946 C38.394,63.702 37.404,64.152 35.946,64.566 C36.36,65.034 36.612,65.502 36.846,66.222 C37.224,66.06 37.332,66.006 37.638,65.862 C37.6515,66.0645 37.654875,66.196125 37.6557187,66.3555937 L37.656,69.336 C37.656,69.984 37.62,70.56 37.566,71.01 L39.42,71.01 L39.42,70.02 L41.886,70.02 L41.886,70.866 L43.686,70.866 C43.668,70.632 43.65,70.362 43.632,70.002 C43.992,70.362 44.334,70.866 44.586,71.352 Z M43.614,69.732 L43.614,66.654 C43.614,65.97 43.614,65.97 43.65,65.412 L44.172,65.574 C44.37,64.818 44.496,64.512 44.802,63.954 C43.632,63.63 42.948,63.378 41.94,62.874 C42.588,62.172 43.146,61.416 43.794,60.354 C43.884,60.228 43.902,60.21 44.01,60.066 L44.082,59.976 L43.434,59.274 L44.478,59.274 C44.442,59.004 44.424,58.77 44.424,58.068 L44.424,56.898 L44.424,56.898 C44.82,56.844 45.522,56.808 46.26,56.808 L47.826,56.808 C47.7,57.204 47.628,57.438 47.376,58.068 L46.332,58.068 C45.414,58.068 45.18,58.068 44.82,58.032 C44.8641818,58.7536364 44.8722149,58.884843 44.8736754,59.3523426 L44.874,66.024 C44.874,66.438 44.856,67.248 44.82,67.68 C45.37125,67.6485 45.7984687,67.6307812 46.1016562,67.6268437 L46.764,67.626 C46.188,68.238 45.954,68.454 45.36,68.85 C44.73,69.282 44.37,69.462 43.614,69.732 Z M50.346,60.768 L46.638,60.768 L46.638,59.688 L50.346,59.688 L50.346,60.768 Z M40.608,62.01 C40.104,61.596 39.726,61.218 39.384,60.768 C39.474,60.678 39.492,60.66 39.546,60.57 L41.814,60.57 C41.166,61.416 40.986,61.632 40.608,62.01 Z M50.346,63.378 L46.638,63.378 L46.638,62.244 L50.346,62.244 L50.346,63.378 Z M42.444,65.232 L38.88,65.232 C39.69,64.782 40.104,64.494 40.752,63.972 C41.454,64.422 42.228,64.818 43.146,65.214 C42.93,65.232 42.822,65.232 42.444,65.232 Z M50.346,65.97 L46.638,65.97 L46.638,64.854 L50.346,64.854 L50.346,65.97 Z M41.886,68.472 L39.402,68.472 L39.402,66.726 L41.886,66.726 L41.886,68.472 Z M69.39,57.528 L70.632,56.826 C70.074,55.8 69.57,55.116 68.76,54.288 L67.554,54.918 C68.256,55.692 68.85,56.538 69.39,57.528 Z M56.574,70.56 C58.554,66.636 59.364,64.458 60.246,60.768 C60.66,60.732 60.948,60.714 61.326,60.714 C62.712,60.714 63.126,61.2 63.126,62.856 C63.126,64.386 62.946,66.024 62.658,66.96 C62.388,67.842 62.1,68.184 61.578,68.184 C60.948,68.184 59.922,67.896 58.95,67.464 C59.094,68.166 59.13,68.526 59.13,68.994 C59.13,69.174 59.112,69.444 59.094,69.786 C60.3,70.182 61.038,70.326 61.866,70.326 C62.82,70.326 63.36,70.11 63.864,69.516 C64.728,68.526 65.25,66.06 65.25,62.964 C65.25,61.326 65.016,60.462 64.404,59.778 C63.81,59.148 62.928,58.824 61.74,58.824 C61.416,58.824 61.164,58.842 60.624,58.86 C60.678,58.626 60.678,58.626 60.732,58.32 C60.912,57.348 61.038,56.61 61.128,56.088 L61.164,55.854 C61.2,55.674 61.254,55.44 61.308,55.296 L58.968,55.062 L58.968,55.386 L58.968,55.386 C58.968,55.998 58.842,57.024 58.5,59.022 C56.412,59.292 55.476,59.382 54.666,59.4 L54.882,61.524 C55.134,61.452 55.332,61.398 55.62,61.344 L57.258,61.074 C57.834,60.966 57.834,60.966 58.104,60.93 C57.258,64.278 55.872,67.518 54.486,69.408 L56.574,70.56 Z M67.23,58.662 L68.49,57.996 C67.878,56.88 67.392,56.196 66.6,55.35 L65.34,55.98 C66.132,56.844 66.636,57.564 67.23,58.662 Z M68.922,65.664 L70.974,64.638 C70.452,62.568 69.516,60.624 68.274,58.914 L66.456,59.814 C67.446,61.128 68.562,63.774 68.922,65.664 Z M76.788,71.172 C76.734,70.488 76.698,69.822 76.698,69.012 L76.698,58.788 C77.202,57.78 77.706,56.646 77.922,56.052 C78.102,55.584 78.228,55.278 78.354,55.008 L76.284,54.432 C76.176,55.08 75.978,55.692 75.546,56.682 C74.682,58.698 73.62,60.282 72.216,61.686 C72.684,62.388 72.954,62.946 73.224,63.738 C73.872,63.072 74.16,62.694 74.772,61.686 C74.736,62.406 74.736,62.82 74.736,63.702 L74.736,69.012 C74.736,69.912 74.7,70.524 74.628,71.172 L76.788,71.172 Z M85.86,70.488 C86.274,70.218 86.472,69.66 86.472,68.724 L86.472,60.318 L87.048,60.318 C87.678,60.318 88.254,60.354 88.74,60.39 L88.74,58.41 C88.272,58.482 87.786,58.518 86.994,58.518 L86.472,58.518 L86.472,56.934 C86.472,56.034 86.508,55.386 86.58,54.702 L84.402,54.702 C84.492,55.332 84.528,56.07 84.528,56.934 L84.528,58.518 L79.542,58.518 C78.714,58.518 78.066,58.482 77.508,58.41 L77.508,60.426 C78.102,60.354 78.894,60.318 79.632,60.318 L84.528,60.318 L84.528,68.454 C84.528,68.85 84.384,68.904 83.376,68.904 C82.746,68.904 82.188,68.85 81.162,68.724 C81.504,69.498 81.63,69.966 81.738,70.758 C82.512,70.812 82.998,70.83 83.646,70.83 C84.978,70.83 85.464,70.758 85.86,70.488 Z M81,66.906 L82.674,65.718 C81.828,64.08 81.144,63.036 79.902,61.524 L78.336,62.532 C79.506,63.972 80.136,64.998 81,66.906 Z M99.216,70.866 C100.89,70.866 101.592,70.614 102.15,69.804 C102.654,69.084 102.996,67.95 103.302,66.132 L104.832,66.132 C105.57,66.132 106.326,66.168 107.01,66.24 L107.01,64.188 C106.308,64.26 105.588,64.296 104.832,64.296 L103.572,64.296 C103.608,64.026 103.626,63.882 103.644,63.684 C103.842,61.434 103.878,61.074 104.004,60.354 C103.6314,60.4188 103.15674,60.43986 102.422556,60.443424 L95.382,60.444 C95.652,59.508 95.76,59.094 95.922,58.5 L103.086,58.5 C104.022,58.5 104.634,58.536 105.21,58.59 L105.21,56.52 C104.526,56.61 104.076,56.628 102.996,56.628 L96.39,56.628 C96.732,55.242 96.768,55.062 96.894,54.72 L94.644,54.468 C94.626,55.26 94.446,56.25 93.906,58.32 C93.456,60.102 93.132,61.002 92.394,62.82 L94.5,63.072 C94.644,62.676 94.68,62.586 94.788,62.28 L101.718,62.28 C101.646,63.18 101.61,63.45 101.502,64.296 L92.628,64.296 C91.71,64.296 90.972,64.26 90.324,64.188 L90.324,66.24 C91.044,66.168 91.8,66.132 92.61,66.132 L101.214,66.132 C100.944,67.338 100.728,68.058 100.494,68.454 C100.26,68.832 99.9,68.976 99.198,68.976 C98.406,68.976 97.74,68.922 95.706,68.652 C96.066,69.534 96.174,69.894 96.3,70.722 C97.812,70.83 98.424,70.866 99.216,70.866 Z M116.19,70.488 C117.99,70.488 119.664,70.2 121.896,69.516 L121.608,67.212 C120.204,67.95 118.098,68.418 116.19,68.418 C113.742,68.418 112.41,67.77 112.41,66.6 C112.41,65.322 113.85,64.584 116.298,64.584 C117.378,64.584 118.332,64.728 119.142,64.998 C119.646,65.178 119.934,65.358 120.384,65.772 L122.472,64.818 C121.842,63.972 121.05,62.802 120.564,61.974 C120.384,61.65 119.97,60.894 119.322,59.688 C120.816,59.4 121.698,59.22 121.968,59.148 C122.58,59.022 122.778,58.968 123.246,58.896 L122.994,56.754 C122.04,57.114 120.438,57.492 118.584,57.816 C118.026,56.502 117.702,55.548 117.594,54.936 L115.272,55.242 C115.362,55.386 116.136,57.294 116.442,58.086 C115.326,58.23 112.932,58.392 111.582,58.392 C110.844,58.392 110.376,58.374 109.836,58.302 L109.998,60.462 C110.268,60.426 110.34,60.426 110.79,60.408 C112.932,60.372 115.596,60.192 117.18,59.976 C118.368,62.19 118.386,62.244 119.124,63.252 C118.224,62.892 117.18,62.712 116.01,62.712 C113.958,62.712 112.464,63.126 111.42,64.008 C110.592,64.71 110.124,65.664 110.124,66.69 C110.124,67.59 110.502,68.472 111.186,69.12 C112.104,70.002 113.886,70.488 116.19,70.488 Z M131.688,70.686 C131.616,70.02 131.616,69.966 131.598,67.716 C131.586667,66.458 131.582469,65.9920741 131.580914,65.7835656 L131.580395,65.234642 C131.581778,64.8308889 131.588,64.386 131.616,63.756 C132.3,62.928 133.578,61.794 134.892,60.822 C135.774,60.192 136.548,59.85 137.124,59.85 C137.61,59.85 137.862,60.084 137.862,60.516 C137.862,60.93 137.754,61.632 137.484,62.784 C136.818,65.772 136.746,66.258 136.746,67.302 C136.746,68.4 137.034,69.066 137.682,69.57 C138.078,69.858 138.636,70.038 139.23,70.038 C140.22,70.038 141.102,69.624 141.894,68.742 C142.362,68.238 142.614,67.896 143.154,66.96 C142.56,66.132 142.344,65.754 141.948,64.8 C141.732,65.448 141.336,66.222 140.904,66.852 C140.526,67.41 140.04,67.77 139.644,67.77 C139.176,67.77 138.906,67.446 138.906,66.87 C138.906,66.294 139.05,65.538 139.662,62.82 C139.986,61.434 140.112,60.66 140.112,60.066 C140.112,58.626 139.104,57.672 137.592,57.672 C136.494,57.672 135.36,58.176 133.794,59.364 C132.498,60.336 132.12,60.66 131.598,61.236 L131.58,61.236 C131.598,61.02 131.616,60.912 131.616,60.912 L131.652,59.85 C131.76,59.706 131.796,59.67 131.868,59.562 C132.03,59.328 132.03,59.328 132.12,59.238 C132.39,58.914 132.462,58.842 132.642,58.698 L131.976,57.942 C131.85,57.978 131.778,58.014 131.76,58.014 C131.796,56.916 131.814,56.772 131.832,56.412 C131.868,56.052 131.886,55.818 131.886,55.728 C131.904,55.314 131.904,55.278 131.958,55.062 L129.672,55.026 C129.726,55.44 129.726,55.566 129.726,56.034 C129.726,56.448 129.708,57.006 129.708,57.51 C129.69,57.924 129.69,57.924 129.672,58.194 C128.826,58.248 127.836,58.302 127.494,58.302 C127.242,58.302 127.08,58.302 126.756,58.266 L126.864,60.3 C127.35,60.21 127.71,60.174 129.618,60.048 C129.618,60.534 129.6,60.57 129.6,60.984 C129.564,61.686 129.564,61.884 129.546,62.748 C129.204,63.126 129.204,63.126 127.512,64.8 C127.044,65.268 126.756,65.538 126.342,65.826 L127.386,67.968 C127.566,67.698 127.818,67.392 128.214,66.942 C129.132,65.916 129.33,65.682 129.492,65.43 L129.528,65.412 C129.492,65.898 129.492,65.898 129.492,67.824 C129.474,69.948 129.474,69.948 129.366,70.686 L131.688,70.686 Z M150.3,70.398 C151.614,70.398 152.586,70.146 153.27,69.624 C153.954,69.102 154.278,68.328 154.278,67.194 L154.278,66.996 L154.278,66.996 C154.71,67.176 154.854,67.23 155.25,67.446 C156.546,68.112 157.788,69.03 158.58,69.912 L159.804,67.806 C159.552,67.662 159.462,67.59 159.156,67.392 C157.212,66.024 155.808,65.322 154.224,64.854 C154.206,64.422 154.206,64.422 154.152,62.676 C154.854,62.64 155.124,62.622 155.376,62.604 C156.726,62.478 157.536,62.388 157.806,62.352 C158.22,62.298 158.67,62.244 158.976,62.226 L158.922,60.246 C158.112,60.462 157.824,60.498 156.69,60.642 C155.034,60.822 155.034,60.822 154.134,60.876 C154.116,59.76 154.116,59.544 154.098,59.094 C155.682,59.004 156.384,58.95 157.968,58.734 C158.994,58.59 158.994,58.59 159.39,58.572 L159.3,56.574 C158.13,56.916 156.564,57.114 154.116,57.258 C154.134,55.782 154.152,55.548 154.242,55.062 L151.956,55.062 C152.028,55.512 152.028,55.53 152.046,57.33 C151.596,57.348 150.984,57.366 150.696,57.366 C148.626,57.366 146.772,57.222 145.854,56.988 L145.836,58.986 L146.124,58.986 L146.124,58.986 C146.178,58.986 146.322,58.986 146.52,59.004 C147.726,59.094 150.048,59.184 150.93,59.184 L151.216,59.1833333 C151.424,59.182 151.68,59.178 152.064,59.166 C152.082,60.192 152.082,60.804 152.082,60.966 C151.578,60.984 150.966,61.002 150.606,61.002 C148.896,61.002 147.186,60.876 146.412,60.696 L146.376,62.64 C146.646,62.64 146.826,62.64 147.06,62.658 C148.439077,62.7576923 149.112639,62.7806982 150.071711,62.7836477 L150.318,62.784 C150.696,62.784 151.254,62.766 152.118,62.748 C152.136,63.468 152.136,63.468 152.154,63.72 L152.154,64.116 L152.154,64.116 C152.172,64.332 152.172,64.332 152.172,64.548 C151.704,64.494 151.398,64.476 150.966,64.476 C147.942,64.476 146.16,65.628 146.16,67.59 C146.16,69.372 147.672,70.398 150.3,70.398 Z M150.426,68.58 C149.148,68.58 148.374,68.166 148.374,67.5 C148.374,66.726 149.256,66.258 150.714,66.258 C151.254,66.258 151.614,66.294 152.208,66.42 L152.208,66.852 L152.208,66.852 C152.208,67.392 152.136,67.77 151.992,68.004 C151.74,68.364 151.182,68.58 150.426,68.58 Z M170.118,70.398 C172.386,70.398 174.168,69.642 175.518,68.112 C176.4,67.122 176.94,65.952 177.66,63.522 C176.778,63.126 176.454,62.928 175.482,62.136 C175.284,63.378 175.05,64.224 174.654,65.16 C173.808,67.14 172.242,68.238 170.298,68.238 C169.164,68.238 168.3,67.896 167.886,67.302 C167.544947,66.7904211 167.430066,66.1819114 167.418919,64.6653136 L167.418,64.404 C167.418,63.126 167.526,59.472 167.598,57.798 C167.67,56.412 167.706,55.89 167.814,55.368 L165.294,55.332 C165.348,55.8 165.366,56.052 165.366,56.556 C165.366,56.808 165.366,57.186 165.348,57.726 C165.24,62.244 165.204,64.044 165.204,64.98 C165.204,67.392 165.726,68.778 166.968,69.606 C167.724,70.11 168.876,70.398 170.118,70.398 Z M183.258,70.416 C184.446,67.23 184.752,66.33 185.274,64.458 C185.742,62.82 186.192,60.912 186.39,59.796 C186.984,59.778 188.424,59.598 189.342,59.418 C189.774,59.346 189.774,59.346 189.918,59.328 L189.828,57.258 C188.928,57.528 188.082,57.672 186.75,57.798 C186.822,57.384 186.84,57.276 186.93,56.772 C187.146,55.458 187.146,55.458 187.272,55.044 L184.896,54.828 C184.914,54.972 184.914,55.08 184.914,55.152 C184.914,55.656 184.734,57.042 184.572,57.906 C184.158,57.924 183.96,57.924 183.744,57.924 C182.7,57.924 181.98,57.87 181.332,57.762 L181.296,59.85 C181.458,59.832 181.548,59.832 181.638,59.832 C181.782,59.832 182.034,59.832 182.358,59.85 C182.562,59.862 182.71,59.866 182.812667,59.8673333 L183.978,59.868 C184.014,59.868 184.086,59.868 184.212,59.85 C183.618,63.054 182.232,67.248 180.99,69.534 L183.258,70.416 Z M188.586,62.784 C190.368,62.388 191.556,62.262 193.338,62.262 C194.238,62.262 194.742,62.298 195.606,62.388 L195.57,60.246 C194.814,60.234 194.49,60.23 194.214,60.2286667 L193.788,60.228 C191.844,60.228 190.98,60.318 188.424,60.804 L188.586,62.784 Z M192.042,70.074 C193.104,70.074 193.896,70.002 195.39,69.786 C195.804,69.714 195.948,69.696 196.272,69.66 L196.11,67.446 C195.066,67.824 193.338,68.112 192.024,68.112 C190.224,68.112 189.324,67.644 189.324,66.726 C189.324,66.096 189.54,65.646 190.26,64.746 L188.478,64.026 C187.488,65.376 187.146,66.186 187.146,67.14 C187.146,68.04 187.65,68.904 188.424,69.354 C189.288,69.84 190.44,70.074 192.042,70.074 Z" id="ボーナス運用はじめようキャンペーン運用額が付与されました" fill="#002970" fill-rule="nonzero"></path>
                <g id="Group-159" transform="translate(29.122000, 94.714000)">
                    <g id="Group-158" transform="translate(0.000000, 0.864299)">
                        <path d="M33.1661134,103.244585 C26.7893672,95.6444955 23.6301433,87.7982567 26.1082925,85.7180179 C28.5882925,83.6377791 35.7664119,88.1119582 42.1440836,95.7120478 C48.5208299,103.311212 51.6809791,111.158376 49.2019045,113.238615 C46.7228299,115.318854 39.5428597,110.844675 33.1661134,103.244585 Z" id="Fill-2" fill="#966464"></path>
                        <path d="M38.269598,75.971697 C39.8172557,72.0659497 44.3035162,71.1652207 46.5695206,62.1094001 C49.2891153,51.2424154 44.5390716,39.6261174 47.7881794,29.3677071 C51.2777094,18.3502774 59.2447396,6.80774595 71.0380858,0.771502847 L69.6831553,10.8833505 C62.985399,14.1805234 57.3602961,20.0478798 53.6653851,26.8965261 C46.9802826,37.6159776 53.1261383,44.9906962 49.0652403,62.2462566 C47.0503652,70.8119175 41.6480911,72.9577579 40.1929036,76.8994178 C37.2747415,84.7662373 38.4905529,89.5670752 32.0380858,94.7715028 C37.187211,88.0859196 36.3316191,80.8626166 38.269598,75.971697 Z" id="Fill-4" fill="#FD8D8D" transform="translate(51.538086, 47.771503) rotate(1.000000) translate(-51.538086, -47.771503) "></path>
                        <path d="M57.5936846,98.8872239 C62.2078332,98.1987463 67.3728848,98.9510746 73.1022761,98.6216418 C78.2637446,98.3236716 84.6354081,94.3177313 89.9384094,95.6002985 C101.570077,98.4347164 110.268074,100.810149 122.091438,98.4439701 C125.258906,97.8100896 131.205076,95.1764776 132.959007,92.1357015 L143.376221,93.7523052 C137.736407,102.458216 121.931094,104.819791 113.802811,104.906776 C105.427294,104.856806 97.2013713,102.801552 89.1250437,100.647284 C84.1337729,99.408209 78.4339422,101.58191 73.5179167,101.827134 C64.9014354,102.256507 61.625,99.1969808 55.2467482,100.934149 C49.1260211,102.601179 47.375,103.821981 42,107.009481 C47.1875,102.696981 50.9317892,99.8810746 57.5936846,98.8872239 Z" id="Fill-6" fill="#CE90E3"></path>
                        <path d="M63.799273,88.1394922 C70.2020155,86.9428514 69.0907638,80.1081915 87.6863533,78.5117116 C90.674171,78.2556995 93.9422173,77.5010871 96.8073141,76.687985 C112.238252,72.7164416 117.637442,60.9490045 138,59.1357015 L132.750026,67.7534506 C124.557685,67.9749442 118.202292,73.6484407 110.707624,77.0983714 C105.12914,79.7994428 99.1167851,81.3834577 93.0029681,82.1486174 C90.4441902,82.3998353 84.5748485,81.9769839 82.0093065,81.9626012 C75.8838938,81.487972 71.9732541,90.3860702 66.1338679,90.456066 C53.3709004,90.6104403 49.5578576,97.7931616 39,101.135701 C48.1567141,97.0979977 53.0597499,90.1473173 63.799273,88.1394922 Z" id="Fill-8" fill="#00B9F5" transform="translate(88.500000, 80.135701) rotate(-1.000000) translate(-88.500000, -80.135701) "></path>
                        <path d="M62.0737057,81.0323635 C77.0628482,72.4058524 81.2902387,71.2906342 89.1549121,60.3861661 C99.5095515,46.0268471 122.818799,48.5697064 134,34.0819806 L123.409934,31.1357015 C114.590191,41.8864858 96.9897718,43.2018973 87.4791713,53.9729032 C83.9930134,57.308447 82.060257,62.5023508 79.3667349,66.4789176 C74.4680199,75.9840548 64.4968476,75.1428385 59.0820456,79.5592239 C51.9318752,85.3911174 49.3112793,91.5094808 38.0612793,98.5094808 C49.5612793,93.7594808 52.4356255,86.5791332 62.0737057,81.0323635 Z" id="Fill-10" fill="#93C664"></path>
                        <path d="M35.9116201,96.8153481 C37.8633214,94.0308622 37.7888324,93.3445576 40.3447137,89.3618448 C42.9005951,85.3791319 47.3868884,83.537852 48.3946198,81.4076431 C56.3047093,64.6907774 44.3380984,50.3751198 77.5256805,36.8600451 C85.4089342,34.0413586 92.3695909,27.4730601 94.0398894,13.1436571 L98.882367,22.4251496 C93.3273521,46.5524033 69.8015909,38.1167019 58.473173,55.6441944 C51.3672327,66.6385526 54.8429342,73.2605228 50.6250835,82.1052392 C49.5646059,84.3307616 43.2133361,87.6294135 41.1636346,89.7226076" id="Fill-12" fill="#FFC800" transform="translate(67.396994, 54.979503) rotate(1.000000) translate(-67.396994, -54.979503) "></path>
                        <g id="Group-3" transform="translate(31.350412, 6.135701)" fill="#FFD0CC">
                            <polygon id="Fill-14" points="9.83572537 24.400003 8.16450149 29.3516746 12.5183821 27.2649582 14.4912776 23.0906"></polygon>
                            <polygon id="Fill-16" points="32.0153463 37.3773433 30.3450478 42.3290149 34.698003 40.2422985 36.6718239 36.0688657"></polygon>
                            <polygon id="Fill-18" points="87.4627791 95.9551284 85.7924806 100.9068 90.1454358 98.8200836 92.1192567 94.6466507"></polygon>
                            <polygon id="Fill-20" points="33.5349015 99.6719821 31.864603 104.623654 36.2175582 102.536937 38.1913791 98.3625791"></polygon>
                            <polygon id="Fill-22" points="25.9331463 68.4496149 22.2066687 69.8941224 23.1015045 73.3226299 26.8390866 72.278809"></polygon>
                            <polygon id="Fill-24" points="79.5925731 23.9572119 75.8660955 25.4017194 76.760006 28.8302269 80.4985134 27.786406"></polygon>
                            <polygon id="Fill-26" points="45.6086149 51.7093373 44.696197 56.0317552 49.6330627 56.0317552 50.3779881 51.7093373"></polygon>
                            <polygon id="Fill-28" points="2.39451343 35 1.64958806 39.1734328 4.92818507 41.5581194 5.8230209 37.0867164"></polygon>
                            <polygon id="Fill-30" points="6.49984776 69.3777642 5.93907164 72.3833761 8.40611642 74.1008687 9.07886269 70.8805701"></polygon>
                            <polygon id="Fill-32" points="20.605403 45.7820448 19.8604776 49.9554776 23.1390746 52.3401642 24.0339104 47.8687612"></polygon>
                            <polygon id="Fill-34" points="45.4233552 89.6040149 44.6775045 93.7774478 47.9570269 96.1621343 48.8509373 91.6907313"></polygon>
                            <polygon id="Fill-36" points="59.3021015 72.9165761 58.5562507 77.0909343 61.8357731 79.4756209 62.730609 75.0032925"></polygon>
                            <polygon id="Fill-38" points="30.5540896 51.5602597 27.5725373 53.6469761 28.7653433 57.969394 32.3428358 54.8388567"></polygon>
                            <polygon id="Fill-40" points="39.7951433 64.8258537 35.9196806 64.9748388 37.8574119 67.956391 41.284994 68.5523313"></polygon>
                            <polygon id="Fill-42" points="51.1228209 62.5901522 50.0799254 66.4646896 54.5513284 66.9125701 55.7441343 62.2921821"></polygon>
                            <polygon id="Fill-44" points="60.3648 42.6168985 59.6189493 46.9393164 65.1341731 47.2382119 64.9851881 41.8719731"></polygon>
                            <polygon id="Fill-46" points="42.9038418 73.7632925 42.157991 78.0857104 47.6732149 78.3836806 47.5242299 73.0174418"></polygon>
                            <polygon id="Fill-48" points="97.9047821 61.0195164 97.1589313 65.3419343 102.674155 65.6399045 102.52517 60.2736657"></polygon>
                            <polygon id="Fill-50" points="12.5183821 41.5736328 9.23978507 44.8531552 11.3255761 48.5796328 14.4561134 44.5551851"></polygon>
                            <polygon id="Fill-52" points="21.9089761 35.6115463 18.0335134 36.9126209 19.2263194 39.4157552 23.6977224 38.1146806"></polygon>
                            <polygon id="Fill-54" points="35.770603 28.009791 32.7899761 29.9475224 30.4052896 32.6311045 34.577797 31.1403284"></polygon>
                            <polygon id="Fill-56" points="22.505009 15.3405075 20.8661731 18.4701194 24.4427403 16.9793433 25.7845313 14.1477015"></polygon>
                            <polygon id="Fill-58" points="37.2612866 15.6382925 33.2368388 16.9800836 32.4919134 21.0045313 37.2612866 19.5137552"></polygon>
                            <polygon id="Fill-60" points="63.9416448 56.627603 60.2160925 58.4172746 59.7682119 62.2918119 64.0906299 59.0132149"></polygon>
                            <polygon id="Fill-62" points="56.8630955 28.0775284 53.1375433 29.8662746 52.6896627 33.7417373 57.0120806 30.4622149"></polygon>
                            <polygon id="Fill-64" points="15.0992478 8.49330149 11.3727701 10.2820478 10.9258149 14.1575104 15.2482328 10.8779881"></polygon>
                            <polygon id="Fill-64-Copy" points="99.8230209 40 96.0965433 41.7887463 95.6495881 45.664209 99.972006 42.3846866"></polygon>
                            <polygon id="Fill-66" points="107.660991 76.909006 103.935439 78.6977522 103.487558 82.5722896 107.809976 79.2936925"></polygon>
                            <polygon id="Fill-68" points="76.9095463 41.7227104 74.2268896 46.6410687 78.5483821 46.7909791 81.2319642 41.7227104"></polygon>
                            <polygon id="Fill-70" points="34.2804746 85.8428358 38.7518776 85.3958806 40.5406239 87.7805672 35.9193104 87.1837015"></polygon>
                            <polygon id="Fill-72" points="49.0362896 82.1160806 45.6087075 84.9486478 49.1852746 85.6935731 52.464797 82.7129463"></polygon>
                            <polygon id="Fill-74" points="62.600594 80.9241075 59.4700567 84.6496597 63.6434896 84.3516896 65.4331612 80.9241075"></polygon>
                            <polygon id="Fill-76" points="69.0094507 86.1401582 66.326794 88.8228149 70.9471821 90.0156209 73.4808537 87.034994"></polygon>
                            <polygon id="Fill-78" points="68.8476955 64.6189403 66.1650388 67.301597 70.7854269 68.494403 73.3190985 65.5137761"></polygon>
                            <polygon id="Fill-80" points="70.6496746 78.2410806 70.3517045 82.1156179 75.1210776 79.4329612 74.9720925 75.5584239"></polygon>
                            <polygon id="Fill-82" points="77.5059493 81.2214299 80.6355612 83.7551015 85.1078896 84.2029821 80.902994 81.4018776"></polygon>
                            <polygon id="Fill-84" points="88.9827045 86.8857313 88.6847343 89.7182985 93.1561373 89.2704179 94.0509731 85.5448657"></polygon>
                            <polygon id="Fill-86" points="23.9956 88.9723552 23.6976299 91.8049224 28.1690328 91.3570418 29.0638687 87.6314896"></polygon>
                            <polygon id="Fill-88" points="85.2568746 71.2357284 83.9150836 75.1102657 89.4303075 73.6204149 90.6221881 69.4460567"></polygon>
                            <polygon id="Fill-90" points="15.3802836 77.9727224 14.3068507 81.0736478 18.7190299 79.8808418 19.6730896 76.5411701"></polygon>
                            <polygon id="Fill-92" points="85.2160338 58.7414767 84.0158269 63.5315522 88.9490912 61.690425 90.0158269 56.5315522"></polygon>
                            <polygon id="Fill-94" points="95.0943313 76.7500269 93.7525403 80.6254896 98.0749582 77.3468925 99.1187791 73.4714299"></polygon>
                            <polygon id="Fill-96" points="66.0282687 28.1588687 64.5384179 33.5251075 67.8179403 32.1833164 69.158806 27.1159731"></polygon>
                            <polygon id="Fill-98" points="63.3452418 96.3509104 61.855391 101.717149 65.1349134 100.375358 66.4757791 95.3070896"></polygon>
                            <polygon id="Fill-100" points="44.564794 43.0642239 48.8872119 43.0642239 51.7188537 45.4489104 46.5025254 44.8529701"></polygon>
                            <polygon id="Fill-102" points="49.6326925 99.8536328 53.9551104 99.8536328 56.7867522 102.238319 51.5704239 101.642379"></polygon>
                            <polygon id="Fill-104" points="1.9913791 61 0.64958806 64.5774925 2.28934925 68.4529552 3.18418507 64.8754627"></polygon>
                            <polygon id="Fill-106" points="11.9223493 56.627603 9.83563284 60.3540806 10.8794537 63.4846179 12.5182896 59.6091552"></polygon>
                            <polygon id="Fill-108" points="21.4616507 60.8017761 19.6729045 65.5711493 22.3555612 63.0374776 23.6973522 57.8202239"></polygon>
                            <polygon id="Fill-110" points="69.7550239 53.4981761 69.7550239 55.8828627 75.8661881 57.2237284 74.0774418 54.3920866"></polygon>
                            <polygon id="Fill-112" points="20.7911254 97.0964836 20.7911254 99.4811701 26.9022896 100.822036 25.1135433 97.990394"></polygon>
                            <polygon id="Fill-114" points="0.967041791 52.1566627 0.967041791 53.7779164 5.12289254 54.6903343 3.90602687 52.7646328"></polygon>
                            <polygon id="Fill-116" points="55.9675194 36.729397 55.9675194 38.3506507 60.1224448 39.2630687 58.9074299 37.3373672"></polygon>
                            <polygon id="Fill-118" points="54.5514209 86.8857313 56.3401672 89.1214328 60.5136 90.4632239 57.6819582 88.0785373"></polygon>
                            <polygon id="Fill-118-Copy" points="95.6495881 52 97.4383343 54.2357015 101.611767 55.5774925 98.7801254 53.192806"></polygon>
                            <polygon id="Fill-120" points="22.9523343 25.4758418 20.7166328 28.1584985 25.7849015 27.4135731 27.7217075 24.5819313"></polygon>
                            <polygon id="Fill-122" points="85.554197 49.3990507 83.3184955 52.0817075 88.3867642 51.3367821 90.3235701 48.5051403"></polygon>
                            <polygon id="Fill-124" points="41.1371194 22.9418925 41.4341642 26.3704 44.4157164 29.0530567 43.3728209 24.8796239"></polygon>
                            <polygon id="Fill-126" points="25.6740358 0 21.6495881 0.744925373 21.9475582 3.87546269 28.0587224 3.12961194"></polygon>
                            <polygon id="Fill-128" points="37.1121164 48.5794478 37.4100866 51.1131194 39.9446836 52.1569403 38.9008627 49.1753881"></polygon>
                            <polygon id="Fill-130" points="73.1212537 97.8076328 73.4192239 100.341304 75.9538209 101.385125 74.91 98.4044985"></polygon>
                            <polygon id="Fill-132" points="77.804197 87.4821343 77.6552119 89.1209701 80.933809 91.0587015 79.5929433 88.3769701"></polygon>
                            <polygon id="Fill-134" points="10.2826806 33.6740925 13.2642328 33.0772269 15.9468896 33.6740925 12.2204119 34.568003"></polygon>
                            <polygon id="Fill-136" points="36.6652537 58.4169045 41.5836119 59.3108149 43.2233731 60.801591 38.3040896 59.9067552"></polygon>
                            <polygon id="Fill-138" points="32.9389612 68.8508567 32.492006 71.9804687 34.1317672 74.2161701 33.6838866 71.2355433"></polygon>
                            <polygon id="Fill-140" points="43.521991 9.82537612 42.1802 12.8069284 46.651603 14.147794 47.844409 11.0181821"></polygon>
                            <polygon id="Fill-142" points="42.678791 101.642009 42.0310299 103.08189 44.1899254 103.728725 44.7655075 102.217591"></polygon>
                        </g>
                        <path d="M33.166391,103.24477 C27.2421522,96.1841731 24.1023612,88.9181433 25.6727194,86.2530687 L9.25373135e-05,131.074442 L48.5988388,113.57471 C45.7024209,114.660173 39.0906299,110.305367 33.166391,103.24477" id="Fill-148" fill="#FD5C5C"></path>
                        <path d="M42.6239821,115.726481 C31.8748478,112.763436 24.5782806,109.679167 16.2832358,102.645406 L13.4793552,107.539704 C20.1633254,113.053078 26.3938627,116.290033 33.9032657,118.867197 L42.6239821,115.726481 Z" id="Fill-150" fill="#F5A500"></path>
                        <path d="M26.1434567,121.660991 C20.5588299,119.710304 15.9384418,117.191439 10.4722627,112.79129 L7.67763582,117.669857 C11.4041134,120.60329 14.8168896,122.754782 18.3629194,124.462096 L26.1434567,121.660991 Z" id="Fill-152" fill="#F5A500"></path>
                        <path d="M12.588591,126.541779 C10.1400537,125.307331 7.74888955,123.82951 5.22354627,121.95563 L2.44650149,126.80366 C3.54677015,127.604107 4.62945672,128.343481 5.70103881,129.021779 L12.588591,126.541779 Z" id="Fill-154" fill="#F5A500"></path>
                        <path d="M33.166391,103.24477 C31.3184209,101.042382 29.7425104,98.8214866 28.4951075,96.724591 C26.4676149,95.484591 24.4142119,94.0234269 22.229406,92.2642925 L19.4357045,97.1419343 C25.1554358,101.647576 30.135794,104.300621 35.9952567,106.354949 C35.0467493,105.38886 34.0982418,104.355218 33.166391,103.24477" id="Fill-156" fill="#F5A500"></path>
                    </g>
                </g>
            </g>
        </g>
    </g>
</svg>