<?xml version="1.0" encoding="UTF-8"?>
<svg width="343px" height="168px" viewBox="0 0 343 168" version="1.1" xmlns="http://www.w3.org/2000/svg" xmlns:xlink="http://www.w3.org/1999/xlink">
    <!-- Generator: Sketch 62 (91390) - https://sketch.com -->
    <title>Image</title>
    <desc>Created with Sketch.</desc>
    <defs>
        <rect id="path-1" x="0" y="0" width="343" height="168" rx="12"></rect>
        <polygon id="path-3" points="0.566104816 0.0312727273 96.5949644 0.0312727273 96.5949644 100 0.566104816 100"></polygon>
    </defs>
    <g id="Phase.1" stroke="none" stroke-width="1" fill="none" fill-rule="evenodd">
        <g id="A_1-サービス紹介" transform="translate(-16.000000, -358.000000)">
            <g id="Image" transform="translate(16.000000, 358.000000)">
                <g id="Group-20">
                    <mask id="mask-2" fill="white">
                        <use xlink:href="#path-1"></use>
                    </mask>
                    <use id="Mask" fill="#F4FCFF" xlink:href="#path-1"></use>
                    <g mask="url(#mask-2)">
                        <g transform="translate(122.000000, 35.000000)">
                            <path d="M82.8106017,107.008847 C82.5489781,126.157033 86.452569,149 86.452569,149 L96.7169961,149 C96.7169961,149 99.6037549,104.959661 96.7169961,95.6881076 C93.8302372,86.416554 81,86.416554 81,98.0061491 C81,100.22559 82.4866868,103.220977 82.8106017,107.008847 Z" id="Fill-1" fill="#FFE0E2"></path>
                            <path d="M40.3331556,6 C40.3331556,6 62.2949567,9.80195787 70.31142,8.99990602 C72.6891489,20.1046086 68.779911,36.2422712 60.5788803,42.442365 L60.3225688,50.3409224 L76,58 C76,58 63.9998778,68.9432433 48.9998778,67.9452425 C33.9998778,66.9472416 32,57 32,57 L32,57 L46.9999593,49.9806179 L46.9990249,44.8140502 C45.6207239,44.5709795 44.3726786,44.0761269 43.3476563,43.0942383 C37.2839039,37.2856534 36.0707703,23.0629318 40.3331556,6 Z" id="Combined-Shape" fill="#FFE0E2"></path>
                            <g id="Group-9" stroke-width="1" fill="none" transform="translate(8.000000, 51.000000)">
                                <mask id="mask-4" fill="white">
                                    <use xlink:href="#path-3"></use>
                                </mask>
                                <g id="Clip-8"></g>
                                <path d="M43.2358706,3.99430303 C50.5122686,4.14314708 58.7236328,0.364257812 58.7236328,0.364257812 C58.7236328,0.364257812 70.6639997,5.05478788 78.140625,10 C85.6172503,14.9452121 89.0221,35.0545455 92,42 C88.9570312,49.3911133 76.2492144,49.6391515 72.2794894,48.6470303 C71.4472656,45.5512695 72.2794894,58.8300781 72.2794894,58.8300781 C72.8366331,79.3343205 72.3789144,74.9688485 72.2794894,97.2627879 C72.2794894,97.2627879 35.2636831,104.625818 16.9034019,95.1997576 C17.1216519,75.9761212 18.6518269,45.6106667 18.6518269,45.6106667 C18.6518269,45.6106667 -2.52266687,44.4500606 0.951145625,34.0324848 C3.35128938,26.8330909 14.2759144,9.50061435 16.9034019,7.81152344 C19.5314956,6.12303859 34.2749023,4.90274488e-13 34.2749023,4.90274488e-13 C34.2749023,4.90274488e-13 35.9594727,3.84545898 43.2358706,3.99430303 Z" id="Fill-7" fill="#00B9F5" mask="url(#mask-4)"></path>
                            </g>
                            <path d="M0.0819713862,59.0603168 C-0.211532155,58.1033431 0.307949055,57.0835274 1.24395124,56.7809298 L10.1434015,53.9062746 C11.0907694,53.5995786 12.1009832,54.1439812 12.3884696,55.1159823 L18.9332837,75.3190246 C19.2094044,76.252091 18.7166661,77.2425349 17.8154297,77.5649414 L8.69787145,80.8972132 C7.74582352,81.2373794 6.70819825,80.7045889 6.4073404,79.7216588 L0.0819713862,59.0603168 Z" id="Fill-10" fill="#505050"></path>
                            <path d="M21.6010529,106.868261 C18.0251423,113.09302 15.0486236,113.272377 10.1506843,112.871854 C5.09643413,112.459213 2.80407587,102.598851 4.19403975,99.8642713 C7.37556609,93.6031564 6.38840315,88.9580672 6.38840315,88.9580672 C5.81690645,84.7487564 2.39941406,79.722168 2.39941406,76.8515625 C2.39941406,75.8786169 3.84901468,75.0854828 4.92569462,74.5428998 C10.1266365,71.9222357 10.1506843,71.184082 14.4528389,75.3821182 C14.8897392,75.8084449 14.3055461,76.6473082 13.9231858,78.317262 C15.2590421,77.7997945 15.1147551,82.3861081 14.4528389,84.3875078 C14.1077528,85.4315319 14.9247774,89.4428143 15.1147551,89.857879 C17.4984951,89.6391369 24.4831839,90.7055805 26,94.2000013 C25.1330762,96.8206654 25.1763622,100.643502 21.6010529,106.868261 Z" id="Fill-12" fill="#FFE0E2"></path>
                            <path d="M46.4838867,46.9589844 C47.5554215,49.6127297 49.0607926,52.2930682 51,55 L43.5170898,62.7319336 C41.6219076,57.5773112 40.6743164,53.6666667 40.6743164,51 C42.6635742,49.5136719 44.5385742,48.0327148 46.4838867,46.9589844 Z" id="Fill-14" fill="#84E1FF"></path>
                            <path d="M61.1557617,46.9589844 C63.9379883,48.5375977 65.1918945,49.2949446 67.1508789,51.0312727 C66.2588283,54.6891938 62.875202,59.0121029 57,64 L51,55 C55.4570312,52.9108073 58.8422852,50.2304687 61.1557617,46.9589844 Z" id="Fill-16" fill="#84E1FF"></path>
                            <path d="M60.1936035,15.4099121 C61.8701172,16.6053467 63.1950073,18.0351563 64.3139648,20.6992188 C65.4329224,23.3632813 64.8103027,25.694397 65.5373535,26.9382324 C66.3999023,24.1726074 71.0859375,23.4396973 67.7609863,32.6848145 C73.0976563,27.916748 73.9082031,16.8989258 71.0957031,11.7387695 C69.1491699,4.45385742 60.3651217,-2.29866833 47.765625,2.25830078 C45.2772058,3.15819645 42.8212277,5.01695168 41.3320312,4.77050781 C39.8689682,4.52838872 39.3515407,2.20400663 39.2670898,0.525878906 C36.8910293,4.51123938 31.293457,12.7104492 37.9902344,20.6992188 C45.7647028,20.8331219 54.34375,17.185791 60.1936035,15.4099121 Z" id="Fill-18" fill="#03286F"></path>
                        </g>
                    </g>
                </g>
                <g id="Icon_Challenge" transform="translate(28.000000, 32.000000)">
                    <g id="Icon" stroke-width="1" fill-rule="evenodd" fill="#FD8D8D">
                        <circle id="Oval" cx="32" cy="32" r="32"></circle>
                    </g>
                    <path d="M50.9073036,16.6564572 L50.9682666,16.8153494 L53.5841308,24.8153494 C53.8702054,25.6902407 53.3928752,26.6313895 52.5179839,26.9174642 C51.6977733,27.1856591 50.8193286,26.7828928 50.4770087,26.0106111 L50.4158692,25.8513172 L49.0635931,21.7162234 L42.0812893,39.2139933 C41.5782689,40.4744683 39.8848307,40.620685 39.1552802,39.5348303 L39.0619729,39.3791114 L33.268,28.492 L27.1440106,43.5615622 C26.6229806,44.8435097 24.8823547,44.9524924 24.1846492,43.8153689 L24.0997445,43.6599756 L18.1773333,31.4226667 L12.1832469,44.5773823 C11.8253646,45.3626174 10.9342347,45.7364802 10.1340934,45.4656007 L9.97546326,45.4027591 C9.19022813,45.0448768 8.81636537,44.1537469 9.08724483,43.3536056 L9.15008643,43.1949755 L16.6167531,26.812245 C17.1766044,25.5838664 18.8632068,25.5113104 19.54679,26.6191107 L19.6335888,26.777493 L25.4666667,38.832 L31.522656,23.9354163 C32.0318703,22.6825405 33.7181709,22.5423465 34.4450541,23.6248859 L34.5380271,23.7800942 L40.316,34.6413333 L46.1025931,20.1442234 L41.8454194,21.5187381 C41.0242166,21.7838793 40.1472765,21.3778472 39.8078326,20.6042972 L39.7472862,20.444777 C39.4821449,19.6235742 39.888177,18.7466341 40.661727,18.4071901 L40.8212473,18.3466437 L48.8720497,15.7472862 C49.6910927,15.4828422 50.5660367,15.8860331 50.9073036,16.6564572 Z" id="Combined-Shape" fill="#FFFFFF" fill-rule="nonzero"></path>
                </g>
                <g id="Icon_Standard" transform="translate(251.000000, 32.000000)">
                    <g>
                        <g id="Icon" fill="#FFC800">
                            <circle id="Oval" cx="32" cy="32" r="32"></circle>
                        </g>
                        <path d="M42.4979706,22.8411835 L42.6683261,22.8507543 L51.080354,23.7506794 C51.9361461,23.8422327 52.5714547,24.5664376 52.5698578,25.4090608 L52.5609229,25.5790119 L51.6967407,33.9513435 C51.6022325,34.8669535 50.7833699,35.532588 49.8677599,35.4380798 C49.0093756,35.3494784 48.3706962,34.6242373 48.3720867,33.7794889 L48.3810236,33.609099 L48.8168861,29.3751594 L41.6017693,35.4020174 C41.094259,35.825926 40.3895648,35.9064356 39.8047711,35.6219171 L39.6484929,35.5352547 L33.196,31.4933333 L26.6569046,36.8574859 C26.1305201,37.2891932 25.4005183,37.3538955 24.8114235,37.0371686 L24.6545137,36.9413207 L18.16,32.468 L11.6505561,37.2314444 C10.9571177,37.7386057 10.0024954,37.6314763 9.43650054,37.0108764 L9.32140112,36.8700683 C8.81423981,36.1766299 8.92136926,35.2220076 9.54196908,34.6560127 L9.68277725,34.5409133 L17.1494439,29.0800032 C17.6693902,28.699729 18.3562475,28.6561211 18.9152495,28.9533445 L19.0788196,29.0527406 L25.512,33.484 L32.009762,28.1564121 C32.5129594,27.7437215 33.2046405,27.6650567 33.7820238,27.9397056 L33.9515071,28.032719 L40.392,32.0666667 L46.8748861,26.6531594 L42.3137468,26.1651751 C41.4556981,26.0733804 40.8197216,25.3457679 40.8242553,24.5010306 L40.8338261,24.3306751 C40.9256208,23.4726263 41.6532332,22.8366499 42.4979706,22.8411835 Z" id="Combined-Shape" fill="#FFFFFF" fill-rule="nonzero"></path>
                    </g>
                </g>
                <path d="M29.5004883,117.193359 C30.1391602,117.193359 30.8129883,117.026367 31.5219727,116.692383 L31.5219727,116.692383 L31.5219727,113.932617 C30.9594727,114.37207 30.4467773,114.591797 29.9838867,114.591797 C29.3510742,114.591797 28.8427734,114.265137 28.4589844,113.611816 C28.0751953,112.958496 27.8833008,112.089844 27.8833008,111.005859 C27.8833008,109.740234 28.0751953,108.773438 28.4589844,108.105469 C28.8427734,107.4375 29.3657227,107.103516 30.027832,107.103516 C30.5610352,107.103516 31.059082,107.332031 31.5219727,107.789062 L31.5219727,107.789062 L31.5219727,104.985352 C30.8540039,104.686523 30.2299805,104.537109 29.6499023,104.537109 C28.706543,104.537109 27.8686523,104.831543 27.1362305,105.42041 C26.4038086,106.009277 25.8632812,106.795898 25.5146484,107.780273 C25.1660156,108.764648 24.9916992,109.807617 24.9916992,110.90918 C24.9916992,112.696289 25.3989258,114.19043 26.2133789,115.391602 C27.027832,116.592773 28.1235352,117.193359 29.5004883,117.193359 Z M35.8286133,117 L35.8286133,112.289062 C35.8286133,111.796875 35.8930664,111.427734 36.0219727,111.181641 C36.1508789,110.935547 36.3413086,110.8125 36.5932617,110.8125 C36.9624023,110.8125 37.1469727,111.038086 37.1469727,111.489258 L37.1469727,111.489258 L37.1469727,117 L39.9418945,117 L39.9418945,111.058594 C39.9418945,110.320312 39.7294922,109.697754 39.3046875,109.190918 C38.8798828,108.684082 38.3364258,108.430664 37.6743164,108.430664 C37.3286133,108.430664 37.0019531,108.506836 36.6943359,108.65918 C36.3867188,108.811523 36.0981445,109.042969 35.8286133,109.353516 L35.8286133,109.353516 L35.8286133,104.739258 L33.0512695,104.739258 L33.0512695,117 L35.8286133,117 Z M43.7563477,117.193359 C44.090332,117.193359 44.4082031,117.109863 44.7099609,116.942871 C45.0117188,116.775879 45.300293,116.52832 45.5756836,116.200195 C45.6401367,116.499023 45.7250977,116.765625 45.8305664,117 L45.8305664,117 L48.6254883,117 C48.2915039,116.191406 48.1245117,115.379883 48.1245117,114.56543 L48.1245117,114.56543 L48.1245117,111.75293 C48.1245117,110.979492 47.9633789,110.34375 47.6411133,109.845703 C47.3188477,109.347656 46.921875,108.987305 46.4501953,108.764648 C45.9785156,108.541992 45.4262695,108.430664 44.793457,108.430664 C43.9379883,108.430664 43.0327148,108.65625 42.0776367,109.107422 L42.0776367,109.107422 L42.0776367,111.331055 C42.7573242,110.803711 43.4194336,110.540039 44.0639648,110.540039 C44.503418,110.540039 44.8491211,110.616211 45.1010742,110.768555 C45.3530273,110.920898 45.5112305,111.149414 45.5756836,111.454102 C42.6870117,111.823242 41.2426758,112.845703 41.2426758,114.521484 C41.2426758,115.265625 41.4990234,115.896973 42.0117188,116.415527 C42.5244141,116.934082 43.105957,117.193359 43.7563477,117.193359 Z M44.7055664,115.180664 C44.465332,115.180664 44.2573242,115.081055 44.081543,114.881836 C43.9057617,114.682617 43.8178711,114.439453 43.8178711,114.152344 C43.8178711,113.384766 44.4038086,112.948242 45.5756836,112.842773 L45.5756836,112.842773 L45.5756836,113.915039 C45.5756836,114.27832 45.5009766,114.580078 45.3515625,114.820312 C45.2021484,115.060547 44.9868164,115.180664 44.7055664,115.180664 Z M52.5805664,117 L52.5805664,104.739258 L49.7856445,104.739258 L49.7856445,117 L52.5805664,117 Z M57.2651367,117 L57.2651367,104.739258 L54.4702148,104.739258 L54.4702148,117 L57.2651367,117 Z M62.784668,117.193359 C63.7104492,117.193359 64.7094727,116.891602 65.7817383,116.288086 L65.7817383,116.288086 L65.7817383,113.686523 C65.2602539,114.125977 64.8413086,114.430664 64.5249023,114.600586 C64.2084961,114.770508 63.8598633,114.855469 63.4790039,114.855469 C62.9868164,114.855469 62.5854492,114.714844 62.2749023,114.433594 C61.9643555,114.152344 61.7446289,113.730469 61.6157227,113.167969 L61.6157227,113.167969 L66.1157227,113.167969 L66.1157227,112.473633 C66.1157227,111.243164 65.7993164,110.261719 65.1665039,109.529297 C64.5336914,108.796875 63.6899414,108.430664 62.6352539,108.430664 C61.4458008,108.430664 60.4951172,108.858398 59.7832031,109.713867 C59.0712891,110.569336 58.715332,111.612305 58.715332,112.842773 C58.715332,114.114258 59.0917969,115.157227 59.8447266,115.97168 C60.5976562,116.786133 61.5776367,117.193359 62.784668,117.193359 Z M63.6723633,111.682617 L61.4838867,111.682617 C61.5131836,111.125977 61.6230469,110.709961 61.8134766,110.43457 C62.0039062,110.15918 62.2749023,110.021484 62.6264648,110.021484 C62.925293,110.021484 63.1743164,110.15625 63.3735352,110.425781 C63.5727539,110.695312 63.6723633,111.020508 63.6723633,111.401367 L63.6723633,111.401367 L63.6723633,111.682617 Z M70.3081055,117 L70.3081055,112.297852 C70.3081055,111.834961 70.3813477,111.474609 70.527832,111.216797 C70.6743164,110.958984 70.8706055,110.830078 71.1166992,110.830078 C71.4682617,110.830078 71.644043,111.067383 71.644043,111.541992 L71.644043,111.541992 L71.644043,117 L74.4301758,117 L74.4301758,110.961914 C74.4301758,110.241211 74.2089844,109.63916 73.7666016,109.155762 C73.3242188,108.672363 72.7719727,108.430664 72.1098633,108.430664 C71.7231445,108.430664 71.3730469,108.518555 71.0595703,108.694336 C70.7460938,108.870117 70.4663086,109.136719 70.2202148,109.494141 L70.2202148,109.494141 L69.9477539,108.624023 L67.5483398,108.624023 L67.5483398,117 L70.3081055,117 Z M79.1850586,121.095703 C80.456543,121.095703 81.4379883,120.669434 82.1293945,119.816895 C82.8208008,118.964355 83.1665039,117.914062 83.1665039,116.666016 L83.1665039,116.666016 L83.1665039,108.624023 L81.3032227,108.624023 L80.5473633,109.300781 C80.3012695,109.007812 80.0317383,108.789551 79.7387695,108.645996 C79.4458008,108.502441 79.1293945,108.430664 78.7895508,108.430664 C77.8930664,108.430664 77.1577148,108.878906 76.5834961,109.775391 C76.0092773,110.671875 75.722168,111.682617 75.722168,112.807617 C75.722168,113.961914 76.0063477,114.949219 76.574707,115.769531 C77.1430664,116.589844 77.8198242,117 78.6049805,117 C78.956543,117 79.2788086,116.915039 79.5717773,116.745117 C79.8647461,116.575195 80.1313477,116.323242 80.371582,115.989258 L80.371582,115.989258 L80.371582,116.780273 C80.371582,117.301758 80.2016602,117.733887 79.8618164,118.07666 C79.5219727,118.419434 79.097168,118.59082 78.5874023,118.59082 C77.9311523,118.59082 77.1606445,118.245117 76.2758789,117.553711 L76.2758789,117.553711 L76.2758789,120.313477 C77.2836914,120.834961 78.253418,121.095703 79.1850586,121.095703 Z M79.5366211,114.56543 C79.2436523,114.56543 79.0063477,114.388184 78.824707,114.033691 C78.6430664,113.679199 78.5522461,113.214844 78.5522461,112.640625 C78.5522461,112.078125 78.6459961,111.622559 78.8334961,111.273926 C79.0209961,110.925293 79.2758789,110.750977 79.5981445,110.750977 C79.7270508,110.750977 79.855957,110.786133 79.9848633,110.856445 C80.1137695,110.926758 80.2426758,111.035156 80.371582,111.181641 L80.371582,111.181641 L80.371582,112.957031 C80.371582,113.490234 80.3027344,113.891602 80.1650391,114.161133 C80.0273438,114.430664 79.8178711,114.56543 79.5366211,114.56543 Z M88.659668,117.193359 C89.5854492,117.193359 90.5844727,116.891602 91.6567383,116.288086 L91.6567383,116.288086 L91.6567383,113.686523 C91.1352539,114.125977 90.7163086,114.430664 90.3999023,114.600586 C90.0834961,114.770508 89.7348633,114.855469 89.3540039,114.855469 C88.8618164,114.855469 88.4604492,114.714844 88.1499023,114.433594 C87.8393555,114.152344 87.6196289,113.730469 87.4907227,113.167969 L87.4907227,113.167969 L91.9907227,113.167969 L91.9907227,112.473633 C91.9907227,111.243164 91.6743164,110.261719 91.0415039,109.529297 C90.4086914,108.796875 89.5649414,108.430664 88.5102539,108.430664 C87.3208008,108.430664 86.3701172,108.858398 85.6582031,109.713867 C84.9462891,110.569336 84.590332,111.612305 84.590332,112.842773 C84.590332,114.114258 84.9667969,115.157227 85.7197266,115.97168 C86.4726562,116.786133 87.4526367,117.193359 88.659668,117.193359 Z M89.5473633,111.682617 L87.3588867,111.682617 C87.3881836,111.125977 87.4980469,110.709961 87.6884766,110.43457 C87.8789062,110.15918 88.1499023,110.021484 88.5014648,110.021484 C88.800293,110.021484 89.0493164,110.15625 89.2485352,110.425781 C89.4477539,110.695312 89.5473633,111.020508 89.5473633,111.401367 L89.5473633,111.401367 L89.5473633,111.682617 Z" id="Challenge" fill="#FD8D8D" fill-rule="nonzero"></path>
                <path d="M255.911133,117.193359 C257.088867,117.193359 258.086426,116.791992 258.903809,115.989258 C259.721191,115.186523 260.129883,114.216797 260.129883,113.080078 C260.129883,112.177734 259.892578,111.459961 259.417969,110.926758 C258.943359,110.399414 258.246094,109.930664 257.326172,109.520508 C256.769531,109.274414 256.388672,109.045898 256.183594,108.834961 C255.972656,108.624023 255.867188,108.37207 255.867188,108.079102 C255.867188,107.780273 255.996094,107.525391 256.253906,107.314453 C256.511719,107.103516 256.816406,106.998047 257.167969,106.998047 C257.876953,106.998047 258.618164,107.370117 259.391602,108.114258 L259.391602,108.114258 L259.391602,105.1875 C258.518555,104.753906 257.677734,104.537109 256.869141,104.537109 C255.691406,104.537109 254.745117,104.887207 254.030273,105.587402 C253.31543,106.287598 252.958008,107.147461 252.958008,108.166992 C252.958008,108.969727 253.186523,109.631836 253.643555,110.15332 C254.094727,110.674805 254.750977,111.146484 255.612305,111.568359 C256.22168,111.873047 256.637695,112.148438 256.860352,112.394531 C257.077148,112.640625 257.185547,112.921875 257.185547,113.238281 C257.185547,113.630859 257.033203,113.964844 256.728516,114.240234 C256.423828,114.515625 256.057617,114.65332 255.629883,114.65332 C254.791992,114.65332 253.901367,114.213867 252.958008,113.334961 L252.958008,113.334961 L252.958008,116.367188 C254.012695,116.917969 254.99707,117.193359 255.911133,117.193359 Z M264.383789,117.193359 C264.916992,117.193359 265.441406,117.102539 265.957031,116.920898 L265.957031,116.920898 L265.957031,114.65332 C265.740234,114.811523 265.529297,114.890625 265.324219,114.890625 C264.902344,114.890625 264.691406,114.626953 264.691406,114.099609 L264.691406,114.099609 L264.691406,110.671875 L265.957031,110.671875 L265.957031,108.624023 L264.568359,108.624023 L264.568359,106.101562 L262.248047,106.101562 L262.019531,108.624023 L260.833008,108.624023 L260.833008,110.671875 L261.861328,110.671875 L261.861328,114.65332 C261.861328,115.520508 262.064941,116.160645 262.472168,116.57373 C262.879395,116.986816 263.516602,117.193359 264.383789,117.193359 Z M269.411133,117.193359 C269.745117,117.193359 270.062988,117.109863 270.364746,116.942871 C270.666504,116.775879 270.955078,116.52832 271.230469,116.200195 C271.294922,116.499023 271.379883,116.765625 271.485352,117 L271.485352,117 L274.280273,117 C273.946289,116.191406 273.779297,115.379883 273.779297,114.56543 L273.779297,114.56543 L273.779297,111.75293 C273.779297,110.979492 273.618164,110.34375 273.295898,109.845703 C272.973633,109.347656 272.57666,108.987305 272.10498,108.764648 C271.633301,108.541992 271.081055,108.430664 270.448242,108.430664 C269.592773,108.430664 268.6875,108.65625 267.732422,109.107422 L267.732422,109.107422 L267.732422,111.331055 C268.412109,110.803711 269.074219,110.540039 269.71875,110.540039 C270.158203,110.540039 270.503906,110.616211 270.755859,110.768555 C271.007812,110.920898 271.166016,111.149414 271.230469,111.454102 C268.341797,111.823242 266.897461,112.845703 266.897461,114.521484 C266.897461,115.265625 267.153809,115.896973 267.666504,116.415527 C268.179199,116.934082 268.760742,117.193359 269.411133,117.193359 Z M270.360352,115.180664 C270.120117,115.180664 269.912109,115.081055 269.736328,114.881836 C269.560547,114.682617 269.472656,114.439453 269.472656,114.152344 C269.472656,113.384766 270.058594,112.948242 271.230469,112.842773 L271.230469,112.842773 L271.230469,113.915039 C271.230469,114.27832 271.155762,114.580078 271.006348,114.820312 C270.856934,115.060547 270.641602,115.180664 270.360352,115.180664 Z M278.15625,117 L278.15625,112.297852 C278.15625,111.834961 278.229492,111.474609 278.375977,111.216797 C278.522461,110.958984 278.71875,110.830078 278.964844,110.830078 C279.316406,110.830078 279.492188,111.067383 279.492188,111.541992 L279.492188,111.541992 L279.492188,117 L282.27832,117 L282.27832,110.961914 C282.27832,110.241211 282.057129,109.63916 281.614746,109.155762 C281.172363,108.672363 280.620117,108.430664 279.958008,108.430664 C279.571289,108.430664 279.221191,108.518555 278.907715,108.694336 C278.594238,108.870117 278.314453,109.136719 278.068359,109.494141 L278.068359,109.494141 L277.795898,108.624023 L275.396484,108.624023 L275.396484,117 L278.15625,117 Z M286.523438,117.193359 C286.880859,117.193359 287.214844,117.095215 287.525391,116.898926 C287.835938,116.702637 288.123047,116.411133 288.386719,116.024414 L288.386719,116.024414 L288.641602,117 L291.111328,117 L291.111328,104.739258 L288.307617,104.739258 L288.307617,109.125 C288.038086,108.890625 287.768555,108.716309 287.499023,108.602051 C287.229492,108.487793 286.959961,108.430664 286.69043,108.430664 C285.805664,108.430664 285.077637,108.873047 284.506348,109.757812 C283.935059,110.642578 283.649414,111.679688 283.649414,112.869141 C283.649414,114.011719 283.916016,115.018066 284.449219,115.888184 C284.982422,116.758301 285.673828,117.193359 286.523438,117.193359 Z M287.472656,114.75 C287.167969,114.75 286.92334,114.563965 286.73877,114.191895 C286.554199,113.819824 286.461914,113.34082 286.461914,112.754883 C286.461914,112.145508 286.558594,111.65625 286.751953,111.287109 C286.945312,110.917969 287.203125,110.733398 287.525391,110.733398 C287.666016,110.733398 287.800781,110.774414 287.929688,110.856445 C288.058594,110.938477 288.18457,111.061523 288.307617,111.225586 L288.307617,111.225586 L288.307617,113.361328 C288.307617,113.742188 288.234375,114.068848 288.087891,114.341309 C287.941406,114.61377 287.736328,114.75 287.472656,114.75 Z M294.908203,117.193359 C295.242188,117.193359 295.560059,117.109863 295.861816,116.942871 C296.163574,116.775879 296.452148,116.52832 296.727539,116.200195 C296.791992,116.499023 296.876953,116.765625 296.982422,117 L296.982422,117 L299.777344,117 C299.443359,116.191406 299.276367,115.379883 299.276367,114.56543 L299.276367,114.56543 L299.276367,111.75293 C299.276367,110.979492 299.115234,110.34375 298.792969,109.845703 C298.470703,109.347656 298.07373,108.987305 297.602051,108.764648 C297.130371,108.541992 296.578125,108.430664 295.945312,108.430664 C295.089844,108.430664 294.18457,108.65625 293.229492,109.107422 L293.229492,109.107422 L293.229492,111.331055 C293.90918,110.803711 294.571289,110.540039 295.21582,110.540039 C295.655273,110.540039 296.000977,110.616211 296.25293,110.768555 C296.504883,110.920898 296.663086,111.149414 296.727539,111.454102 C293.838867,111.823242 292.394531,112.845703 292.394531,114.521484 C292.394531,115.265625 292.650879,115.896973 293.163574,116.415527 C293.67627,116.934082 294.257812,117.193359 294.908203,117.193359 Z M295.857422,115.180664 C295.617188,115.180664 295.40918,115.081055 295.233398,114.881836 C295.057617,114.682617 294.969727,114.439453 294.969727,114.152344 C294.969727,113.384766 295.555664,112.948242 296.727539,112.842773 L296.727539,112.842773 L296.727539,113.915039 C296.727539,114.27832 296.652832,114.580078 296.503418,114.820312 C296.354004,115.060547 296.138672,115.180664 295.857422,115.180664 Z M303.688477,117 L303.688477,112.59668 C303.688477,112.145508 303.805664,111.774902 304.040039,111.484863 C304.274414,111.194824 304.570312,111.049805 304.927734,111.049805 C305.162109,111.049805 305.422852,111.120117 305.709961,111.260742 L305.709961,111.260742 L305.709961,108.624023 C305.469727,108.495117 305.244141,108.430664 305.033203,108.430664 C304.705078,108.430664 304.417969,108.539062 304.171875,108.755859 C303.925781,108.972656 303.717773,109.297852 303.547852,109.731445 L303.547852,109.731445 L303.266602,108.624023 L300.858398,108.624023 L300.858398,117 L303.688477,117 Z M309.208008,117.193359 C309.56543,117.193359 309.899414,117.095215 310.209961,116.898926 C310.520508,116.702637 310.807617,116.411133 311.071289,116.024414 L311.071289,116.024414 L311.326172,117 L313.795898,117 L313.795898,104.739258 L310.992188,104.739258 L310.992188,109.125 C310.722656,108.890625 310.453125,108.716309 310.183594,108.602051 C309.914062,108.487793 309.644531,108.430664 309.375,108.430664 C308.490234,108.430664 307.762207,108.873047 307.190918,109.757812 C306.619629,110.642578 306.333984,111.679688 306.333984,112.869141 C306.333984,114.011719 306.600586,115.018066 307.133789,115.888184 C307.666992,116.758301 308.358398,117.193359 309.208008,117.193359 Z M310.157227,114.75 C309.852539,114.75 309.60791,114.563965 309.42334,114.191895 C309.23877,113.819824 309.146484,113.34082 309.146484,112.754883 C309.146484,112.145508 309.243164,111.65625 309.436523,111.287109 C309.629883,110.917969 309.887695,110.733398 310.209961,110.733398 C310.350586,110.733398 310.485352,110.774414 310.614258,110.856445 C310.743164,110.938477 310.869141,111.061523 310.992188,111.225586 L310.992188,111.225586 L310.992188,113.361328 C310.992188,113.742188 310.918945,114.068848 310.772461,114.341309 C310.625977,114.61377 310.420898,114.75 310.157227,114.75 Z" id="Standard" fill="#FFC800" fill-rule="nonzero"></path>
            </g>
        </g>
    </g>
</svg>