<?xml version="1.0" encoding="UTF-8"?>
<svg width="343px" height="168px" viewBox="0 0 343 168" version="1.1" xmlns="http://www.w3.org/2000/svg" xmlns:xlink="http://www.w3.org/1999/xlink">
    <!-- Generator: Sketch 62 (91390) - https://sketch.com -->
    <title>Image</title>
    <desc>Created with Sketch.</desc>
    <defs>
        <rect id="path-1" x="0" y="0" width="343" height="168" rx="12"></rect>
        <polygon id="path-3" points="0.117262649 0.185283301 130.399496 0.185283301 130.399496 269.38058 0.117262649 269.38058"></polygon>
        <polygon id="path-5" points="0.000206116667 0.374253935 96.1879839 0.374253935 96.1879839 184.759229 0.000206116667 184.759229"></polygon>
        <polygon id="path-7" points="0 348.892405 164.752487 348.892405 164.752487 0.374253935 0 0.374253935"></polygon>
        <polygon id="path-9" points="0 349 164.859062 349 164.859062 0.374369352 0 0.374369352"></polygon>
    </defs>
    <g id="Phase.1" stroke="none" stroke-width="1" fill="none" fill-rule="evenodd">
        <g id="A_1-サービス紹介" transform="translate(-16.000000, -695.000000)">
            <g id="Image" transform="translate(16.000000, 695.000000)">
                <mask id="mask-2" fill="white">
                    <use xlink:href="#path-1"></use>
                </mask>
                <use id="Mask" fill="#F4FCFF" xlink:href="#path-1"></use>
                <g id="Group-46" mask="url(#mask-2)">
                    <g transform="translate(292.500000, 135.500000) rotate(-30.000000) translate(-292.500000, -135.500000) translate(209.000000, -40.000000)">
                        <g id="Group-19" transform="translate(0.767949, 0.545517)">
                            <g id="Group-3" transform="translate(34.352778, 79.511825)">
                                <mask id="mask-4" fill="white">
                                    <use xlink:href="#path-3"></use>
                                </mask>
                                <g id="Clip-2"></g>
                                <path d="M61.647159,0.225786165 C67.6987443,2.64061513 74.0416412,7.15839478 78.589949,11.6960524 C87.061344,20.147611 90.0878237,58.784189 95.8364176,88.9692084 C101.584324,119.153542 104.913109,179.825178 124.881004,192.502515 C144.850274,205.179853 106.122326,307.808371 80.4058368,253.778029 C54.6879733,199.747002 4.70262046,175.938694 10.5151105,113.116813 C6.88402184,105.570044 2.64832434,98.0246456 0.833123567,91.3840373 C-3.16416566,76.7620869 10.5151105,69.6505766 18.684201,75.9895884 C29.5994526,84.4596541 40.4686715,99.835596 40.4686715,99.835596 C40.4686715,99.835596 55.7213048,-2.13900519 61.647159,0.225786165" id="Fill-1" fill="#FFE0E2" mask="url(#mask-4)"></path>
                            </g>
                            <path d="M13.5777293,181.674719 C7.79546974,181.674719 3.09188741,176.981464 3.09188741,171.21343 L3.09188741,13.9198473 C3.09188741,8.15181278 7.79546974,3.45855876 13.5777293,3.45855876 L82.6096362,3.45855876 C88.3918958,3.45855876 93.0961652,8.15181278 93.0961652,13.9198473 L93.0961652,171.21343 C93.0961652,176.981464 88.3918958,181.674719 82.6096362,181.674719 L13.5777293,181.674719 Z" id="Fill-4" fill="#FFFFFF"></path>
                            <g id="Group-8">
                                <mask id="mask-6" fill="white">
                                    <use xlink:href="#path-5"></use>
                                </mask>
                                <g id="Clip-7"></g>
                                <path d="M82.6097049,0.374048301 L13.577798,0.374048301 C6.07858662,0.374048301 0.000206116667,6.43888131 0.000206116667,13.9198473 L0.000206116667,171.21343 C0.000206116667,178.694396 6.07858662,184.759229 13.577798,184.759229 L82.6097049,184.759229 C90.1089163,184.759229 96.1879839,178.694396 96.1879839,171.21343 L96.1879839,13.9198473 C96.1879839,6.43888131 90.1089163,0.374048301 82.6097049,0.374048301 M82.6097049,6.54306922 C86.6873797,6.54306922 90.0044839,9.85240621 90.0044839,13.9198473 L90.0044839,171.21343 C90.0044839,175.280871 86.6873797,178.590208 82.6097049,178.590208 L13.577798,178.590208 C9.50081034,178.590208 6.18370612,175.280871 6.18370612,171.21343 L6.18370612,13.9198473 C6.18370612,9.85240621 9.50081034,6.54306922 13.577798,6.54306922 L82.6097049,6.54306922" id="Fill-6" fill="#3F3731" mask="url(#mask-6)"></path>
                            </g>
                            <mask id="mask-8" fill="white">
                                <use xlink:href="#path-7"></use>
                            </mask>
                            <g id="Clip-10"></g>
                            <polygon id="Fill-9" fill="#00B9F5" mask="url(#mask-8)" points="10.6789045 112.721036 86.6205292 112.721036 86.6205292 100.043012 10.6789045 100.043012"></polygon>
                            <path d="M10.6795916,94.3243298 L48.0272445,94.3243298 L48.0272445,85.6616535 L10.6795916,85.6616535 L10.6795916,94.3243298 Z M11.2470994,93.7574653 L47.4590496,93.7574653 L47.4590496,86.2278326 L11.2470994,86.2278326 L11.2470994,93.7574653 Z" id="Fill-11" fill="#00B9F5" opacity="0.306803385" mask="url(#mask-8)"></path>
                            <path d="M49.4068521,94.3243298 L86.754505,94.3243298 L86.754505,85.6616535 L49.4068521,85.6616535 L49.4068521,94.3243298 Z M49.9736729,93.7574653 L86.1863101,93.7574653 L86.1863101,86.2278326 L49.9736729,86.2278326 L49.9736729,93.7574653 Z" id="Fill-12" fill="#00B9F5" opacity="0.306803385" mask="url(#mask-8)"></path>
                            <line x1="11.284063" y1="78.0082976" x2="86.3180873" y2="78.0082976" id="Stroke-13" stroke="#00B9F5" stroke-width="0.827" mask="url(#mask-8)"></line>
                            <polygon id="Fill-14" fill="#000000" mask="url(#mask-8)" points="42.1167117 64.9332634 42.0844201 64.9332634 39.0091594 67.069801 39.0091594 65.6159684 42.1009094 63.3992336 43.517618 63.3992336 43.517618 74.9901384 42.1167117 74.9901384"></polygon>
                            <path d="M53.3403825,69.1905048 C53.3403825,66.3390462 52.3256015,64.4753165 50.5303253,64.4753165 C48.7350491,64.4753165 47.7044658,66.3548115 47.7044658,69.1822794 C47.7044658,72.0741793 48.7110022,73.9214584 50.5303253,73.9214584 C52.3420908,73.9214584 53.3403825,72.0824047 53.3403825,69.1905048 M46.247221,69.1905048 C46.247221,65.5596932 47.8329452,63.2065545 50.5303253,63.2065545 C53.2277054,63.2065545 54.7976274,65.543928 54.7976274,69.1822794 C54.7976274,72.8453069 53.2359501,75.1826804 50.5303253,75.1826804 C47.8171429,75.1826804 46.247221,72.8535323 46.247221,69.1905048" id="Fill-15" fill="#000000" mask="url(#mask-8)"></path>
                            <path d="M63.34027,69.1905048 C63.34027,66.3390462 62.325489,64.4753165 60.5302128,64.4753165 C58.7349366,64.4753165 57.7043533,66.3548115 57.7043533,69.1822794 C57.7043533,72.0741793 58.7108897,73.9214584 60.5302128,73.9214584 C62.3419783,73.9214584 63.34027,72.0824047 63.34027,69.1905048 M56.2471085,69.1905048 C56.2471085,65.5596932 57.8328327,63.2065545 60.5302128,63.2065545 C63.2275929,63.2065545 64.7975148,65.543928 64.7975148,69.1822794 C64.7975148,72.8453069 63.2358376,75.1826804 60.5302128,75.1826804 C57.8170304,75.1826804 56.2471085,72.8535323 56.2471085,69.1905048" id="Fill-16" fill="#000000" mask="url(#mask-8)"></path>
                            <path d="M73.339814,69.1905048 C73.339814,66.3390462 72.3250329,64.4753165 70.5297568,64.4753165 C68.7344806,64.4753165 67.7038973,66.3548115 67.7038973,69.1822794 C67.7038973,72.0741793 68.7104337,73.9214584 70.5297568,73.9214584 C72.3415223,73.9214584 73.339814,72.0824047 73.339814,69.1905048 M66.2466524,69.1905048 C66.2466524,65.5596932 67.8323767,63.2065545 70.5297568,63.2065545 C73.2271369,63.2065545 74.7970588,65.543928 74.7970588,69.1822794 C74.7970588,72.8453069 73.2353815,75.1826804 70.5297568,75.1826804 C67.8165744,75.1826804 66.2466524,72.8535323 66.2466524,69.1905048" id="Fill-17" fill="#000000" mask="url(#mask-8)"></path>
                            <path d="M81.8331261,71.291262 L84.0660566,71.291262 L84.0660566,68.8764331 L81.8331261,68.8764331 L81.8331261,71.291262 Z M78.7516819,71.291262 L80.8691871,71.291262 L80.8691871,68.8764331 L78.7516819,68.8764331 L78.7516819,71.291262 Z M78.7516819,74.6156789 C78.7516819,75.1770598 78.7613007,75.444384 78.7970276,75.6493326 L77.6977387,75.6493326 C77.7341526,75.3641867 77.751329,75.0433976 77.751329,74.5800356 L77.751329,68.7523672 C77.751329,68.3774278 77.7423973,68.1546576 77.7156021,67.8969296 C78.0014172,67.9229766 78.233642,67.9318874 78.7077103,67.9318874 L84.1381974,67.9318874 C84.6294422,67.9318874 84.8967068,67.9229766 85.1117552,67.8969296 C85.08496,68.1546576 85.0760283,68.3863386 85.0760283,68.8682077 L85.0760283,74.5800356 C85.0760283,75.0344868 84.9688476,75.2839895 84.7098277,75.4176516 C84.5401249,75.5067597 84.2543098,75.5424029 83.7719968,75.5424029 C83.4236597,75.5424029 82.9324149,75.5238958 82.5840778,75.5067597 C82.5304874,75.1592381 82.4672783,74.9090501 82.3071944,74.5443924 C82.896001,74.606768 83.3432742,74.6424113 83.6641291,74.6424113 C84.0131533,74.6424113 84.0660566,74.6156789 84.0660566,74.4018195 L84.0660566,72.2268969 L78.7516819,72.2268969 L78.7516819,74.6156789 Z" id="Fill-18" fill="#000000" mask="url(#mask-8)"></path>
                        </g>
                        <g id="Group-45" transform="translate(0.584936, 1.228530)">
                            <path d="M34.0742188,46.965458 C34.0082188,46.9819138 34.0082188,46.9819138 33.6129063,47.1135601 C33.2994063,47.2122949 33.1234063,47.256177 32.6944063,47.3377703 C32.6889063,48.0782811 32.6889063,48.0782811 32.6779063,48.2647802 L33.8432188,48.2647802 C34.2172188,48.2647802 34.3107188,48.2592949 34.5142188,48.2263833 L34.5142188,48.8839295 C34.3107188,48.8619884 34.2062188,48.8565031 33.8542188,48.8565031 L32.6394063,48.8565031 C32.5789063,49.3666328 32.4634063,49.7341456 32.2709063,50.0516053 C32.0790938,50.3697507 31.7600938,50.6769255 31.3750938,50.9237625 C31.2210938,51.0224972 31.1165938,51.0821495 30.8642813,51.1973401 C30.7047813,50.9182772 30.6167813,50.8140572 30.3857813,50.6165876 C30.7810938,50.4739707 30.9907813,50.3587802 31.2382813,50.1558253 C31.5675938,49.8932183 31.7765938,49.5805582 31.8700938,49.2240159 C31.8920938,49.1307664 31.9085938,49.0375169 31.9305938,48.8565031 L30.5727813,48.8565031 C30.2207813,48.8565031 30.1162813,48.8619884 29.9127813,48.8839295 L29.9127813,48.2263833 C30.1162813,48.2592949 30.2097813,48.2647802 30.5837813,48.2647802 L31.9910938,48.2647802 C32.0020938,48.034399 32.0020938,47.8204737 32.0020938,47.4365051 C31.5565938,47.5030139 31.3860938,47.5194697 30.4792813,47.5633519 C30.4242813,47.3165149 30.3967813,47.234236 30.2757813,46.9709432 C30.4462813,46.9819138 30.5342813,46.9819138 30.6167813,46.9819138 C31.3530938,46.9819138 32.2935938,46.8557527 32.9694063,46.6637684 C33.2877188,46.5705189 33.4472188,46.5101809 33.6342188,46.4059609 L34.0742188,46.965458 Z" id="Fill-26" fill="#000000"></path>
                            <path d="M36.5838688,47.771312 C36.5398688,47.5354456 36.5288688,47.4805929 36.4793688,47.3599171 L37.1331813,47.2611823 C37.1331813,47.3708876 37.1503688,47.4915635 37.1881813,47.6835477 L37.2713688,48.1059132 L38.9144938,47.8316499 C39.0739938,47.8097088 39.1674938,47.7822825 39.2774938,47.7384004 L39.6624938,48.0839721 C39.6129938,48.1552806 39.5793063,48.2149328 39.5249938,48.3465792 C39.2829938,48.9554436 38.9694938,49.3668385 38.4421813,49.7720625 C38.2441813,49.5636224 38.1616813,49.5032845 37.9306813,49.3832943 C38.3376813,49.1309721 38.6394938,48.8128267 38.8649938,48.4014318 C38.7989938,48.4178876 38.7989938,48.4178876 38.6614938,48.4405143 L37.3703688,48.653754 L37.7601813,50.6826165 C37.8151813,50.9843061 37.8151813,50.9843061 37.8646813,51.1262373 L37.1778688,51.2469132 C37.1778688,51.1042963 37.1668688,50.9843061 37.1331813,50.8026067 L36.7598688,48.7579741 L36.2868688,48.8347678 C36.0950563,48.8676794 35.9630563,48.900591 35.8035563,48.9554436 L35.6880563,48.3301234 C35.8640563,48.3301234 36.0008688,48.3143532 36.2105563,48.2814417 L36.6663688,48.2046479 L36.5838688,47.771312 Z" id="Fill-28" fill="#000000"></path>
                            <path d="M42.3366625,46.5486464 C42.3146625,46.6967485 42.3091625,46.8338802 42.3036625,47.1026582 L42.2761625,50.2326876 C42.8481625,50.1229823 43.364475,49.9145422 43.776975,49.6299941 C44.282975,49.2844224 44.6232875,48.9059391 44.8982875,48.374554 C45.1127875,48.6597878 45.1842875,48.7358959 45.4207875,48.9333654 C45.0412875,49.5148035 44.6892875,49.8816306 44.194975,50.2107466 C43.644975,50.5782593 43.083975,50.791499 42.1936625,50.9622279 C42.0451625,50.9896542 41.9791625,51.0115953 41.86435,51.0547917 L41.51235,50.633112 C41.55085,50.4850098 41.56185,50.386275 41.56185,50.0681297 L41.58385,47.1074578 C41.58385,46.7241749 41.58385,46.7241749 41.55635,46.5431611 L42.3366625,46.5486464 Z" id="Fill-30" fill="#000000"></path>
                            <path d="M47.0837125,46.7954147 C47.7382125,47.2013244 48.078525,47.4529609 48.502025,47.8533853 L48.029025,48.4512792 C47.589025,47.9850316 47.1387125,47.6236898 46.6272125,47.338456 L47.0837125,46.7954147 Z M46.6162125,50.1997075 C47.0892125,50.1722811 47.743025,50.0132084 48.243525,49.7944835 C48.931025,49.4982792 49.4418375,49.0759138 49.8763375,48.4512792 C50.1183375,48.1002222 50.27165,47.7985326 50.43665,47.3542261 C50.65115,47.6120336 50.73915,47.6949982 51.01965,47.8917821 C50.55215,48.8955857 50.0303375,49.5421613 49.2768375,50.0406348 C48.716525,50.4136328 48.034525,50.6824108 47.1827125,50.8634246 C46.9627125,50.9073067 46.9462125,50.9127919 46.8197125,50.9566741 L46.6162125,50.1997075 Z" id="Fill-32" fill="#000000"></path>
                            <path d="M56.475375,47.1023839 C56.310375,46.80138 56.1295625,46.5435725 55.9150625,46.3077061 L56.282875,46.1157218 C56.530375,46.368044 56.684375,46.5757984 56.854875,46.8884585 L56.475375,47.1023839 Z M55.6235625,46.4393525 C55.8655625,46.6964743 56.0140625,46.9049143 56.2010625,47.2450008 L55.8160625,47.4479556 C55.6345625,47.1133544 55.4805625,46.8939438 55.2385625,46.6313367 L55.6235625,46.4393525 Z M52.7649375,46.5483721 C53.28125,46.7458417 53.83125,47.0091344 54.22725,47.2559713 L53.87525,47.8593505 C53.4304375,47.5576609 52.8089375,47.2340303 52.4074375,47.1078692 L52.7649375,46.5483721 Z M52.094625,50.3311481 C52.5229375,50.3263485 53.1004375,50.2001874 53.68275,49.9752916 C54.6885625,49.6242346 55.5135625,48.7253367 55.9095625,47.5576609 C56.123375,47.788042 56.2285625,47.8751206 56.480875,48.0451639 C55.7995625,49.7065136 54.63975,50.6054114 52.6714375,50.98938 C52.435625,51.0387473 52.391625,51.0497179 52.287125,51.0826295 L52.094625,50.3311481 Z M52.3414375,47.8751206 C52.8529375,48.0780754 53.3919375,48.3523387 53.80375,48.6211167 L53.4634375,49.240266 C53.1004375,48.9605175 52.479625,48.626602 51.973625,48.4401029 L52.3414375,47.8751206 Z" id="Fill-34" fill="#000000"></path>
                            <path d="M58.402575,50.5892984 C58.023075,50.5892984 57.891075,50.5947837 57.726075,50.6112395 L57.726075,49.9036403 C57.929575,49.9365519 58.028575,49.9420371 58.413575,49.9420371 L60.9147,49.9420371 L60.9147,47.5518328 L58.507075,47.5518328 C58.116575,47.5518328 58.001075,47.5573181 57.803075,47.5792591 L57.803075,46.8668603 C58.006575,46.8997719 58.111075,46.9052572 58.512575,46.9052572 L61.1560125,46.9052572 C61.4420125,46.9052572 61.4420125,46.9052572 61.6345125,46.8942866 C61.6180125,47.0423888 61.6180125,47.0972415 61.6180125,47.348878 L61.6180125,50.3589173 C61.6180125,50.6331806 61.6235125,50.786768 61.6455125,50.9238996 L60.9092,50.9238996 L60.9092,50.5892984 L58.402575,50.5892984 Z" id="Fill-36" fill="#000000"></path>
                            <path d="M62.8471937,48.3742798 C63.0891937,48.4071914 63.1930062,48.4126766 63.7375062,48.4126766 L66.6676312,48.4126766 C67.2114437,48.4126766 67.3159437,48.4071914 67.5579437,48.3742798 L67.5579437,49.136046 C67.3372562,49.1086196 67.2767562,49.1086196 66.6614437,49.1086196 L63.7430062,49.1086196 C63.1276937,49.1086196 63.0671937,49.1086196 62.8471937,49.136046 L62.8471937,48.3742798 Z" id="Fill-38" fill="#000000"></path>
                            <path d="M72.5574438,51.0385417 C72.1009438,50.4797303 71.4691313,49.8653806 70.8696313,49.4101035 C70.2488188,50.101247 69.6170063,50.5832646 68.7755063,50.9946595 C68.6215063,50.7101114 68.5555063,50.6223472 68.3306938,50.3864807 C68.7535063,50.2219228 69.0175063,50.0738206 69.4293188,49.7831016 C70.2598188,49.2023491 70.9191313,48.4069857 71.2766313,47.5519699 L71.3371313,47.409353 C71.2491313,47.4148383 71.2491313,47.4148383 69.5173188,47.4422646 C69.2533188,47.4477499 69.1055063,47.4587204 68.9185063,47.4861468 L68.8965063,46.7840328 C69.0498188,46.8114591 69.1550063,46.8176301 69.3805063,46.8176301 L69.5118188,46.8176301 L71.4471313,46.7902037 C71.7551313,46.7840328 71.7984438,46.7792332 71.9366313,46.7298658 L72.2989438,47.1021782 C72.2281313,47.1844572 72.1834438,47.2612509 72.1229438,47.3983825 C71.8706313,47.9846202 71.6004438,48.4618383 71.2656313,48.9116301 C71.6121313,49.1420112 71.9091313,49.3717067 72.2831313,49.7063079 C72.4199438,49.8269837 72.4199438,49.8269837 73.0854438,50.4680741 L72.5574438,51.0385417 Z" id="Fill-40" fill="#000000"></path>
                            <g id="Icon_Challenge" transform="translate(11.415064, 41.771470)">
                                <g id="Icon" stroke-width="1" fill-rule="evenodd" fill="#FD8D8D">
                                    <circle id="Oval" cx="7.5" cy="7.5" r="7.5"></circle>
                                </g>
                                <path d="M11.9313993,3.90385715 L11.9456875,3.94109752 L12.5587807,5.81609752 C12.6258294,6.02115017 12.5139551,6.24173192 12.3089025,6.30878066 C12.1166656,6.37163885 11.9107801,6.27724049 11.8305489,6.09623698 L11.8162193,6.05890248 L11.4982796,5.08977111 L9.86280217,9.19077968 C9.74490676,9.48620351 9.3480072,9.52047304 9.1770188,9.26597586 L9.15514989,9.22947922 L7.7971875,6.6778125 L6.36187749,10.2097411 C6.23976108,10.5101976 5.83180189,10.5357404 5.66827715,10.2692271 L5.64837762,10.2328068 L4.2603125,7.3646875 L2.85544849,10.447824 C2.77156983,10.6318635 2.56271126,10.7194875 2.37517814,10.6560002 L2.3379992,10.6412717 C2.15395972,10.557393 2.06633563,10.3485344 2.12982301,10.1610013 L2.14455151,10.1238224 L3.89455151,6.28411992 C4.02576666,5.99621869 4.42106409,5.97921338 4.5812789,6.23885408 L4.60162238,6.27597491 L5.96875,9.10125 L7.38812251,5.6098632 C7.5074696,5.31622042 7.9026963,5.28336246 8.07305956,5.53708264 L8.09485011,5.57345958 L9.4490625,8.1190625 L10.8042796,4.72077111 L9.80752017,5.04345424 C9.61505076,5.10559672 9.40951794,5.01043295 9.32996076,4.82913216 L9.31577019,4.7917446 C9.25362771,4.59927519 9.34879148,4.39374237 9.53009227,4.31418519 L9.56747983,4.29999462 L11.4543866,3.69077019 C11.6463499,3.62879115 11.8514148,3.723289 11.9313993,3.90385715 Z" id="Combined-Shape" fill="#FFFFFF" fill-rule="nonzero"></path>
                            </g>
                            <mask id="mask-10" fill="white">
                                <use xlink:href="#path-9"></use>
                            </mask>
                            <g id="Clip-43"></g>
                            <polygon id="Fill-42" fill="#E5E5E5" mask="url(#mask-10)" points="6.1875 36.0285933 90.0625 36.0285933 90.0625 32.6003026 6.1875 32.6003026"></polygon>
                            <path d="M58.6600255,104.322615 C88.953338,122.786018 92.544838,121.407845 98.556338,125.690465 C104.567838,129.973086 126.037776,171.084464 129.473213,178.792632 C132.907963,186.501487 138.060776,257.589839 103.709151,243.029202 C69.358213,228.469251 63.7750255,199.348664 70.2169005,184.788027 C76.6574005,170.228076 82.2399005,147.102884 76.6574005,144.533723 C71.075588,141.963876 53.353213,132.667723 49.7197755,116.966837 C46.5930255,103.451829 50.9311505,99.6121433 58.6600255,104.322615" id="Fill-44" fill="#FFE0E2" mask="url(#mask-10)"></path>
                        </g>
                    </g>
                </g>
                <g id="Group-4" mask="url(#mask-2)" fill="#FF9933">
                    <g transform="translate(208.000000, 62.000000)">
                        <polygon id="Path-19" points="9.01115034e-13 17.0422051 17 24 3.38532353 11"></polygon>
                        <polygon id="Path-19-Copy" points="12 5.31507944 23 21 18.3156714 2"></polygon>
                        <polygon id="Path-19-Copy-2" points="28.1355479 0 28 19 34 0.974175661"></polygon>
                    </g>
                </g>
                <g id="Icon_Challenge" mask="url(#mask-2)">
                    <g transform="translate(107.000000, 98.000000)">
                        <g id="Icon" stroke-width="1" fill="none" fill-rule="evenodd">
                            <circle id="Oval" fill="#FD8D8D" cx="18" cy="18" r="18"></circle>
                        </g>
                        <path d="M28.6353583,9.36925716 L28.6696499,9.45863406 L30.1410736,13.9586341 C30.3019906,14.4507604 30.0334923,14.9801566 29.5413659,15.1410736 C29.0799975,15.2919332 28.5858723,15.0653772 28.3933174,14.6309688 L28.3589264,14.5413659 L27.5982711,12.2152507 L23.6707252,22.0578712 C23.3877762,22.7668884 22.4352173,22.8491353 22.0248451,22.2383421 L21.9723597,22.1507501 L18.71325,16.02675 L15.268506,24.5033787 C14.9754266,25.2244742 13.9963245,25.285777 13.6038652,24.646145 L13.5561063,24.5587363 L10.22475,17.67525 L6.85307639,25.0747775 C6.6517676,25.5164723 6.15050702,25.7267701 5.70042753,25.5744004 L5.61119808,25.539052 C5.16950332,25.3377432 4.95920552,24.8364826 5.11157521,24.3864031 L5.14692361,24.2971737 L9.34692361,15.0818878 C9.66183999,14.3909248 10.6105538,14.3501121 10.9950694,14.9732498 L11.0438937,15.0623398 L14.325,21.843 L17.731494,13.4636717 C18.017927,12.758929 18.9664711,12.6800699 19.3753429,13.2889983 L19.4276403,13.376303 L22.67775,19.48575 L25.9332711,11.3302507 L23.5380484,12.1042902 C23.0761218,12.2534321 22.5828431,12.0250391 22.3919058,11.5899172 L22.3578485,11.500187 C22.2087065,11.0382605 22.4370996,10.5449817 22.8722214,10.3540445 L22.9619516,10.3199871 L27.4905279,8.85784846 C27.9512396,8.70909876 28.4433956,8.9358936 28.6353583,9.36925716 Z" id="Combined-Shape" fill="#FFFFFF" fill-rule="nonzero"></path>
                    </g>
                </g>
                <g id="Icon_Standard" mask="url(#mask-2)">
                    <g transform="translate(133.000000, 117.000000)">
                        <g>
                            <g id="Icon" fill="#FFC800">
                                <circle id="Oval" cx="18" cy="18" r="18"></circle>
                            </g>
                            <path d="M23.9051085,12.8481657 L24.0009334,12.8535493 L28.7326991,13.3597571 C29.2140822,13.4112559 29.5714433,13.8186211 29.570545,14.2925967 L29.5655191,14.3881942 L29.0794166,19.0976307 C29.0262558,19.6126613 28.5656456,19.9870807 28.050615,19.9339199 C27.5677738,19.8840816 27.2085166,19.4761335 27.2092988,19.0009625 L27.2143258,18.9051182 L27.4594359,16.5231522 L23.4009952,19.9136348 C23.1155207,20.1520834 22.7191302,20.19737 22.3901837,20.0373284 L22.3022773,19.9885808 L18.67275,17.715 L14.9945089,20.7323358 C14.6984176,20.9751712 14.2877915,21.0115662 13.9564257,20.8334073 L13.8681639,20.7794929 L10.215,18.26325 L6.5534378,20.9426875 C6.16337873,21.2279657 5.62640368,21.1677054 5.30803156,20.818618 L5.24328813,20.7394134 C4.95800989,20.3493543 5.01827021,19.8123793 5.36735761,19.4940072 L5.4465622,19.4292637 L9.6465622,16.3575018 C9.939032,16.1435976 10.3253892,16.1190681 10.6398278,16.2862563 L10.7318361,16.3421666 L14.3505,18.83475 L18.0054911,15.8379818 C18.2885396,15.6058433 18.6776103,15.5615944 19.0023884,15.7160844 L19.0977227,15.7684044 L22.7205,18.0375 L26.3674359,14.9921522 L23.8014826,14.717911 C23.3188302,14.6662765 22.9610934,14.2569945 22.9636436,13.7818297 L22.9690272,13.6860047 C23.0206617,13.2033523 23.4299437,12.8456156 23.9051085,12.8481657 Z" id="Combined-Shape" fill="#FFFFFF" fill-rule="nonzero"></path>
                        </g>
                    </g>
                </g>
                <g id="Item-3" mask="url(#mask-2)">
                    <g transform="translate(18.000000, 104.000000)">
                        <rect id="Rectangle" fill="#FFFFFF" fill-rule="nonzero" x="9.9" y="0.4" width="45" height="26.1"></rect>
                        <rect id="Rectangle" fill="#FFFFFF" fill-rule="nonzero" x="0.9" y="10.3" width="45" height="26.1"></rect>
                        <g id="Icon" stroke-width="1" fill="none" fill-rule="evenodd" transform="translate(0.000000, 7.000000)">
                            <g id="balance">
                                <g transform="translate(0.000000, 0.600000)">
                                    <path d="M45.8836287,0.3717855 C47.3889769,0.3717855 48.607556,1.58133807 48.607556,3.0755355 L48.607556,27.1730355 C48.607556,28.6661458 47.3887239,29.8767855 45.8836287,29.8767855 L2.72392724,29.8767855 C1.21883205,29.8767855 5.91171556e-12,28.6661458 5.91171556e-12,27.1730355 L5.91171556e-12,3.0755355 C5.91171556e-12,1.58133807 1.21857908,0.3717855 2.72392724,0.3717855 L45.8836287,0.3717855 Z M2.75058795,21.9842752 L2.75037313,27.1467855 L7.95162332,27.1475915 C7.40944609,24.5608446 5.35649364,22.5228302 2.75058795,21.9842752 Z M37.8640951,3.10257776 L10.7434608,3.10257776 C10.1422,7.19942809 6.87773462,10.4390751 2.75041189,11.0353123 L2.75031623,19.2127431 C6.87801489,19.8091845 10.1431034,23.0502693 10.7437186,27.1474816 L37.8638374,27.1474816 C38.4644526,23.0502693 41.7295411,19.8091845 45.8572397,19.2127431 L45.8571441,11.0353123 C41.7298214,10.4390751 38.465356,7.19942809 37.8640951,3.10257776 Z M45.8579326,21.9840759 C43.2515689,22.5223273 41.1981768,24.5605255 40.6559326,27.1475915 L45.8571828,27.1467855 Z M16.211334,13.7592855 C16.9708285,13.7592855 17.5865205,14.3704168 17.5865205,15.1242855 C17.5865205,15.8781542 16.9708285,16.4892855 16.211334,16.4892855 L16.211334,16.4892855 L10.8163713,16.4892855 C10.0568767,16.4892855 9.4411847,15.8781542 9.4411847,15.1242855 C9.4411847,14.3704168 10.0568767,13.7592855 10.8163713,13.7592855 L10.8163713,13.7592855 Z M37.7911847,13.7592855 C38.5506793,13.7592855 39.1663713,14.3704168 39.1663713,15.1242855 C39.1663713,15.8781542 38.5506793,16.4892855 37.7911847,16.4892855 L37.7911847,16.4892855 L32.396222,16.4892855 C31.6367274,16.4892855 31.0210354,15.8781542 31.0210354,15.1242855 C31.0210354,14.3704168 31.6367274,13.7592855 32.396222,13.7592855 L32.396222,13.7592855 Z M45.8571828,3.1017855 L40.6563231,3.10265134 C41.1991173,5.6891241 43.2518805,7.72600885 45.857787,8.26399509 L45.8571828,3.1017855 Z M7.95123285,3.10265134 L2.75037313,3.1017855 L2.75073358,8.26379587 C5.35618203,7.72550616 7.40850568,5.68880494 7.95123285,3.10265134 Z" id="Combined-Shape" fill="#002970" fill-rule="nonzero"></path>
                                    <polygon id="Fill-17" fill="#00B9F5" points="28.9433025 20.6283146 26.0716838 20.6283146 26.0716838 23.3633809 24.206805 23.3633809 24.206805 20.6283146 21.3351863 20.6283146 21.3351863 19.2467246 24.206805 19.2467246 24.206805 17.5585609 21.3351863 17.5585609 21.3351863 16.1769709 23.6472075 16.1769709 18.9 8.69469712 21.0245963 8.69469712 25.0569113 15.2103934 25.2229163 15.2103934 29.2525538 8.69469712 31.3784888 8.69469712 26.6312813 16.1769709 28.9433025 16.1769709 28.9433025 17.5585609 26.0716838 17.5585609 26.0716838 19.2467246 28.9433025 19.2467246"></polygon>
                                </g>
                            </g>
                        </g>
                    </g>
                </g>
                <g id="Arrow" mask="url(#mask-2)" fill="#00B9F5">
                    <g transform="translate(77.000000, 119.000000)" id="Combined-Shape">
                        <path d="M12.6,-1.75765191e-13 L23.4,8.1 L12.6,16.2 L12.599,11.699 L-3.64153152e-13,11.7 L-3.64153152e-13,5.4 L12.599,5.399 L12.6,-1.75765191e-13 Z"></path>
                    </g>
                </g>
            </g>
        </g>
    </g>
</svg>