<?xml version="1.0" encoding="utf-8"?>
<svg width="344px" height="169px" viewBox="0 0 344 169" version="1.1" xmlns:xlink="http://www.w3.org/1999/xlink" xmlns="http://www.w3.org/2000/svg">
  <defs>
    <linearGradient x1="0.5" y1="0" x2="0.5" y2="1" id="gradient_1">
      <stop offset="0" stop-color="#FFC0C0" />
      <stop offset="1" stop-color="#FD5C5C" />
    </linearGradient>
    <path d="M11.999 0L331.001 0Q331.296 0 331.59 0.0144533Q331.884 0.0289066 332.177 0.0577785Q332.47 0.0866503 332.762 0.129871Q333.053 0.173092 333.342 0.230557Q333.631 0.288023 333.917 0.359595Q334.202 0.431167 334.484 0.516673Q334.766 0.602179 335.043 0.701413Q335.321 0.800647 335.593 0.913369Q335.865 1.02609 336.131 1.15203Q336.397 1.27797 336.657 1.41683Q336.917 1.55568 337.17 1.70711Q337.422 1.85855 337.667 2.0222Q337.912 2.18584 338.149 2.36131Q338.385 2.53678 338.613 2.72365Q338.841 2.91051 339.059 3.10833Q339.277 3.30614 339.486 3.51443Q339.694 3.72271 339.892 3.94096Q340.09 4.15922 340.276 4.38691Q340.463 4.61461 340.639 4.8512Q340.814 5.0878 340.978 5.33271Q341.141 5.57763 341.293 5.83028Q341.444 6.08293 341.583 6.34271Q341.722 6.60249 341.848 6.86877Q341.974 7.13504 342.087 7.40718Q342.199 7.67932 342.299 7.95666Q342.398 8.234 342.483 8.51587Q342.569 8.79775 342.64 9.08348Q342.712 9.36921 342.769 9.65811Q342.827 9.94701 342.87 10.2384Q342.913 10.5298 342.942 10.8229Q342.971 11.116 342.986 11.4102Q343 11.7044 343 11.999L343 156.001Q343 156.296 342.986 156.59Q342.971 156.884 342.942 157.177Q342.913 157.47 342.87 157.762Q342.827 158.053 342.769 158.342Q342.712 158.631 342.64 158.917Q342.569 159.202 342.483 159.484Q342.398 159.766 342.299 160.043Q342.199 160.321 342.087 160.593Q341.974 160.865 341.848 161.131Q341.722 161.398 341.583 161.657Q341.444 161.917 341.293 162.17Q341.141 162.422 340.978 162.667Q340.814 162.912 340.639 163.149Q340.463 163.385 340.276 163.613Q340.09 163.841 339.892 164.059Q339.694 164.277 339.486 164.486Q339.277 164.694 339.059 164.892Q338.841 165.089 338.613 165.276Q338.385 165.463 338.149 165.639Q337.912 165.814 337.667 165.978Q337.422 166.141 337.17 166.293Q336.917 166.444 336.657 166.583Q336.397 166.722 336.131 166.848Q335.865 166.974 335.593 167.087Q335.321 167.199 335.043 167.299Q334.766 167.398 334.484 167.483Q334.202 167.569 333.916 167.64Q333.631 167.712 333.342 167.769Q333.053 167.827 332.762 167.87Q332.47 167.913 332.177 167.942Q331.884 167.971 331.59 167.986Q331.296 168 331.001 168L11.999 168Q11.7044 168 11.4102 167.986Q11.116 167.971 10.8229 167.942Q10.5298 167.913 10.2384 167.87Q9.94701 167.827 9.65811 167.769Q9.36921 167.712 9.08348 167.64Q8.79775 167.569 8.51587 167.483Q8.234 167.398 7.95666 167.299Q7.67932 167.199 7.40718 167.087Q7.13504 166.974 6.86877 166.848Q6.60249 166.722 6.34271 166.583Q6.08293 166.444 5.83028 166.293Q5.57763 166.141 5.33271 165.978Q5.0878 165.814 4.8512 165.639Q4.61461 165.463 4.38691 165.276Q4.15922 165.089 3.94096 164.892Q3.72271 164.694 3.51443 164.486Q3.30614 164.277 3.10833 164.059Q2.91051 163.841 2.72365 163.613Q2.53678 163.385 2.36131 163.149Q2.18584 162.912 2.0222 162.667Q1.85855 162.422 1.70711 162.17Q1.55568 161.917 1.41683 161.657Q1.27797 161.398 1.15203 161.131Q1.02609 160.865 0.913369 160.593Q0.800647 160.321 0.701413 160.043Q0.602179 159.766 0.516673 159.484Q0.431167 159.202 0.359595 158.917Q0.288023 158.631 0.230557 158.342Q0.173092 158.053 0.129871 157.762Q0.0866503 157.47 0.0577785 157.177Q0.0289066 156.884 0.0144533 156.59Q0 156.296 0 156.001L0 11.999Q0 11.7044 0.0144533 11.4102Q0.0289066 11.116 0.0577785 10.8229Q0.0866503 10.5298 0.129871 10.2384Q0.173092 9.94701 0.230557 9.65811Q0.288023 9.36921 0.359595 9.08348Q0.431167 8.79775 0.516673 8.51587Q0.602179 8.234 0.701413 7.95666Q0.800647 7.67932 0.913369 7.40718Q1.02609 7.13504 1.15203 6.86877Q1.27797 6.60249 1.41683 6.34271Q1.55568 6.08293 1.70711 5.83028Q1.85855 5.57763 2.0222 5.33271Q2.18584 5.0878 2.36131 4.8512Q2.53678 4.61461 2.72365 4.38691Q2.91051 4.15922 3.10833 3.94096Q3.30614 3.72271 3.51443 3.51443Q3.72271 3.30614 3.94096 3.10833Q4.15922 2.91051 4.38691 2.72365Q4.61461 2.53678 4.8512 2.36131Q5.0878 2.18584 5.33271 2.0222Q5.57763 1.85855 5.83028 1.70711Q6.08293 1.55568 6.34271 1.41683Q6.60249 1.27797 6.86877 1.15203Q7.13504 1.02609 7.40718 0.913369Q7.67932 0.800647 7.95666 0.701413Q8.234 0.602179 8.51587 0.516673Q8.79775 0.431167 9.08348 0.359595Q9.36921 0.288023 9.65811 0.230557Q9.94701 0.173092 10.2384 0.129871Q10.5298 0.0866503 10.8229 0.0577785Q11.116 0.0289066 11.4102 0.0144533Q11.7044 0 11.999 0Z" id="path_1" />
    <path d="M0 0L27.048 0L27.048 23.2357L0 23.2357L0 0Z" transform="translate(0.2145055 0.462)" id="path_2" />
    <path d="M0 148.588L144.65 148.588L144.65 0L0 0L0 148.588Z" transform="translate(0 0.55)" id="path_3" />
    <path d="M0 0L100.284 0L100.284 108.826L0 108.826L0 0Z" transform="translate(-0.001560876 0.2760227)" id="path_4" />
    <clipPath id="mask_1">
      <use xlink:href="#path_1" />
    </clipPath>
    <clipPath id="mask_2">
      <use xlink:href="#path_2" />
    </clipPath>
    <clipPath id="mask_3">
      <use xlink:href="#path_3" />
    </clipPath>
    <clipPath id="mask_4">
      <use xlink:href="#path_4" />
    </clipPath>
  </defs>
  <g id="Image" transform="translate(0.5 0.5)">
    <path d="M11.999 0L331.001 0Q331.296 0 331.59 0.0144533Q331.884 0.0289066 332.177 0.0577785Q332.47 0.0866503 332.762 0.129871Q333.053 0.173092 333.342 0.230557Q333.631 0.288023 333.917 0.359595Q334.202 0.431167 334.484 0.516673Q334.766 0.602179 335.043 0.701413Q335.321 0.800647 335.593 0.913369Q335.865 1.02609 336.131 1.15203Q336.397 1.27797 336.657 1.41683Q336.917 1.55568 337.17 1.70711Q337.422 1.85855 337.667 2.0222Q337.912 2.18584 338.149 2.36131Q338.385 2.53678 338.613 2.72365Q338.841 2.91051 339.059 3.10833Q339.277 3.30614 339.486 3.51443Q339.694 3.72271 339.892 3.94096Q340.09 4.15922 340.276 4.38691Q340.463 4.61461 340.639 4.8512Q340.814 5.0878 340.978 5.33271Q341.141 5.57763 341.293 5.83028Q341.444 6.08293 341.583 6.34271Q341.722 6.60249 341.848 6.86877Q341.974 7.13504 342.087 7.40718Q342.199 7.67932 342.299 7.95666Q342.398 8.234 342.483 8.51587Q342.569 8.79775 342.64 9.08348Q342.712 9.36921 342.769 9.65811Q342.827 9.94701 342.87 10.2384Q342.913 10.5298 342.942 10.8229Q342.971 11.116 342.986 11.4102Q343 11.7044 343 11.999L343 156.001Q343 156.296 342.986 156.59Q342.971 156.884 342.942 157.177Q342.913 157.47 342.87 157.762Q342.827 158.053 342.769 158.342Q342.712 158.631 342.64 158.917Q342.569 159.202 342.483 159.484Q342.398 159.766 342.299 160.043Q342.199 160.321 342.087 160.593Q341.974 160.865 341.848 161.131Q341.722 161.398 341.583 161.657Q341.444 161.917 341.293 162.17Q341.141 162.422 340.978 162.667Q340.814 162.912 340.639 163.149Q340.463 163.385 340.276 163.613Q340.09 163.841 339.892 164.059Q339.694 164.277 339.486 164.486Q339.277 164.694 339.059 164.892Q338.841 165.089 338.613 165.276Q338.385 165.463 338.149 165.639Q337.912 165.814 337.667 165.978Q337.422 166.141 337.17 166.293Q336.917 166.444 336.657 166.583Q336.397 166.722 336.131 166.848Q335.865 166.974 335.593 167.087Q335.321 167.199 335.043 167.299Q334.766 167.398 334.484 167.483Q334.202 167.569 333.916 167.64Q333.631 167.712 333.342 167.769Q333.053 167.827 332.762 167.87Q332.47 167.913 332.177 167.942Q331.884 167.971 331.59 167.986Q331.296 168 331.001 168L11.999 168Q11.7044 168 11.4102 167.986Q11.116 167.971 10.8229 167.942Q10.5298 167.913 10.2384 167.87Q9.94701 167.827 9.65811 167.769Q9.36921 167.712 9.08348 167.64Q8.79775 167.569 8.51587 167.483Q8.234 167.398 7.95666 167.299Q7.67932 167.199 7.40718 167.087Q7.13504 166.974 6.86877 166.848Q6.60249 166.722 6.34271 166.583Q6.08293 166.444 5.83028 166.293Q5.57763 166.141 5.33271 165.978Q5.0878 165.814 4.8512 165.639Q4.61461 165.463 4.38691 165.276Q4.15922 165.089 3.94096 164.892Q3.72271 164.694 3.51443 164.486Q3.30614 164.277 3.10833 164.059Q2.91051 163.841 2.72365 163.613Q2.53678 163.385 2.36131 163.149Q2.18584 162.912 2.0222 162.667Q1.85855 162.422 1.70711 162.17Q1.55568 161.917 1.41683 161.657Q1.27797 161.398 1.15203 161.131Q1.02609 160.865 0.913369 160.593Q0.800647 160.321 0.701413 160.043Q0.602179 159.766 0.516673 159.484Q0.431167 159.202 0.359595 158.917Q0.288023 158.631 0.230557 158.342Q0.173092 158.053 0.129871 157.762Q0.0866503 157.47 0.0577785 157.177Q0.0289066 156.884 0.0144533 156.59Q0 156.296 0 156.001L0 11.999Q0 11.7044 0.0144533 11.4102Q0.0289066 11.116 0.0577785 10.8229Q0.0866503 10.5298 0.129871 10.2384Q0.173092 9.94701 0.230557 9.65811Q0.288023 9.36921 0.359595 9.08348Q0.431167 8.79775 0.516673 8.51587Q0.602179 8.234 0.701413 7.95666Q0.800647 7.67932 0.913369 7.40718Q1.02609 7.13504 1.15203 6.86877Q1.27797 6.60249 1.41683 6.34271Q1.55568 6.08293 1.70711 5.83028Q1.85855 5.57763 2.0222 5.33271Q2.18584 5.0878 2.36131 4.8512Q2.53678 4.61461 2.72365 4.38691Q2.91051 4.15922 3.10833 3.94096Q3.30614 3.72271 3.51443 3.51443Q3.72271 3.30614 3.94096 3.10833Q4.15922 2.91051 4.38691 2.72365Q4.61461 2.53678 4.8512 2.36131Q5.0878 2.18584 5.33271 2.0222Q5.57763 1.85855 5.83028 1.70711Q6.08293 1.55568 6.34271 1.41683Q6.60249 1.27797 6.86877 1.15203Q7.13504 1.02609 7.40718 0.913369Q7.67932 0.800647 7.95666 0.701413Q8.234 0.602179 8.51587 0.516673Q8.79775 0.431167 9.08348 0.359595Q9.36921 0.288023 9.65811 0.230557Q9.94701 0.173092 10.2384 0.129871Q10.5298 0.0866503 10.8229 0.0577785Q11.116 0.0289066 11.4102 0.0144533Q11.7044 0 11.999 0Z" id="Mask" fill="#F4FCFF" stroke="none" />
    <g clip-path="url(#mask_1)">
      <g id="Group-30" transform="translate(-19 38)">
        <path d="M11.253 5.68226C11.253 7.08256 10.285 8.97236 10.0738 11.3621C10.2443 23.4434 7.12687 42.612 7.12687 42.612L0.441072 42.612C0.441072 42.612 -0.864078 10.0696 1.01582 4.21981C2.89627 -1.62999 11.253 -1.62999 11.253 5.68226" transform="translate(45.2356 58.46622)" id="Fill-1" fill="#FFE0E2" stroke="none" />
        <path d="M8.71741 1.65918C9.78496 2.56558 10.599 4.52688 12.2842 6.23408C21.6039 13.9236 34.1984 28.7065 34.1984 28.7065L29.8715 33.8028C29.8715 33.8028 4.21951 13.7361 0.976711 8.51658C-2.26554 3.29708 3.14316 -3.07302 8.71741 1.65918" transform="translate(91.89877 58.09843)" id="Fill-3" fill="#FFE0E2" stroke="none" />
        <path d="M21.5239 23.3419C26.3104 20.2364 27.9746 11.8537 25.0111 0C25.0111 0 11.1087 2.40515 6.03443 1.8975C4.61743 8.50908 6.72627 17.9408 11.3078 22.297L11.4351 25.8713L0 31.2124C0 31.2124 1.111 38.7556 12.6962 39.5278C24.2814 40.3 26.1498 28.2461 26.1498 28.2461L21.4412 25.9043L21.5239 23.3419Z" transform="translate(58.85022 7.7539)" id="Combined-Shape" fill="#FFE0E2" fill-rule="evenodd" stroke="none" />
        <path d="M34.0093 2.0416C27.0512 2.0416 23.8057 -2.76388e-17 23.8057 -2.76388e-17C23.8057 -2.76388e-17 11.834 4.28514 10.2555 5.76189C8.67699 7.23864 1.89805 20.7059 0 25.1339C0.9493 30.5107 12.9679 31.1432 15.4979 30.5107C15.8543 28.7381 16.3993 25.8319 16.3993 25.8319C16.0446 38.9048 15.4341 47.2929 15.4979 61.506C15.4979 61.506 37.8785 66.8998 49.5808 60.8905C47.9463 49.0831 48.1278 29.8281 48.1278 29.8281C48.1278 29.8281 57.7555 29.2619 59.7555 23.2619C57.7393 18.8851 50.2555 4.76189 50.2555 4.76189C50.2555 4.76189 41.2555 0.26189 41.2555 0.26189C41.2555 0.26189 40.9678 2.0416 34.0093 2.0416Z" transform="translate(42.74451 34.73811)" id="Fill-11" fill="#D9CDC1" stroke="none" />
        <g id="Group-15" transform="translate(59.95 0.088)">
          <path d="M0 0L27.048 0L27.048 23.2357L0 23.2357L0 0Z" transform="translate(0.2145055 0.462)" id="Clip-14" fill="none" stroke="none" />
          <g clip-path="url(#mask_2)">
            <path d="M19.7177 13.0636C19.4097 15.032 12.906 16.1513 9.99976 14.8797C7.71561 16.6369 8.27386 22.5637 8.27386 21.692C8.27386 19.421 3.82326 16.0605 6.09421 23.2358C2.27941 22.418 -2.35269 16.0605 1.37136 12.4272C1.72996 9.69315 0.00901447 2.70925 9.75666 2.9419C11.9072 -2.01415 17.8186 0.0835522 20.3541 3.4358C24.1683 1.5284 30.2535 8.97595 25.0082 13.8209C23.1695 15.0612 22.3517 15.2427 19.7177 13.0636Z" transform="translate(0.2145055 0.4619378)" id="Fill-13" fill="#404040" stroke="none" />
          </g>
        </g>
        <path d="M0 148.588L144.65 148.588L144.65 0L0 0L0 148.588Z" transform="translate(0 0.55)" id="Clip-17" fill="none" stroke="none" />
        <g clip-path="url(#mask_3)">
          <path d="M0 38L129.25 38L129.25 0L0 0L0 38Z" transform="translate(7.15 102.938)" id="Fill-16" fill="#EDEDED" stroke="none" />
          <path d="M8.39653 0.311646C10.0506 4.71783 11.7078 11.488 11.7078 11.488L29.8727 11.488C29.8727 11.488 29.8727 2.99249 29.2539 0C29.6783 0.180237 30.1212 0.433899 30.7159 0.732483C31.4512 5.2847 31.3263 12.033 31.3263 12.033L36.0492 31.833L39.05 66.0117L0 66.0117L3.1702 30.5614L9.7097 12.2145C9.7097 12.2145 8.66978 5.97253 6.74245 0.952182C7.30571 0.71991 7.8043 0.509277 8.39653 0.311646Z" transform="translate(55.54995 35.27643)" id="Fill-18" fill="#B2AAA1" stroke="none" />
          <path d="M0 9.35L137.5 9.35L137.5 0L0 0L0 9.35Z" transform="translate(7.15 99.088)" id="Fill-19" fill="#E0E0E0" stroke="none" />
          <path d="M11.1951 1.01571C11.2099 1.01516 11.2248 1.01241 11.2385 1.00801L14.4016 0.00810645C14.5396 -0.0358936 14.6628 0.107656 14.5946 0.235256C14.2586 0.860607 13.3984 2.16466 11.8985 2.57386C10.8513 2.85986 9.82777 3.23771 9.76397 4.25411C9.73427 4.73866 9.99222 5.40196 11.3991 5.94976C13.4198 6.73681 14.9923 8.18166 15.7491 8.97091C15.8701 9.09741 15.7304 9.29926 15.5698 9.23051C14.6012 8.81416 12.8049 8.05626 11.6389 7.64651C11.4651 7.58491 11.348 7.81701 11.4954 7.92811C13.1553 9.18156 14.1959 10.5516 14.6997 11.3145C14.7943 11.4586 14.6265 11.6313 14.4802 11.5394C13.4484 10.8904 11.2721 9.58746 9.82612 9.18431C9.66497 9.13976 9.55112 9.34216 9.67377 9.45601C10.9767 10.6671 11.8908 12.3804 12.3143 13.2791C12.3869 13.4331 12.201 13.5772 12.0668 13.4716C11.0317 12.6515 8.67057 10.831 7.27797 10.1325C7.14322 10.0649 7.00077 10.2068 7.06402 10.3437C7.45507 11.1874 7.72732 12.2946 7.86757 12.954C7.90167 13.1152 7.70092 13.2147 7.58982 13.0937L5.44317 10.7425C5.43767 10.7364 5.43162 10.7304 5.42502 10.7254L2.74048 8.58371L0.0553756 6.24456C-0.0150244 6.18351 -0.0188744 6.07516 0.0471256 6.00916L4.78427 1.27146C4.81342 1.24286 4.85192 1.22581 4.89317 1.22471L11.1951 1.01571Z" transform="translate(120.0116 84.22929)" id="Fill-20" fill="#FFE0E2" stroke="none" />
          <path d="M0 6.05L62.15 6.05L62.15 0L0 0L0 6.05Z" transform="translate(0 91.388)" id="Fill-21" fill="#E6E6E6" stroke="none" />
          <path d="M0 1.65L62.15 1.65L62.15 0L0 0L0 1.65Z" transform="translate(0 97.438)" id="Fill-22" fill="#808080" stroke="none" />
          <path d="M0 6.05L29.7 6.05L29.7 0L0 0L0 6.05Z" transform="translate(7.7 85.338)" id="Fill-23" fill="#B3B3B3" stroke="none" />
          <path d="M0 6.05L15.4 6.05L15.4 0L0 0L0 6.05Z" transform="translate(45.65 85.338)" id="Fill-24" fill="#B3B3B3" stroke="none" />
          <path d="M15.4 12.1L0 12.1L0 1.1C0 0.4928 0.4928 0 1.1 0L14.3 0C14.9072 0 15.4 0.4928 15.4 1.1L15.4 12.1Z" transform="translate(45.65 75.438)" id="Fill-25" fill="#E6E6E6" stroke="none" />
          <path d="M0.6864 24.2C0.308 24.2 0 23.892 0 23.5136L0 0.6864C0 0.308 0.308 0 0.6864 0L40.8133 0C41.0542 0 41.25 0.1958 41.25 0.4367L41.25 23.5136C41.25 23.892 40.942 24.2 40.5636 24.2L0.6864 24.2Z" transform="translate(1.375 61.963)" id="Fill-26" fill="#DCFBFF" stroke="none" />
          <path d="M2.0614 0L42.1883 0C43.1888 0 44 0.81125 44 1.8117L44 24.8886C44 26.0271 43.0771 26.95 41.9386 26.95L2.0614 26.95C0.9229 26.95 0 26.0271 0 24.8886L0 2.0614C0 0.9229 0.9229 0 2.0614 0ZM41.25 24.2L2.75 24.2L2.75 2.75L41.25 2.75L41.25 24.2Z" transform="translate(5.5E-05 60.588)" id="Fill-27" fill="#3F3731" fill-rule="evenodd" stroke="none" />
          <path d="M0 3.3L0 0.550001C0 0.24695 0.24695 0 0.55 0L13.75 0C14.053 0 14.3 0.24695 14.3 0.550001L14.3 3.3L0 3.3Z" transform="translate(46.2 75.988)" id="Fill-28" fill="#DCFBFF" stroke="none" />
          <path d="M1.1 0L14.3 0C14.9072 0 15.4 0.4928 15.4 1.1L15.4 4.4L0 4.4L0 1.1C0 0.4928 0.4928 0 1.1 0ZM14.3 3.3L1.1 3.3L1.1 1.1L14.3 1.1L14.3 3.3Z" transform="translate(45.65 75.438)" id="Fill-29" fill="#3F3731" fill-rule="evenodd" stroke="none" />
        </g>
      </g>
      <g id="Group-24" transform="translate(179 8)">
        <g id="Group-2" transform="translate(0.7204359 69.72745)">
          <path d="M23.6265 47.9309C24.9573 48.8184 49.5725 81.8821 49.5725 81.8821C49.5725 81.8821 71.3047 58.8045 69.0869 57.0294C66.8692 55.2537 36.2668 34.3953 36.2668 34.3953L32.9406 8.87614L13.4262 0C13.4262 0 -7.64057 8.43203 3.00359 13.3145C-6.31047 27.0719 15.6432 42.6056 23.6265 47.9309" transform="translate(27.46801 30.62534)" id="Fill-1" fill="#FFE0E2" stroke="none" />
          <g id="Group">
            <path d="M23.0235 55.1132C21.9553 55.1132 20.9743 54.4844 20.5252 53.5122L0.256068 9.6273C-0.0917316 8.8748 -0.0850173 8.01412 0.274868 7.26767C0.63274 6.52256 1.2988 5.98238 2.09981 5.78619L25.3789 0.0792812C25.5931 0.026875 25.8133 0 26.0329 0C27.0823 0 28.0552 0.613422 28.5111 1.56278L48.5325 43.2358C48.8796 43.9574 48.9004 44.7617 48.5915 45.5C48.284 46.2378 47.6992 46.786 46.9459 47.0454L23.9152 54.9634C23.6258 55.0628 23.3257 55.1132 23.0235 55.1132" transform="translate(1.369278 2.93737)" id="Fill-3" fill="#FFFFFF" stroke="none" />
            <path d="M27.4018 0C27.0775 0 26.7485 0.0389687 26.4221 0.118922L3.14304 5.82516C0.623843 6.44261 -0.706257 9.21141 0.383472 11.571L20.6526 55.4559C21.3441 56.9522 22.8273 57.8511 24.3924 57.8511C24.8369 57.8511 25.2881 57.7792 25.7292 57.6274L48.7599 49.7093C51.0945 48.9065 52.2057 46.2405 51.1354 44.0118L31.1134 2.33812C30.4145 0.884859 28.9554 0 27.4018 0M27.4018 2.73856C27.9288 2.73856 28.4176 3.04763 28.6466 3.52533L48.6686 45.1984C48.9043 45.6902 48.7888 46.1256 48.6988 46.3419C48.6088 46.5562 48.3819 46.9432 47.8703 47.1193L24.8403 55.0373C24.6939 55.0877 24.5435 55.1132 24.3924 55.1132C23.8559 55.1132 23.3631 54.7968 23.1368 54.307L2.86709 10.4221C2.62739 9.90142 2.76973 9.45194 2.87716 9.23022C2.98324 9.00984 3.24309 8.62016 3.79433 8.48511L27.0734 2.77888C27.1815 2.752 27.2923 2.73856 27.4018 2.73856" transform="translate(-1.634671E-14 1.568156)" id="Fill-5" fill="#000000" stroke="none" />
            <path d="M22.6131 54.0443C21.5637 54.0443 20.5995 53.4282 20.1584 52.4748L0.251193 9.43783C-0.0898924 8.70145 -0.0831781 7.85959 0.26865 7.12859C0.620479 6.39692 1.27445 5.86681 2.06338 5.67398L24.9255 0.0779375C25.137 0.0262031 25.3526 0 25.5681 0C26.5994 0 27.5562 0.601328 28.004 1.53188L47.6675 42.3993C48.0072 43.1055 48.0287 43.8929 47.7259 44.6159C47.4244 45.3395 46.8503 45.8776 46.1091 46.1323L23.49 53.8971C23.206 53.9946 22.9106 54.0443 22.6131 54.0443" transform="translate(2.015032 1.344086)" id="Fill-7" fill="#FFFFFF" stroke="none" />
            <path d="M0 6.93254L9.32476 27.5057L36.3041 19.949L26.4916 0L0 6.93254Z" transform="translate(2.083279 1.568156)" id="Path-2" fill="url(#gradient_1)" stroke="none" />
            <path d="M2.2381 4.47917C3.47416 4.47917 4.47619 3.47647 4.47619 2.23958C4.47619 1.0027 3.47416 0 2.2381 0C1.00203 0 0 1.0027 0 2.23958C0 3.47647 1.00203 4.47917 2.2381 4.47917Z" transform="translate(33.57125 44.47291)" id="Oval" fill="#FD5C5C" stroke="none" />
            <path d="M26.9121 0C26.5932 0 26.2709 0.0382969 25.9499 0.116234L3.0878 5.71228C0.612915 6.31831 -0.693685 9.03336 0.376572 11.3466L20.2838 54.3829C20.9626 55.8496 22.4189 56.7318 23.9565 56.7318C24.3929 56.7318 24.8354 56.6612 25.2698 56.5121L47.8882 48.7472C50.1811 47.9605 51.2729 45.3462 50.2214 43.1606L30.558 2.29311C29.8711 0.868062 28.4376 0 26.9121 0M26.9121 2.6875C27.4311 2.6875 27.9119 2.99052 28.1375 3.45881L47.8009 44.3263C48.0319 44.806 47.9191 45.2313 47.8305 45.4423C47.7425 45.6532 47.5196 46.0328 47.0167 46.2055L24.3983 53.9704C24.2539 54.0194 24.1055 54.0443 23.9565 54.0443C23.4287 54.0443 22.9433 53.7345 22.721 53.2542L2.81319 10.2179C2.57886 9.71061 2.71851 9.2712 2.82259 9.05553C2.92666 8.83852 3.18247 8.45555 3.72566 8.32319L26.5885 2.72714C26.6952 2.70094 26.804 2.6875 26.9121 2.6875" transform="translate(0.6712788 2.784809E-14)" id="Fill-9" fill="#000000" stroke="none" />
            <path d="M0 7.55887L25.4857 0L26.6733 2.45884L1.23817 10.3594L0 7.55887Z" transform="translate(16.66232 31.21229)" id="Path-4" fill="#EEEEEE" stroke="none" />
            <path d="M0 4.90674L4.05928 12.9476L23.3602 7.78168L19.0473 0L0 4.90674Z" transform="translate(8.980065 8.569587)" id="Path-3" fill="#FFFFFF" stroke="none" />
          </g>
          <path d="M20.1801 9.54197L0.000353956 0C0.000353956 0 -0.221217 8.21099 10.4229 13.0928C15.9669 26.185 20.1801 9.54197 20.1801 9.54197" transform="translate(40.45015 30.40315)" id="Fill-11" fill="#FFE0E2" stroke="none" />
        </g>
        <path d="M3.4204 82.9118C6.07984 88.557 14.0568 100.219 24.6925 94.2023C25.874 101.63 29.5304 106.199 28.09 115C37.3966 110.321 71.5198 98.3618 68.8604 86.9971C66.2016 75.6324 70.2337 37.2769 72.5537 26.4594C79.0533 -3.84622 12.5788 -13.3535 2.38655 26.1625C-0.682136 38.0596 -1.24636 73.0031 3.4204 82.9118Z" transform="translate(100 10)" id="Fill-13" fill="#FFE0E2" stroke="none" />
        <g id="Group-19" transform="translate(68 105)">
          <path d="M0 0L100.284 0L100.284 108.826L0 108.826L0 0Z" transform="translate(-0.001560876 0.2760227)" id="Clip-18" fill="none" stroke="none" />
          <g clip-path="url(#mask_4)">
            <path d="M73.0042 4.43234C61.7367 8.28795 36.4591 20.2993 23.7829 37.6485C11.1067 54.9984 5.02853 75.9804 0.358293 83.9879C-4.31127 91.9955 37.9417 102.598 52.6191 102.524C52.4905 104.041 51.9518 105.416 51.5067 107.64C67.5193 107.64 97.6152 108.826 97.6152 108.826C97.6152 108.826 100.284 5.61832 100.284 0.280398C90.2018 -0.609255 84.2711 0.576724 73.0042 4.43234" transform="translate(-0.001560876 0.2760227)" id="Fill-17" fill="#00B9F5" stroke="none" />
          </g>
        </g>
        <path d="M25.949 44.7683C26.5392 48.2715 28.7373 59.4798 30.8395 64.4588C32.7206 59.1482 43.6722 57.3162 43.6722 67.4454C43.2387 73.3276 40.8971 80.2299 37.4672 82.9954L44.8956 91C44.8956 91 54.2921 86.7322 67.8624 89.3879C73.172 79.9471 86.9747 51.7282 80.1388 29.9886C76.5478 18.5683 67.3248 10.5062 49.183 6.90111C40.7262 5.22059 30.8395 6.90111 19.7462 10.0113C19.938 6.95018 19.9988 3.713 21.9845 5.10158e-18C3.40426 6.95018 -5.32732 27.1912 3.40426 35.9891C11.3161 42.3553 19.3906 42.3553 25.949 44.7683Z" transform="translate(99 0)" id="Fill-20" fill="#03286F" stroke="none" />
        <path d="M0 24C0 24 2.97054 16.3472 8.91298 12.5204C14.8554 8.69368 23.4398 5.08684 33.4694 2.30418C43.08 -0.362181 50 0.0188223 50 0.0188223L50 12.5873C50 12.5873 39.2357 9.73108 17.826 17.2302C7.65473 20.7929 0 24 0 24" transform="translate(119 96)" id="Fill-22" fill="#84E1FF" stroke="none" />
      </g>
      <g id="Icon_Challenge-Copy" transform="translate(93 12)">
        <g id="Icon">
          <path d="M18 36C27.9411 36 36 27.9411 36 18C36 8.05887 27.9411 0 18 0C8.05887 0 0 8.05887 0 18C0 27.9411 8.05887 36 18 36Z" id="Oval" fill="#FD8D8D" stroke="none" />
        </g>
        <path d="M23.5731 0.557007C23.3811 0.123643 22.889 -0.103152 22.4283 0.0455978L17.8997 1.50774L17.8099 1.54179C17.3748 1.73273 17.1464 2.22601 17.2956 2.68794L17.3296 2.77767C17.5206 3.21279 18.0138 3.44118 18.4758 3.29204L20.8704 2.51879L17.6155 10.6735L14.3654 4.56405L14.3131 4.47675C13.9042 3.86782 12.9557 3.94668 12.6692 4.65142L9.26273 13.0308L5.98162 6.25009L5.9328 6.161C5.54828 5.53786 4.59957 5.57867 4.28465 6.26964L0.0846525 15.4849L0.0493041 15.5742C-0.103066 16.0242 0.107232 16.5255 0.548927 16.7268L0.638156 16.7622C1.08824 16.9145 1.5895 16.7042 1.79081 16.2625L5.16248 8.863L8.49383 15.7465L8.54159 15.8339C8.93405 16.4735 9.91315 16.4122 10.2062 15.6911L13.651 7.2145L16.9101 13.3385L16.9626 13.4261C17.3729 14.0369 18.3255 13.9546 18.6085 13.2456L22.5362 3.40343L23.2967 5.72912L23.331 5.81872C23.5236 6.25313 24.0177 6.47968 24.4791 6.32882C24.9712 6.16791 25.2397 5.63851 25.0788 5.14638L23.6074 0.646383L23.5731 0.557007Z" transform="translate(5.062271 8.81225)" id="Combined-Shape" fill="#FFFFFF" fill-rule="evenodd" stroke="none" />
      </g>
      <g id="Icon_Standard-Copy" transform="translate(119 31)">
        <g id="Icon_Standard">
          <g id="Icon">
            <path d="M18 36C27.9411 36 36 27.9411 36 18C36 8.05887 27.9411 0 18 0C8.05887 0 0 8.05887 0 18C0 27.9411 8.05887 36 18 36Z" id="Oval" fill="#FFC800" stroke="none" />
          </g>
          <path d="M24.5081 1.44444C24.509 0.970468 24.1516 0.563103 23.6703 0.511604L18.9385 0.00539708L18.8427 1.34706e-05C18.3675 -0.00253677 17.9582 0.3552 17.9066 0.837852L17.9012 0.933677C17.8987 1.40884 18.2564 1.81812 18.739 1.86976L21.3055 2.14428L17.6581 5.18935L14.0353 2.92025L13.94 2.86793C13.6152 2.71344 13.2261 2.75769 12.9431 2.98983L9.28806 5.9866L5.6694 3.49401L5.57739 3.4381C5.26295 3.27092 4.8766 3.29545 4.58413 3.50935L0.384126 6.58111L0.304922 6.64586C-0.0441657 6.96423 -0.104426 7.5012 0.180852 7.89126L0.245596 7.97047C0.563968 8.31955 1.10094 8.37981 1.491 8.09453L5.15256 5.4151L8.80573 7.93134L8.89399 7.98526C9.22536 8.16341 9.63598 8.12702 9.93207 7.88418L13.6103 4.86685L17.2398 7.14043L17.3277 7.18918C17.6567 7.34922 18.0531 7.30393 18.3386 7.06548L22.3972 3.67539L22.1519 6.05696L22.1469 6.15281C22.1461 6.62798 22.5053 7.03593 22.9882 7.08577C23.5032 7.13893 23.9638 6.76451 24.017 6.24948L24.5031 1.54004L24.5081 1.44444Z" transform="translate(5.062436 12.84815)" id="Combined-Shape" fill="#FFFFFF" fill-rule="evenodd" stroke="none" />
        </g>
      </g>
      <g id="Item-3" transform="translate(195 18)">
        <path d="M0 0L45 0L45 26.1L0 26.1L0 0Z" transform="translate(9.9 0.4)" id="Rectangle" fill="#FFFFFF" stroke="none" />
        <path d="M0 0L45 0L45 26.1L0 26.1L0 0Z" transform="translate(0.9 10.3)" id="Rectangle" fill="#FFFFFF" stroke="none" />
        <g id="Icon" transform="translate(0 7)">
          <g id="Icon">
            <g id="balance" transform="translate(0 0.6)">
              <path d="M2.72393 0L9.42873 0C9.44166 -0.000356215 9.45462 -0.0005355 9.46763 -0.0005355C9.48064 -0.0005355 9.49361 -0.000356215 9.50653 0L39.101 0C39.1139 -0.000356215 39.1269 -0.0005355 39.1399 -0.0005355C39.1529 -0.0005355 39.1659 -0.000356215 39.1788 0L45.8836 0C47.389 0 48.6076 1.20955 48.6076 2.70375L48.6076 26.8012C48.6076 28.2944 47.3887 29.505 45.8836 29.505L2.72393 29.505C1.21883 29.505 0 28.2944 0 26.8012L0 2.70375C0 1.20955 1.21858 0 2.72393 0ZM45.8572 18.841C41.7297 19.4374 38.4648 22.6781 37.8639 26.775L10.7436 26.775C10.1427 22.6781 6.87781 19.4374 2.75037 18.841L2.75037 10.6635C6.87798 10.0673 10.1426 6.82724 10.7436 2.73L37.864 2.73C38.4649 6.82724 41.7296 10.0673 45.8572 10.6635L45.8572 18.841ZM2.75037 2.73L7.95142 2.73C7.40894 5.31668 5.35628 7.35385 2.75037 7.89208L2.75037 2.73ZM45.8572 7.89209L45.8572 2.73L40.6561 2.73C41.1986 5.31668 43.2513 7.35385 45.8572 7.89209ZM10.8164 16.1175L16.2113 16.1175C16.9708 16.1175 17.5865 15.5064 17.5865 14.7525C17.5865 13.9986 16.9708 13.3875 16.2113 13.3875L10.8164 13.3875C10.0569 13.3875 9.44118 13.9986 9.44118 14.7525C9.44118 15.5064 10.0569 16.1175 10.8164 16.1175ZM37.7912 16.1175L32.3962 16.1175C31.6367 16.1175 31.021 15.5064 31.021 14.7525C31.021 13.9986 31.6367 13.3875 32.3962 13.3875L37.7912 13.3875C38.5507 13.3875 39.1664 13.9986 39.1664 14.7525C39.1664 15.5064 38.5507 16.1175 37.7912 16.1175ZM40.6561 26.775L45.8572 26.775L45.8572 21.6124C43.2514 22.1509 41.1986 24.1886 40.6561 26.775ZM2.75037 26.775L2.75037 21.6124C5.35611 22.1509 7.40901 24.1886 7.95145 26.775L2.75037 26.775Z" transform="translate(6.366463E-12 0.3717855)" id="Combined-Shape" fill="#002970" fill-rule="evenodd" stroke="none" />
              <path d="M10.0433 11.9336L7.17168 11.9336L7.17168 14.6687L5.30681 14.6687L5.30681 11.9336L2.43519 11.9336L2.43519 10.552L5.30681 10.552L5.30681 8.86386L2.43519 8.86386L2.43519 7.48227L4.74721 7.48227L0 0L2.1246 0L6.15691 6.5157L6.32292 6.5157L10.3526 0L12.4785 0L7.73128 7.48227L10.0433 7.48227L10.0433 8.86386L7.17168 8.86386L7.17168 10.552L10.0433 10.552L10.0433 11.9336Z" transform="translate(18.9 8.694697)" id="Fill-17" fill="#00B9F5" stroke="none" />
            </g>
          </g>
        </g>
      </g>
      <g id="Arrow" transform="translate(163 33)">
        <path d="M12.6 16.2L23.4 8.1L12.6 0L12.6 5.4L0 5.4L0 11.7L12.6 11.7L12.6 16.2Z" id="Combined-Shape" fill="#00B9F5" fill-rule="evenodd" stroke="none" />
      </g>
    </g>
  </g>
</svg>