<?xml version="1.0" encoding="utf-8"?>
<svg width="102px" height="123px" viewBox="0 0 102 123" version="1.1" xmlns:xlink="http://www.w3.org/1999/xlink" xmlns="http://www.w3.org/2000/svg">
  <g id="Icon_Challenge">
    <g id="Icon">
      <path d="M27 54C41.9117 54 54 41.9117 54 27C54 12.0883 41.9117 0 27 0C12.0883 0 0 12.0883 0 27C0 41.9117 12.0883 54 27 54Z" id="Oval" fill="#FD8D8D" stroke="none" />
    </g>
    <path d="M35.3596 0.83551C35.0717 0.185464 34.3335 -0.154728 33.6424 0.0683967L26.8495 2.26161L26.7149 2.31269C26.0622 2.5991 25.7197 3.33902 25.9434 4.03191L25.9945 4.1665C26.2809 4.81918 27.0208 5.16177 27.7137 4.93806L31.3056 3.77819L26.4232 16.0103L21.5481 6.84608L21.4696 6.71512C20.8563 5.80173 19.4335 5.92002 19.0038 6.97713L13.8941 19.5461L8.97243 9.37513L8.8992 9.2415C8.32242 8.30679 6.89935 8.36801 6.42698 9.40446L0.126979 23.2274L0.0739561 23.3612C-0.154598 24.0363 0.160848 24.7882 0.82339 25.0902L0.957235 25.1432C1.63235 25.3718 2.38424 25.0563 2.68621 24.3938L7.74372 13.2945L12.7408 23.6197L12.8124 23.7508C13.4011 24.7103 14.8697 24.6183 15.3094 23.5367L20.4765 10.8217L25.3651 20.0078L25.4439 20.1391C26.0594 21.0553 27.4883 20.932 27.9127 19.8684L33.8043 5.10514L34.945 8.59367L34.9966 8.72808C35.2854 9.37969 36.0266 9.71952 36.7186 9.49324C37.4568 9.25186 37.8596 8.45777 37.6182 7.71958L35.4111 0.969575L35.3596 0.83551Z" transform="translate(7.593406 13.21838)" id="Combined-Shape" fill="#FFFFFF" fill-rule="evenodd" stroke="none" />
  </g>
  <g id="Icon_Standard" transform="translate(48 0)">
    <g id="Icon_Standard">
      <g id="Icon">
        <path d="M27 54C41.9117 54 54 41.9117 54 27C54 12.0883 41.9117 0 27 0C12.0883 0 0 12.0883 0 27C0 41.9117 12.0883 54 27 54Z" id="Oval" fill="#FFC800" stroke="none" />
      </g>
      <path d="M36.7622 2.16667C36.7635 1.4557 36.2275 0.844654 35.5054 0.767406L28.4077 0.00809503L28.264 1.95503e-05C27.5513 -0.00380564 26.9373 0.532799 26.8599 1.25678L26.8518 1.40052C26.848 2.11326 27.3846 2.72719 28.1086 2.80464L31.9582 3.21642L26.4871 7.78402L21.0529 4.38038L20.9099 4.3019C20.4228 4.07016 19.8392 4.13654 19.4146 4.48474L13.9321 8.9799L8.5041 5.24102L8.36609 5.15716C7.89443 4.90637 7.31489 4.94317 6.87619 5.26402L0.576189 9.87167L0.457383 9.96878C-0.0662486 10.4463 -0.156639 11.2518 0.271278 11.8369L0.368394 11.9557C0.845952 12.4793 1.65141 12.5697 2.2365 12.1418L7.72885 8.12265L13.2086 11.897L13.341 11.9779C13.838 12.2451 14.454 12.1905 14.8981 11.8263L20.4155 7.30027L25.8598 10.7106L25.9916 10.7838C26.485 11.0238 27.0796 10.9559 27.5078 10.5982L33.5958 5.51309L33.2278 9.08545L33.2203 9.22921C33.2191 9.94197 33.758 10.5539 34.4823 10.6286C35.2548 10.7084 35.9457 10.1468 36.0255 9.37422L36.7546 2.31006L36.7622 2.16667Z" transform="translate(7.593654 19.27223)" id="Combined-Shape" fill="#FFFFFF" fill-rule="evenodd" stroke="none" />
    </g>
  </g>
  <g id="Item-3" transform="translate(21 86)">
    <path d="M0 0L54 0L54 31.32L0 31.32L0 0Z" transform="translate(1.08 3.76)" id="Rectangle" fill="#FFFFFF" stroke="none" />
    <g id="Icon">
      <g id="Icon">
        <g id="balance" transform="translate(0 0.72)">
          <path d="M3.26871 0.0006426L11.3145 0.0006426C11.33 0.000215141 11.3455 0 11.3612 0C11.3768 0 11.3923 0.000215141 11.4078 0.0006426L46.9212 0.0006426C46.9367 0.000215141 46.9523 0 46.9679 0C46.9835 0 46.9991 0.000215141 47.0146 0.0006426L55.0604 0.0006426C56.8668 0.0006426 58.3291 1.45211 58.3291 3.24514L58.3291 32.1621C58.3291 33.9539 56.8665 35.4066 55.0604 35.4066L3.26871 35.4066C1.4626 35.4066 0 33.9539 0 32.1621L0 3.24514C0 1.45211 1.46229 0.0006426 3.26871 0.0006426ZM55.0286 22.6098C50.0757 23.3255 46.1578 27.2144 45.4367 32.1306L12.8923 32.1306C12.1713 27.2144 8.25337 23.3255 3.30045 22.6098L3.30045 12.7969C8.25358 12.0814 12.1711 8.19333 12.8923 3.27664L45.4368 3.27664C46.1579 8.19333 50.0755 12.0814 55.0286 12.7969L55.0286 22.6098ZM3.30045 3.27664L9.5417 3.27664C8.89073 6.38066 6.42754 8.82526 3.30045 9.47114L3.30045 3.27664ZM55.0286 9.47114L55.0286 3.27664L48.7874 3.27664C49.4383 6.38066 51.9015 8.82526 55.0286 9.47114ZM12.9796 19.3416L19.4536 19.3416C20.365 19.3416 21.1038 18.6083 21.1038 17.7036C21.1038 16.799 20.365 16.0656 19.4536 16.0656L12.9796 16.0656C12.0683 16.0656 11.3294 16.799 11.3294 17.7036C11.3294 18.6083 12.0683 19.3416 12.9796 19.3416ZM45.3494 19.3416L38.8755 19.3416C37.9641 19.3416 37.2252 18.6083 37.2252 17.7036C37.2252 16.799 37.9641 16.0656 38.8755 16.0656L45.3494 16.0656C46.2608 16.0656 46.9996 16.799 46.9996 17.7036C46.9996 18.6083 46.2608 19.3416 45.3494 19.3416ZM3.30045 32.1306L3.30045 25.9356C6.42733 26.5817 8.89081 29.0269 9.54175 32.1306L3.30045 32.1306ZM48.7873 32.1306L55.0286 32.1306L55.0286 25.9356C51.9017 26.5817 49.4383 29.0269 48.7873 32.1306Z" transform="translate(3.637979E-12 0.2455)" id="Combined-Shape" fill="#002970" fill-rule="evenodd" stroke="none" />
          <path d="M12.052 14.3203L8.60602 14.3203L8.60602 17.6024L6.36817 17.6024L6.36817 14.3203L2.92222 14.3203L2.92222 12.6624L6.36817 12.6624L6.36817 10.6366L2.92222 10.6366L2.92222 8.97873L5.69665 8.97873L0 0L2.54952 0L7.38829 7.81884L7.5875 7.81884L12.4231 0L14.9742 0L9.27754 8.97873L12.052 8.97873L12.052 10.6366L8.60602 10.6366L8.60602 12.6624L12.052 12.6624L12.052 14.3203Z" transform="translate(22.68 10.23364)" id="Fill-17" fill="#00B9F5" stroke="none" />
        </g>
      </g>
    </g>
  </g>
  <g id="Arrow" transform="matrix(-4.371139E-08 1 -1 -4.371139E-08 60.5 55.5)">
    <path d="M12.6 16.2L23.4 8.1L12.6 0L12.6 5.4L0 5.4L0 11.7L12.6 11.7L12.6 16.2Z" id="Combined-Shape" fill="#00B9F5" fill-rule="evenodd" stroke="none" />
  </g>
</svg>