<?xml version="1.0" encoding="utf-8"?>
<svg width="160px" height="164px" viewBox="0 0 160 164" version="1.1" xmlns:xlink="http://www.w3.org/1999/xlink" xmlns="http://www.w3.org/2000/svg">
  <defs>
    <path d="M0 0L159 0L159 163L0 163L0 0Z" id="path_1" />
    <path d="M0 0L94.863 0L94.863 197.666L0 197.666L0 0Z" transform="translate(0.08538301 0.1360509)" id="path_2" />
    <path d="M0 0L70.0377 0L70.0377 135.391L0 135.391L0 0Z" transform="translate(0.0001500807 0.2748093)" id="path_3" />
    <path d="M0 255.912L119.962 255.912L119.962 0L0 0L0 255.912Z" transform="translate(0 0.2748093)" id="path_4" />
    <path d="M0 256.724L120.897 256.724L120.897 0L0 0L0 256.724Z" transform="translate(0 0.2756817)" id="path_5" />
    <clipPath id="mask_1">
      <use xlink:href="#path_1" />
    </clipPath>
    <clipPath id="mask_2">
      <use xlink:href="#path_2" />
    </clipPath>
    <clipPath id="mask_3">
      <use xlink:href="#path_3" />
    </clipPath>
    <clipPath id="mask_4">
      <use xlink:href="#path_4" />
    </clipPath>
    <clipPath id="mask_5">
      <use xlink:href="#path_5" />
    </clipPath>
  </defs>
  <g id="Group-4" transform="translate(58.5 89.5)">
    <path d="M9.01115e-13 6.04221L17 13L3.38532 0L9.01115e-13 6.04221Z" transform="translate(0 11)" id="Path-19" fill="#FF9933" stroke="none" />
    <path d="M0 3.31508L11 19L6.31567 0L0 3.31508Z" transform="translate(12 2)" id="Path-19-Copy" fill="#FF9933" stroke="none" />
    <path d="M0.135548 0L0 19L6 0.974176L0.135548 0Z" transform="translate(28 0)" id="Path-19-Copy-2" fill="#FF9933" stroke="none" />
  </g>
  <g id="Image" transform="translate(0.5 0.5)">
    <path d="M0 0L159 0L159 163L0 163L0 0Z" id="Mask" fill="none" stroke="none" />
    <g clip-path="url(#mask_1)">
      <g id="Group-46" transform="matrix(0.8660254 -0.5 0.5 0.8660254 8.437012 34.2627)">
        <g id="Group-19" transform="translate(1.559946 0.2692379)">
          <g id="Group-3" transform="translate(25.01345 58.3844)">
            <path d="M0 0L94.863 0L94.863 197.666L0 197.666L0 0Z" transform="translate(0.08538301 0.1360509)" id="Clip-2" fill="none" stroke="none" />
            <g clip-path="url(#mask_2)">
              <path d="M57.1387 8.45219C63.307 14.6581 65.5107 43.0283 69.6964 65.1928C73.8817 87.3567 77.0268 113.968 81.3572 131.61C85.6876 149.253 56.4848 159.389 45.8764 139.96C35.268 120.531 29.7971 105.891 22.479 101.656C15.161 97.4219 1.84295 71.842 0.521243 66.9659C-2.38932 56.2293 7.57103 51.0074 13.5192 55.662C21.467 61.8815 29.3813 73.1718 29.3813 73.1718C29.3813 73.1718 40.4872 -1.70669 44.8021 0.0297407C49.2084 1.80292 53.8269 5.12026 57.1387 8.45219Z" transform="translate(0.08538301 0.1360509)" id="Fill-1" fill="#FFE0E2" stroke="none" />
            </g>
          </g>
          <path d="M7.63511 130.862C3.42484 130.862 0 127.415 0 123.18L0 7.68157C0 3.44619 3.42484 0 7.63511 0L57.8996 0C62.1099 0 65.5352 3.44619 65.5352 7.68157L65.5352 123.18C65.5352 127.415 62.1099 130.862 57.8996 130.862L7.63511 130.862Z" transform="translate(2.251311 2.53957)" id="Fill-4" fill="#FFFFFF" stroke="none" />
          <g id="Group-8">
            <path d="M0 0L70.0377 0L70.0377 135.391L0 135.391L0 0Z" transform="translate(0.0001500807 0.2748093)" id="Clip-7" fill="none" stroke="none" />
            <g clip-path="url(#mask_3)">
              <path d="M60.1508 0L9.88632 0C4.42588 0 0 4.45332 0 9.94649L0 125.445C0 130.938 4.42588 135.391 9.88632 135.391L60.1508 135.391C65.6113 135.391 70.0377 130.938 70.0377 125.445L70.0377 9.94649C70.0377 4.45332 65.6113 0 60.1508 0M60.1508 4.52982C63.1199 4.52982 65.5352 6.95982 65.5352 9.94649L65.5352 125.445C65.5352 128.432 63.1199 130.862 60.1508 130.862L9.88632 130.862C6.91772 130.862 4.50242 128.432 4.50242 125.445L4.50242 9.94649C4.50242 6.95982 6.91772 4.52982 9.88632 4.52982L60.1508 4.52982" transform="translate(0.0001500807 0.2746583)" id="Fill-6" fill="#3F3731" stroke="none" />
            </g>
          </g>
          <path d="M0 255.912L119.962 255.912L119.962 0L0 0L0 255.912Z" transform="translate(0 0.2748093)" id="Clip-10" fill="none" stroke="none" />
          <g clip-path="url(#mask_4)">
            <path d="M0 9.30929L55.2957 9.30929L55.2957 0L0 0L0 9.30929Z" transform="translate(7.775681 73.46015)" id="Fill-9" fill="#00B9F5" stroke="none" />
            <path d="M27.1941 6.36088L0 6.36088L0 0L27.1941 0L27.1941 6.36088ZM26.7804 5.94464L0.413222 5.94464L0.413222 0.415737L26.7804 0.415737L26.7804 5.94464Z" transform="translate(7.776182 62.90013)" id="Fill-11" fill="#00B9F5" fill-opacity="0.306803375" fill-rule="evenodd" stroke="none" />
            <path d="M27.1941 6.36088L0 6.36088L0 0L27.1941 0L27.1941 6.36088ZM26.7804 5.94464L0.412722 5.94464L0.412722 0.415737L26.7804 0.415737L26.7804 5.94464Z" transform="translate(35.97485 62.90013)" id="Fill-12" fill="#00B9F5" fill-opacity="0.306803375" fill-rule="evenodd" stroke="none" />
            <path d="M0 0.251657L54.6349 0.251657" transform="translate(8.216318 57.02872)" id="Stroke-13" fill="none" stroke="#00B9F5" stroke-width="0.827" />
            <path d="M2.26272 1.12642L2.2392 1.12642L0 2.69525L0 1.62772L2.25121 0L3.28277 0L3.28277 8.51104L2.26272 8.51104L2.26272 1.12642Z" transform="translate(28.40392 46.55315)" id="Fill-14" fill="#000000" stroke="none" />
            <path d="M5.16478 4.39393C5.16478 2.30014 4.42588 0.931634 3.11868 0.931634C1.81147 0.931634 1.06107 2.31172 1.06107 4.38789C1.06107 6.51137 1.79396 7.8678 3.11868 7.8678C4.43789 7.8678 5.16478 6.51741 5.16478 4.39393M0 4.39393C0 1.72788 1.15462 0 3.11868 0C5.08273 0 6.22585 1.7163 6.22585 4.38789C6.22585 7.0776 5.08874 8.7939 3.11868 8.7939C1.14311 8.7939 0 7.08364 0 4.39393" transform="translate(33.67421 46.41167)" id="Fill-15" fill="#000000" stroke="none" />
            <path d="M5.16478 4.39393C5.16478 2.30014 4.42588 0.931634 3.11868 0.931634C1.81147 0.931634 1.06107 2.31172 1.06107 4.38789C1.06107 6.51137 1.79396 7.8678 3.11868 7.8678C4.43789 7.8678 5.16478 6.51741 5.16478 4.39393M0 4.39393C0 1.72788 1.15462 0 3.11868 0C5.08273 0 6.22585 1.7163 6.22585 4.38789C6.22585 7.0776 5.08874 8.7939 3.11868 8.7939C1.14311 8.7939 0 7.08364 0 4.39393" transform="translate(40.95547 46.41167)" id="Fill-16" fill="#000000" stroke="none" />
            <path d="M5.16478 4.39393C5.16478 2.30014 4.42588 0.931634 3.11868 0.931634C1.81147 0.931634 1.06107 2.31172 1.06107 4.38789C1.06107 6.51137 1.79396 7.8678 3.11868 7.8678C4.43789 7.8678 5.16478 6.51741 5.16478 4.39393M0 4.39393C0 1.72788 1.15462 0 3.11868 0C5.08273 0 6.22585 1.7163 6.22585 4.38789C6.22585 7.0776 5.08874 8.7939 3.11868 8.7939C1.14311 8.7939 0 7.08364 0 4.39393" transform="translate(48.23649 46.41167)" id="Fill-17" fill="#000000" stroke="none" />
            <path d="M0.80043 5.69248C0.774417 5.54199 0.767413 5.3457 0.767413 4.93348L0.767413 3.17943L4.63699 3.17943L4.63699 4.77645C4.63699 4.93348 4.59847 4.95311 4.34434 4.95311C4.11071 4.95311 3.78504 4.92694 3.3563 4.88114C3.47287 5.1489 3.51889 5.33261 3.55791 5.58779C3.81155 5.60037 4.16924 5.61396 4.42288 5.61396C4.77407 5.61396 4.98218 5.58779 5.10575 5.52236C5.29435 5.42421 5.37239 5.24101 5.37239 4.90731L5.37239 0.713196C5.37239 0.359366 5.37889 0.189246 5.3984 0C5.24182 0.0191259 5.04721 0.025669 4.68952 0.025669L0.735395 0.025669C0.39021 0.025669 0.221119 0.0191259 0.013007 0C0.0325175 0.189246 0.039021 0.352823 0.039021 0.628136L0.039021 4.90731C0.039021 5.24755 0.0265143 5.4831 0 5.69248L0.80043 5.69248ZM0.767413 2.49241L2.30924 2.49241L2.30924 0.719235L0.767413 0.719235L0.767413 2.49241ZM4.63699 2.49241L3.01112 2.49241L3.01112 0.719235L4.63699 0.719235L4.63699 2.49241Z" transform="translate(56.57442 49.85575)" id="Fill-18" fill="#000000" fill-rule="evenodd" stroke="none" />
          </g>
        </g>
        <g id="Group-45" transform="translate(0.626933 1.751289)">
          <path d="M3.05172 0.412008C3.00332 0.424126 3.00332 0.424126 2.71343 0.521069C2.48353 0.593776 2.35446 0.626091 2.03986 0.686175C2.03583 1.23148 2.03583 1.23148 2.02776 1.36882L2.88232 1.36882C3.15659 1.36882 3.22515 1.36478 3.37439 1.34054L3.37439 1.82475C3.22515 1.80859 3.14852 1.80456 2.89039 1.80456L1.99953 1.80456C1.95516 2.18021 1.87046 2.45084 1.72929 2.68462C1.58863 2.9189 1.3547 3.1451 1.07236 3.32686C0.959429 3.39957 0.882796 3.4435 0.697767 3.52832C0.5808 3.32283 0.516267 3.24608 0.346867 3.10066C0.636762 2.99564 0.790533 2.91082 0.972033 2.76136C1.21353 2.56798 1.3668 2.33774 1.43536 2.07519C1.4515 2.00652 1.4636 1.93785 1.47973 1.80456L0.484 1.80456C0.225867 1.80456 0.149233 1.80859 0 1.82475L0 1.34054C0.149233 1.36478 0.2178 1.36882 0.492067 1.36882L1.5241 1.36882C1.53216 1.19917 1.53216 1.04163 1.53216 0.758883C1.20546 0.807859 1.08043 0.819977 0.415433 0.852291C0.3751 0.670523 0.354933 0.609934 0.2662 0.416047C0.391233 0.424126 0.455767 0.424126 0.516267 0.424126C1.05623 0.424126 1.74593 0.331222 2.24153 0.189847C2.47495 0.121179 2.59192 0.0767466 2.72905 0L3.05172 0.412008Z" transform="translate(21.93604 34.17287)" id="Fill-26" fill="#000000" stroke="none" />
          <path d="M0.656929 0.375654C0.624662 0.201965 0.616596 0.161572 0.580296 0.0727073L1.05976 0C1.05976 0.0807858 1.07236 0.16965 1.10009 0.311026L1.1611 0.622051L2.36605 0.420086C2.48302 0.403929 2.55159 0.383733 2.63225 0.351418L2.91459 0.605894C2.87829 0.658405 2.85358 0.702332 2.81375 0.799275C2.63629 1.24764 2.40639 1.55058 2.01969 1.84899C1.87449 1.69549 1.81399 1.65106 1.64459 1.5627C1.94306 1.37689 2.16439 1.14261 2.32975 0.839668C2.28135 0.851786 2.28135 0.851786 2.18052 0.868448L1.2337 1.02548L1.51956 2.51951C1.55989 2.74167 1.55989 2.74167 1.59619 2.84619L1.09253 2.93505C1.09253 2.83003 1.08446 2.74167 1.05976 2.60787L0.785996 1.10222L0.439129 1.15877C0.298467 1.18301 0.201667 1.20724 0.0847 1.24764L0 0.787157C0.129067 0.787157 0.229396 0.775544 0.383167 0.751308L0.717429 0.694758L0.656929 0.375654Z" transform="translate(26.17124 34.80265)" id="Fill-28" fill="#000000" stroke="none" />
          <path d="M0.604496 0.00403929C0.588363 0.1131 0.584329 0.214083 0.580296 0.412008L0.560129 2.71693C0.979596 2.63614 1.35823 2.48265 1.66073 2.27311C2.03179 2.01864 2.28135 1.73993 2.48302 1.34862C2.64032 1.55866 2.69275 1.61471 2.86619 1.76012C2.58789 2.18829 2.32975 2.45842 1.96726 2.70077C1.56393 2.97141 1.15253 3.12843 0.499629 3.25416C0.390729 3.27435 0.342329 3.29051 0.258133 3.32232L0 3.0118C0.0282333 2.90274 0.0363 2.83003 0.0363 2.59575L0.0524333 0.415542C0.0524333 0.133297 0.0524333 0.133297 0.0322667 0L0.604496 0.00403929Z" transform="translate(30.44239 34.2739)" id="Fill-30" fill="#000000" stroke="none" />
          <path d="M1.38293 0.779079C1.07236 0.48421 0.8228 0.298908 0.342833 0L0.00806667 0.39989C0.383167 0.609933 0.713396 0.876022 1.03606 1.21936L1.38293 0.779079ZM1.19336 2.20848C0.826329 2.36955 0.346867 2.48669 0 2.50689L0.149233 3.06431C0.242 3.03199 0.2541 3.02796 0.415433 2.99564C1.0401 2.86234 1.54023 2.66442 1.95112 2.38975C2.50369 2.02268 2.88635 1.54654 3.22919 0.807354C3.02349 0.662444 2.95895 0.60135 2.80165 0.411503C2.68065 0.738686 2.56822 0.960847 2.39076 1.21936C2.07212 1.67934 1.69753 1.99036 1.19336 2.20848Z" transform="translate(34.18522 34.45966)" id="Fill-32" fill="#000000" fill-rule="evenodd" stroke="none" />
          <path d="M2.89039 0.141375C3.04769 0.315065 3.18028 0.504912 3.30128 0.726568L3.57958 0.569035C3.45455 0.338796 3.34162 0.185807 3.16012 0L2.89039 0.141375ZM2.67662 0.238318C2.85409 0.42766 2.96299 0.581153 3.10012 0.831589L2.81779 0.981043C2.68469 0.734646 2.57175 0.573075 2.39429 0.379694L2.67662 0.238318ZM1.65266 0.839668C1.36226 0.6579 0.958925 0.464014 0.580296 0.318599L0.318129 0.730607C0.612562 0.823511 1.06833 1.06183 1.39452 1.28399L1.65266 0.839668ZM0.0887333 3.1042C0.402829 3.10066 0.826329 3.00776 1.25336 2.84215C1.99095 2.58363 2.59595 1.92169 2.88635 1.06183C3.04315 1.23148 3.12029 1.2956 3.30532 1.42082C2.80569 2.64422 1.95516 3.30616 0.511729 3.58891C0.3388 3.62527 0.306533 3.63334 0.2299 3.65758L0.0887333 3.1042ZM1.34209 1.84495C1.0401 1.64702 0.644829 1.44506 0.269729 1.2956L0 1.71165C0.371067 1.84899 0.826329 2.09488 1.09253 2.30088L1.34209 1.84495Z" transform="translate(38.11399 33.95914)" id="Fill-34" fill="#000000" fill-rule="evenodd" stroke="none" />
          <path d="M0.4961 2.74116C0.2178 2.74116 0.121 2.7452 0 2.75732L0 2.23625C0.149233 2.26049 0.221833 2.26453 0.504167 2.26453L2.33833 2.26453L2.33833 0.504406L0.572734 0.504406C0.286367 0.504406 0.201667 0.508446 0.0564667 0.524603L0.0564667 0C0.2057 0.0242357 0.282334 0.028275 0.576767 0.028275L2.51529 0.028275C2.72502 0.028275 2.72502 0.028275 2.86619 0.0201965C2.85409 0.129257 2.85409 0.16965 2.85409 0.354953L2.85409 2.57151C2.85409 2.77348 2.85812 2.88658 2.87426 2.98756L2.33429 2.98756L2.33429 2.74116L0.4961 2.74116Z" transform="translate(42.33245 34.51227)" id="Fill-36" fill="#000000" stroke="none" />
          <path d="M0 0C0.177467 0.0242357 0.253596 0.028275 0.652896 0.028275L2.80166 0.028275C3.20045 0.028275 3.27708 0.0242357 3.45455 0L3.45455 0.560955C3.29271 0.540759 3.24835 0.540759 2.79712 0.540759L0.656929 0.540759C0.2057 0.540759 0.161333 0.540759 0 0.560955L0 0Z" transform="translate(46.08794 35.62232)" id="Fill-38" fill="#000000" stroke="none" />
          <path d="M3.09962 3.17286C2.76485 2.76136 2.30152 2.30896 1.86189 1.9737C1.40662 2.48265 0.943296 2.8376 0.326196 3.14055C0.213262 2.93101 0.164862 2.86638 0 2.69269C0.310062 2.57151 0.503662 2.46245 0.805658 2.24837C1.41469 1.82071 1.89819 1.23501 2.16035 0.605389L2.20472 0.500367C2.14019 0.504406 2.14019 0.504406 0.870192 0.524603C0.676592 0.528642 0.568196 0.536721 0.431062 0.556917L0.414929 0.039888C0.527358 0.0600845 0.604496 0.0646287 0.769862 0.0646287L0.866158 0.0646287L2.28539 0.0444322C2.51125 0.039888 2.54302 0.0363536 2.64435 0L2.91005 0.274167C2.85812 0.334756 2.82535 0.391306 2.78098 0.492289C2.59595 0.923988 2.39782 1.27541 2.15229 1.60663C2.40639 1.77628 2.62419 1.94542 2.89845 2.19182C2.99878 2.28068 2.99878 2.28068 3.48682 2.75278L3.09962 3.17286Z" transform="translate(50.10918 34.41139)" id="Fill-40" fill="#000000" stroke="none" />
          <g id="Icon_Challenge-Copy" transform="translate(8.371047 30.76008)">
            <g id="Icon">
              <path d="M5.5 11.0458C8.53757 11.0458 11 8.57315 11 5.52292C11 2.4727 8.53757 0 5.5 0C2.46243 0 0 2.4727 0 5.52292C0 8.57315 2.46243 11.0458 5.5 11.0458Z" id="Oval" fill="#FD8D8D" stroke="none" />
            </g>
            <path d="M7.20289 0.170906C7.14423 0.0379372 6.99385 -0.03165 6.85308 0.0139907L5.46935 0.462617L5.44193 0.473067C5.30898 0.531652 5.23919 0.683004 5.28476 0.824737L5.29517 0.852269C5.35351 0.985777 5.50423 1.05585 5.64538 1.01009L6.37707 0.772839L5.38251 3.27494L4.38942 1.40038L4.37344 1.3736C4.24851 1.18676 3.95867 1.21096 3.87115 1.42719L2.83028 3.99821L1.82772 1.91771L1.8128 1.89037C1.69531 1.69918 1.40542 1.7117 1.3092 1.92371L0.025866 4.75122L0.0150651 4.7786C-0.0314923 4.9167 0.0327654 5.0705 0.167728 5.13227L0.194992 5.14311C0.332516 5.18986 0.485679 5.12534 0.54719 4.98981L1.57742 2.71943L2.59534 4.83148L2.60993 4.8583C2.72985 5.05456 3.02902 5.03575 3.11857 4.81449L4.17113 2.21362L5.16697 4.09264L5.18301 4.11951C5.3084 4.30692 5.59946 4.28169 5.68592 4.06414L6.88606 1.04427L7.11842 1.75786L7.12893 1.78535C7.18777 1.91864 7.33875 1.98815 7.47972 1.94187C7.6301 1.89249 7.71214 1.73006 7.66297 1.57906L7.21337 0.198329L7.20289 0.170906Z" transform="translate(1.546805 2.703854)" id="Combined-Shape" fill="#FFFFFF" fill-rule="evenodd" stroke="none" />
          </g>
          <path d="M0 256.724L120.897 256.724L120.897 0L0 0L0 256.724Z" transform="translate(0 0.2756817)" id="Clip-43" fill="none" stroke="none" />
          <g clip-path="url(#mask_5)">
            <path d="M0 2.52456L60 2.52456L60 0L0 0L0 2.52456Z" transform="translate(5.963932 23.95924)" id="Fill-42" fill="#E5E5E5" stroke="none" />
            <path d="M7.30661 1.41639C29.5217 15.0127 32.1555 13.9978 36.5639 17.1515C40.9723 20.3051 56.717 50.5791 59.2363 56.2553C61.7551 61.9321 65.5338 114.281 40.3426 103.558C15.152 92.8367 11.0576 71.3926 15.7817 60.6703C20.5047 49.9485 24.5985 32.9193 20.5047 31.0274C16.4114 29.135 3.41495 22.2894 0.75043 10.7275C-1.54252 0.775154 1.63877 -2.05235 7.30661 1.41639" transform="translate(35.71074 75.40571)" id="Fill-44" fill="#FFE0E2" stroke="none" />
          </g>
        </g>
      </g>
    </g>
  </g>
</svg>