<?xml version="1.0" encoding="utf-8"?>
<svg width="127px" height="163px" viewBox="0 0 127 163" version="1.1" xmlns:xlink="http://www.w3.org/1999/xlink" xmlns="http://www.w3.org/2000/svg">
  <g id="Icon_Challenge" transform="translate(5.53125 0)">
    <g id="Icon">
      <path d="M29 58C45.0163 58 58 45.0163 58 29C58 12.9837 45.0163 0 29 0C12.9837 0 0 12.9837 0 29C0 45.0163 12.9837 58 29 58Z" id="Oval" fill="#FD8D8D" stroke="none" />
    </g>
    <path d="M37.9789 0.897399C37.6696 0.199203 36.8767 -0.166189 36.1344 0.0734631L28.8384 2.42913L28.6938 2.484C27.9928 2.79162 27.6248 3.58635 27.8651 4.33056L27.92 4.47513C28.2276 5.17616 29.0223 5.54413 29.7665 5.30384L33.6245 4.05806L28.3805 17.1962L23.1442 7.3532L23.0599 7.21254C22.4012 6.23149 20.873 6.35854 20.4115 7.49396L14.9233 20.994L9.63706 10.0696L9.5584 9.92605C8.9389 8.92211 7.41042 8.98786 6.90305 10.1011L0.136385 24.9479L0.0794343 25.0917C-0.16605 25.8168 0.172763 26.6244 0.884382 26.9487L1.02814 27.0057C1.75327 27.2512 2.56086 26.9124 2.88519 26.2007L8.31733 14.2793L13.6845 25.3693L13.7615 25.5102C14.3938 26.5407 15.9712 26.4419 16.4434 25.2802L21.9932 11.6234L27.244 21.4898L27.3286 21.6309C27.9897 22.615 29.5244 22.4825 29.9803 21.3402L36.3083 5.4833L37.5335 9.23024L37.5889 9.3746C37.8991 10.0745 38.6952 10.4395 39.4385 10.1964C40.2314 9.93718 40.664 9.08427 40.4047 8.2914L38.0341 1.0414L37.9789 0.897399Z" transform="translate(8.155882 14.19751)" id="Combined-Shape" fill="#FFFFFF" fill-rule="evenodd" stroke="none" />
  </g>
  <g id="Challenge" fill="#FD8D8D" transform="translate(0 62)">
    <path d="M17.8438 16.6758L16.5625 16.6758L16.5625 12.0664Q16.5625 9.56641 14.7031 9.56641Q13.7656 9.56641 13.125 10.2891Q12.4844 11.0117 12.4844 12.1445L12.4844 16.6758L11.2031 16.6758L11.2031 4.83203L12.4844 4.83203L12.4844 10.0039L12.5156 10.0039Q13.4375 8.48828 15.1406 8.48828Q17.8438 8.48828 17.8438 11.7461L17.8438 16.6758ZM29.6797 16.6758L28.3984 16.6758L28.3984 4.83203L29.6797 4.83203L29.6797 16.6758ZM32.2734 16.6758L33.5547 16.6758L33.5547 4.83203L32.2734 4.83203L32.2734 16.6758ZM9.09375 16.207Q7.85156 16.8633 6 16.8633Q3.60938 16.8633 2.17188 15.3242Q0.734375 13.7852 0.734375 11.2852Q0.734375 8.59766 2.35156 6.94141Q3.96875 5.28516 6.45313 5.28516Q8.04688 5.28516 9.09375 5.74609L9.09375 7.14453Q7.89062 6.47266 6.4375 6.47266Q4.50781 6.47266 3.30859 7.76172Q2.10938 9.05078 2.10938 11.207Q2.10938 13.2539 3.23047 14.4688Q4.35156 15.6836 6.17188 15.6836Q7.85938 15.6836 9.09375 14.9336L9.09375 16.207ZM24.7031 16.6758L25.9844 16.6758L25.9844 11.4727Q25.9844 8.48828 23.1641 8.48828Q21.625 8.48828 20.4453 9.23828L20.4453 10.5508Q21.6094 9.56641 23.0547 9.56641Q24.7031 9.56641 24.7031 11.6055L22.3047 11.9414Q19.6641 12.3086 19.6641 14.5508Q19.6641 15.5977 20.3398 16.2305Q21.0156 16.8633 22.2109 16.8633Q23.8359 16.8633 24.6719 15.4258L24.7031 15.4258L24.7031 16.6758ZM42.5781 12.9961L36.9297 12.9961Q36.9609 14.332 37.6484 15.0586Q38.3359 15.7852 39.5391 15.7852Q40.8906 15.7852 42.0234 14.8945L42.0234 16.0977Q40.9688 16.8633 39.2344 16.8633Q37.5391 16.8633 36.5703 15.7734Q35.6016 14.6836 35.6016 12.707Q35.6016 10.8398 36.6602 9.66406Q37.7188 8.48828 39.2891 8.48828Q40.8594 8.48828 41.7188 9.50391Q42.5781 10.5195 42.5781 12.3242L42.5781 12.9961ZM49.875 16.6758L51.1563 16.6758L51.1563 11.7852Q51.1563 10.1836 50.4609 9.33594Q49.7656 8.48828 48.4531 8.48828Q46.7344 8.48828 45.8281 10.0039L45.7969 10.0039L45.7969 8.67578L44.5156 8.67578L44.5156 16.6758L45.7969 16.6758L45.7969 12.1133Q45.7969 11.0117 46.4258 10.2891Q47.0547 9.56641 48.0156 9.56641Q49.875 9.56641 49.875 12.1133L49.875 16.6758ZM60.3984 16.0352Q60.3984 20.4414 56.1797 20.4414Q54.6953 20.4414 53.5859 19.8789L53.5859 18.5977Q54.9375 19.3477 56.1641 19.3477Q59.1172 19.3477 59.1172 16.207L59.1172 15.332L59.0859 15.332Q58.1719 16.8633 56.3359 16.8633Q54.8438 16.8633 53.9336 15.7969Q53.0234 14.7305 53.0234 12.9336Q53.0234 10.8945 54.0039 9.69141Q54.9844 8.48828 56.6875 8.48828Q58.3047 8.48828 59.0859 9.78516L59.1172 9.78516L59.1172 8.67578L60.3984 8.67578L60.3984 16.0352ZM63.7734 12.9961L69.4219 12.9961L69.4219 12.3242Q69.4219 10.5195 68.5625 9.50391Q67.7031 8.48828 66.1328 8.48828Q64.5625 8.48828 63.5039 9.66406Q62.4453 10.8398 62.4453 12.707Q62.4453 14.6836 63.4141 15.7734Q64.3828 16.8633 66.0781 16.8633Q67.8125 16.8633 68.8672 16.0977L68.8672 14.8945Q67.7344 15.7852 66.3828 15.7852Q65.1797 15.7852 64.4922 15.0586Q63.8047 14.332 63.7734 12.9961ZM41.2656 11.9102Q41.2578 10.8008 40.7305 10.1836Q40.2031 9.56641 39.2656 9.56641Q38.3594 9.56641 37.7266 10.2148Q37.0938 10.8633 36.9453 11.9102L41.2656 11.9102ZM59.1172 13.0586L59.1172 11.8789Q59.1172 10.9258 58.4727 10.2461Q57.8281 9.56641 56.8672 9.56641Q55.6797 9.56641 55.0078 10.4297Q54.3359 11.293 54.3359 12.8477Q54.3359 14.1836 54.9805 14.9844Q55.625 15.7852 56.6875 15.7852Q57.7656 15.7852 58.4414 15.0195Q59.1172 14.2539 59.1172 13.0586ZM67.5742 10.1836Q68.1016 10.8008 68.1094 11.9102L63.7891 11.9102Q63.9375 10.8633 64.5703 10.2148Q65.2031 9.56641 66.1094 9.56641Q67.0469 9.56641 67.5742 10.1836ZM22.7734 12.8945L24.7031 12.6289L24.7031 13.4258Q24.7031 14.4492 24.082 15.1172Q23.4609 15.7852 22.5078 15.7852Q21.8125 15.7852 21.3945 15.4141Q20.9766 15.043 20.9766 14.457Q20.9766 13.6523 21.4297 13.3359Q21.8828 13.0195 22.7734 12.8945Z" />
  </g>
  <g id="Icon_Standard" transform="translate(67.53125 80)">
    <g id="Icon_Standard">
      <g id="Icon">
        <path d="M29 58C45.0163 58 58 45.0163 58 29C58 12.9837 45.0163 0 29 0C12.9837 0 0 12.9837 0 29C0 45.0163 12.9837 58 29 58Z" id="Oval" fill="#FFC800" stroke="none" />
      </g>
      <path d="M39.4842 2.3271C39.4856 1.56349 38.9099 0.907198 38.1344 0.82423L30.5112 0.0086956L30.3568 2.21729e-05C29.5913 -0.00408649 28.9319 0.572252 28.8487 1.34984L28.84 1.50422C28.8359 2.26974 29.4123 2.92912 30.1899 3.01231L34.3255 3.45468L28.4491 8.36062L22.6124 4.70485L22.4588 4.62056C21.9356 4.37166 21.3087 4.44295 20.8527 4.81695L14.9641 9.64507L9.13403 5.62925L8.9858 5.53917C8.4792 5.26981 7.85674 5.30933 7.38554 5.65395L0.61887 10.6029L0.491263 10.7072C-0.0711559 11.2201 -0.168242 12.0853 0.291373 12.7137L0.395682 12.8413C0.908615 13.4037 1.77374 13.5008 2.40217 13.0412L8.30135 8.72432L14.187 12.7783L14.3292 12.8651C14.8631 13.1522 15.5246 13.0935 16.0017 12.7023L21.9277 7.84103L27.7753 11.504L27.9169 11.5826C28.4469 11.8404 29.0855 11.7674 29.5455 11.3833L36.0833 5.92239L35.6882 9.75817L35.6801 9.91259C35.6788 10.6781 36.2576 11.3354 37.0355 11.4156C37.8652 11.5013 38.6073 10.8981 38.693 10.0683L39.4761 2.48111L39.4842 2.3271Z" transform="translate(8.156147 20.6998)" id="Combined-Shape" fill="#FFFFFF" fill-rule="evenodd" stroke="none" />
    </g>
  </g>
  <g id="Standard" fill="#FFC800" transform="translate(63.19922 142)">
    <path d="M39.2422 16.6758L37.9609 16.6758L37.9609 15.3164L37.9297 15.3164Q37.0391 16.8633 35.1797 16.8633Q33.6719 16.8633 32.7695 15.7891Q31.8672 14.7148 31.8672 12.8633Q31.8672 10.8789 32.8672 9.68359Q33.8672 8.48828 35.5313 8.48828Q37.1797 8.48828 37.9297 9.78516L37.9609 9.78516L37.9609 4.83203L39.2422 4.83203L39.2422 16.6758ZM61.0859 16.6758L62.3672 16.6758L62.3672 4.83203L61.0859 4.83203L61.0859 9.78516L61.0547 9.78516Q60.3047 8.48828 58.6563 8.48828Q56.9922 8.48828 55.9922 9.68359Q54.9922 10.8789 54.9922 12.8633Q54.9922 14.7148 55.8945 15.7891Q56.7969 16.8633 58.3047 16.8633Q60.1641 16.8633 61.0547 15.3164L61.0859 15.3164L61.0859 16.6758ZM0.945313 14.6758L0.945313 16.2227Q1.16406 16.3711 1.52734 16.4922Q1.89062 16.6133 2.29688 16.6953Q2.70313 16.7773 3.09375 16.8203Q3.48437 16.8633 3.75 16.8633Q4.54687 16.8633 5.26563 16.7031Q5.98438 16.543 6.53516 16.1836Q7.08594 15.8242 7.41016 15.25Q7.73437 14.6758 7.73438 13.8477Q7.73437 13.2227 7.49609 12.7383Q7.25781 12.2539 6.85156 11.8555Q6.44531 11.457 5.90625 11.1289Q5.36719 10.8008 4.76563 10.5039Q4.17969 10.2148 3.73047 9.97266Q3.28125 9.73047 2.96875 9.47266Q2.65625 9.21484 2.49609 8.90234Q2.33594 8.58984 2.33594 8.16016Q2.33594 7.69922 2.54688 7.37891Q2.75781 7.05859 3.09375 6.85547Q3.42969 6.65234 3.85938 6.5625Q4.28906 6.47266 4.71875 6.47266Q6.27344 6.47266 7.26563 7.16016L7.26563 5.68359Q6.50781 5.28516 4.85156 5.28516Q4.125 5.28516 3.42578 5.46484Q2.72656 5.64453 2.17969 6.01172Q1.63281 6.37891 1.29688 6.94531Q0.960937 7.51172 0.960938 8.27734Q0.960937 8.90234 1.17578 9.36719Q1.39063 9.83203 1.76563 10.1992Q2.14063 10.5664 2.64844 10.8711Q3.15625 11.1758 3.74219 11.4727Q4.29688 11.7539 4.77734 12.0078Q5.25781 12.2617 5.60938 12.5391Q5.96094 12.8164 6.16016 13.1523Q6.35938 13.4883 6.35938 13.9414Q6.35938 14.7852 5.76172 15.2344Q5.16406 15.6836 3.95313 15.6836Q3.60156 15.6836 3.1875 15.6133Q2.77344 15.543 2.36328 15.4141Q1.95312 15.2852 1.58203 15.0977Q1.21094 14.9102 0.945313 14.6758ZM12.3125 16.8477Q13.0547 16.8477 13.5078 16.5977L13.5078 15.5039Q13.1563 15.7695 12.6719 15.7695Q12.0391 15.7695 11.7656 15.4258Q11.4922 15.082 11.4922 14.2773L11.4922 9.76953L13.5078 9.76953L13.5078 8.67578L11.4922 8.67578L11.4922 6.30859L10.2109 6.72266L10.2109 8.67578L8.83594 8.67578L8.83594 9.76953L10.2109 9.76953L10.2109 14.5039Q10.2109 16.8477 12.3125 16.8477ZM20.9453 16.6758L19.6641 16.6758L19.6641 15.4258L19.6328 15.4258Q18.7969 16.8633 17.1719 16.8633Q15.9766 16.8633 15.3008 16.2305Q14.625 15.5977 14.625 14.5508Q14.625 12.3086 17.2656 11.9414L19.6641 11.6055Q19.6641 9.56641 18.0156 9.56641Q16.5703 9.56641 15.4063 10.5508L15.4063 9.23828Q16.5859 8.48828 18.125 8.48828Q20.9453 8.48828 20.9453 11.4727L20.9453 16.6758ZM28.7188 16.6758L30 16.6758L30 11.7852Q30 10.1836 29.3047 9.33594Q28.6094 8.48828 27.2969 8.48828Q25.5781 8.48828 24.6719 10.0039L24.6406 10.0039L24.6406 8.67578L23.3594 8.67578L23.3594 16.6758L24.6406 16.6758L24.6406 12.1133Q24.6406 11.0117 25.2695 10.2891Q25.8984 9.56641 26.8594 9.56641Q28.7188 9.56641 28.7188 12.1133L28.7188 16.6758ZM46.2813 16.6758L47.5625 16.6758L47.5625 11.4727Q47.5625 8.48828 44.7422 8.48828Q43.2031 8.48828 42.0234 9.23828L42.0234 10.5508Q43.1875 9.56641 44.6328 9.56641Q46.2813 9.56641 46.2813 11.6055L43.8828 11.9414Q41.2422 12.3086 41.2422 14.5508Q41.2422 15.5977 41.918 16.2305Q42.5938 16.8633 43.7891 16.8633Q45.4141 16.8633 46.25 15.4258L46.2813 15.4258L46.2813 16.6758ZM54.1484 9.97266Q53.8125 9.71484 53.1797 9.71484Q52.3594 9.71484 51.8086 10.4883Q51.2578 11.2617 51.2578 12.5977L51.2578 16.6758L49.9766 16.6758L49.9766 8.67578L51.2578 8.67578L51.2578 10.3242L51.2891 10.3242Q51.5625 9.48047 52.125 9.00781Q52.6875 8.53516 53.3828 8.53516Q53.8828 8.53516 54.1484 8.64453L54.1484 9.97266ZM37.9609 13.0586L37.9609 11.8789Q37.9609 10.9102 37.3203 10.2383Q36.6797 9.56641 35.6953 9.56641Q34.5234 9.56641 33.8516 10.4258Q33.1797 11.2852 33.1797 12.8008Q33.1797 14.1836 33.8242 14.9844Q34.4688 15.7852 35.5547 15.7852Q36.625 15.7852 37.293 15.0117Q37.9609 14.2383 37.9609 13.0586ZM61.0859 11.8789L61.0859 13.0586Q61.0859 14.2383 60.418 15.0117Q59.75 15.7852 58.6797 15.7852Q57.5938 15.7852 56.9492 14.9844Q56.3047 14.1836 56.3047 12.8008Q56.3047 11.2852 56.9766 10.4258Q57.6484 9.56641 58.8203 9.56641Q59.8047 9.56641 60.4453 10.2383Q61.0859 10.9102 61.0859 11.8789ZM19.6641 12.6289L17.7344 12.8945Q16.8438 13.0195 16.3906 13.3359Q15.9375 13.6523 15.9375 14.457Q15.9375 15.043 16.3555 15.4141Q16.7734 15.7852 17.4688 15.7852Q18.4219 15.7852 19.043 15.1172Q19.6641 14.4492 19.6641 13.4258L19.6641 12.6289ZM44.3516 12.8945L46.2813 12.6289L46.2813 13.4258Q46.2813 14.4492 45.6602 15.1172Q45.0391 15.7852 44.0859 15.7852Q43.3906 15.7852 42.9727 15.4141Q42.5547 15.043 42.5547 14.457Q42.5547 13.6523 43.0078 13.3359Q43.4609 13.0195 44.3516 12.8945Z" />
  </g>
</svg>