<?xml version="1.0" encoding="UTF-8"?>
<svg width="22px" height="22px" viewBox="0 0 22 22" version="1.1" xmlns="http://www.w3.org/2000/svg" xmlns:xlink="http://www.w3.org/1999/xlink">
    <!-- Generator: Sketch 63.1 (92452) - https://sketch.com -->
    <title>icon</title>
    <desc>Created with Sketch.</desc>
    <g id="Symbols" stroke="none" stroke-width="1" fill="none" fill-rule="evenodd">
        <g id="home/topBtn/el/icon/point" transform="translate(-1.000000, -1.000000)">
            <g id="icon" transform="translate(1.000000, 1.000000)">
                <path d="M21.25,22 L2.906,22 C1.304,22 0,20.696 0,19.094 L0,0.75 C0,0.336 0.336,0 0.75,0 C1.164,0 1.5,0.336 1.5,0.75 L1.5,19.094 C1.5,19.869 2.131,20.5 2.906,20.5 L21.25,20.5 C21.664,20.5 22,20.836 22,21.25 C22,21.664 21.664,22 21.25,22" id="Fill-1" fill="#032970"></path>
                <path d="M20.1406,2.3853 C20.1046,2.1833 19.9746,2.0103 19.7906,1.9183 C19.6076,1.8263 19.3906,1.8263 19.2076,1.9193 L15.3686,3.8583 C15.0476,4.0203 14.9186,4.4113 15.0806,4.7313 C15.2426,5.0523 15.6366,5.1803 15.9536,5.0183 L18.0406,3.9653 L14.3216,11.4033 L10.5976,7.6783 C10.3026,7.3833 9.8816,7.2463 9.4696,7.3143 C9.0576,7.3813 8.7016,7.6433 8.5156,8.0163 L3.9186,17.2093 C3.7586,17.5303 3.8886,17.9213 4.2096,18.0813 C4.3026,18.1283 4.4016,18.1503 4.4996,18.1503 C4.7376,18.1503 4.9676,18.0183 5.0816,17.7903 L9.6786,8.5973 L13.4026,12.3223 C13.6976,12.6163 14.1166,12.7543 14.5306,12.6863 C14.9416,12.6193 15.2986,12.3563 15.4846,11.9843 L19.2046,4.5443 L19.6156,6.8483 C19.6716,7.1633 19.9456,7.3843 20.2546,7.3843 C20.2926,7.3843 20.3306,7.3813 20.3696,7.3743 C20.7226,7.3113 20.9586,6.9733 20.8956,6.6203 L20.1406,2.3853 Z" id="Fill-3" fill="#00B9F5"></path>
            </g>
        </g>
    </g>
</svg>