<svg xmlns="http://www.w3.org/2000/svg" xmlns:xlink="http://www.w3.org/1999/xlink" width="302" height="98" viewBox="0 0 302 98">
  <defs>
    <polygon id="titile_main-a" points="0 .344 71.656 .344 71.656 72 0 72"/>
    <polygon id="titile_main-c" points="14.28 .775 8.756 11.039 8.531 11.039 3.004 .775 .092 .775 6.596 12.556 3.43 12.556 3.43 14.735 7.365 14.735 7.365 17.391 3.43 17.391 3.43 19.569 7.365 19.569 7.365 23.875 9.919 23.875 9.919 19.569 13.853 19.569 13.853 17.391 9.919 17.391 9.919 14.735 13.853 14.735 13.853 12.556 10.687 12.556 17.192 .775"/>
  </defs>
  <g fill="none" fill-rule="evenodd" transform="translate(1 1)">
    <path fill="#002970" d="M140.10793,79.6971353 C140.048458,80.1863719 140.028634,80.6362808 140.028634,81.4338467 L140.028634,85.9140586 C140.028634,86.9350058 140.048458,87.4273886 140.127753,87.9779765 L137.96696,87.9779765 L137.96696,87.1804107 L132.257709,87.1804107 L132.257709,88 L130.136564,88 C130.207853,87.4924104 130.231733,87.0562007 130.235218,86.1679189 L130.235683,81.2718165 C130.235683,80.4522272 130.214334,80.1470442 130.176211,79.6971353 C130.651982,79.7584865 131.165876,79.7773638 131.980176,79.7773638 L138.303965,79.7773638 C139.156388,79.7773638 139.671806,79.7584865 140.10793,79.6971353 Z M157.181377,70 C157.101862,70.6254105 157.101862,70.6254105 157.080035,73.2359551 C157.566479,73.1939499 157.850238,73.1752809 158.255608,73.1752809 C161.113469,73.1752809 163,74.8119274 163,77.3011236 C163,78.6561798 162.390385,79.9707865 161.356691,80.8202247 C160.40563,81.607433 159.147423,82.0119274 157.607016,82.0119274 C156.613859,82.0119274 155.539628,81.8096802 154.465396,81.447191 C154.445128,80.4764045 154.384322,80.0921348 154.100563,78.9579948 C155.316674,79.505618 156.309831,79.7467589 157.343525,79.7467589 C158.215071,79.7467589 159.005544,79.505618 159.635427,79.0793431 C160.160849,78.6950735 160.464877,78.0681072 160.464877,77.3617978 C160.464877,76.0876404 159.471719,75.3377701 157.769164,75.3377701 C156.3301,75.3377701 155.113989,75.5804667 151.68861,76.5932584 C152.945258,80.9804667 153.0466,81.3647364 154.262711,86.4224719 C154.364054,86.847191 154.404591,86.9872083 154.568298,87.3917027 L151.891295,88 C151.789952,86.3820225 150.675184,81.588764 149.418536,77.2404494 C149.155045,77.3617978 149.114508,77.3617978 148.403551,77.6029386 C147.675444,77.8269663 146.317453,78.371478 145.790472,78.6343993 L145,76.2696629 C145.587787,76.1483146 145.851278,76.0876404 146.842876,75.7422645 C147.675444,75.4591184 147.837592,75.4202247 148.810481,75.1168539 C148.202425,73.1332757 147.817324,72.0629213 147.432222,71.3550562 L149.945518,70.647191 C150.067129,71.294382 150.067129,71.294382 150.654916,73.0337079 C150.817064,73.5377701 150.898138,73.8006914 151.080554,74.4696629 L153.0466,73.9220398 C153.614119,73.7804667 153.958683,73.6995678 154.769424,73.5377701 L154.769107,73.2928614 C154.768157,73.0890341 154.764357,72.9563094 154.749155,72.4254105 C154.728887,70.66586 154.728887,70.5242869 154.627544,70 L157.181377,70 Z M215.240385,73 C215.157967,73.4942784 215.135778,73.9090909 215.116758,75.5826446 C215.755495,75.539733 215.879121,75.539733 216.229396,75.539733 C218.45467,75.539733 220,77.0066751 220,79.1363636 C220,80.3744437 219.526099,81.3884298 218.578297,82.0909091 C217.733516,82.6884933 216.703297,83.0190718 215.570055,83.0190718 C214.744294,83.0190718 214.146767,82.9173554 212.870879,82.5247934 C212.828085,81.553719 212.766272,81.1818182 212.498415,80.1694215 C213.612637,80.7050223 214.375,80.892562 215.364011,80.892562 C216.826923,80.892562 217.711327,80.231405 217.711327,79.1141132 C217.711327,78.1223776 217.012363,77.5454545 215.795118,77.5454545 C214.951923,77.5454545 213.653846,77.7298156 212.520604,78.0206612 C212.046703,78.1446281 212.026099,78.1446281 211.037088,78.4529561 C210.892857,78.5165289 210.892857,78.5165289 210.707418,78.5578512 L210.732335,78.6576334 C210.814023,78.9835726 210.851648,79.1148042 211.284341,80.6239669 C211.614011,81.8016529 212.168745,84.053719 212.560228,85.768595 C212.788462,86.8016529 212.828085,86.9669421 213.034129,87.4834711 L210.604396,88 C210.582206,87.4008264 210.377747,86.3057851 209.945055,84.3842975 C209.593195,82.7727273 208.914835,80.0247934 208.646978,79.177686 C207.122253,79.6735537 206.234679,80.0041322 205.721154,80.2727273 L205,78.1033058 C205.369294,78.0413223 205.431107,78.0206612 205.927198,77.8537826 C206.009615,77.8347107 206.462912,77.6900826 207.079459,77.5041322 C207.22369,77.4612206 207.22369,77.4612206 208.049451,77.1926256 C207.699176,76.0149396 207.22369,74.7355372 206.916209,74.1554355 L209.223901,73.5165289 C209.325338,74.0314685 209.347527,74.1157025 210.12891,76.6141132 C211.14011,76.3057851 211.861264,76.1198347 213.034129,75.8703115 C213.01511,73.9488239 212.994505,73.392562 212.932692,73 L215.240385,73 Z M253.407821,75.5237004 C254.99162,75.5237004 256.203911,75.7917181 257.103352,76.3705727 C258.315642,77.1333921 259,78.5147137 259,80.1434361 C259,82.4937445 257.650838,84.6378855 255.284916,86.0604405 C253.681564,87.0294273 252.312849,87.4623789 249.125698,88 C248.930168,86.9057269 248.71358,86.3903084 248.108939,85.4213216 C250.377095,85.3182379 252.488827,84.7409692 253.994413,83.8544493 C255.539106,82.9473128 256.379888,81.6484581 256.379888,80.2259031 C256.379888,78.6796476 255.343575,77.8962115 253.310056,77.8962115 C251.099055,77.8962115 247.189944,78.6177974 245.567039,79.3187665 L245,76.5751542 C245.50838,76.5561233 245.50838,76.5561233 247.266652,76.2262555 C250.044693,75.710837 251.74581,75.5237004 253.407821,75.5237004 Z M268.835366,84.2430341 L268.835366,87 L266.182927,87 L266.182927,84.2430341 L268.835366,84.2430341 Z M168.102712,70 L170.935082,70.0406213 C170.813695,70.6296296 170.773233,71.218638 170.692308,72.7825568 C170.609827,74.6714456 170.489996,78.7960665 170.489996,80.2365591 C170.489996,82.1676317 170.609827,82.8972521 171.016007,83.5065711 C171.481325,84.176822 172.452423,84.562724 173.72699,84.562724 C175.910405,84.562724 177.672076,83.3237754 178.621387,81.0896057 C179.06803,80.0334528 179.331036,79.078853 179.553579,77.6774194 C180.646065,78.5710872 181.010227,78.7960665 182,79.2413381 C181.192308,81.984836 180.585371,83.3034648 179.592486,84.4205496 C178.076701,86.1485158 176.073811,87 173.524678,87 C172.128724,87 170.833926,86.6750299 169.984215,86.1063321 C168.586705,85.1736054 168,83.6096866 168,80.8864994 L168.000804,80.6174135 C168.007129,79.4918626 168.051602,77.3968119 168.163406,72.7013142 C168.182081,72.0904329 168.182081,71.6654719 168.182081,71.3811231 C168.182081,70.8124253 168.163406,70.5280765 168.102712,70 Z M190.131682,70 L192.926988,70.2171699 C192.801825,70.5725389 192.801825,70.5725389 192.59322,71.3622476 C192.217731,72.8429516 192.217731,72.8429516 192.092568,73.2165446 C193.677966,73.1785778 196.035202,73.0191174 197.411995,72.8626943 C198.955671,72.6850098 199.352021,72.6060389 200.082138,72.4086118 L200.207301,74.7974808 C199.725905,74.8172235 199.539765,74.8369662 198.997392,74.8961944 C195.971016,75.2120779 194.136897,75.3502769 191.529335,75.4095051 C191.091265,76.8112382 190.296961,78.7065392 189.881356,79.4172771 L189.881356,79.4567626 C191.279009,78.6078256 193.093872,78.1734858 195.138201,78.1734858 C198.809648,78.1734858 201,79.6739325 201,82.1812578 C201,85.1031803 198.016949,87 193.446896,87 C191.591917,87 189.754588,86.7615687 188.129074,86.3074862 C188.129074,85.1821512 188.106609,84.7872968 187.920469,83.8001608 C189.797914,84.4319278 191.550196,84.7478113 193.300873,84.7478113 C196.327249,84.7478113 198.288136,83.7409326 198.288136,82.1615151 C198.288136,80.9374665 197.036506,80.266214 194.781968,80.266214 C193.238291,80.266214 191.632033,80.621583 190.296961,81.2336073 C189.526728,81.5889762 189.151239,81.885117 188.774145,82.3802037 L186.25163,81.5494908 C186.562933,81.0756655 186.919166,80.4636412 187.230468,79.7726461 C187.920469,78.2706807 188.690703,76.3571556 188.984355,75.3897624 C187.878748,75.3700197 186.940026,75.3305342 185.832815,75.2515633 C185.599178,75.2357692 185.41997,75.2326103 185.271366,75.2319786 L185,75.2318206 L185.040116,72.9219225 C186.001304,73.1588351 187.398957,73.2575487 189.547588,73.2575487 C189.943937,71.6781311 190.088356,70.8489369 190.131682,70 Z M230.163056,70 C230.060433,70.6362001 230.039909,71.0537064 230.039909,72.1685858 L230.039909,73.440986 C231.579247,73.2620547 232.95439,73.0035984 234.00114,72.6854984 L234.083238,74.9121986 C233.713797,74.9718424 233.323831,75.0299568 231.909218,75.2685318 C231.230331,75.3878194 230.81984,75.4474631 230.039909,75.5269881 L230.039909,78.1130802 C231.435576,77.7154552 232.72862,77.5548759 234.22691,77.5548759 C237.654504,77.5548759 240.096921,79.5827636 240.096921,82.4059014 C240.096921,84.9919935 238.106043,86.9403562 235.437856,86.9403562 C233.775371,86.9403562 232.605473,86.1649874 232.071836,84.7335372 C231.805017,84.0560453 231.722919,83.4014933 231.722919,82.188737 C232.769669,81.9103994 233.118586,81.7697013 234.00114,81.3124325 C233.960091,81.6901763 233.960091,81.8706369 233.960091,82.188737 C233.960091,83.0237496 234.042189,83.5605434 234.247434,83.9367578 C234.473204,84.3557935 234.965792,84.6142497 235.540479,84.6142497 C236.751425,84.6142497 237.613455,83.6783015 237.613455,82.4059014 C237.613455,80.697643 236.176739,79.5827636 233.980616,79.5827636 C232.749145,79.5827636 231.497149,79.8029867 230.039909,80.2388449 L230.060433,84.1569809 C230.060433,84.9721123 230.019384,85.447733 229.896237,85.845358 C229.711517,86.5412019 228.972634,87 228.007982,87 C226.713358,87 225.155074,86.4433249 224.128848,85.5869018 C223.389966,84.9721123 223,84.1967434 223,83.3418496 C223,82.4059014 223.63626,81.3537244 224.765108,80.3994243 C225.503991,79.7815761 226.40707,79.2646635 227.761688,78.7079885 L227.741163,75.6462756 L227.64338,75.6467831 C227.540897,75.6484746 227.420665,75.6558045 226.899658,75.6875675 C226.59179,75.7059194 226.304447,75.7059194 225.789755,75.7059194 C225.483466,75.7059194 224.90878,75.6875675 224.662486,75.6875675 C224.484607,75.6732938 224.343216,75.6685358 224.250007,75.6669499 L224.147794,75.6661569 C224.067275,75.6661569 223.903079,75.6661569 223.718358,75.6875675 L223.696255,73.4608672 C224.27252,73.5801547 225.093501,73.6397985 226.1813,73.6397985 C226.384966,73.6397985 226.612315,73.6397985 226.899658,73.6183879 C227.392246,73.5985067 227.494869,73.5985067 227.720639,73.5985067 L227.720639,72.286344 C227.720639,71.154642 227.698535,70.6362001 227.597491,70 L230.163056,70 Z M127.519824,69.2863057 C127.41918,69.9202683 127.400881,70.4724292 127.400881,71.5563007 L127.400881,74.3186786 L127.617418,74.3186786 C128.273128,74.3186786 128.64978,74.2966551 129.026432,74.2573274 L129.026432,76.3637192 C128.550661,76.3212452 128.094714,76.3007948 127.638767,76.3007948 L127.400881,76.3007948 L127.400881,81.8224044 C128.273128,81.4951979 128.491189,81.4133963 129.343612,81.0248385 L129.401559,83.0085279 C127.638767,83.8674449 126.449339,84.4007286 124.366317,85.2171717 C124.030837,85.3414473 123.692308,85.483027 123.434598,85.6073025 L123,83.213032 C123.475771,83.1532538 123.475771,83.1532538 125.337682,82.558619 L125.337682,76.3007948 L124.843612,76.3007948 C124.268722,76.3007948 123.751779,76.3432688 123.218062,76.4030469 L123.218062,74.2148535 C123.713656,74.2762047 124.247374,74.3186786 124.863436,74.3186786 L125.337682,74.3186786 L125.337682,71.5563007 C125.337682,70.5542308 125.299559,69.9202683 125.220264,69.2863057 L127.519824,69.2863057 Z M137.96696,84.1962245 L132.257709,84.1962245 L132.257709,85.4027985 L137.96696,85.4027985 L137.96696,84.1962245 Z M227.741163,80.9560993 C226.201824,81.7498201 225.298746,82.6261245 225.298746,83.3418496 C225.298746,83.6783015 225.503991,83.9780497 225.976055,84.2563872 C226.384966,84.5347247 226.899658,84.6922454 227.289624,84.6922454 C227.636962,84.6922454 227.741163,84.5148435 227.741163,83.8572328 L227.741163,80.9560993 Z M137.96696,81.4558702 L132.257709,81.4558702 L132.257709,82.6419937 L137.96696,82.6419937 L137.96696,81.4558702 Z M269,71 C268.945122,71.5448916 268.871951,72.5897833 268.835366,73.4551084 L268.579268,80.2987616 C268.549139,81.2599709 268.543822,81.429596 268.542884,81.6160187 L268.542683,81.74613 C268.542683,81.9891641 268.542683,82.1904025 268.579268,82.5913313 L266.439024,82.5913313 C266.45591,82.1702786 266.47561,81.9690402 266.47561,81.7275542 L266.475008,81.5962916 C266.4729,81.4450942 266.463415,81.2366701 266.420732,80.2987616 L266.163227,73.4551084 C266.128049,72.5712074 266.073171,71.5634675 266,71 L269,71 Z M132.872247,69 C133.348018,69.7991389 133.803965,70.7194072 134.140969,71.5153999 L136.143172,71.5153999 C136.599119,70.7587349 136.876652,70.1452227 137.273128,69.0220235 L139.374449,69.5930618 C138.898678,70.51333 138.660793,70.9632389 138.303965,71.5153999 L139.156388,71.5153999 C139.889868,71.5153999 140.524229,71.4949495 141,71.4335983 C140.940529,71.9668819 140.920705,72.4985925 140.920705,73.3150356 L140.920705,77.0574598 C140.920705,77.8959265 140.940529,78.427637 141,78.9388972 C140.504405,78.8995695 140.068282,78.877546 139.176211,78.877546 L131.187225,78.877546 C130.27533,78.877546 129.837682,78.8995695 129.422907,78.9388972 C129.46103,78.427637 129.482379,77.9997516 129.482379,77.0983607 L129.482379,73.2757079 C129.482379,72.4167909 129.46103,72.1289121 129.422907,71.4335983 C129.897154,71.4949495 130.472043,71.5153999 131.187225,71.5153999 L131.960352,71.5153999 C131.5837,70.7382845 131.325991,70.308826 130.789224,69.552161 L132.872247,69 Z M138.918502,75.9940387 L136.044053,75.9940387 L136.044053,77.263537 L138.918502,77.263537 L138.918502,75.9940387 Z M134.139444,75.9940387 L131.423585,75.9940387 L131.423585,77.263537 L134.139444,77.263537 L134.139444,75.9940387 Z M236.936146,71.3916877 C238.721779,72.7237316 239.912201,73.9166067 241,75.4673444 L239.111745,76.938557 C238.087098,75.3694674 236.587229,73.7973192 235.006842,72.6442065 L236.936146,71.3916877 Z M138.918502,73.2143567 L136.044053,73.2143567 L136.044053,74.4398079 L138.918502,74.4398079 L138.918502,73.2143567 Z M134.139444,73.2143567 L131.423585,73.2143567 L131.423585,74.4398079 L134.139444,74.4398079 L134.139444,73.2143567 Z M248.050279,70 C250.219166,70.7612335 253.114525,71.1957709 256.203911,71.1957709 L256.751397,71.1957709 L256.41749,73.73163 C252.858831,73.566696 250.160507,73.1955947 247.286205,72.4327753 L248.050279,70 Z M192.989028,43 C193.088914,43.6025974 193.384033,44.5792208 193.738176,45.4311688 L196.136966,51.3340659 L198.322361,45.4519481 C198.793038,44.1844156 198.951949,43.6649351 199.069996,43 L202,43 C201.883466,43.2701299 201.529323,44.1220779 200.939084,45.5766234 L196.451759,56.6935065 C195.822172,58.2727273 194.662883,59 192.833144,59 C192.241392,59 191.670829,58.9376623 190.76731,58.7506494 L191.218313,56.3834166 C191.770715,56.6311688 192.144533,56.7350649 192.597049,56.7350649 C193.28566,56.7350649 193.856224,56.3402597 194.130155,55.6961039 L194.800605,54.0961039 L191.121453,45.5766234 C190.25577,43.5194805 190.236095,43.4571429 190,43 L192.989028,43 Z M152.989028,43 C153.088914,43.6025974 153.384033,44.5792208 153.738176,45.4311688 L156.136966,51.3340659 L158.322361,45.4519481 C158.794552,44.1844156 158.951949,43.6649351 159.069996,43 L162,43 C161.883466,43.2701299 161.529323,44.1220779 160.939084,45.5766234 L156.451759,56.6935065 C155.822172,58.2727273 154.662883,59 152.833144,59 C152.241392,59 151.670829,58.9376623 150.76731,58.7506494 L151.218313,56.3834166 C151.770715,56.6311688 152.144533,56.7350649 152.597049,56.7350649 C153.28566,56.7350649 153.856224,56.3402597 154.130155,55.6961039 L154.800605,54.0961039 L151.121453,45.5766234 C150.25577,43.5194805 150.236095,43.4571429 150,43 L152.989028,43 Z M290.038233,38.2286333 L292.73465,38.5152167 C292.61115,38.72105 292.61115,38.72105 291.911317,40.3677167 C291.8084,40.5957167 291.767233,40.6574667 291.72765,40.7398 C291.890733,40.7176333 291.890733,40.7176333 293.022817,40.6574667 C295.412067,40.5118 297.283567,40.2853833 298.41565,39.95605 L298.559733,42.30255 C297.984983,42.3437167 297.984983,42.3437167 296.935233,42.4672167 C295.431067,42.65405 292.816983,42.8171333 290.73965,42.8788833 C290.142733,44.0521333 289.564817,44.8754667 288.8444,45.6164667 L288.864983,45.6576333 C289.009067,45.5547167 289.009067,45.5547167 289.27665,45.3488833 C290.038233,44.77255 291.130733,44.4226333 292.180483,44.4226333 C293.7844,44.4226333 294.792983,45.1842167 295.122317,46.6044667 C296.707233,46.0281333 297.756983,45.6576333 298.271567,45.4929667 C299.383067,45.1018833 299.4654,45.0813 299.794733,44.8754667 L300.763733,47.24255 C300.185817,47.3248833 299.5699,47.48955 298.4774,47.7983 C298.190817,47.8806333 297.160067,48.23055 295.3899,48.84805 L295.3899,49.0744667 C295.40985,49.5561167 295.411845,49.6042817 295.412044,49.8191717 L295.412067,50.7211333 C295.3899,51.07105 295.3899,51.2563 295.3899,51.4003833 C295.3899,51.8548 295.412067,52.1413833 295.45165,52.4913 L293.063983,52.55305 C293.146317,52.18255 293.187483,51.1328 293.187483,50.1653833 L293.187483,49.6713833 C292.180483,50.1448 291.643733,50.4329667 291.211483,50.7417167 C290.491067,51.2768833 290.142733,51.8326333 290.142733,52.42955 C290.142733,53.4998833 291.130733,53.9321333 293.619733,53.9321333 C296.089733,53.9321333 298.209817,53.6233833 299.671233,53.0676333 L299.877067,55.7228833 C299.52715,55.7228833 299.425817,55.74505 298.930233,55.8068 C297.449817,56.0316333 295.473817,56.1757167 293.6609,56.1757167 C291.479067,56.1757167 290.120567,55.9287167 289.070817,55.3112167 C288.123983,54.77605 287.569817,53.78805 287.569817,52.6559667 C287.569817,51.81205 287.815233,51.1533833 288.4739,50.3712167 C289.40015,49.2201333 290.5734,48.4363833 292.899317,47.4689667 C292.7964,46.7073833 292.386317,46.3574667 291.643733,46.3574667 C290.4499,46.3574667 289.009067,47.0778833 287.42415,48.47755 C286.55965,49.1979667 286.086233,49.71255 285.6334,50.3506333 L283.760317,48.4981333 C284.295483,48.0864667 284.8924,47.5101333 285.612817,46.6662167 C286.415567,45.7193833 287.67115,43.9286333 288.082817,43.1464667 C288.166733,42.9833833 288.166733,42.9833833 288.247483,42.8788833 C288.166733,42.8788833 287.897567,42.90105 287.897567,42.90105 C287.569817,42.90105 285.7569,42.8583 285.304067,42.8583 C284.999891,42.8435222 284.932296,42.8402383 284.830114,42.8395085 L284.727733,42.8393 C284.665983,42.8393 284.542483,42.8393 284.3984,42.8583 L284.439567,40.5118 C285.283483,40.69705 286.600817,40.7793833 289.2149,40.7793833 C289.77065,39.5459667 289.9559,38.9268833 290.038233,38.2286333 Z M278.649653,40 L280.024542,41.3843594 C279.754046,41.6897328 279.585986,41.973182 279.358705,42.4837036 C278.399964,44.6604678 277.380402,46.4316336 276.111151,48.1010081 C277.423617,48.9560536 278.547217,49.8110991 279.96212,51.052951 C280.482305,51.5008319 280.482305,51.5008319 283,53.8827444 L281.00249,56 C279.275476,53.9234609 276.882625,51.6433395 274.614619,49.9551728 C272.261782,52.5187433 269.868931,54.3102672 266.687,55.8371342 C266.102792,54.7800724 265.853103,54.4543408 265,53.577371 C266.60217,52.9666243 267.600925,52.4169521 269.16308,51.3379661 C272.303397,49.1815601 274.800285,46.2280513 276.154366,43.053734 L276.381647,42.5228541 C276.048728,42.5447783 276.048728,42.5447783 269.495999,42.6450034 C268.497243,42.6669277 267.933843,42.7060781 267.227992,42.8094353 L267.143162,40.2035823 C267.725769,40.3038074 268.12111,40.3257316 268.974213,40.3257316 L269.473591,40.3257316 L276.797795,40.2223745 C277.96461,40.2035823 278.129468,40.183224 278.649653,40 Z M218.604627,37.7582381 C219.383807,38.8216592 219.84486,39.6396754 220.382755,40.9894022 L219.005743,41.5211128 C220.402734,41.5211128 220.822292,41.5006624 221.503114,41.3779599 L221.503114,43.8917867 C220.878985,43.8145296 220.578371,43.7919963 219.215975,43.7897311 L214.349106,43.7895347 L214.349106,53.7079815 C214.349106,54.8343269 214.369085,55.447839 214.449001,56 L211.731861,56 C211.80563,55.490313 211.845351,54.9283503 211.851026,53.9429245 L211.851735,43.7895347 L207.416404,43.7895347 C205.858044,43.7895347 205.55836,43.8099851 204.899054,43.8917867 L204.899054,41.3779599 C205.598318,41.5006624 205.977918,41.5211128 207.456362,41.5211128 L211.851735,41.5211128 L211.851735,40.37589 C211.851735,39.1897665 211.811777,38.7398576 211.731861,38.2474747 L214.429022,38.2474747 C214.372831,38.7666004 214.35176,39.0866296 214.349345,40.2030448 L214.349106,41.5211128 L218.864353,41.5211128 C218.324921,40.171386 217.865405,39.3329194 217.126183,38.2899487 L218.604627,37.7582381 Z M256.48125,39 C256.4,39.6376916 256.4,39.6591524 256.378125,40.9130748 L256.357812,42.1102795 C256.339062,43.4239856 256.339062,43.4239856 256.339062,43.6431921 L260.360937,43.6431921 C261.78125,43.6431921 262.209375,43.6232642 263,43.503697 L263,46.0146078 C262.270312,45.9348963 261.742187,45.9149684 260.4,45.9149684 L256.235937,45.9149684 C256.053125,48.6849414 255.707812,50.0001803 254.775,51.5346258 C253.65625,53.3480613 252.235937,54.5851217 249.59375,56 C248.903125,54.8625789 248.6,54.5038774 247.746875,53.8462579 C250.182812,52.810009 251.728125,51.5760144 252.642187,49.9220018 C253.25,48.8458972 253.475,47.9491434 253.635937,45.9149684 L248.6,45.9149684 C247.257812,45.9149684 246.729687,45.9348963 246,46.0146078 L246,43.503697 C246.790625,43.6232642 247.239062,43.6431921 248.639062,43.6431921 L253.757812,43.6431921 C253.774432,42.9596524 253.777454,42.5942238 253.778003,42.2883128 L253.778125,40.9130748 C253.778125,40.0577096 253.757812,39.5395852 253.678125,39 L256.48125,39 Z M165,39 C165.845921,39.0415904 166.453172,39.0600751 167.495468,39.0600751 L171.598187,39.0600751 C173.504532,39.0600751 174.839879,39.5206508 175.782477,40.4818523 C176.587613,41.284394 177,42.4843554 177,43.9261577 C177,45.4480601 176.548338,46.689612 175.68429,47.6107635 C174.722054,48.59199 173.386707,49.0525657 171.501511,49.0525657 L167.750755,49.0525657 L167.750755,52.3967459 C167.750755,53.4780976 167.79003,54.2390488 167.906344,55 L165,55 C165.117825,54.1989987 165.15861,53.4981227 165.15861,52.416771 L165.15861,41.583229 C165.15861,40.6220275 165.117825,39.9011264 165,39 Z M142.769811,43 C144.763861,43 145.966038,43.3393908 146.858491,44.1794216 C147.564151,44.8182749 147.833962,45.5753775 147.833962,46.9344766 L147.833962,52.3048375 C147.833962,53.3614026 147.875472,53.9019708 148,54.8003583 L145.198113,54.8003583 L145.198113,53.5011518 C144.367925,54.2597901 143.849057,54.5408242 142.998113,54.7588943 C142.396226,54.9201433 141.732075,55 141.067925,55 C138.535849,55 137,53.7407218 137,51.6444843 C137,50.2469926 137.913208,48.9907858 139.345283,48.4118249 C140.69434,47.8712567 142.230189,47.671615 145.198113,47.6117225 L145.198113,46.59355 C145.198113,45.4356284 144.388679,44.8367034 142.811321,44.8367034 C141.981132,44.8367034 141.130189,45.0563092 140.65283,45.4156642 C140.258491,45.6951625 140.071698,45.9761966 139.822642,46.6933709 L137.166038,46.2357307 C137.643396,45.0778091 138.016981,44.557205 138.80566,44.0181725 C139.822642,43.3009982 140.984906,43 142.769811,43 Z M124,39 C124.845921,39.0415904 125.453172,39.0600751 126.495468,39.0600751 L130.598187,39.0600751 C132.504532,39.0600751 133.839879,39.5206508 134.782477,40.4818523 C135.587613,41.284394 136,42.4843554 136,43.9261577 C136,45.4480601 135.548338,46.689612 134.68429,47.6107635 C133.722054,48.59199 132.386707,49.0525657 130.501511,49.0525657 L126.750755,49.0525657 L126.750755,52.3967459 C126.750755,53.4780976 126.79003,54.2390488 126.906344,55 L124,55 C124.117825,54.1989987 124.15861,53.4981227 124.15861,52.416771 L124.15861,41.583229 C124.15861,40.6220275 124.117825,39.9011264 124,39 Z M183.769811,43 C185.763861,43 186.966038,43.3393908 187.858491,44.1794216 C188.564151,44.8182749 188.833962,45.5753775 188.833962,46.9344766 L188.833962,52.3048375 C188.833962,53.3614026 188.875472,53.9019708 189,54.8003583 L186.198113,54.8003583 L186.198113,53.5011518 C185.367925,54.2597901 184.849057,54.5408242 183.998113,54.7588943 C183.396226,54.9201433 182.732075,55 182.067925,55 C179.535849,55 178,53.7407218 178,51.6444843 C178,50.2469926 178.913208,48.9907858 180.345283,48.4118249 C181.69434,47.8712567 183.230189,47.671615 186.198113,47.6117225 L186.198113,46.59355 C186.198113,45.4356284 185.388679,44.8367034 183.811321,44.8367034 C182.981132,44.8367034 182.130189,45.0563092 181.65283,45.4156642 C181.258491,45.6951625 181.071698,45.9761966 180.822642,46.6933709 L178.166038,46.2357307 C178.643396,45.0778091 179.016981,44.557205 179.80566,44.0181725 C180.822642,43.3009982 181.984906,43 183.769811,43 Z M218.704522,45.2619639 C219.32387,47.9205166 220.923724,51.4788872 222.240799,53.0535685 C221.221872,53.5868521 220.842271,53.8306839 219.943218,54.4850969 C218.504732,52.174201 217.605678,50.0882596 216.666667,46.8382182 C216.506835,46.2844842 216.486856,46.1838053 216.347003,45.8770492 L218.704522,45.2619639 Z M207.376446,45.2619639 L209.833859,45.8770492 C209.792364,46.0186289 209.773922,46.1429045 209.753943,46.1838053 C209.753943,46.2042557 209.713985,46.3269581 209.674027,46.5314622 C209.0347,49.5156483 207.776025,52.4605067 206.31756,54.4662196 C205.377012,53.7693327 204.958991,53.5255009 204,53.1573936 C205.538381,51.4584368 207.09674,47.7978142 207.376446,45.2619639 Z M186.198113,49.3486051 C182.233962,49.4299974 180.677358,50.0872792 180.677358,51.6444843 C180.677358,52.5828001 181.403774,53.1617609 182.566038,53.1617609 C183.666038,53.1617609 184.745283,52.7640133 185.450943,52.1051958 C185.949057,51.6245201 186.198113,51.0455593 186.198113,50.3468134 L186.198113,49.3486051 Z M145.198113,49.3486051 C141.233962,49.4299974 139.677358,50.0872792 139.677358,51.6444843 C139.677358,52.5828001 140.403774,53.1617609 141.566038,53.1617609 C142.666038,53.1617609 143.745283,52.7640133 144.450943,52.1051958 C144.949057,51.6245201 145.198113,51.0455593 145.198113,50.3468134 L145.198113,49.3486051 Z M242,46 L242,49 C241.332267,48.9080088 241.072556,48.8932903 239.688944,48.8909353 L227.310152,48.8909353 C225.927444,48.8932903 225.667733,48.9080088 225,49 L225,46 C225.831175,46.1232617 226.21258,46.1502017 227.943295,46.1524879 L238.785227,46.1526549 C240.748878,46.1526549 241.12574,46.1294248 242,46 Z M171.501511,41.3629537 L167.750755,41.3629537 L167.750755,46.7496871 L171.501511,46.7496871 C173.306647,46.7496871 174.29003,45.7684606 174.29003,44.0062578 C174.29003,43.2052566 174.074018,42.5444305 173.641994,42.0838548 C173.188822,41.583229 172.540785,41.3629537 171.501511,41.3629537 Z M130.501511,41.3629537 L126.750755,41.3629537 L126.750755,46.7496871 L130.501511,46.7496871 C132.306647,46.7496871 133.29003,45.7684606 133.29003,44.0062578 C133.29003,43.2052566 133.074018,42.5444305 132.641994,42.0838548 C132.188822,41.583229 131.540785,41.3629537 130.501511,41.3629537 Z M221.241851,37 C222.060988,38.0854446 222.520505,38.9018877 223,40.1100348 L221.541535,40.7030965 C221.06204,39.4949495 220.484187,38.4519788 219.823344,37.5317105 L221.241851,37 Z M127.695054,7 C127.594085,7.62135351 127.575727,8.1420765 127.575727,9.07650273 L127.575727,10.8191677 L128.212137,10.8191677 C128.709332,10.8191677 128.946456,10.8 129.324324,10.7377049 L129.324324,12.8972678 C128.967874,12.8557377 128.649669,12.8349727 128.230495,12.8349727 L127.575727,12.8349727 L127.575727,15.9497268 C128.251912,15.6989491 128.45079,15.6174863 129.226415,15.2644809 L129.125446,15.2852459 L129.125446,13.1256831 C129.624171,13.1879781 130.45793,13.2295082 131.352881,13.2295082 L133.760836,13.2295082 L133.760836,11.1737705 L131.951045,11.1737705 C131.056094,11.1737705 130.499235,11.1945355 129.942376,11.2759983 L129.942376,9.07650273 C130.499235,9.15796553 131.034676,9.2010929 131.951045,9.2010929 L133.760836,9.2010929 L133.760836,8.57814208 C133.760836,7.99672131 133.719531,7.53989071 133.641509,7.01916772 L135.988271,7.01916772 C135.888832,7.53989071 135.868944,7.93442623 135.868944,8.55577974 L135.868944,9.2010929 L138.215706,9.2010929 C139.129016,9.2010929 139.667517,9.15796553 140.244263,9.07650273 L140.244263,11.2759983 C139.687404,11.1945355 139.129016,11.1737705 138.234064,11.1737705 L135.868944,11.1737705 L135.868944,13.2295082 L138.751147,13.2295082 C139.667517,13.2295082 140.443141,13.1879781 141,13.1033207 L141,15.2852459 C140.482917,15.2229508 139.765426,15.1814208 138.693014,15.1814208 L138.693014,17.0295082 L139.011219,17.0295082 C139.826619,17.0295082 140.36359,17.0087432 140.960224,16.9256831 L140.960224,19.147541 C140.36359,19.0644809 139.806731,19.0229508 139.011219,19.0229508 L138.693014,19.0229508 L138.693014,24.0065574 C138.693014,24.6502732 138.514023,25.1693989 138.195818,25.4393443 C137.758287,25.8338798 137.141764,25.979235 135.849057,25.979235 C135.411525,25.979235 135.073432,25.9584699 134.019378,25.8961749 C133.898521,25.0032787 133.760836,24.4218579 133.442631,23.695082 C134.317695,23.8404372 135.033656,23.9234973 135.688424,23.9234973 C136.36614,23.9234973 136.54513,23.8196721 136.54513,23.3628415 L136.54513,19.0229508 L131.533401,19.0229508 C130.578786,19.0229508 130.00204,19.0437158 129.305966,19.126776 L129.305966,17.2994536 C128.391127,17.7355191 128.170831,17.8185792 127.575727,18.0677596 L127.575727,23.9650273 C127.575727,25.6054645 127.058644,26 124.929118,26 C124.572667,26 124.27435,25.979235 123.618052,25.9584699 C123.536971,25.0863388 123.439062,24.6502732 123.160632,23.8404372 C123.894952,23.9027322 124.393677,23.9442623 124.831209,23.9442623 C125.348292,23.9442623 125.485977,23.8196721 125.485977,23.3213115 L125.485977,18.8568306 C124.45334,19.2513661 124.45334,19.2513661 124.09383,19.3759563 C123.894952,19.4382514 123.536971,19.5836066 123.318205,19.6666667 L123,17.3617486 C123.498725,17.3202186 124.075472,17.1540984 125.485977,16.6765027 L125.485977,12.8349727 L124.592555,12.8349727 C124.055584,12.8349727 123.618052,12.8557377 123.139215,12.9180328 L123.139215,10.6961749 C123.63641,10.8 124.034166,10.8191677 124.610913,10.8191677 L125.485977,10.8191677 L125.485977,9.09726776 C125.485977,8.11971417 125.467619,7.66448087 125.36665,7 L127.695054,7 Z M153.428571,14 C155.756672,14 157.3281,14.6482143 158.246468,16.0035714 C158.756672,16.75 159,17.575 159,18.5375 C159,21.15 157.081633,23.2714286 153.836735,24.2535714 C152.571429,24.6267857 152.061224,24.7053571 149.408163,25 C149.204082,24.0178571 149.040816,23.6446429 148.530612,22.7607143 L148.836735,22.7607143 C149.591837,22.7607143 150.734694,22.6428571 151.734694,22.4660714 C153.326531,22.1714286 154.22449,21.8178571 155.142857,21.1303571 C156.122449,20.4232143 156.591837,19.5589286 156.591837,18.4785714 C156.591837,16.9464286 155.408163,16.1214286 153.244898,16.1214286 C151.836735,16.1214286 150.265306,16.3375 147.877551,16.8875 C146.571429,17.1821429 146.204082,17.2803571 145.510204,17.5553571 L145,15.1982143 C145.571429,15.1589286 145.571429,15.1589286 147.124019,14.825 C149.897959,14.2357143 151.734694,14 153.428571,14 Z M215.1,8 L216.341538,9.78930904 C216,9.97387064 215.86,10.0943049 215.3,10.6245285 C214.3,11.558285 212.84,12.8814978 212.16,13.4711565 C211.8,13.7745883 210.36,14.8725734 209.96,15.1369031 C209.46,15.4841292 209.46,15.4841292 209.14,15.6671267 L209.18,15.7077928 C211,14.9742387 211.88,14.7724722 213.38,14.7724722 C216.8,14.7724722 219,16.5617812 219,19.3474101 C219,21.2790505 218.06,22.8243629 216.281538,23.8410157 C214.98,24.5933389 213.28,25 211.44,25 C209.76,25 208.36,24.6746711 207.56,24.0646794 C206.8,23.4953538 206.36,22.6413654 206.36,21.7263778 C206.36,20.038734 207.8,18.8187506 209.8,18.8187506 C211.2,18.8187506 212.42,19.4084092 213.261538,20.4860613 C213.66,20.9943877 213.88,21.441715 214.18,22.3160364 C215.84,21.6857117 216.56,20.8113902 216.56,19.3677431 C216.56,17.7817647 215.02,16.7447787 212.6,16.7447787 C209.681538,16.7447787 206.76,17.9444291 204.36,20.1607324 L203,17.9647622 C203.7,17.6191002 204.5,17.0701076 205.82,16.0518907 C207.68,14.6098077 210.28,12.3309412 211.8,10.7668599 C211.84,10.7261938 212.04,10.5212991 212.16,10.4008648 L212.14,10.3789677 C211.38,10.480633 210.1,10.5635293 206.48,10.7261938 C206.04,10.7449627 205.9,10.7668599 205.52,10.827859 L205.42,8.38789217 C206.1,8.46766032 206.68,8.50989051 207.78,8.50989051 C209.48,8.50989051 211.921538,8.40822523 213.86,8.26432975 C214.56,8.20333057 214.78,8.16266446 215.1,8 Z M178.855583,9 L179,11.6528497 C178.773058,11.6321244 178.773058,11.6321244 178.566748,11.6321244 C177.328883,11.6321244 175.802184,12.0466321 174.481796,12.7512953 C171.86165,14.119171 170.31432,16.1917098 170.31432,18.2849741 C170.31432,19.9015544 171.325243,21.1450777 173.058252,21.6632124 C174.069175,21.9740933 175.39115,22.2020725 176.132282,22.2020725 C176.152913,22.2020725 176.338592,22.2020725 176.544903,22.1813472 L176.173544,25 C175.925971,24.9378238 175.822816,24.9170984 175.472087,24.8756477 C173.20267,24.5854922 171.902913,24.2124352 170.644417,23.507772 C168.746359,22.4300518 167.694175,20.6683938 167.694175,18.5129534 C167.694175,16.7512953 168.395631,15.0103627 169.654126,13.6217617 C170.43652,12.7720207 171.180825,12.2331606 172.521845,11.5492228 C170.850728,11.7979275 170.046117,11.8601036 165.569175,12.1917098 C164.186893,12.2953368 162.949029,12.4404145 162.144417,12.6062176 L162,9.9119171 C162.340413,9.92746114 162.553171,9.93134715 162.681792,9.93231865 L162.908714,9.93227339 C163.199898,9.92959743 163.522948,9.9075208 166.188107,9.7253886 C167.343447,9.66321244 170.768204,9.47668394 176.48301,9.20725389 C178.174757,9.12435233 178.484223,9.10362694 178.855583,9 Z M185.790531,9 C185.688744,9.75923393 185.627671,10.7647059 185.627671,12.119015 C185.627671,13.9042408 185.790531,16.3666211 186.014462,17.6183311 C186.360538,19.752394 187.011975,21.0656635 187.663412,21.0656635 C187.968773,21.0656635 188.253777,20.7578659 188.498066,20.1833105 C188.986643,19.0752394 189.353077,17.8440492 189.577008,16.4692202 C190.289517,17.2900137 190.615236,17.5978112 191.612749,18.3365253 C190.554164,22.3378933 189.373434,24 187.643055,24 C186.279108,24 185.179808,22.994528 184.363946,21.0246238 C183.530859,18.9726402 183.164425,15.997264 183.082996,10.3132695 C183.061072,9.59507524 183.061072,9.45143639 183,9 L185.790531,9 Z M131.891382,19.2928962 C132.884243,20.3934426 133.401326,21.0579235 134.238144,22.4284153 L132.506374,23.7781421 C131.671086,22.2622951 131.394187,21.8469945 130.18103,20.4765027 L131.891382,19.2928962 Z M209.78,20.7707241 C209.06,20.7707241 208.6,21.1367191 208.6,21.7060447 C208.6,22.519367 209.5,22.9870273 210.98,22.9870273 C211.36,22.9870273 211.46,22.9870273 212.02,22.9056951 C211.66,21.5027141 210.901538,20.7707241 209.78,20.7707241 Z M195.419584,9.92339261 C197.984617,13.0218878 199.409635,16.4487004 200,20.9630643 L197.475682,21.9274966 C197.353537,19.998632 196.886883,17.8645691 196.172808,15.997264 C195.480656,14.129959 194.5035,12.4678523 193.282056,10.9493844 L195.419584,9.92339261 Z M136.54513,15.1814208 L131.352881,15.1814208 C130.716471,15.1814208 129.72361,15.2229508 129.324324,15.2437158 L129.324324,16.9256831 C129.960734,17.0087432 130.558899,17.0295082 131.533401,17.0295082 L136.54513,17.0295082 L136.54513,15.1814208 Z"/>
    <rect width="96" height="96" fill="#FFF" stroke="#979797" stroke-width=".5" rx="16"/>
    <g transform="translate(13 12)">
      <path fill="#00B9F5" d="M12.5293313,61.632 C12.0667119,61.632 11.5974361,61.4855593 11.2047088,61.176037 C10.2595008,60.4438336 10.0897627,59.0859291 10.8219661,58.1407211 L27.4629522,36.723772 C28.1918274,35.7852203 29.5330909,35.6088259 30.4816271,36.3277165 L45.1955871,47.5004746 L57.6796549,26.6293498 C58.2920431,25.604265 59.6166656,25.2681171 60.6450786,25.8838336 C61.6701633,26.4962219 62.0063112,27.8241726 61.3905948,28.8492573 L47.6684376,51.7971772 C47.3522589,52.3263606 46.8297319,52.6924622 46.224,52.8122773 C45.6215963,52.9287643 44.992567,52.7823236 44.503322,52.4095655 L29.5663729,41.0670693 L14.2400247,60.7966225 C13.8140154,61.345775 13.1750015,61.632 12.5293313,61.632"/>
      <polygon fill="#00B9F5" points="64.723 31.868 53.444 25.125 62.453 22.859"/>
      <path fill="#00B9F5" d="M68.0962465,30.8445116 L65.2240123,19.3289492 C65.1274946,18.9395501 64.7380955,18.7065763 64.3520247,18.803094 L52.8364622,21.6753282 C52.2107612,21.8317535 52.0876179,22.6604746 52.6367704,22.9932943 L67.0278952,31.6366225 C67.5770478,31.966114 68.2526718,31.4668844 68.0962465,30.8445116"/>
      <path fill="#00B9F5" d="M54.8503544,22.6491587 L66.2893683,29.521886 L64.006225,20.3660154 L54.8503544,22.6491587 Z M67.3976579,33.1762465 C67.0149153,33.1762465 66.6321726,33.0730724 66.2893683,32.8667242 L51.9015716,24.2200678 C51.1493991,23.767433 50.7500154,22.9187427 50.8798151,22.0534114 C51.0096148,21.1914083 51.6386441,20.4958151 52.4873344,20.2861387 L64.006225,17.4105763 C64.5686903,17.2774484 65.1444684,17.3606533 65.6337134,17.6568629 C66.1296148,17.9530724 66.4790755,18.4223482 66.6155316,18.9814854 L69.4877658,30.4970478 C69.6974422,31.3457381 69.3812635,32.2277103 68.6790139,32.7502373 C68.2995994,33.0331341 67.8502928,33.1762465 67.3976579,33.1762465 L67.3976579,33.1762465 Z"/>
      <mask id="titile_main-b" fill="#fff">
        <use xlink:href="#titile_main-a"/>
      </mask>
      <path fill="#032970" d="M69.1103482,72 L9.72199692,72 C4.36027119,72 0.000332819723,67.6367334 0.000332819723,62.2783359 L0.000332819723,2.88998459 C0.000332819723,1.48548536 1.14190447,0.343913713 2.5464037,0.343913713 C3.95090293,0.343913713 5.09247458,1.48548536 5.09247458,2.88998459 L5.09247458,62.2783359 C5.09247458,64.8310632 7.16926965,66.9078582 9.72199692,66.9078582 L69.1103482,66.9078582 C70.5148475,66.9078582 71.6564191,68.0494299 71.6564191,69.4539291 C71.6564191,70.8584284 70.5148475,72 69.1103482,72" mask="url(#titile_main-b)"/>
      <polygon fill="#00B9F5" points="26.593 25.173 22.572 25.173 22.572 29.516 19.96 29.516 19.96 25.173 15.943 25.173 15.943 22.976 19.96 22.976 19.96 20.297 15.943 20.297 15.943 18.101 19.178 18.101 12.531 6.219 15.507 6.219 21.151 16.566 21.384 16.566 27.029 6.219 30.004 6.219 23.358 18.101 26.593 18.101 26.593 20.297 22.572 20.297 22.572 22.976 26.593 22.976"/>
      <g transform="translate(12 5)">
        <mask id="titile_main-d" fill="#fff">
          <use xlink:href="#titile_main-c"/>
        </mask>
        <polygon fill="#00B9F5" points="-7.032 31.093 24.318 31.093 24.318 -6.445 -7.032 -6.445" mask="url(#titile_main-d)"/>
      </g>
    </g>
  </g>
</svg>
