<?xml version="1.0" encoding="UTF-8"?>
<svg width="343px" height="217px" viewBox="0 0 343 217" version="1.1" xmlns="http://www.w3.org/2000/svg" xmlns:xlink="http://www.w3.org/1999/xlink">
    <!-- Generator: Sketch 62 (91390) - https://sketch.com -->
    <title>Group 3</title>
    <desc>Created with Sketch.</desc>
    <g id="Phase.1" stroke="none" stroke-width="1" fill="none" fill-rule="evenodd">
        <g id="X_1-home_初回_A" transform="translate(-16.000000, -239.000000)">
            <g id="Group-3" transform="translate(16.000000, 239.000000)">
                <g id="Graph" transform="translate(0.000000, 56.000000)">
                    <rect id="Rectangle" fill="#909090" x="0" y="116" width="343" height="2"></rect>
                    <rect id="Rectangle" fill="#ECECEC" x="0" y="54" width="343" height="1"></rect>
                    <path d="M71.808,131.744 L72.408,131.396 C72.012,130.64 71.712,130.196 71.172,129.524 L70.584,129.86 C71.052,130.4 71.544,131.168 71.808,131.744 Z M70.296,132.128 L70.908,131.78 C70.512,131.048 70.188,130.568 69.684,129.968 L69.084,130.28 C69.408,130.628 69.936,131.42 70.296,132.128 Z M66.876,140.552 C66.828,140.276 66.816,140.012 66.816,139.28 L66.816,133.304 L69.864,133.304 C70.632,133.304 70.872,133.316 71.244,133.364 L71.244,132.452 C70.8949091,132.506545 70.6648264,132.521421 70.0398527,132.523675 L66.816,132.524 L66.816,131.744 C66.816,131 66.828,130.784 66.876,130.496 L65.892,130.496 C65.947,130.749 65.9616667,130.951583 65.9637292,131.547417 L65.964,132.524 L63.036,132.524 C62.256,132.524 62.028,132.512 61.644,132.452 L61.644,133.364 C61.9821818,133.320364 62.2112727,133.306479 62.8271405,133.304316 L65.964,133.304 L65.964,139.292 C65.964,140.024 65.94,140.276 65.892,140.552 L66.876,140.552 Z M61.98,139.508 C62.916,138.416 63.648,136.964 64.08,135.368 L64.14,135.104 L64.212,134.864 C64.236,134.78 64.236,134.78 64.284,134.66 L63.372,134.408 C63.348,134.804 63.204,135.368 62.952,136.04 C62.436,137.408 61.896,138.308 61.188,138.992 C61.56,139.172 61.704,139.256 61.98,139.508 Z M70.884,139.556 C71.172,139.268 71.304,139.172 71.64,138.992 C70.896,138.14 70.344,137.18 69.78,135.776 C69.504,135.056 69.396,134.72 69.336,134.42 L68.496,134.648 C68.58,134.84 68.688,135.104 68.796,135.428 C69.408,137.18 70.044,138.452 70.884,139.556 Z M83.076,135.884 L83.076,134.912 C82.7612308,134.952615 82.5753373,134.967456 81.9876158,134.971061 L74.652,134.972 C73.836,134.972 73.512,134.96 73.164,134.9 L73.164,135.884 C73.524,135.848 73.776,135.836 74.652,135.836 L81.612,135.836 C82.416,135.836 82.692,135.848 83.076,135.884 Z M87.012,140.3 C88.428,139.592 89.352,138.812 89.988,137.792 C90.564,136.88 90.78,135.98 90.876,134.3 L93.588,134.3 C94.224,134.3 94.572,134.312 94.98,134.36 L94.98,133.424 C94.6066667,133.488 94.3376296,133.504593 93.7936296,133.50749 L90.912,133.508 L90.912,132.452 L90.912,132.452 L90.924,131.588 C90.936,130.916 90.936,130.892 90.984,130.568 L89.976,130.568 C90.0171429,130.814857 90.0318367,131.035265 90.0351953,131.395475 L90.0355556,132.792444 C90.0346667,133.006667 90.032,133.212 90.024,133.508 L86.676,133.508 C85.98,133.508 85.704,133.496 85.272,133.424 L85.272,134.36 C85.68,134.312 86.028,134.3 86.664,134.3 L89.988,134.3 C89.892,135.728 89.76,136.34 89.376,137.06 C88.8,138.14 87.804,138.968 86.4,139.532 C86.688,139.796 86.796,139.928 87.012,140.3 Z M105.648,140.108 L106.332,139.352 C104.964,137.9 103.908,136.952 102.336,135.752 C103.08,134.828 103.644,133.88 104.316,132.392 C104.448,132.092 104.532,131.948 104.652,131.804 L104.148,131.288 C103.944,131.36 103.8,131.372 103.38,131.384 L99.096,131.432 L98.784,131.432 L98.784,131.432 C98.376,131.432 98.16,131.42 97.836,131.372 L97.86,132.344 C98.208,132.284 98.556,132.26 99.096,132.248 L103.104,132.188 C103.248,132.188 103.284,132.188 103.392,132.176 C103.38,132.212 103.38,132.224 103.356,132.26 C103.332,132.32 103.32,132.332 103.296,132.404 C102.42,134.504 100.932,136.4 99.012,137.816 C98.088,138.5 97.5,138.824 96.576,139.196 C96.876,139.496 96.972,139.628 97.164,139.988 C98.052,139.544 98.688,139.148 99.516,138.548 C100.38,137.912 100.968,137.36 101.808,136.4 C103.344,137.588 104.7,138.896 105.648,140.108 Z M110.064,133.004 L110.664,132.452 C110.076,131.588 109.704,131.144 108.924,130.292 L108.348,130.772 C109.08,131.504 109.464,132.008 110.064,133.004 Z M111.816,132.464 L111.816,131.12 L117.96,131.12 L117.96,132.464 L118.728,132.464 C118.692,132.236 118.68,132.044 118.68,131.696 L118.68,131.192 C118.68,130.88 118.692,130.688 118.728,130.46 C118.38,130.496 118.08,130.508 117.612,130.508 L112.176,130.508 C111.708,130.508 111.408,130.496 111.072,130.46 C111.108,130.688 111.12,130.916 111.12,131.204 L111.12,131.72 C111.12,132.02 111.108,132.212 111.072,132.464 L111.816,132.464 Z M115.188,139.568 C115.14,139.268 115.116,138.884 115.116,138.524 L115.116,138.368 L117.648,138.368 C118.092,138.368 118.344,138.38 118.68,138.428 L118.68,137.696 C118.392,137.732 118.116,137.756 117.648,137.756 L115.116,137.756 L115.116,136.916 L117.096,136.916 C117.456,136.916 117.72,136.928 118.032,136.964 C117.996,136.688 117.984,136.508 117.984,136.184 L117.984,134.228 C117.984,133.904 117.996,133.7 118.032,133.424 C117.744,133.46 117.516,133.472 117.096,133.472 L115.116,133.472 L115.116,132.68 L116.808,132.68 C117.228,132.68 117.456,132.692 117.732,132.74 L117.732,132.044 C117.505714,132.074857 117.332327,132.088082 117.015359,132.09123 L115.116,132.092 C115.128,131.78 115.128,131.672 115.176,131.444 L114.384,131.444 C114.42,131.648 114.432,131.756 114.444,132.092 L112.98,132.092 C112.572,132.092 112.332,132.08 112.068,132.032 L112.068,132.74 C112.344,132.692 112.584,132.68 112.992,132.68 L114.444,132.68 L114.444,133.472 L112.668,133.472 C112.272,133.472 112.02,133.46 111.744,133.424 C111.78,133.688 111.792,133.856 111.792,134.228 L111.792,136.184 C111.792,136.532 111.78,136.688 111.744,136.964 C112.044,136.928 112.296,136.916 112.668,136.916 L114.444,136.916 L114.444,137.756 L112.14,137.756 C111.732,137.756 111.444,137.732 111.132,137.696 L111.132,138.44 C111.444,138.392 111.72,138.368 112.14,138.368 L114.444,138.368 L114.444,138.524 C114.444,138.884 114.408,139.292 114.36,139.568 L115.188,139.568 Z M114.444,134.912 L112.476,134.912 L112.476,134.024 L114.444,134.024 L114.444,134.912 Z M117.3,134.912 L115.116,134.912 L115.116,134.024 L117.3,134.024 L117.3,134.912 Z M108.264,140.66 C108.504,140.432 108.54,140.408 108.72,140.264 C109.32,139.808 109.572,139.592 110.112,139.052 C110.46,139.592 110.88,139.952 111.372,140.192 C112.08,140.528 112.728,140.6 114.936,140.6 C116.268,140.6 117.456,140.576 118.86,140.516 C118.92,140.216 118.98,140.036 119.148,139.676 C117.996,139.832 116.604,139.892 114.312,139.892 C112.86,139.892 112.164,139.808 111.564,139.544 C111.048,139.316 110.808,139.064 110.52,138.464 L110.52,136.088 C110.52,135.464 110.532,135.2 110.58,134.816 C110.256,134.864 110.016,134.876 109.656,134.876 L109.056,134.876 C108.6,134.876 108.42,134.864 108.132,134.816 L108.132,135.608 C108.432,135.56 108.612,135.548 109.008,135.548 L109.776,135.548 L109.776,138.44 C109.068,139.124 108.408,139.616 107.856,139.868 L108.264,140.66 Z M114.444,136.364 L112.476,136.364 L112.476,135.44 L114.444,135.44 L114.444,136.364 Z M117.3,136.364 L115.116,136.364 L115.116,135.44 L117.3,135.44 L117.3,136.364 Z M120.636,140.84 C121.44,139.7 121.752,138.716 121.932,136.904 L125.22,136.904 L125.22,139.172 C125.22,139.808 125.208,140.168 125.16,140.48 L126.024,140.48 C125.981333,140.224 125.967111,139.892148 125.964477,139.374881 L125.964,136.904 L129.48,136.904 L129.48,139.616 C129.48,139.916 129.372,139.976 128.844,139.976 C128.412,139.976 127.824,139.928 127.128,139.844 C127.236,140.144 127.284,140.348 127.308,140.624 C127.812,140.66 128.412,140.684 128.796,140.684 C129.96,140.684 130.236,140.504 130.236,139.748 L130.236,131.696 C130.236,131.156 130.248,130.844 130.284,130.52 C129.9795,130.5515 129.693375,130.564625 129.224648,130.567414 L122.556,130.568 C121.956,130.568 121.596,130.556 121.236,130.52 C121.284,131.036 121.284,131.264 121.284,132.476 C121.284,135.44 121.176,137.192 120.912,138.296 C120.72,139.112 120.456,139.652 119.94,140.324 C120.252,140.504 120.372,140.588 120.636,140.84 Z M129.48,133.388 L125.964,133.388 L125.964,131.288 L129.48,131.288 L129.48,133.388 Z M125.22,133.388 L122.052,133.388 L122.064,132.716 L122.064,131.288 L125.22,131.288 L125.22,133.388 Z M129.48,136.208 L125.964,136.208 L125.964,134.072 L129.48,134.072 L129.48,136.208 Z M125.22,136.208 L121.98,136.208 C122.016,135.656 122.016,135.608 122.028,134.864 L122.028444,134.658667 C122.029333,134.498667 122.032,134.296 122.04,134.072 L125.22,134.072 L125.22,136.208 Z M133.284,138.716 C133.344,138.62 133.416,138.476 133.524,138.308 C133.98,137.516 134.088,137.312 134.376,136.736 C134.904,135.632 135.336,134.516 135.708,133.232 C136.44,133.184 137.184,133.088 137.676,132.98 C137.964,132.932 137.964,132.932 138.096,132.908 L138.06,132.08 C137.508,132.26 136.752,132.404 135.912,132.476 C136.08,131.864 136.152,131.576 136.236,131.168 C136.332,130.676 136.344,130.628 136.428,130.4 L135.48,130.268 C135.456,130.82 135.264,131.84 135.072,132.524 C134.844,132.524 134.448,132.536 134.208,132.536 C133.548,132.536 133.188,132.512 132.78,132.44 L132.768,133.268 L132.924,133.268 L132.924,133.268 C132.96,133.268 133.056,133.268 133.188,133.28 C133.368,133.28 133.776,133.292 133.98,133.292 C134.16,133.292 134.568,133.28 134.868,133.268 C134.52,134.408 134.172,135.272 133.62,136.364 C133.176,137.228 132.852,137.756 132.468,138.236 L133.284,138.716 Z M142.116,134.3 L142.548,133.58 C141.576,132.956 140.772,132.548 139.38,131.996 L138.936,132.668 C140.196,133.124 141.108,133.604 142.116,134.3 Z M137.772,140.384 C139.236,140.384 140.052,139.7 140.052,138.464 C140.052,138.344 140.052,138.272 140.028,138.08 C140.904,138.536 141.66,139.136 142.128,139.712 L142.572,138.896 C142.488,138.836 142.488,138.836 142.356,138.704 C141.708,138.128 140.964,137.672 140.004,137.252 C139.932,136.796 139.872,135.968 139.872,135.428 C139.872,135.008 139.908,134.756 140.028,134.312 L139.212,134.228 C139.116,134.672 139.092,134.96 139.092,135.392 C139.092,135.692 139.116,136.256 139.176,137.036 C138.708,136.904 138.408,136.856 137.964,136.856 C137.424,136.856 136.968,136.94 136.548,137.12 C135.876,137.396 135.432,137.996 135.432,138.644 C135.432,139.712 136.332,140.384 137.772,140.384 Z M137.76,139.628 C136.812,139.628 136.236,139.256 136.236,138.644 C136.236,137.984 136.884,137.564 137.904,137.564 C138.384,137.564 138.732,137.624 139.236,137.804 C139.236,137.804 139.26,138.176 139.26,138.32 C139.26,139.22 138.792,139.628 137.76,139.628 Z M149.148,140.24 C150.552,140.24 151.68,139.748 152.532,138.74 C153.06,138.128 153.408,137.42 153.864,136.016 C153.48,135.824 153.336,135.728 153,135.44 C152.832,136.28 152.688,136.748 152.412,137.324 C151.728,138.692 150.624,139.412 149.196,139.412 C148.572,139.412 148.032,139.244 147.696,138.944 C147.336,138.62 147.18,138.224 147.132,137.504 C147.12,137.228 147.108,136.928 147.108,136.784 C147.108,136.244 147.144,134.612 147.192,133.172 C147.228,131.66 147.276,131.048 147.348,130.64 L146.304,130.64 C146.34,130.88 146.352,131.024 146.352,131.276 L146.351556,131.483556 C146.350667,131.634667 146.348,131.816 146.34,132.056 C146.244,135.836 146.232,136.136 146.232,136.94 C146.232,138.2 146.4,138.836 146.892,139.4 C147.372,139.952 148.128,140.24 149.148,140.24 Z" id="ボーナス運用なし" fill="#242323" fill-rule="nonzero"></path>
                    <path d="M216.208,131.696 L217.084,131.348 C216.796,130.64 216.52,130.16 216.028,129.524 L215.176,129.836 C215.572,130.376 215.92,130.988 216.208,131.696 Z M211.948,140.672 C211.9,140.348 211.888,139.988 211.888,139.328 L211.888,133.508 L214.66,133.508 C215.608,133.508 215.788,133.52 216.184,133.568 L216.184,132.092 C215.776,132.164 215.524,132.176 214.684,132.176 L215.512,131.864 C215.188,131.072 214.912,130.592 214.444,129.968 L213.556,130.28 C214,130.892 214.276,131.384 214.6,132.176 L211.888,132.176 L211.888,131.54 C211.888,130.772 211.9,130.58 211.936,130.256 L210.316,130.256 C210.364,130.544 210.388,130.808 210.388,131.504 L210.388,132.176 L207.748,132.176 C206.86,132.176 206.632,132.164 206.212,132.092 L206.212,133.568 C206.608,133.52 206.788,133.508 207.724,133.508 L210.388,133.508 L210.388,139.316 C210.388,139.988 210.364,140.348 210.316,140.672 L211.948,140.672 Z M207.064,139.772 C207.94,138.596 208.696,136.868 209.08,135.116 C209.104,134.996 209.128,134.924 209.128,134.912 C209.14,134.888 209.152,134.816 209.176,134.732 L207.7,134.372 C207.532,135.86 206.596,138.008 205.672,139.004 C206.248,139.22 206.5,139.364 207.064,139.772 Z M215.248,139.784 C215.788,139.4 216.016,139.256 216.628,138.944 C215.836,138.02 214.876,135.932 214.504,134.372 L213.088,134.732 C213.172,134.912 213.184,134.972 213.28,135.296 C213.844,137.204 214.384,138.428 215.248,139.784 Z M228.316,136.232 L228.316,134.564 C227.8584,134.6264 227.626133,134.643733 226.798987,134.647246 L219.549013,134.647246 C218.721867,134.643733 218.4896,134.6264 218.032,134.564 L218.032,136.232 C218.512,136.172 218.644,136.172 219.988,136.172 L226.36,136.172 C227.704,136.172 227.836,136.172 228.316,136.232 Z M232.288,140.612 C233.848,139.76 234.688,139.016 235.348,137.924 C235.9,137 236.104,136.208 236.212,134.54 L238.672,134.54 C239.464,134.54 239.776,134.552 240.208,134.6 L240.208,133.088 C239.782545,133.153455 239.535603,133.169322 238.863116,133.171666 L236.272,133.172 L236.272768,133.017824 C236.27392,132.91328 236.2768,132.7232 236.284,132.248 L236.296,131.528 C236.308,130.772 236.308,130.76 236.356,130.376 L234.7,130.376 C234.748,130.7 234.76,131.012 234.76,131.528 L234.76,132.236 C234.76,132.452 234.76,132.668 234.748,133.172 L231.724,133.172 C230.896,133.172 230.632,133.16 230.164,133.088 L230.164,134.6 C230.596,134.552 230.908,134.54 231.7,134.54 L234.676,134.54 C234.58,135.764 234.448,136.304 234.088,136.952 C233.548,137.948 232.636,138.692 231.196,139.316 C231.7,139.712 231.88,139.928 232.288,140.612 Z M250.864,140.396 L252.016,139.148 C250.564,137.744 250.564,137.744 250.264,137.48 C249.448,136.748 248.8,136.244 248.044,135.74 C248.776,134.756 249.364,133.712 249.916,132.428 C250.048,132.128 250.144,131.96 250.3,131.78 L249.508,130.964 C249.208,131.072 249.112,131.084 248.44,131.096 L244.216,131.156 L243.928,131.156 C243.436,131.156 243.208,131.144 242.872,131.084 L242.92,132.62 C243.328,132.56 243.652,132.536 244.228,132.524 C248.008,132.464 248.008,132.464 248.2,132.452 L248.068,132.764 C247.288,134.636 245.848,136.376 244.036,137.648 C243.136,138.284 242.56,138.608 241.636,138.968 C242.128,139.484 242.272,139.676 242.608,140.3 C244.444,139.4 245.824,138.344 247.18,136.832 C248.488,137.828 249.868,139.172 250.864,140.396 Z M255.208,133.196 L256.156,132.164 C255.508,131.252 255.316,131.012 254.356,130.052 L253.396,130.94 C254.116,131.612 254.572,132.176 255.208,133.196 Z M260.836,139.376 C260.788,139.088 260.776,138.896 260.764,138.5 L263.14,138.5 C263.632,138.5 263.836,138.512 264.136,138.548 L264.136,137.42 C263.905,137.462 263.719938,137.476438 263.34768,137.479391 L260.764,137.48 L260.764,136.94 L262.588,136.94 C262.96,136.94 263.176,136.952 263.572,136.976 C263.536,136.7 263.524,136.496 263.524,136.1 L263.524,134.288 C263.524,133.904 263.536,133.676 263.572,133.4 C263.3305,133.421 263.144125,133.432813 262.763664,133.435438 L260.752,133.436 L260.752,132.92 L262.456,132.92 C262.876,132.92 263.056,132.932 263.332,132.968 L263.332,132.536 L264.196,132.536 C264.148,132.308 264.136,132.08 264.136,131.756 L264.136,131.036 C264.136,130.712 264.148,130.496 264.184,130.268 C263.812,130.304 263.524,130.316 263.044,130.316 L257.452,130.316 C256.936,130.316 256.636,130.304 256.288,130.268 C256.324,130.508 256.336,130.76 256.336,131.06 L256.336,131.804 C256.336,132.092 256.324,132.284 256.288,132.536 L257.092,132.536 L257.092,132.968 C257.368,132.932 257.608,132.92 257.98,132.92 L259.564,132.92 L259.564,133.436 L257.86,133.436 C257.404,133.436 257.188,133.424 256.9,133.4 C256.936,133.664 256.936,133.76 256.936,134.288 L256.936,136.1 C256.936,136.58 256.936,136.7 256.9,136.976 C257.26,136.94 257.416,136.94 257.86,136.94 L259.576,136.94 L259.576,137.48 L257.332,137.48 C256.996,137.48 256.672,137.456 256.384,137.42 L256.384,138.56 C256.672,138.512 256.924,138.5 257.344,138.5 L259.564,138.5 C259.552,138.908 259.54,139.052 259.492,139.376 L260.836,139.376 Z M259.564,131.936 L257.92,131.936 C257.764,131.936 257.68,131.936 257.548,131.924 L257.548,131.348 L259.564,131.348 L259.564,131.936 Z M262.9,131.936 L260.752,131.936 L260.752,131.348 L262.9,131.348 L262.9,131.936 Z M259.564,134.804 L258.112,134.804 L258.112,134.276 L259.564,134.276 L259.564,134.804 Z M262.324,134.804 L260.752,134.804 L260.752,134.276 L262.324,134.276 L262.324,134.804 Z M253.66,140.864 C253.792,140.756 253.912,140.66 254.008,140.588 C254.548,140.216 254.812,139.988 255.4,139.448 C256.072,140.288 256.78,140.636 257.956,140.72 C258.448,140.756 259.468,140.792 260.188,140.792 C261.58,140.792 262.588,140.768 264.208,140.696 C264.28,140.216 264.364,139.94 264.568,139.424 C263.498286,139.546571 262.211286,139.607061 260.457195,139.615077 L260.044,139.616 C258.436,139.616 257.716,139.568 257.272,139.436 C256.66,139.256 256.36,139.028 256.048,138.5 L256.048,135.812 C256.048,135.164 256.06,134.876 256.096,134.504 C255.808,134.552 255.532,134.564 255.184,134.564 L254.296,134.564 C253.852,134.564 253.66,134.552 253.336,134.504 L253.336,135.8 C253.66,135.752 253.828,135.74 254.152,135.74 L254.788,135.74 L254.788,138.32 C254.068,138.932 253.516,139.304 253.072,139.496 L253.66,140.864 Z M259.564,136.088 L258.112,136.088 L258.112,135.584 L259.564,135.584 L259.564,136.088 Z M262.324,136.088 L260.752,136.088 L260.752,135.584 L262.324,135.584 L262.324,136.088 Z M266.32,141.008 C267.016,139.94 267.376,138.812 267.544,137.216 L270.304,137.216 L270.304,139.196 C270.304,139.904 270.28,140.252 270.232,140.612 L271.648,140.612 C271.605333,140.302667 271.591111,139.964889 271.588477,139.404823 L271.588,137.216 L274.468,137.216 L274.468,139.316 C274.468,139.568 274.36,139.616 273.868,139.616 C273.484,139.616 272.956,139.58 272.356,139.52 C272.548,140.024 272.632,140.312 272.692,140.768 C273.052,140.792 273.664,140.816 274.036,140.816 C275.404,140.816 275.764,140.564 275.764,139.568 L275.764,131.684 C275.764,131.036 275.776,130.736 275.812,130.328 C275.481333,130.36 275.179111,130.373037 274.644066,130.375539 L267.7,130.376 C267.052,130.376 266.74,130.364 266.32,130.328 C266.368,130.82 266.38,131.204 266.38,132.068 C266.38,133.484 266.332,135.188 266.272,136.196 C266.236,136.844 266.152,137.468 266.032,138.032 C265.864,138.8 265.588,139.436 265.156,140.06 C265.648,140.396 265.816,140.528 266.32,141.008 Z M270.304,133.208 L267.676,133.208 L267.688,132.872 L267.688,131.636 L270.304,131.636 L270.304,133.208 Z M274.468,133.208 L271.588,133.208 L271.588,131.636 L274.468,131.636 L274.468,133.208 Z M270.304,136.028 L267.628,136.028 L267.628768,135.774176 C267.62992,135.644 267.6328,135.4784 267.64,135.14 C267.64,134.972 267.652,134.732 267.652,134.384 L270.304,134.384 L270.304,136.028 Z M274.468,136.028 L271.588,136.028 L271.588,134.384 L274.468,134.384 L274.468,136.028 Z M283.24,140.636 C284.296,140.528 284.98,140.348 285.688,140 C287.044,139.328 287.752,138.308 287.752,137 C287.752,136.052 287.38,135.308 286.612,134.732 C286.204,134.432 285.856,134.264 285.364,134.144 C285.4,134.036 285.412,134.024 285.532,133.688 C285.628,133.436 285.628,133.436 285.676,133.34 L284.32,132.956 C284.284,133.232 284.212,133.484 284.08,133.868 C283.864,133.844 283.768,133.844 283.624,133.844 C282.892,133.844 282.616,133.868 281.968,134 C281.98,133.748 281.992,133.364 282.028,132.848 C282.988,132.824 284.932,132.644 286.252,132.428 C286.504,132.392 286.552,132.392 286.72,132.38 L286.66,131 C285.736,131.288 284.032,131.528 282.112,131.636 C282.184,130.796 282.232,130.484 282.328,130.16 L280.84,130.088 C280.864,130.184 280.864,130.232 280.864,130.28 C280.864,130.508 280.852,130.808 280.84,130.964 C280.804,131.444 280.804,131.444 280.792,131.684 L280.528,131.684 L280.528,131.684 C279.532,131.684 278.824,131.624 278.284,131.504 L278.284,132.848 C278.416,132.836 278.524,132.836 278.56,132.836 L278.788,132.836 L278.788,132.836 C279.952,132.872 280.6,132.884 280.732,132.884 C280.708,133.46 280.684,133.94 280.684,134.324 C279.964,134.636 279.52,134.936 279.04,135.404 C278.272,136.16 277.852,137.108 277.852,138.092 C277.852,139.34 278.608,140.192 279.724,140.192 C280.72,140.192 281.788,139.604 282.868,138.464 C283.732,137.564 284.296,136.7 284.956,135.272 C285.808,135.56 286.3,136.172 286.3,136.928 C286.3,137.756 285.856,138.344 284.896,138.8 C284.188,139.136 283.576,139.268 282.604,139.28 C283,139.904 283.108,140.12 283.24,140.636 Z M282.088,137.516 L282.064,137.504 C282.052,137.444 282.052,137.432 282.052,137.372 C282.052,137.288 282.052,137.288 282.04,137.216 C281.968,136.376 281.968,136.256 281.956,135.152 C282.436,134.996 282.868,134.936 283.396,134.936 C283.516,134.936 283.576,134.936 283.708,134.948 C283.264,135.944 282.784,136.712 282.22,137.348 C282.136,137.444 282.136,137.444 282.088,137.516 Z M279.88,138.86 C279.46,138.86 279.196,138.524 279.196,137.984 C279.196,137.48 279.376,136.988 279.736,136.52 C279.976,136.22 280.18,136.04 280.708,135.692 C280.708,136.856 280.768,137.624 280.924,138.404 C280.54,138.716 280.216,138.86 279.88,138.86 Z M293.104,140.672 C294.004,140.516 294.844,140.276 295.456,140 C297.472,139.112 298.552,137.384 298.552,135.068 C298.552,133.652 298.288,132.68 297.688,131.876 C297.172,131.18 296.452,130.796 295.636,130.796 C294.76,130.796 294.016,131.204 293.356,132.02 C293.032,132.44 292.72,133.028 292.6,133.448 C292.552,133.64 292.552,133.64 292.528,133.712 L292.492,133.712 C292.516,133.424 292.564,133.016 292.648,132.512 C292.876,130.916 292.936,130.604 293.08,130.196 L291.556,130.112 C291.556,130.268 291.544,130.316 291.52,130.52 L291.34,132.008 C291.244,132.836 291.172,134.168 291.172,135.14 C291.172,135.38 291.196,136.268 291.208,136.616 L291.208,136.844 L291.208,136.844 C291.208,136.868 291.208,136.928 291.196,137 L292.636,136.976 L292.636,136.724 L292.636,136.724 C292.636,135.296 293.212,133.82 294.148,132.848 C294.568,132.416 294.988,132.212 295.444,132.212 C296.476,132.212 297.052,133.172 297.052,134.9 C297.052,136.724 296.416,137.864 295.024,138.572 C294.292,138.944 293.596,139.124 292.396,139.256 C292.732,139.724 292.864,139.988 293.104,140.672 Z M198.4,160.112 L199.648,159.26 C198.952,158.24 198.664,157.7 198.4,156.884 C198.148,156.092 198.016,155.216 198.016,154.28 C198.016,153.332 198.148,152.456 198.424,151.628 C198.688,150.788 198.976,150.248 199.672,149.24 L198.4,148.424 C197.572,149.612 197.224,150.272 196.9,151.268 C196.588,152.192 196.432,153.212 196.432,154.256 C196.432,155.516 196.648,156.668 197.128,157.832 C197.452,158.648 197.728,159.14 198.4,160.112 Z M210.004,158.396 L211.156,157.148 C209.704,155.744 209.704,155.744 209.404,155.48 C208.588,154.748 207.94,154.244 207.184,153.74 C207.916,152.756 208.504,151.712 209.056,150.428 C209.188,150.128 209.284,149.96 209.44,149.78 L208.648,148.964 C208.348,149.072 208.252,149.084 207.58,149.096 L203.356,149.156 L203.068,149.156 C202.576,149.156 202.348,149.144 202.012,149.084 L202.06,150.62 C202.468,150.56 202.792,150.536 203.368,150.524 C207.148,150.464 207.148,150.464 207.34,150.452 L207.208,150.764 C206.428,152.636 204.988,154.376 203.176,155.648 C202.276,156.284 201.7,156.608 200.776,156.968 C201.268,157.484 201.412,157.676 201.748,158.3 C203.584,157.4 204.964,156.344 206.32,154.832 C207.628,155.828 209.008,157.172 210.004,158.396 Z M215.116,158.876 C217.672,157.7 219.364,156.284 220.588,154.292 C221.08,153.488 221.74,152.084 222.124,150.992 C222.316,150.44 222.34,150.392 222.496,150.188 L221.692,149.384 C221.38,149.492 221.128,149.516 220.636,149.528 C217.708,149.552 217.708,149.552 217.516,149.576 C217.576,149.468 217.66,149.324 217.804,149 C218.032,148.544 218.032,148.544 218.164,148.328 L216.604,147.98 C216.496,148.424 216.256,149.012 215.908,149.648 C215.176,150.992 214.216,152.084 212.896,153.068 C213.52,153.428 213.7,153.584 214.096,154.028 C215.308,153.008 216.16,152.036 216.904,150.8 L220.636,150.764 C220.264,151.892 219.856,152.732 219.292,153.596 C218.392,152.888 217.888,152.552 216.88,151.988 L215.968,153.056 C216.868,153.548 217.588,154.052 218.428,154.772 C217.816,155.456 217.312,155.888 216.46,156.44 C215.74,156.92 215.14,157.22 214.12,157.64 C214.576,158.024 214.732,158.228 215.116,158.876 Z M228.484,152.732 L229.516,151.424 C228.592,150.548 227.848,149.996 226.42,149.108 L225.424,150.296 C226.54,150.92 227.524,151.712 228.484,152.732 Z M225.844,158.216 C226.12,158.12 226.156,158.108 226.636,158.012 C228.496,157.616 229.984,157.028 231.208,156.212 C232.852,155.12 233.992,153.704 235.012,151.508 C234.4,151.076 234.208,150.896 233.74,150.332 C233.38,151.304 233.044,151.964 232.516,152.732 C231.568,154.1 230.452,155.024 228.952,155.672 C227.86,156.152 226.432,156.5 225.4,156.56 L225.844,158.216 Z M246.988,149.612 L247.912,149.288 C247.588,148.556 247.3,148.076 246.808,147.488 L245.92,147.776 C246.352,148.34 246.7,148.952 246.988,149.612 Z M238.948,158.912 C242.572,157.232 244.432,155.168 245.86,151.244 C246.04,150.74 246.088,150.632 246.232,150.44 L245.848,149.888 L246.292,149.744 C245.968,148.988 245.68,148.508 245.188,147.884 L244.264,148.16 C244.636,148.64 244.852,148.976 245.128,149.516 C244.996,149.54 244.72,149.552 244.468,149.564 L241.972,149.588 L241.684,149.588 C241.504,149.6 241.468,149.6 241.348,149.612 C241.408,149.504 241.432,149.456 241.636,149.036 C241.852,148.592 241.864,148.58 241.996,148.352 L240.436,148.004 C240.34,148.448 240.136,148.916 239.728,149.672 C239.032,150.98 237.952,152.204 236.728,153.104 C237.328,153.452 237.556,153.632 237.928,154.064 C239.02,153.164 240.076,151.964 240.736,150.836 L244.468,150.8 C244.132,151.832 243.628,152.9 243.124,153.632 C242.284,152.972 241.66,152.552 240.712,152.024 L239.8,153.092 C240.556,153.488 241.528,154.16 242.26,154.796 C241.3,155.936 239.752,156.968 237.952,157.664 C238.372,158.024 238.588,158.3 238.948,158.912 Z M258.376,154.232 L258.376,152.564 C257.9184,152.6264 257.686133,152.643733 256.858987,152.647246 L249.609013,152.647246 C248.781867,152.643733 248.5496,152.6264 248.092,152.564 L248.092,154.232 C248.572,154.172 248.704,154.172 250.048,154.172 L256.42,154.172 C257.764,154.172 257.896,154.172 258.376,154.232 Z M269.02,150.356 L269.848,149.888 C269.476,149.204 269.14,148.748 268.6,148.196 L267.796,148.616 C268.264,149.132 268.66,149.696 269.02,150.356 Z M263.86,158.54 C263.828,158.230667 263.814963,157.930815 263.812461,157.412889 L263.812,154.04 C263.812,153.764 263.8,153.56 263.764,153.224 C263.86,153.284 263.896,153.296 264.172,153.428 C265.876,154.196 267.58,155.12 268.42,155.72 L269.26,154.304 C267.364,153.236 265.204,152.228 263.812,151.772 L263.812,149.54 C263.812,148.832 263.824,148.604 263.86,148.28 L262.216,148.28 C262.264,148.568 262.276,148.808 262.288,149.504 L262.288,157.196 C262.288,157.88 262.264,158.204 262.216,158.54 L263.86,158.54 Z M267.58,151.112 L268.42,150.668 C268.012,149.924 267.688,149.468 267.16,148.904 L266.32,149.324 C266.848,149.9 267.184,150.38 267.58,151.112 Z M281.476,158.144 C281.434,157.8815 281.419562,157.591437 281.416609,157.12107 L281.416395,150.009021 C281.417778,149.704593 281.424,149.576 281.452,149.324 C281.158,149.3408 281.0698,149.34584 280.829308,149.347352 L274.636,149.348 C273.76,149.348 273.532,149.336 273.088,149.264 L273.088,150.824 C273.52,150.776 273.772,150.764 274.624,150.764 L279.88,150.764 L279.88,155.996 L274.42,155.996 C273.58,155.996 273.364,155.984 272.92,155.912 L272.92,157.46 L273.096833,157.443944 C273.391,157.420333 273.706,157.412 274.396,157.412 L279.868,157.412 L279.868,158.144 L281.476,158.144 Z M294.376,154.232 L294.376,152.564 C293.9184,152.6264 293.686133,152.643733 292.858987,152.647246 L285.609013,152.647246 C284.781867,152.643733 284.5496,152.6264 284.092,152.564 L284.092,154.232 C284.572,154.172 284.704,154.172 286.048,154.172 L292.42,154.172 C293.764,154.172 293.896,154.172 294.376,154.232 Z M304.084,158.396 L305.236,157.148 C303.784,155.744 303.784,155.744 303.484,155.48 C302.668,154.748 302.02,154.244 301.264,153.74 C301.996,152.756 302.584,151.712 303.136,150.428 C303.268,150.128 303.364,149.96 303.52,149.78 L302.728,148.964 C302.428,149.072 302.332,149.084 301.66,149.096 L297.436,149.156 L297.148,149.156 C296.656,149.156 296.428,149.144 296.092,149.084 L296.14,150.62 C296.548,150.56 296.872,150.536 297.448,150.524 C301.228,150.464 301.228,150.464 301.42,150.452 L301.288,150.764 C300.508,152.636 299.068,154.376 297.256,155.648 C296.356,156.284 295.78,156.608 294.856,156.968 C295.348,157.484 295.492,157.676 295.828,158.3 C297.664,157.4 299.044,156.344 300.4,154.832 C301.708,155.828 303.088,157.172 304.084,158.396 Z M307.6,160.112 C308.272,159.14 308.548,158.648 308.884,157.832 C309.352,156.668 309.568,155.528 309.568,154.256 C309.568,153.2 309.412,152.204 309.112,151.268 C308.776,150.272 308.428,149.612 307.6,148.424 L306.328,149.24 C307.024,150.248 307.312,150.788 307.576,151.628 C307.852,152.456 307.984,153.332 307.984,154.28 C307.984,155.228 307.852,156.08 307.6,156.884 C307.336,157.7 307.048,158.24 306.352,159.26 L307.6,160.112 Z" id="ボーナス運用あり(スタンダードコース)" fill="#20BF7A" fill-rule="nonzero"></path>
                    <rect id="Rectangle-Copy-7" fill="#20BF7A" x="213" y="36" width="80" height="18"></rect>
                    <rect id="Rectangle-Copy-3" fill="#D8D8D8" x="67" y="54" width="80" height="62"></rect>
                    <rect id="Rectangle-Copy-4" fill="#D8D8D8" x="213" y="54" width="80" height="62"></rect>
                    <g id="Amount" transform="translate(215.000000, 0.000000)" fill="#20BF7A" fill-rule="nonzero">
                        <path d="M57.744,28.332 C57.6771429,27.9475714 57.6568469,27.4545 57.6542886,26.4780787 L57.654,21.42 L68.364,21.42 L68.364,25.812 C68.364,26.244 68.256,26.298 67.554,26.298 C66.906,26.298 66.006,26.226 64.818,26.1 C65.142,26.838 65.268,27.342 65.376,28.044 C66.078,28.08 67.068,28.116 67.77,28.116 C68.742,28.116 69.318,28.044 69.66,27.864 C70.182,27.594 70.398,27.09 70.398,26.172 L70.398,14.634 C70.398,13.662 70.416,13.194 70.47,12.672 C70.074,12.7215 69.58725,12.74075 68.7463229,12.7436146 L57.564,12.744 C56.61,12.744 56.142,12.726 55.566,12.672 C55.62,13.194 55.638,13.644 55.638,14.4 L55.638,26.172 C55.638,27.108 55.602,27.756 55.53,28.332 L57.744,28.332 Z M61.92,19.53 L57.654,19.53 L57.654,14.652 L61.92,14.652 L61.92,19.53 Z M68.364,19.53 L63.864,19.53 L63.864,14.652 L68.364,14.652 L68.364,19.53 Z" id="円"></path>
                        <path d="M9.16796875,27.3964844 C13.4335937,27.3964844 16.5371094,24.5117188 16.5371094,20.5058594 C16.5371094,16.7734375 13.8574219,14.0390625 10.0703125,14.0390625 C7.390625,14.0390625 5.421875,15.40625 4.64257812,17.2246094 L4.57421875,17.2246094 C4.6015625,12.5625 6.1875,9.73242188 9.20898437,9.73242188 C10.9863281,9.73242188 12.2714844,10.6210938 12.7773437,12.1660156 L16.2773437,12.1660156 C15.703125,8.99414062 12.8867187,6.86132812 9.22265625,6.86132812 C4.20507812,6.86132812 1.19726562,10.7851562 1.19726562,17.3613281 C1.19726562,24.3613281 4.83398437,27.3964844 9.16796875,27.3964844 Z M9.11328125,24.5253906 C6.91210937,24.5253906 5.17578125,22.7890625 5.17578125,20.5742188 C5.17578125,18.3730469 6.88476562,16.7597656 9.15429687,16.7597656 C11.4238281,16.7597656 13.078125,18.3730469 13.0644531,20.6425781 C13.0644531,22.8027344 11.3144531,24.5253906 9.11328125,24.5253906 Z M31.8085937,27 L31.8085937,23.2128906 L34.4882812,23.2128906 L34.4882812,20.3144531 L31.8085937,20.3144531 L31.8085937,7.27148438 L26.7910156,7.27148438 C22.5117187,13.4921875 20.3105469,16.9921875 18.6015625,20.2050781 L18.6015625,23.2128906 L28.4453125,23.2128906 L28.4453125,27 L31.8085937,27 Z M28.5,20.3964844 L21.7734375,20.3964844 L21.7734375,20.3007812 C23.3457031,17.4296875 25.2597656,14.4628906 28.4453125,9.89648438 L28.5,9.89648438 L28.5,20.3964844 Z M44.140625,27.3964844 C48.6523437,27.3964844 51.8378906,25.0449219 51.8378906,21.6679688 C51.8378906,19.125 50.0058594,17.1699219 47.3671875,16.6230469 L47.3671875,16.5410156 C49.6230469,15.9121094 51.0996094,14.2441406 51.0996094,12.1523438 C51.0996094,9.08984375 48.2148437,6.875 44.140625,6.875 C40.0664062,6.875 37.1679687,9.10351562 37.1679687,12.1386719 C37.1679687,14.2578125 38.6582031,15.9394531 40.9140625,16.5410156 L40.9140625,16.6230469 C38.2753906,17.15625 36.4570312,19.1113281 36.4570312,21.6679688 C36.4570312,25.03125 39.6152344,27.3964844 44.140625,27.3964844 Z M44.140625,15.4199219 C42.0898437,15.4199219 40.6542969,14.2167969 40.6542969,12.4941406 C40.6542969,10.7578125 42.0898437,9.54101562 44.140625,9.54101562 C46.1777344,9.54101562 47.6269531,10.7441406 47.6269531,12.4941406 C47.6269531,14.2167969 46.1777344,15.4199219 44.140625,15.4199219 Z M44.140625,24.703125 C41.7753906,24.703125 40.1074219,23.3222656 40.1074219,21.4082031 C40.1074219,19.4941406 41.7753906,18.1132812 44.140625,18.1132812 C46.5058594,18.1132812 48.1738281,19.4804688 48.1738281,21.4082031 C48.1738281,23.3222656 46.5058594,24.703125 44.140625,24.703125 Z" id="648"></path>
                    </g>
                    <g id="Amount-" transform="translate(77.000000, 25.000000)" fill="#242323" fill-rule="nonzero">
                        <path d="M45.912,21.036 C45.8606667,20.7408333 45.844625,20.3633194 45.8423079,19.6230856 L45.842,15.66 L54.172,15.66 L54.172,19.076 C54.172,19.412 54.088,19.454 53.542,19.454 C53.038,19.454 52.338,19.398 51.414,19.3 C51.666,19.874 51.764,20.266 51.848,20.812 C52.394,20.84 53.164,20.868 53.71,20.868 C54.466,20.868 54.914,20.812 55.18,20.672 C55.586,20.462 55.754,20.07 55.754,19.356 L55.754,10.382 C55.754,9.626 55.768,9.262 55.81,8.856 C55.5076,8.8938 55.13716,8.90892 54.504766,8.911566 L45.772,8.912 C45.03,8.912 44.666,8.898 44.218,8.856 C44.26,9.262 44.274,9.612 44.274,10.2 L44.274,19.356 C44.274,20.084 44.246,20.588 44.19,21.036 L45.912,21.036 Z M49.16,14.19 L45.842,14.19 L45.842,10.396 L49.16,10.396 L49.16,14.19 Z M54.172,14.19 L50.672,14.19 L50.672,10.396 L54.172,10.396 L54.172,14.19 Z" id="円"></path>
                        <path d="M7.38867188,21.3115234 C10.8261719,21.3115234 13.2109375,19.0986328 13.2109375,15.8867188 C13.2109375,12.9326172 11.0839844,10.7841797 8.12988281,10.7841797 C6.57226562,10.7841797 5.29394531,11.3964844 4.6171875,12.4384766 L4.56347656,12.4384766 L4.99316406,7.765625 L12.2978516,7.765625 L12.2978516,5.49902344 L2.78027344,5.49902344 L2.0390625,14.5117188 L4.45605469,14.5117188 C5.046875,13.4589844 6.08886719,12.8681641 7.42089844,12.8681641 C9.24707031,12.8681641 10.5361328,14.1464844 10.5361328,15.9619141 C10.5361328,17.7880859 9.2578125,19.0664062 7.41015625,19.0664062 C5.77734375,19.0664062 4.53125,18.0888672 4.359375,16.6386719 L1.75976562,16.6386719 C1.87792969,19.3886719 4.19824219,21.3115234 7.38867188,21.3115234 Z M20.9667969,21.3115234 C24.7802734,21.3115234 27.046875,18.1855469 27.046875,13.2226562 C27.046875,8.25976562 24.7587891,5.1875 20.9667969,5.1875 C17.1640625,5.1875 14.8652344,8.28125 14.8652344,13.2333984 C14.8652344,18.2070312 17.1425781,21.3115234 20.9667969,21.3115234 Z M20.9667969,19.0449219 C18.8613281,19.0449219 17.6582031,16.8964844 17.6582031,13.2226562 C17.6582031,9.61328125 18.8828125,7.45410156 20.9667969,7.45410156 C23.0400391,7.45410156 24.2539062,9.60253906 24.2539062,13.2333984 C24.2539062,16.9072266 23.0615234,19.0449219 20.9667969,19.0449219 Z M34.9960938,21.3115234 C38.8095703,21.3115234 41.0761719,18.1855469 41.0761719,13.2226562 C41.0761719,8.25976562 38.7880859,5.1875 34.9960938,5.1875 C31.1933594,5.1875 28.8945312,8.28125 28.8945312,13.2333984 C28.8945312,18.2070312 31.171875,21.3115234 34.9960938,21.3115234 Z M34.9960938,19.0449219 C32.890625,19.0449219 31.6875,16.8964844 31.6875,13.2226562 C31.6875,9.61328125 32.9121094,7.45410156 34.9960938,7.45410156 C37.0693359,7.45410156 38.2832031,9.60253906 38.2832031,13.2333984 C38.2832031,16.9072266 37.0908203,19.0449219 34.9960938,19.0449219 Z" id="500"></path>
                    </g>
                    <path d="M5.345,67.08 C6.995,67.08 8.045,66.05 8.045,64.44 C8.045,63.7 7.825,63.11 7.375,62.68 C6.925,62.24 6.305,62 5.575,62 C4.885,62 4.305,62.23 3.825,62.69 C3.885,62.42 3.885,62.42 3.905,62.24 L4.115,60.03 L6.465,60.03 C6.935,60.03 7.255,60.05 7.635,60.11 L7.635,59.26 C7.285,59.3125 7.06515625,59.334375 6.65390625,59.3390234 L4.405,59.34 C3.815,59.34 3.655,59.33 3.345,59.29 C3.35833333,59.4566667 3.36277778,59.53 3.36425926,59.6018519 L3.365,59.72 C3.365,59.91 3.355,60.03 3.335,60.32 L3.115,62.58 C3.075,63.01 3.045,63.22 2.965,63.61 L3.715,63.68 C3.825,63.41 3.935,63.27 4.175,63.08 C4.535,62.8 4.975,62.66 5.485,62.66 C6.545,62.66 7.235,63.38 7.235,64.48 C7.235,65.63 6.485,66.39 5.365,66.39 C4.785,66.39 4.285,66.18 3.945,65.8 C3.795,65.63 3.725,65.5 3.625,65.22 L2.805,65.46 C3.045,65.94 3.185,66.15 3.435,66.4 C3.915,66.85 4.565,67.08 5.345,67.08 Z M11.995,67.09 C12.915,67.09 13.615,66.74 14.115,66.04 C14.555,65.43 14.815,64.36 14.815,63.15 C14.815,62.32 14.685,61.52 14.435,60.83 C14.315,60.5 14.115,60.19 13.835,59.91 C13.385,59.44 12.745,59.2 12.005,59.2 C11.015,59.2 10.245,59.62 9.765,60.43 C9.415,61.01 9.185,62.09 9.185,63.15 C9.185,63.97 9.315,64.76 9.565,65.46 C9.685,65.8 9.895,66.11 10.165,66.38 C10.635,66.85 11.255,67.09 11.995,67.09 Z M12.005,66.4 C11.325,66.4 10.805,66.11 10.455,65.53 C10.185,65.06 9.985,64.08 9.985,63.15 C9.985,62.42 10.085,61.74 10.295,61.13 C10.375,60.88 10.535,60.63 10.745,60.4 C11.065,60.06 11.475,59.89 11.995,59.89 C12.695,59.89 13.235,60.2 13.565,60.8 C13.825,61.27 14.015,62.26 14.015,63.13 C14.015,63.87 13.915,64.53 13.705,65.15 C13.615,65.44 13.455,65.7 13.235,65.93 C12.935,66.24 12.505,66.4 12.005,66.4 Z M18.565,67.09 C19.485,67.09 20.185,66.74 20.685,66.04 C21.125,65.43 21.385,64.36 21.385,63.15 C21.385,62.32 21.255,61.52 21.005,60.83 C20.885,60.5 20.685,60.19 20.405,59.91 C19.955,59.44 19.315,59.2 18.575,59.2 C17.585,59.2 16.815,59.62 16.335,60.43 C15.985,61.01 15.755,62.09 15.755,63.15 C15.755,63.97 15.885,64.76 16.135,65.46 C16.255,65.8 16.465,66.11 16.735,66.38 C17.205,66.85 17.825,67.09 18.565,67.09 Z M18.575,66.4 C17.895,66.4 17.375,66.11 17.025,65.53 C16.755,65.06 16.555,64.08 16.555,63.15 C16.555,62.42 16.655,61.74 16.865,61.13 C16.945,60.88 17.105,60.63 17.315,60.4 C17.635,60.06 18.045,59.89 18.565,59.89 C19.265,59.89 19.805,60.2 20.135,60.8 C20.395,61.27 20.585,62.26 20.585,63.13 C20.585,63.87 20.485,64.53 20.275,65.15 C20.185,65.44 20.025,65.7 19.805,65.93 C19.505,66.24 19.075,66.4 18.575,66.4 Z M23.655,67.65 C23.619,67.443 23.6073,67.2603 23.60532,66.76656 L23.605,63.53 L30.125,63.53 L30.125,66.64 C30.125,66.83 30.035,66.87 29.595,66.87 C29.205,66.87 28.715,66.83 28.015,66.75 C28.105,66.99 28.145,67.15 28.175,67.4 C28.655,67.44 29.205,67.46 29.605,67.46 C30.575,67.46 30.795,67.32 30.795,66.72 L30.795,60.16 C30.795,59.74 30.805,59.52 30.835,59.24 C30.595,59.27 30.345,59.28 29.915,59.28 L23.815,59.28 C23.405,59.28 23.155,59.27 22.895,59.24 C22.925,59.51 22.935,59.75 22.935,60.13 L22.935,66.56 C22.935,67.09 22.915,67.38 22.875,67.65 L23.655,67.65 Z M26.455,62.93 L23.605,62.93 L23.605,59.89 L26.455,59.89 L26.455,62.93 Z M30.125,62.93 L27.105,62.93 L27.105,59.89 L30.125,59.89 L30.125,62.93 Z" id="500円" fill="#909090" fill-rule="nonzero"></path>
                    <path d="M151.873109,51.0004879 C152.001256,51.4970552 151.733078,52.0027813 151.26595,52.1829879 L151.15471,52.2186433 L148.249878,52.9682773 C147.715113,53.1062811 147.169726,52.7846428 147.031723,52.249878 C146.903576,51.7533107 147.171754,51.2475847 147.638882,51.067378 L147.750122,51.0317227 L150.654954,50.2820886 C151.189719,50.1440848 151.735105,50.4657231 151.873109,51.0004879 Z M158.651051,49.2513418 C158.779197,49.7479091 158.511019,50.2536351 158.043892,50.4338418 L157.932651,50.4694971 L155.027819,51.2191312 C154.493054,51.357135 153.947668,51.0354967 153.809664,50.5007319 C153.681518,50.0041646 153.949695,49.4984386 154.416823,49.3182319 L154.528063,49.2825765 L157.432895,48.5329425 C157.96766,48.3949387 158.513047,48.716577 158.651051,49.2513418 Z M165.428992,47.5021957 C165.557138,47.998763 165.288961,48.504489 164.821833,48.6846956 L164.710593,48.720351 L161.805761,49.4699851 C161.270996,49.6079889 160.725609,49.2863506 160.587605,48.7515858 C160.459459,48.2550184 160.727636,47.7492924 161.194764,47.5690858 L161.306005,47.5334304 L164.210836,46.7837964 C164.745601,46.6457925 165.290988,46.9674309 165.428992,47.5021957 Z M172.206933,45.7530495 C172.335079,46.2496168 172.066902,46.7553429 171.599774,46.9355495 L171.488534,46.9712049 L168.583702,47.7208389 C168.048937,47.8588427 167.50355,47.5372044 167.365546,47.0024396 C167.2374,46.5058723 167.505578,46.0001463 167.972705,45.8199396 L168.083946,45.7842843 L170.988778,45.0346502 C171.523543,44.8966464 172.068929,45.2182847 172.206933,45.7530495 Z M178.984874,44.0039034 C179.113021,44.5004707 178.844843,45.0061967 178.377716,45.1864034 L178.266475,45.2220587 L175.361643,45.9716928 C174.826878,46.1096966 174.281492,45.7880583 174.143488,45.2532935 C174.015341,44.7567262 174.283519,44.2510002 174.750647,44.0707935 L174.861887,44.0351381 L177.766719,43.2855041 C178.301484,43.1475003 178.846871,43.4691386 178.984874,44.0039034 Z M196.512445,32.2921598 L196.640357,32.3093699 L210.119262,35.1977067 C210.570246,35.294346 210.857498,35.738282 210.760859,36.1892655 C210.722998,36.3659486 210.628853,36.5255859 210.492555,36.644216 L210.492555,36.644216 L200.094542,45.694338 C199.746641,45.9971412 199.21914,45.9605818 198.916337,45.6126803 C198.831221,45.5148865 198.770042,45.3986184 198.737646,45.2730836 L198.737646,45.2730836 L197.446,40.272 L195.695467,40.7242544 C195.160702,40.8622582 194.615315,40.5406199 194.477312,40.0058551 C194.349165,39.5092878 194.617343,39.0035618 195.08447,38.8233551 L195.195711,38.7876997 L196.947,38.335 L195.656753,33.3346247 C195.550369,32.9223875 195.771056,32.502592 196.156893,32.3498008 L196.256699,32.3173245 C196.382234,32.2849284 196.513587,32.282205 196.640357,32.3093699 L196.512445,32.2921598 Z M185.762816,42.2547573 C185.890962,42.7513246 185.622784,43.2570506 185.155657,43.4372572 L185.044416,43.4729126 L182.139584,44.2225467 C181.60482,44.3605505 181.059433,44.0389122 180.921429,43.5041474 C180.793283,43.00758 181.06146,42.501854 181.528588,42.3216474 L181.639828,42.285992 L184.54466,41.536358 C185.079425,41.3983541 185.624812,41.7199925 185.762816,42.2547573 Z M192.540757,40.5056111 C192.668903,41.0021784 192.400726,41.5079045 191.933598,41.6881111 L191.822358,41.7237665 L188.917526,42.4734005 C188.382761,42.6114043 187.837374,42.289766 187.69937,41.7550012 C187.571224,41.2584339 187.839402,40.7527079 188.306529,40.5725012 L188.41777,40.5368459 L191.322602,39.7872118 C191.857366,39.649208 192.402753,39.9708463 192.540757,40.5056111 Z" id="Path-8" fill="#20BF7A" fill-rule="nonzero"></path>
                    <polygon id="*" fill="#20BF7A" fill-rule="nonzero" points="293.74 12.88 293.26 10.2 295.32 11.92 296.04 10.72 293.56 9.78 296.12 8.78 295.34 7.62 293.28 9.32 293.74 6.68 292.26 6.68 292.72 9.32 290.66 7.62 289.88 8.78 292.44 9.78 289.94 10.72 290.66 11.92 292.74 10.2 292.26 12.88"></polygon>
                    <path d="M233.812,50.24 L233.812,47.396 L236.656,47.396 L236.656,46.016 L233.812,46.016 L233.812,43.172 L232.42,43.172 L232.42,46.016 L229.576,46.016 L229.576,47.396 L232.42,47.396 L232.42,50.24 L233.812,50.24 Z M242.596,50.144 C242.524,49.652 242.5,49.22 242.5,48.584 L242.5,42.512 C242.5,41.792 242.524,41.24 242.596,40.532 C242.212,40.5746667 242.027111,40.5888889 241.560938,40.5915226 L240.268,40.592 C239.704,40.592 239.44,40.58 239.068,40.52 L239.068,42.044 C239.512,41.996 239.86,41.972 240.304,41.972 L240.88,41.972 L240.88,48.584 C240.88,49.208 240.856,49.676 240.784,50.144 L242.596,50.144 Z M252.484,50.144 C252.412,49.7 252.388,49.388 252.388,48.776 L252.388,47.924 L252.82,47.924 C253.324,47.936 253.576,47.948 254.02,48.008 L254.02,46.472 C253.576,46.532 253.288,46.556 252.808,46.556 L252.388,46.556 L252.388,42.62 C252.388,41.708 252.4,41.288 252.472,40.592 L250.852,40.592 C250.576,41.024 250.384,41.276 249.856,41.912 L247.012,45.392 C246.592,45.896 246.46,46.052 246.052,46.496 L246.052,47.972 C246.46,47.936 246.844,47.924 247.552,47.924 L250.876,47.924 L250.876,48.752 C250.876,49.352 250.852,49.724 250.78,50.144 L252.484,50.144 Z M250.888,46.568 L247.828,46.568 L250.132,43.712 C250.564,43.184 250.708,42.992 250.948,42.644 C250.9,43.136 250.888,43.52 250.888,44.084 L250.888,46.568 Z M258.544,50.348 C261.004,50.348 262.348,49.364 262.348,47.576 C262.348,46.784 262.072,46.16 261.508,45.704 C261.112,45.368 260.752,45.212 260.212,45.14 C261.304,44.828 261.94,44.012 261.94,42.896 C261.94,42.464 261.82,42.032 261.616,41.696 C261.1,40.856 260.032,40.388 258.58,40.388 C256.528,40.388 255.232,41.36 255.232,42.896 C255.232,43.508 255.448,44.096 255.82,44.48 C256.168,44.828 256.48,45.008 256.984,45.14 C256.492,45.224 256.192,45.344 255.796,45.62 C255.136,46.088 254.812,46.748 254.812,47.588 C254.812,48.308 255.064,48.956 255.508,49.388 C256.192,50.048 257.152,50.348 258.544,50.348 Z M258.604,44.492 C257.512,44.492 256.84,43.94 256.84,43.064 C256.84,42.224 257.524,41.684 258.58,41.684 C259.648,41.684 260.32,42.224 260.32,43.076 C260.32,43.952 259.672,44.492 258.604,44.492 Z M258.556,49.028 C257.26,49.028 256.492,48.452 256.492,47.468 C256.492,46.472 257.284,45.86 258.58,45.86 C259.876,45.86 260.656,46.46 260.656,47.456 C260.656,48.464 259.9,49.028 258.556,49.028 Z M264.932,50.74 C264.896444,50.5355556 264.884593,50.2758025 264.882398,49.7781344 L264.882,46.9 L270.832,46.9 L270.832,49.34 C270.832,49.58 270.772,49.61 270.382,49.61 C270.022,49.61 269.522,49.57 268.862,49.5 C269.042,49.91 269.112,50.19 269.172,50.58 C269.562,50.6 270.112,50.62 270.502,50.62 C271.042,50.62 271.362,50.58 271.552,50.48 C271.842,50.33 271.962,50.05 271.962,49.54 L271.962,43.13 C271.962,42.59 271.972,42.33 272.002,42.04 C271.792,42.06625 271.536063,42.0771875 271.106902,42.0795117 L264.832,42.08 C264.302,42.08 264.042,42.07 263.722,42.04 C263.752,42.33 263.762,42.58 263.762,43 L263.762,49.54 C263.762,50.06 263.742,50.42 263.702,50.74 L264.932,50.74 Z M267.252,45.85 L264.882,45.85 L264.882,43.14 L267.252,43.14 L267.252,45.85 Z M270.832,45.85 L268.332,45.85 L268.332,43.14 L270.832,43.14 L270.832,45.85 Z" id="+148円" fill="#FFFFFF" fill-rule="nonzero"></path>
                </g>
                <g id="Comment">
                    <path d="M255.5,0 L262.071,12 L322,12 C333.59798,12 343,21.4020203 343,33 C343,44.5979797 333.59798,54 322,54 L21,54 C9.40202025,54 1.42034288e-15,44.5979797 0,33 C-1.42034288e-15,21.4020203 9.40202025,12 21,12 L248.929,12 L255.5,0 Z" id="Combined-Shape" fill="#002970" transform="translate(171.500000, 27.000000) scale(1, -1) translate(-171.500000, -27.000000) "></path>
                    <path d="M27.0850703,28.3115234 C30.5225703,28.3115234 32.9073359,26.0986328 32.9073359,22.8867188 C32.9073359,19.9326172 30.7803828,17.7841797 27.8262812,17.7841797 C26.2686641,17.7841797 24.9903437,18.3964844 24.3135859,19.4384766 L24.259875,19.4384766 L24.6895625,14.765625 L31.99425,14.765625 L31.99425,12.4990234 L22.4766719,12.4990234 L21.7354609,21.5117188 L24.1524531,21.5117188 C24.7432734,20.4589844 25.7852656,19.8681641 27.1172969,19.8681641 C28.9434687,19.8681641 30.2325312,21.1464844 30.2325312,22.9619141 C30.2325312,24.7880859 28.9542109,26.0664062 27.1065547,26.0664062 C25.4737422,26.0664062 24.2276484,25.0888672 24.0557734,23.6386719 L21.4561641,23.6386719 C21.5743281,26.3886719 23.8946406,28.3115234 27.0850703,28.3115234 Z M40.6631953,28.3115234 C44.4766719,28.3115234 46.7432734,25.1855469 46.7432734,20.2226562 C46.7432734,15.2597656 44.4551875,12.1875 40.6631953,12.1875 C36.8604609,12.1875 34.5616328,15.28125 34.5616328,20.2333984 C34.5616328,25.2070312 36.8389766,28.3115234 40.6631953,28.3115234 Z M40.6631953,26.0449219 C38.5577266,26.0449219 37.3546016,23.8964844 37.3546016,20.2226562 C37.3546016,16.6132812 38.5792109,14.4541016 40.6631953,14.4541016 C42.7364375,14.4541016 43.9503047,16.6025391 43.9503047,20.2333984 C43.9503047,23.9072266 42.7579219,26.0449219 40.6631953,26.0449219 Z M54.6924922,28.3115234 C58.5059687,28.3115234 60.7725703,25.1855469 60.7725703,20.2226562 C60.7725703,15.2597656 58.4844844,12.1875 54.6924922,12.1875 C50.8897578,12.1875 48.5909297,15.28125 48.5909297,20.2333984 C48.5909297,25.2070312 50.8682734,28.3115234 54.6924922,28.3115234 Z M54.6924922,26.0449219 C52.5870234,26.0449219 51.3838984,23.8964844 51.3838984,20.2226562 C51.3838984,16.6132812 52.6085078,14.4541016 54.6924922,14.4541016 C56.7657344,14.4541016 57.9796016,16.6025391 57.9796016,20.2333984 C57.9796016,23.9072266 56.7872187,26.0449219 54.6924922,26.0449219 Z M64.6083984,29.036 C64.5570651,28.7408333 64.5410234,28.3633194 64.5387063,27.6230856 L64.5383984,23.66 L72.8683984,23.66 L72.8683984,27.076 C72.8683984,27.412 72.7843984,27.454 72.2383984,27.454 C71.7343984,27.454 71.0343984,27.398 70.1103984,27.3 C70.3623984,27.874 70.4603984,28.266 70.5443984,28.812 C71.0903984,28.84 71.8603984,28.868 72.4063984,28.868 C73.1623984,28.868 73.6103984,28.812 73.8763984,28.672 C74.2823984,28.462 74.4503984,28.07 74.4503984,27.356 L74.4503984,18.382 C74.4503984,17.626 74.4643984,17.262 74.5063984,16.856 C74.2039984,16.8938 73.8335584,16.90892 73.2011644,16.911566 L64.4683984,16.912 C63.7263984,16.912 63.3623984,16.898 62.9143984,16.856 C62.9563984,17.262 62.9703984,17.612 62.9703984,18.2 L62.9703984,27.356 C62.9703984,28.084 62.9423984,28.588 62.8863984,29.036 L64.6083984,29.036 Z M67.8563984,22.19 L64.5383984,22.19 L64.5383984,18.396 L67.8563984,18.396 L67.8563984,22.19 Z M72.8683984,22.19 L69.3683984,22.19 L69.3683984,18.396 L72.8683984,18.396 L72.8683984,22.19 Z M83.0463984,28.462 C84.0263984,28.294 84.5723984,28.154 85.2443984,27.874 C87.3863984,27.006 88.6463984,25.074 88.6463984,22.652 C88.6463984,19.502 86.4623984,17.458 83.1023984,17.458 C81.1143984,17.458 79.4623984,18.13 78.2863984,19.418 C77.2923984,20.51 76.7463984,21.952 76.7463984,23.492 C76.7463984,25.746 77.8943984,27.37 79.4903984,27.37 C80.6383984,27.37 81.5343984,26.544 82.3323984,24.738 C83.0323984,23.156 83.5223984,21.224 83.7883984,19.026 C84.4043984,19.082 84.7683984,19.194 85.2023984,19.446 C86.3223984,20.118 86.9243984,21.21 86.9243984,22.554 C86.9243984,24.052 86.1963984,25.382 84.9783984,26.054 C84.3203984,26.432 83.4803984,26.656 82.1923984,26.824 C82.6403984,27.412 82.8083984,27.72 83.0463984,28.462 Z M79.4763984,25.564 C78.8603984,25.564 78.3703984,24.654 78.3703984,23.506 C78.3703984,22.008 79.0983984,20.566 80.2743984,19.726 C80.8483984,19.32 81.3523984,19.124 82.0803984,19.04 C81.9123984,20.622 81.4503984,22.512 80.9183984,23.772 C80.4143984,24.976 79.9383984,25.564 79.4763984,25.564 Z M92.7623984,28.168 C92.6783984,27.636 92.6503984,27.104 92.6503984,26.348 L92.6503984,24.01 L95.3243984,24.01 C96.6683984,24.01 97.6203984,23.688 98.3063984,23.002 C98.9223984,22.358 99.2443984,21.49 99.2443984,20.426 C99.2443984,19.418 98.9503984,18.578 98.3763984,18.018 C97.7043984,17.346 96.7523984,17.024 95.3943984,17.024 L92.4683984,17.024 C91.7263984,17.024 91.2923984,17.01 90.6903984,16.982 C90.7743984,17.612 90.8023984,18.116 90.8023984,18.788 L90.8023984,26.362 C90.8023984,27.118 90.7743984,27.608 90.6903984,28.168 L92.7623984,28.168 Z M95.3243984,22.4 L92.6503984,22.4 L92.6503984,18.634 L95.3243984,18.634 C96.0663984,18.634 96.5283984,18.788 96.8503984,19.138 C97.1583984,19.46 97.3123984,19.922 97.3123984,20.482 C97.3123984,21.714 96.6123984,22.4 95.3243984,22.4 Z M103.052398,28.308 C103.500398,28.308 103.948398,28.252 104.354398,28.14 C104.928398,27.986 105.278398,27.79 105.838398,27.258 L105.838398,28.168 L107.728398,28.168 C107.644398,27.538 107.616398,27.16 107.616398,26.418 L107.616398,22.652 C107.616398,21.7 107.434398,21.168 106.958398,20.72 C106.356398,20.132 105.544398,19.894 104.200398,19.894 C102.996398,19.894 102.212398,20.104 101.526398,20.608 C100.994398,20.986 100.742398,21.35 100.420398,22.162 L102.212398,22.484 C102.380398,21.98 102.506398,21.784 102.772398,21.588 C103.094398,21.336 103.668398,21.182 104.228398,21.182 C105.292398,21.182 105.838398,21.602 105.838398,22.414 L105.838398,23.128 C103.836398,23.17 102.800398,23.31 101.890398,23.688 C100.924398,24.094 100.308398,24.976 100.308398,25.956 C100.308398,27.426 101.344398,28.308 103.052398,28.308 Z M103.388398,27.02 C102.604398,27.02 102.114398,26.614 102.114398,25.956 C102.114398,24.864 103.164398,24.402 105.838398,24.346 L105.838398,25.046 C105.838398,25.536 105.670398,25.942 105.334398,26.278 C104.858398,26.74 104.130398,27.02 103.388398,27.02 Z M110.668398,30.912 C111.970398,30.912 112.796398,30.422 113.244398,29.358 L116.436398,21.868 C116.856398,20.888 117.108398,20.314 117.192398,20.132 L115.106398,20.132 C115.022398,20.58 114.910398,20.93 114.574398,21.784 L113.020398,25.746 L111.312398,21.77 C111.060398,21.196 110.850398,20.538 110.780398,20.132 L108.652398,20.132 C108.820398,20.44 108.834398,20.482 109.450398,21.868 L112.068398,27.608 L111.592398,28.686 C111.396398,29.12 110.990398,29.386 110.500398,29.386 C110.178398,29.386 109.912398,29.316 109.520398,29.148 L109.198398,30.744 C109.842398,30.87 110.248398,30.912 110.668398,30.912 Z M120.384398,28.168 C120.300398,27.636 120.272398,27.104 120.272398,26.348 L120.272398,24.01 L122.946398,24.01 C124.290398,24.01 125.242398,23.688 125.928398,23.002 C126.544398,22.358 126.866398,21.49 126.866398,20.426 C126.866398,19.418 126.572398,18.578 125.998398,18.018 C125.326398,17.346 124.374398,17.024 123.016398,17.024 L120.090398,17.024 C119.348398,17.024 118.914398,17.01 118.312398,16.982 C118.396398,17.612 118.424398,18.116 118.424398,18.788 L118.424398,26.362 C118.424398,27.118 118.396398,27.608 118.312398,28.168 L120.384398,28.168 Z M122.946398,22.4 L120.272398,22.4 L120.272398,18.634 L122.946398,18.634 C123.688398,18.634 124.150398,18.788 124.472398,19.138 C124.780398,19.46 124.934398,19.922 124.934398,20.482 C124.934398,21.714 124.234398,22.4 122.946398,22.4 Z M130.674398,28.308 C131.122398,28.308 131.570398,28.252 131.976398,28.14 C132.550398,27.986 132.900398,27.79 133.460398,27.258 L133.460398,28.168 L135.350398,28.168 C135.266398,27.538 135.238398,27.16 135.238398,26.418 L135.238398,22.652 C135.238398,21.7 135.056398,21.168 134.580398,20.72 C133.978398,20.132 133.166398,19.894 131.822398,19.894 C130.618398,19.894 129.834398,20.104 129.148398,20.608 C128.616398,20.986 128.364398,21.35 128.042398,22.162 L129.834398,22.484 C130.002398,21.98 130.128398,21.784 130.394398,21.588 C130.716398,21.336 131.290398,21.182 131.850398,21.182 C132.914398,21.182 133.460398,21.602 133.460398,22.414 L133.460398,23.128 C131.458398,23.17 130.422398,23.31 129.512398,23.688 C128.546398,24.094 127.930398,24.976 127.930398,25.956 C127.930398,27.426 128.966398,28.308 130.674398,28.308 Z M131.010398,27.02 C130.226398,27.02 129.736398,26.614 129.736398,25.956 C129.736398,24.864 130.786398,24.402 133.460398,24.346 L133.460398,25.046 C133.460398,25.536 133.292398,25.942 132.956398,26.278 C132.480398,26.74 131.752398,27.02 131.010398,27.02 Z M138.290398,30.912 C139.592398,30.912 140.418398,30.422 140.866398,29.358 L144.058398,21.868 C144.478398,20.888 144.730398,20.314 144.814398,20.132 L142.728398,20.132 C142.644398,20.58 142.532398,20.93 142.196398,21.784 L140.642398,25.746 L138.934398,21.77 C138.682398,21.196 138.472398,20.538 138.402398,20.132 L136.274398,20.132 C136.442398,20.44 136.456398,20.482 137.072398,21.868 L139.690398,27.608 L139.214398,28.686 C139.018398,29.12 138.612398,29.386 138.122398,29.386 C137.800398,29.386 137.534398,29.316 137.142398,29.148 L136.820398,30.744 C137.464398,30.87 137.870398,30.912 138.290398,30.912 Z M157.806398,18.312 L158.828398,17.906 C158.492398,17.08 158.170398,16.52 157.596398,15.778 L156.602398,16.142 C157.064398,16.772 157.470398,17.486 157.806398,18.312 Z M152.836398,28.784 C152.786621,28.448 152.770028,28.0788148 152.766955,27.4601262 L152.766398,20.426 L156.000398,20.426 C157.106398,20.426 157.316398,20.44 157.778398,20.496 L157.778398,18.774 C157.302398,18.858 157.008398,18.872 156.028398,18.872 L156.994398,18.508 C156.616398,17.584 156.294398,17.024 155.748398,16.296 L154.712398,16.66 C155.230398,17.374 155.552398,17.948 155.930398,18.872 L152.766398,18.872 L152.766398,18.13 C152.766398,17.234 152.780398,17.01 152.822398,16.632 L150.932398,16.632 C150.988398,16.968 151.016398,17.276 151.016398,18.088 L151.016398,18.872 L147.936398,18.872 C146.900398,18.872 146.634398,18.858 146.144398,18.774 L146.144398,20.496 C146.606398,20.44 146.816398,20.426 147.908398,20.426 L151.016398,20.426 L151.016398,27.202 C151.016398,27.986 150.988398,28.406 150.932398,28.784 L152.836398,28.784 Z M147.138398,27.734 C148.160398,26.362 149.042398,24.346 149.490398,22.302 C149.518398,22.162 149.546398,22.078 149.546398,22.064 C149.560398,22.036 149.574398,21.952 149.602398,21.854 L147.880398,21.434 C147.684398,23.17 146.592398,25.676 145.514398,26.838 C146.186398,27.09 146.480398,27.258 147.138398,27.734 Z M156.686398,27.748 C157.316398,27.3 157.582398,27.132 158.296398,26.768 C157.372398,25.69 156.252398,23.254 155.818398,21.434 L154.166398,21.854 C154.264398,22.064 154.278398,22.134 154.390398,22.512 C155.048398,24.738 155.678398,26.166 156.686398,27.748 Z M171.932398,23.604 L171.932398,21.658 C171.388869,21.7321176 171.117831,21.751737 170.109463,21.7553275 L161.757334,21.7553275 C160.748966,21.751737 160.477928,21.7321176 159.934398,21.658 L159.934398,23.604 C160.494398,23.534 160.648398,23.534 162.216398,23.534 L169.650398,23.534 C171.218398,23.534 171.372398,23.534 171.932398,23.604 Z M176.566398,28.714 C178.386398,27.72 179.366398,26.852 180.136398,25.578 C180.780398,24.5 181.018398,23.576 181.144398,21.63 L184.014398,21.63 C184.938398,21.63 185.302398,21.644 185.806398,21.7 L185.806398,19.936 C185.302398,20.0135385 185.01312,20.031432 184.200802,20.033726 L181.214398,20.034 L181.214826,19.9018442 C181.215766,19.7897656 181.218773,19.59125 181.228398,18.956 L181.242398,18.116 C181.256398,17.234 181.256398,17.22 181.312398,16.772 L179.380398,16.772 C179.436398,17.15 179.450398,17.514 179.450398,18.116 L179.450245,19.1136872 C179.449707,19.3225926 179.447287,19.5766667 179.436398,20.034 L175.908398,20.034 C174.942398,20.034 174.634398,20.02 174.088398,19.936 L174.088398,21.7 C174.592398,21.644 174.956398,21.63 175.880398,21.63 L179.352398,21.63 C179.240398,23.058 179.086398,23.688 178.666398,24.444 C178.036398,25.606 176.972398,26.474 175.292398,27.202 C175.880398,27.664 176.090398,27.916 176.566398,28.714 Z M198.238398,28.462 L199.582398,27.006 C197.888398,25.368 197.888398,25.368 197.538398,25.06 C196.586398,24.206 195.830398,23.618 194.948398,23.03 C195.802398,21.882 196.488398,20.664 197.132398,19.166 C197.286398,18.816 197.398398,18.62 197.580398,18.41 L196.656398,17.458 C196.306398,17.584 196.194398,17.598 195.410398,17.612 L190.482398,17.682 L190.146398,17.682 C189.572398,17.682 189.306398,17.668 188.914398,17.598 L188.970398,19.39 C189.446398,19.32 189.824398,19.292 190.496398,19.278 C194.906398,19.208 194.906398,19.208 195.130398,19.194 L194.976398,19.558 C194.066398,21.742 192.386398,23.772 190.272398,25.256 C189.222398,25.998 188.550398,26.376 187.472398,26.796 C188.046398,27.398 188.214398,27.622 188.606398,28.35 C190.748398,27.3 192.358398,26.068 193.940398,24.304 C195.466398,25.466 197.076398,27.034 198.238398,28.462 Z M208.360398,28.588 C209.592398,28.588 210.936398,28.49 211.944398,28.336 C212.280398,28.294 212.350398,28.28 212.588398,28.28 L212.448398,26.474 C211.454398,26.852 210.012398,27.062 208.332398,27.062 C206.638398,27.062 205.966398,26.768 205.966398,26.04 C205.966398,25.634 206.204398,25.256 206.694398,24.892 C206.988398,24.682 207.352398,24.486 208.038398,24.164 L208.038398,24.5 L208.038398,24.5 C208.038398,25.158 208.010398,25.872 207.954398,26.124 L209.578398,26.082 C209.550398,25.844 209.536398,25.648 209.536398,25.34 C209.536398,25.242 209.536398,25.116 209.550398,24.878 L209.55018,24.199 C209.549523,24.09925 209.546898,24.031 209.536398,23.758 L209.536398,23.604 C210.740398,23.184 211.440398,22.946 211.636398,22.89 C212.378398,22.68 212.798398,22.568 213.190398,22.512 L212.532398,20.902 C212.308398,21.042 212.252398,21.056 211.496398,21.322 C211.146398,21.434 210.432398,21.686 209.354398,22.078 C209.130398,21.112 208.444398,20.594 207.352398,20.594 C206.638398,20.594 205.896398,20.832 205.378398,21.224 C205.196398,21.364 205.196398,21.364 205.098398,21.434 L205.084398,21.406 C205.574398,20.902 205.966398,20.342 206.372398,19.544 C207.786398,19.502 209.564398,19.39 210.586398,19.264 C211.300398,19.18 211.300398,19.18 211.692398,19.152 L211.594398,17.556 C210.824398,17.78 209.550398,17.934 207.926398,18.032 C207.156398,18.074 207.156398,18.074 207.044398,18.088 C207.072398,18.032 207.100398,17.99 207.170398,17.836 C207.646398,16.716 207.646398,16.716 207.730398,16.576 L205.896398,16.38 C205.840398,16.856 205.714398,17.276 205.336398,18.116 C203.558398,18.116 202.662398,18.06 202.088398,17.934 L202.060398,19.53 C202.158398,19.516 202.242398,19.516 202.284398,19.516 C202.410398,19.516 202.410398,19.516 202.676398,19.53 C202.984398,19.53 204.216398,19.558 204.440398,19.558 C204.440398,19.558 204.622398,19.544 204.678398,19.544 C204.622398,19.614 204.622398,19.614 204.566398,19.726 C204.286398,20.258 203.432398,21.476 202.886398,22.12 C202.396398,22.694 201.990398,23.086 201.626398,23.366 L202.900398,24.626 C203.208398,24.192 203.530398,23.842 204.118398,23.352 C205.196398,22.4 206.176398,21.91 206.988398,21.91 C207.492398,21.91 207.772398,22.148 207.842398,22.666 C206.260398,23.324 205.462398,23.856 204.832398,24.64 C204.384398,25.172 204.216398,25.62 204.216398,26.194 C204.216398,26.964 204.594398,27.636 205.238398,28 C205.952398,28.42 206.876398,28.588 208.360398,28.588 Z M222.297742,28 L222.297742,12.4990234 L219.558484,12.4990234 L215.50868,15.3457031 L215.50868,17.8916016 L219.515516,15.1416016 L219.579969,15.1416016 L219.579969,28 L222.297742,28 Z M233.35793,29.204 C233.28793,28.798 233.27393,28.42 233.27393,27.706 L233.27393,25.956 L236.52193,25.956 C237.12393,25.956 237.61393,25.984 238.04793,26.04 L238.04793,24.444 C237.61393,24.5 237.16593,24.528 236.52193,24.528 L233.27393,24.528 L233.27393,22.26 L235.56993,22.26 C236.17193,22.26 236.54993,22.274 236.96993,22.316 L236.96993,20.832 C236.54993,20.888 236.17193,20.902 235.52793,20.902 L233.27393,20.902 L233.27393,19.082 L236.12993,19.082 C236.75993,19.082 237.12393,19.096 237.55793,19.152 L237.55793,17.626 C237.19043,17.675 236.876523,17.6918438 236.36298,17.6952891 L229.57793,17.696 C229.82993,17.15 229.96993,16.856 229.98393,16.814 C230.08193,16.604 230.10993,16.562 230.19393,16.394 L228.52793,16.058 C228.48593,16.338 228.38793,16.632 228.19193,17.08 C227.61793,18.452 226.88993,19.376 225.46193,20.594 C225.93793,21.056 226.09193,21.238 226.49793,21.84 C227.39393,21.028 228.07993,20.216 228.80793,19.082 L231.73393,19.082 L231.73393,20.902 L228.68193,20.902 C228.30393,20.902 227.99593,20.888 227.70193,20.86 C227.72993,21.154 227.74393,21.364 227.74393,21.672 L227.74393,24.528 L227.02993,24.528 C226.39993,24.528 225.95193,24.5 225.50393,24.444 L225.50393,26.04 C225.96593,25.984 226.41393,25.956 227.02993,25.956 L231.73393,25.956 L231.73393,27.678 C231.73393,28.42 231.70593,28.798 231.64993,29.204 L233.35793,29.204 Z M231.73393,24.528 L229.21393,24.528 L229.21393,22.26 L231.73393,22.26 L231.73393,24.528 Z M250.98393,28.798 C251.48793,28.588 251.65593,28.224 251.65593,27.384 L251.65593,18.214 C251.65593,17.514 251.66993,17.164 251.71193,16.66 C251.31993,16.702 250.96993,16.716 250.26993,16.716 L247.58193,16.716 C246.86793,16.716 246.53193,16.702 246.15393,16.66 C246.18193,17.094 246.19593,17.486 246.19593,17.962 L246.19593,20.104 C246.19593,20.706 246.18193,20.972 246.15393,21.378 C246.50393,21.35 246.95193,21.336 247.44193,21.336 L250.19993,21.336 L250.19993,27.188 C250.19993,27.468 250.07393,27.566 249.68193,27.566 C249.42993,27.566 248.92593,27.524 248.61793,27.496 C248.58993,27.132 248.57593,26.81 248.57593,26.278 L248.57593,23.436 C248.57593,22.89 248.58993,22.54 248.61793,22.176 C248.26268,22.21275 247.982461,22.2280625 247.524043,22.2313164 L244.19393,22.232 C243.61993,22.232 243.29793,22.218 242.89193,22.176 C242.91993,22.554 242.93393,22.946 242.93393,23.436 L242.93393,26.852 C242.93393,27.356 242.89193,27.916 242.83593,28.252 L244.31993,28.252 L244.31993,27.468 L247.28793,27.468 C247.39993,27.468 247.66593,27.468 248.07193,27.482 C248.28193,28.042 248.35193,28.294 248.43593,28.924 C248.98516,28.9563077 249.145042,28.9637633 249.278797,28.9654838 L249.40193,28.966 C250.26993,28.966 250.68993,28.924 250.98393,28.798 Z M241.47793,29.106 C241.42193,28.728 241.39393,28.224 241.39393,27.384 L241.39393,21.336 L243.92793,21.336 C244.41793,21.336 244.85193,21.35 245.21593,21.378 C245.18793,21.07 245.17393,20.748 245.17393,20.104 L245.17393,17.962 C245.17393,17.416 245.18793,17.108 245.21593,16.66 C244.83793,16.702 244.51593,16.716 243.78793,16.716 L241.30993,16.716 C240.62393,16.716 240.25993,16.702 239.86793,16.66 C239.905263,17.0582222 239.920473,17.4121975 239.923392,17.9972401 L239.92393,27.37 C239.92393,28.238 239.89593,28.686 239.83993,29.106 L241.47793,29.106 Z M250.19993,18.55 L247.58193,18.55 L247.58193,17.85 L250.19993,17.85 L250.19993,18.55 Z M243.80193,18.55 L241.39393,18.55 L241.39393,17.85 L243.80193,17.85 L243.80193,18.55 Z M250.19993,20.258 L247.58193,20.258 L247.58193,19.544 L250.19993,19.544 L250.19993,20.258 Z M243.80193,20.258 L241.39393,20.258 L241.39393,19.544 L243.80193,19.544 L243.80193,20.258 Z M247.17593,24.248 L244.31993,24.248 L244.31993,23.408 L247.17593,23.408 L247.17593,24.248 Z M247.17593,26.292 L244.31993,26.292 L244.31993,25.382 L247.17593,25.382 L247.17593,26.292 Z M255.57593,20.062 L256.68193,18.858 C255.92593,17.794 255.70193,17.514 254.58193,16.394 L253.46193,17.43 C254.30193,18.214 254.83393,18.872 255.57593,20.062 Z M262.14193,27.272 C262.08593,26.936 262.07193,26.712 262.05793,26.25 L264.82993,26.25 C265.40393,26.25 265.64193,26.264 265.99193,26.306 L265.99193,24.99 C265.68393,25.046 265.44593,25.06 264.87193,25.06 L262.05793,25.06 L262.05793,24.43 L264.18593,24.43 C264.61993,24.43 264.87193,24.444 265.33393,24.472 C265.29193,24.15 265.27793,23.912 265.27793,23.45 L265.27793,21.336 C265.27793,20.888 265.29193,20.622 265.33393,20.3 C265.047707,20.3248889 264.827856,20.338716 264.369562,20.3414815 L262.04393,20.342 L262.04393,19.74 L264.03193,19.74 C264.52193,19.74 264.73193,19.754 265.05393,19.796 L265.05393,19.292 L266.06193,19.292 C266.00593,19.026 265.99193,18.76 265.99193,18.382 L265.99193,17.542 C265.99193,17.164 266.00593,16.912 266.04793,16.646 C265.67593,16.682 265.37593,16.6974286 264.945154,16.701102 L258.19393,16.702 C257.59193,16.702 257.24193,16.688 256.83593,16.646 C256.87793,16.926 256.89193,17.22 256.89193,17.57 L256.89193,18.438 C256.89193,18.774 256.87793,18.998 256.83593,19.292 L257.77393,19.292 L257.77393,19.796 C258.09593,19.754 258.37593,19.74 258.80993,19.74 L260.65793,19.74 L260.65793,20.342 L258.66993,20.342 C258.13793,20.342 257.88593,20.328 257.54993,20.3 C257.58353,20.5464 257.59025,20.66736 257.591594,21.02128 L257.591469,23.7677174 C257.589856,24.0812099 257.582596,24.2215556 257.54993,24.472 C257.96993,24.43 258.15193,24.43 258.66993,24.43 L260.67193,24.43 L260.67193,25.06 L258.05393,25.06 C257.66193,25.06 257.28393,25.032 256.94793,24.99 L256.94793,26.32 C257.28393,26.264 257.57793,26.25 258.06793,26.25 L260.65793,26.25 C260.64393,26.726 260.62993,26.894 260.57393,27.272 L262.14193,27.272 Z M260.65793,18.592 L258.73993,18.592 C258.55793,18.592 258.45993,18.592 258.30593,18.578 L258.30593,17.906 L260.65793,17.906 L260.65793,18.592 Z M264.54993,18.592 L262.04393,18.592 L262.04393,17.906 L264.54993,17.906 L264.54993,18.592 Z M260.65793,21.938 L258.96393,21.938 L258.96393,21.322 L260.65793,21.322 L260.65793,21.938 Z M263.87793,21.938 L262.04393,21.938 L262.04393,21.322 L263.87793,21.322 L263.87793,21.938 Z M253.76993,29.008 C253.92393,28.882 254.06393,28.77 254.17593,28.686 C254.80593,28.252 255.11393,27.986 255.79993,27.356 C256.58393,28.336 257.40993,28.742 258.78193,28.84 C259.35593,28.882 260.54593,28.924 261.38593,28.924 C263.00993,28.924 264.18593,28.896 266.07593,28.812 C266.15993,28.252 266.25793,27.93 266.49593,27.328 C265.24153,27.4717333 263.731023,27.5422933 261.668464,27.5510625 L261.21793,27.552 C259.34193,27.552 258.50193,27.496 257.98393,27.342 C257.26993,27.132 256.91993,26.866 256.55593,26.25 L256.55593,23.114 C256.55593,22.358 256.56993,22.022 256.61193,21.588 C256.27593,21.644 255.95393,21.658 255.54793,21.658 L254.51193,21.658 C253.99393,21.658 253.76993,21.644 253.39193,21.588 L253.39193,23.1 C253.76993,23.044 253.96593,23.03 254.34393,23.03 L255.08593,23.03 L255.08593,26.04 C254.24593,26.754 253.60193,27.188 253.08393,27.412 L253.76993,29.008 Z M260.65793,23.436 L258.96393,23.436 L258.96393,22.848 L260.65793,22.848 L260.65793,23.436 Z M263.87793,23.436 L262.04393,23.436 L262.04393,22.848 L263.87793,22.848 L263.87793,23.436 Z M268.53993,29.176 C269.35193,27.93 269.77193,26.614 269.96793,24.752 L273.18793,24.752 L273.18793,27.062 C273.18793,27.888 273.15993,28.294 273.10393,28.714 L274.75593,28.714 C274.69993,28.308 274.68593,27.86 274.68593,27.048 L274.68593,24.752 L278.04593,24.752 L278.04593,27.202 C278.04593,27.496 277.91993,27.552 277.34593,27.552 C276.89793,27.552 276.28193,27.51 275.58193,27.44 C275.80593,28.028 275.90393,28.364 275.97393,28.896 C276.39393,28.924 277.10793,28.952 277.54193,28.952 C279.13793,28.952 279.55793,28.658 279.55793,27.496 L279.55793,18.298 C279.55793,17.542 279.57193,17.192 279.61393,16.716 C279.228152,16.7533333 278.875559,16.7685432 278.25134,16.7714623 L270.14993,16.772 C269.39393,16.772 269.02993,16.758 268.53993,16.716 C268.591263,17.2421667 268.607305,17.6624583 268.609622,18.5052697 L268.60993,18.746 C268.60993,20.398 268.55393,22.386 268.48393,23.562 C268.44193,24.318 268.34393,25.046 268.20393,25.704 C268.00793,26.6 267.68593,27.342 267.18193,28.07 C267.75593,28.462 267.95193,28.616 268.53993,29.176 Z M273.18793,20.076 L270.12193,20.076 L270.13593,19.684 L270.13593,18.242 L273.18793,18.242 L273.18793,20.076 Z M278.04593,20.076 L274.68593,20.076 L274.68593,18.242 L278.04593,18.242 L278.04593,20.076 Z M273.18793,23.366 L270.06593,23.366 C270.06593,23.086 270.06593,22.988 270.07993,22.33 C270.07993,22.134 270.09393,21.854 270.09393,21.448 L273.18793,21.448 L273.18793,23.366 Z M278.04593,23.366 L274.68593,23.366 L274.68593,21.448 L278.04593,21.448 L278.04593,23.366 Z M285.64793,28.994 C286.94993,28.546 287.59393,28.252 288.18193,27.846 C289.53993,26.908 290.26793,25.592 290.26793,24.066 C290.26793,23.31 290.12793,22.736 289.81993,22.092 C289.81993,21.924 289.80593,21.812 289.80593,21.756 L289.81993,20.552 L289.81993,19.642 C290.92593,19.614 291.17793,19.614 291.51393,19.614 C292.67593,19.614 293.34793,19.642 293.86593,19.684 L293.85193,18.074 C293.33393,18.13 292.24193,18.158 289.80593,18.172 C289.81993,16.968 289.81993,16.94 289.87593,16.506 L288.11193,16.52 C288.18193,16.884 288.18193,16.884 288.19593,18.214 C287.46793,18.242 287.46793,18.242 287.00593,18.256 C285.85793,18.284 285.71793,18.284 284.80793,18.312 C283.394538,18.3667826 282.950085,18.3786919 282.655874,18.3812808 L282.42793,18.382 C282.17593,18.382 282.04993,18.382 281.74193,18.354 L281.79793,20.02 C282.17593,19.964 282.17593,19.964 284.28993,19.81 C284.90593,19.768 286.22193,19.726 288.22393,19.67 L288.223995,19.8874537 C288.224319,20.2883333 288.226263,20.8366667 288.23793,20.86 C288.23793,20.958 288.23793,20.958 288.25193,21.028 C287.92993,20.762 287.39793,20.608 286.79593,20.608 C285.17193,20.608 284.00993,21.672 284.00993,23.156 C284.00993,23.954 284.31793,24.57 284.97593,25.046 C285.45193,25.396 285.95593,25.55 286.59993,25.55 C287.52393,25.55 288.25193,25.2 288.65793,24.556 C288.54593,25.34 287.98593,26.054 287.03393,26.6 C286.37593,26.992 285.80193,27.188 284.65393,27.412 C285.11593,27.916 285.25593,28.126 285.64793,28.994 Z M286.83793,24.122 C286.13793,24.122 285.64793,23.66 285.64793,23.016 C285.64793,22.4 286.23593,21.896 286.94993,21.896 C287.71993,21.896 288.20993,22.274 288.20993,22.862 C288.20993,23.59 287.63593,24.122 286.83793,24.122 Z M301.91593,28.616 C303.20393,28.616 304.39393,28.336 305.30393,27.818 C306.54993,27.118 307.20793,26.054 307.20793,24.724 C307.20793,22.806 305.66793,21.574 303.27393,21.574 C302.22393,21.574 301.60793,21.714 300.33393,22.218 L300.30593,22.19 C300.52993,22.064 300.52993,22.064 300.87993,21.826 C301.15993,21.644 302.16793,20.888 302.41993,20.678 C302.89593,20.272 303.91793,19.362 304.61793,18.718 C305.00993,18.354 305.10793,18.27 305.34593,18.144 L304.47793,16.912 C304.25393,17.024 304.09993,17.052 303.60993,17.094 C302.25193,17.192 300.54393,17.262 299.35393,17.262 C298.58393,17.262 298.17793,17.234 297.70193,17.178 L297.77193,18.858 C298.03793,18.816 298.13593,18.802 298.44393,18.788 C300.97793,18.676 301.87393,18.62 302.40593,18.55 L302.41993,18.564 C302.33593,18.648 302.19593,18.788 302.16793,18.816 C301.10393,19.894 299.28393,21.462 297.98193,22.456 C297.05793,23.156 296.49793,23.534 296.00793,23.772 L296.95993,25.284 C298.63993,23.758 300.68393,22.932 302.72793,22.932 C304.42193,22.932 305.49993,23.646 305.49993,24.738 C305.49993,25.732 304.99593,26.334 303.83393,26.768 C303.62393,26.166 303.46993,25.858 303.18993,25.508 C302.60193,24.766 301.74793,24.36 300.76793,24.36 C299.36793,24.36 298.35993,25.2 298.35993,26.362 C298.35993,26.992 298.66793,27.58 299.19993,27.972 C299.75993,28.392 300.73993,28.616 301.91593,28.616 Z M301.59393,27.23 C300.55793,27.23 299.92793,26.908 299.92793,26.348 C299.92793,25.956 300.24993,25.704 300.75393,25.704 C301.53793,25.704 302.06993,26.208 302.32193,27.174 C301.92993,27.23 301.85993,27.23 301.59393,27.23 Z M319.52793,28.098 C320.28393,28.014 320.35393,28 320.66193,28 L320.50793,26.082 C319.45793,26.446 317.73593,26.656 315.98593,26.656 C313.73193,26.656 312.77993,26.222 312.77993,25.2 C312.77993,24.192 313.80193,23.296 315.84593,22.54 C317.41393,21.966 319.24793,21.434 320.46593,21.196 L319.86393,19.432 C319.65393,19.53 319.58393,19.558 319.33193,19.642 C316.61593,20.538 316.61593,20.538 315.70593,20.874 C315.25793,19.446 314.83793,17.43 314.78193,16.492 L312.96193,16.786 C313.03193,16.996 313.04593,17.024 313.18593,17.696 C313.53593,19.418 313.77393,20.356 314.12393,21.49 C313.21393,21.952 312.76593,22.232 312.21993,22.694 C311.42193,23.366 310.97393,24.262 310.97393,25.2 C310.97393,26.208 311.42193,27.076 312.19193,27.538 C313.08793,28.07 314.30593,28.308 316.25193,28.308 C317.23193,28.308 318.01593,28.252 319.52793,28.098 Z" id="500円のPayPayボーナスを1年間運用すると" fill="#FFFFFF" fill-rule="nonzero"></path>
                </g>
            </g>
        </g>
    </g>
</svg>