<?xml version="1.0" encoding="utf-8"?>
<svg width="348px" height="184px" viewBox="0 0 348 184" version="1.1" xmlns:xlink="http://www.w3.org/1999/xlink" xmlns="http://www.w3.org/2000/svg">
  <defs>
    <linearGradient x1="0.5" y1="0.418468654" x2="0.5" y2="1" id="gradient_1">
      <stop offset="0" stop-color="#002970" />
      <stop offset="1" stop-color="#002970" stop-opacity="0" />
    </linearGradient>
    <path d="M8 16C12.4183 16 16 12.4183 16 8C16 3.58172 12.4183 0 8 0C3.58172 0 0 3.58172 0 8C0 12.4183 3.58172 16 8 16Z" transform="translate(317 34.00153)" id="path_1" />
    <clipPath id="clip_1">
      <use xlink:href="#path_1" />
    </clipPath>
  </defs>
  <g id="Graph" transform="translate(2 2)">
    <path d="M0 0L343 0L343 1L0 1L0 0Z" transform="translate(1 119.0015)" id="Rectangle" fill="#909090" stroke="none" />
    <g id="Group-3" transform="translate(17 150)">
      <g id="Group-4" transform="translate(1.265625 0)">
        <path d="M14.999 0L38.001 0Q38.3692 0 38.737 0.0180669Q39.1047 0.0361339 39.4712 0.0722243Q39.8376 0.108315 40.2018 0.162341Q40.566 0.216368 40.9272 0.288202Q41.2883 0.360035 41.6455 0.449501Q42.0026 0.538968 42.355 0.645852Q42.7073 0.752736 43.054 0.87678Q43.4007 1.00082 43.7409 1.14173Q44.081 1.28264 44.4139 1.44006Q44.7467 1.59749 45.0715 1.77106Q45.3962 1.94463 45.712 2.13393Q46.0278 2.32322 46.334 2.52779Q46.6401 2.73235 46.9359 2.95169Q47.2316 3.17103 47.5163 3.40462Q47.8009 3.6382 48.0737 3.88547Q48.3465 4.13274 48.6069 4.39311Q48.8673 4.65346 49.1145 4.92629Q49.3618 5.19911 49.5954 5.48373Q49.829 5.76836 50.0483 6.06411Q50.2676 6.35985 50.4722 6.666Q50.6768 6.97215 50.8661 7.28797Q51.0554 7.60379 51.2289 7.92852Q51.4025 8.25325 51.5599 8.5861Q51.7174 8.91895 51.8583 9.25913Q51.9992 9.59931 52.1232 9.94599Q52.2473 10.2927 52.3541 10.645Q52.461 10.9974 52.5505 11.3545Q52.64 11.7117 52.7118 12.0728Q52.7836 12.434 52.8377 12.7982Q52.8917 13.1624 52.9278 13.5288Q52.9639 13.8953 52.9819 14.263Q53 14.6308 53 14.999L53 15.001Q53 15.3692 52.9819 15.737Q52.9639 16.1047 52.9278 16.4712Q52.8917 16.8376 52.8377 17.2018Q52.7836 17.566 52.7118 17.9272Q52.64 18.2883 52.5505 18.6455Q52.461 19.0026 52.3541 19.355Q52.2473 19.7073 52.1232 20.054Q51.9992 20.4007 51.8583 20.7409Q51.7174 21.081 51.5599 21.4139Q51.4025 21.7467 51.2289 22.0715Q51.0554 22.3962 50.8661 22.712Q50.6768 23.0278 50.4722 23.334Q50.2676 23.6401 50.0483 23.9359Q49.829 24.2316 49.5954 24.5163Q49.3618 24.8009 49.1145 25.0737Q48.8673 25.3465 48.6069 25.6069Q48.3465 25.8673 48.0737 26.1145Q47.8009 26.3618 47.5163 26.5954Q47.2316 26.829 46.9359 27.0483Q46.6401 27.2676 46.334 27.4722Q46.0278 27.6768 45.712 27.8661Q45.3962 28.0554 45.0715 28.2289Q44.7467 28.4025 44.4139 28.5599Q44.081 28.7174 43.7409 28.8583Q43.4007 28.9992 43.054 29.1232Q42.7073 29.2473 42.355 29.3541Q42.0026 29.461 41.6455 29.5505Q41.2883 29.64 40.9272 29.7118Q40.566 29.7836 40.2018 29.8377Q39.8376 29.8917 39.4712 29.9278Q39.1047 29.9639 38.737 29.9819Q38.3692 30 38.001 30L14.999 30Q14.6308 30 14.263 29.9819Q13.8953 29.9639 13.5288 29.9278Q13.1624 29.8917 12.7982 29.8377Q12.434 29.7836 12.0728 29.7118Q11.7117 29.64 11.3545 29.5505Q10.9974 29.461 10.645 29.3541Q10.2927 29.2473 9.94599 29.1232Q9.59931 28.9992 9.25913 28.8583Q8.91895 28.7174 8.5861 28.5599Q8.25325 28.4025 7.92852 28.2289Q7.60379 28.0554 7.28797 27.8661Q6.97215 27.6768 6.666 27.4722Q6.35985 27.2676 6.06411 27.0483Q5.76836 26.829 5.48373 26.5954Q5.19911 26.3618 4.92629 26.1145Q4.65346 25.8673 4.39311 25.6069Q4.13274 25.3465 3.88547 25.0737Q3.6382 24.8009 3.40462 24.5163Q3.17103 24.2316 2.95169 23.9359Q2.73235 23.6401 2.52779 23.334Q2.32322 23.0278 2.13393 22.712Q1.94463 22.3962 1.77106 22.0715Q1.59749 21.7467 1.44006 21.4139Q1.28264 21.081 1.14173 20.7409Q1.00082 20.4007 0.87678 20.054Q0.752736 19.7073 0.645852 19.355Q0.538968 19.0026 0.449501 18.6455Q0.360035 18.2883 0.288202 17.9272Q0.216368 17.566 0.162341 17.2018Q0.108315 16.8376 0.0722243 16.4712Q0.0361339 16.1047 0.0180669 15.737Q0 15.3692 0 15.001L0 14.999Q0 14.6308 0.0180669 14.263Q0.0361339 13.8953 0.0722243 13.5288Q0.108315 13.1624 0.162341 12.7982Q0.216368 12.434 0.288202 12.0728Q0.360035 11.7117 0.449501 11.3545Q0.538968 10.9974 0.645852 10.645Q0.752736 10.2927 0.87678 9.94599Q1.00082 9.59931 1.14173 9.25913Q1.28264 8.91895 1.44006 8.5861Q1.59749 8.25325 1.77106 7.92852Q1.94463 7.60379 2.13393 7.28797Q2.32322 6.97215 2.52779 6.666Q2.73235 6.35985 2.95169 6.06411Q3.17103 5.76836 3.40462 5.48373Q3.6382 5.19911 3.88547 4.92629Q4.13274 4.65346 4.39311 4.39311Q4.65346 4.13274 4.92629 3.88547Q5.19911 3.6382 5.48373 3.40462Q5.76836 3.17103 6.06411 2.95169Q6.35985 2.73235 6.666 2.52779Q6.97215 2.32322 7.28797 2.13393Q7.60379 1.94463 7.92852 1.77106Q8.25325 1.59749 8.5861 1.44006Q8.91895 1.28264 9.25913 1.14173Q9.59931 1.00082 9.94599 0.87678Q10.2927 0.752736 10.645 0.645852Q10.9974 0.538968 11.3545 0.449501Q11.7117 0.360035 12.0728 0.288202Q12.434 0.216368 12.7982 0.162341Q13.1624 0.108315 13.5288 0.0722243Q13.8953 0.0361339 14.263 0.0180669Q14.6308 0 14.999 0L14.999 0Z" transform="translate(98.73438 0)" id="Rectangle-Copy-2" fill="#00B9F5" stroke="none" />
        <g id="1日" fill="#00B9F5" transform="translate(0 9)">
          <path d="M15.334 13.0713L15.9141 13.0713Q16.0078 13.0713 16.0078 12.9775L15.9844 8.8877L15.9844 6.26855L16.0078 3.5498Q16.0078 3.4502 15.9141 3.4502L14.2441 3.47363L10.6816 3.47363L9.01172 3.4502Q8.91797 3.4502 8.91797 3.5498L8.94141 6.57324L8.94141 8.8877L8.91797 13.001Q8.91797 13.0947 9.01172 13.0947L9.60352 13.0947Q9.68555 13.0947 9.68555 13.001L9.68555 12.2451L15.2402 12.2451L15.2402 12.9775Q15.2402 13.0244 15.2637 13.0479Q15.2871 13.0713 15.334 13.0713ZM3.28125 12.6318L4.24219 12.6318L4.24219 4.04199L3.87891 4.04199Q3.65625 4.23535 3.35156 4.4375Q3.04688 4.63965 2.7041 4.82422Q2.36133 5.00879 2.00684 5.1582Q1.65234 5.30762 1.33594 5.39551L1.33594 6.36816Q1.61719 6.29785 1.91309 6.1748Q2.20898 6.05176 2.47559 5.91113Q2.74219 5.77051 2.95605 5.62695Q3.16992 5.4834 3.28125 5.37207L3.28125 12.6318ZM15.2402 4.15918L15.2402 7.41113L9.68555 7.41113L9.68555 4.15918L15.2402 4.15918ZM15.2402 8.08496L15.2402 11.5596L9.68555 11.5596L9.68555 8.08496L15.2402 8.08496Z" />
        </g>
        <g id="1ヶ月" fill="#FFFFFF" transform="translate(111.9805 9)">
          <path d="M23.3906 13.1123Q23.7305 12.7959 23.7305 12.2275L23.707 10.3174L23.707 4.99121L23.7305 3.41504Q23.7305 3.32129 23.6309 3.32129L22.0605 3.34473L19.3242 3.34473L17.7539 3.32129Q17.6602 3.32129 17.6602 3.41504L17.6836 4.99121L17.6836 6.45605Q17.6836 9.06348 17.332 10.3232Q16.9219 11.7939 15.5449 13.0654Q15.8145 13.1475 16.0605 13.3408Q16.2188 13.458 16.2539 13.458Q16.2949 13.458 16.4063 13.3291Q17.1914 12.5205 17.5898 11.7529Q18.082 10.8154 18.2695 9.44434L22.9629 9.44434L22.9629 12.0693Q22.9629 12.6201 22.418 12.6201Q21.8613 12.6201 21.1582 12.5615Q21.293 12.7783 21.375 13.124Q21.4219 13.2939 21.4512 13.3291Q21.4863 13.3643 21.6738 13.3643Q22.4766 13.3643 22.7402 13.3408Q23.1855 13.2939 23.3906 13.1123ZM22.9629 4.03027L22.9629 6.03418L18.4277 6.03418L18.4277 4.03027L22.9629 4.03027ZM4.24219 12.6318L3.28125 12.6318L3.28125 5.37207Q3.16992 5.4834 2.95605 5.62695Q2.74219 5.77051 2.47559 5.91113Q2.20898 6.05176 1.91309 6.1748Q1.61719 6.29785 1.33594 6.36816L1.33594 5.39551Q1.65234 5.30762 2.00684 5.1582Q2.36133 5.00879 2.7041 4.82422Q3.04688 4.63965 3.35156 4.4375Q3.65625 4.23535 3.87891 4.04199L4.24219 4.04199L4.24219 12.6318ZM8.98828 7.25293Q8.54883 8.54199 7.74023 9.65527L6.99609 9.27441Q8.28516 7.66895 8.67773 4.79785L9.53906 4.9502Q9.41602 5.75293 9.2168 6.48535L13.957 6.48535L13.957 7.25293L11.9063 7.25293Q11.8887 9.19238 11.6074 10.2471Q11.332 11.3018 10.6641 11.9814Q10.1133 12.5381 8.88281 13.2178L8.2793 12.5732Q9.42773 12.0049 9.92578 11.5244Q10.5234 10.9443 10.7637 9.98926Q10.998 9.05762 11.0156 7.25293L8.98828 7.25293ZM22.9629 6.70801L22.9629 8.77051L18.3398 8.77051Q18.4043 7.95606 18.4277 6.70801L22.9629 6.70801Z" />
        </g>
        <g id="1週間" fill="#00B9F5" transform="translate(49 9)">
          <path d="M22.5293 6.7959L23.7305 6.81934Q23.8242 6.81934 23.8242 6.72559L23.8008 5.62402L23.8008 4.3291L23.8242 3.22168Q23.8242 3.12793 23.7305 3.12793L22.5293 3.15137L21.123 3.15137L19.7637 3.12793Q19.6699 3.12793 19.6699 3.22168L19.6934 5.74121L19.6934 10.8154L19.6699 13.3115Q19.6699 13.4053 19.7637 13.4053L20.332 13.4053Q20.4258 13.4053 20.4258 13.3115L20.4023 10.8154L20.4023 6.7959L22.5293 6.7959ZM28.9688 13.0127Q29.2793 12.7666 29.2793 12.0986L29.2441 10.3877L29.2441 4.93848L29.2676 3.22168Q29.2676 3.12793 29.1738 3.12793L27.873 3.15137L26.3496 3.15137L25.0547 3.12793Q24.9492 3.12793 24.9492 3.22168L24.9727 4.25293L24.9727 5.69434L24.9492 6.72559Q24.9492 6.81934 25.0547 6.81934L26.3496 6.7959L28.5352 6.7959L28.5352 11.9697Q28.5352 12.3096 28.4355 12.4209Q28.3184 12.5439 27.9023 12.5439Q27.3926 12.5439 26.9766 12.4971Q27.1113 12.7197 27.1934 13.0244Q27.2344 13.1885 27.2637 13.2178Q27.2988 13.2529 27.4688 13.2529Q28.1484 13.2529 28.4473 13.2119Q28.7871 13.165 28.9688 13.0127ZM9.44531 4.86816Q9.47461 4.90918 9.47461 4.93262Q9.47461 4.97363 9.36328 5.06152L9.06445 5.29004Q8.9707 5.35449 8.92969 5.35449Q8.88867 5.35449 8.84766 5.28418Q8.26172 4.30567 7.54102 3.58496Q7.49414 3.53809 7.49414 3.50879Q7.49414 3.47363 7.59961 3.40332L7.875 3.20996Q7.95703 3.15723 7.98633 3.15723Q8.01563 3.15723 8.08008 3.20996Q8.7832 3.88379 9.44531 4.86816ZM17.1973 10.7627Q17.1973 11.3135 16.8867 11.5537Q16.623 11.7471 15.4922 11.7471Q15.293 11.7471 15.252 11.7119Q15.2168 11.6826 15.1934 11.5303Q15.1465 11.249 15.0117 11.0029Q15.5156 11.0557 15.8555 11.0557Q15.9551 11.0557 16.0313 11.0498Q16.4766 11.0498 16.4766 10.6338L16.4766 3.95996L11.4492 3.95996L11.4492 5.45996Q11.4492 7.79199 11.3555 8.66504Q11.168 10.4287 10.5586 11.46Q10.4707 11.6064 10.4414 11.6064Q10.3945 11.6064 10.2598 11.4717Q10.0605 11.2725 9.81445 11.1611Q10.4766 10.2764 10.6582 8.53027Q10.752 7.52246 10.752 5.20801L10.752 4.47559L10.7285 3.3916Q10.7285 3.29785 10.8223 3.29785L12.457 3.32129L15.4688 3.32129L17.0977 3.29785Q17.1973 3.29785 17.1973 3.3916L17.1738 4.47559L17.1738 9.08105L17.1973 10.7627ZM23.1152 3.7373L23.1152 4.6748L20.4023 4.6748L20.4023 3.7373L23.1152 3.7373ZM28.5352 3.7373L28.5352 4.6748L25.6582 4.6748L25.6582 3.7373L28.5352 3.7373ZM4.24219 12.6318L3.28125 12.6318L3.28125 5.37207Q3.16992 5.4834 2.95605 5.62695Q2.74219 5.77051 2.47559 5.91113Q2.20898 6.05176 1.91309 6.1748Q1.61719 6.29785 1.33594 6.36816L1.33594 5.39551Q1.65234 5.30762 2.00684 5.1582Q2.36133 5.00879 2.7041 4.82422Q3.04688 4.63965 3.35156 4.4375Q3.65625 4.23535 3.87891 4.04199L4.24219 4.04199L4.24219 12.6318ZM16.0957 7.27051Q16.0957 7.36426 16.002 7.36426L14.7773 7.34082L13.166 7.34082L11.918 7.36426Q11.8242 7.36426 11.8242 7.27051L11.8242 6.84863Q11.8242 6.75488 11.918 6.75488L13.166 6.77832L13.5996 6.77832L13.5996 5.80566L13.2656 5.80566L12.1699 5.8291Q12.123 5.8291 12.0996 5.80566Q12.0762 5.78223 12.0762 5.73535L12.0762 5.31348Q12.0762 5.2666 12.0996 5.24316Q12.123 5.21973 12.1699 5.21973L13.2656 5.24316L13.5996 5.24316L13.5996 5.0498Q13.5996 4.52832 13.5293 4.25879Q13.8574 4.27051 14.209 4.31738Q14.332 4.33496 14.332 4.41113Q14.332 4.46973 14.2852 4.56934Q14.2207 4.68652 14.2207 5.01465L14.2207 5.24316L14.5957 5.24316L15.6387 5.21973Q15.75 5.21973 15.75 5.31348L15.75 5.73535Q15.75 5.8291 15.6387 5.8291L14.5957 5.80566L14.2207 5.80566L14.2207 6.77832L14.7773 6.77832L16.002 6.75488Q16.0957 6.75488 16.0957 6.84863L16.0957 7.27051ZM20.4023 5.24902L23.1152 5.24902L23.1152 6.22168L20.4023 6.22168L20.4023 5.24902ZM25.6582 5.24902L28.5352 5.24902L28.5352 6.22168L25.6582 6.22168L25.6582 5.24902ZM18.0879 12.2627Q17.9531 12.4561 17.8711 12.8018Q17.8477 12.9834 17.8066 13.0186Q17.7715 13.042 17.5957 13.0479Q15.3281 13.2061 13.2422 13.2061Q11.1914 13.2061 10.3008 12.7959Q9.52148 12.4443 9.14648 11.6357Q8.60742 12.251 7.96289 12.8018Q7.72266 13.0127 7.69336 13.0654Q7.64648 13.1592 7.57617 13.1592Q7.50586 13.1592 7.42969 13.0537Q7.25391 12.7842 7.08398 12.4268Q7.42383 12.251 7.80469 11.958Q8.29102 11.583 8.80078 11.0264L8.80078 8.03809L8.00977 8.03809L7.21875 8.06152Q7.17446 8.06152 7.14987 8.03952Q7.11914 8.01203 7.11914 7.9502L7.11914 7.43457Q7.11914 7.34082 7.21875 7.34082L8.00977 7.36426L8.60742 7.36426L9.42188 7.34082Q9.52148 7.34082 9.52148 7.43457L9.49805 8.56543L9.49805 11.0615Q9.82031 11.8291 10.5762 12.1982Q11.3438 12.5088 12.9668 12.5088Q15.4219 12.5088 18.0879 12.2627ZM26.3555 12.3682Q26.4551 12.3682 26.4551 12.2744L26.4316 10.2002L26.4316 9.09277L26.4551 7.87988Q26.4551 7.78613 26.3613 7.78613L25.1074 7.80957L23.7188 7.80957L22.4648 7.78613Q22.3711 7.78613 22.3711 7.87988L22.3945 9.27441L22.3945 10.2822L22.3711 12.3916Q22.3711 12.5029 22.4707 12.5029L22.9629 12.5029Q23.0566 12.5029 23.0566 12.3916L23.0566 11.7705L25.7695 11.7705L25.7695 12.2744Q25.7695 12.3682 25.8633 12.3682L26.3555 12.3682ZM15.5332 10.4111Q15.5332 10.5049 15.4336 10.5049L14.3906 10.4814L13.4297 10.4814L12.3809 10.5049Q12.334 10.5049 12.3105 10.4814Q12.2871 10.458 12.2871 10.4111L12.3105 9.62012L12.3105 8.98145L12.2871 8.19043Q12.2871 8.14355 12.3105 8.12012Q12.334 8.09668 12.3809 8.09668L13.4297 8.12012L14.4023 8.12012L15.4336 8.09668Q15.5332 8.09668 15.5332 8.19043L15.5039 8.98145L15.5039 9.62012L15.5332 10.4111ZM25.7695 8.38379L25.7695 9.47949L23.0566 9.47949L23.0566 8.38379L25.7695 8.38379ZM14.8828 9.93066L14.8828 8.65918L12.9375 8.65918L12.9375 9.93066L14.8828 9.93066ZM25.7695 10.042L25.7695 11.1963L23.0566 11.1963L23.0566 10.042L25.7695 10.042Z" />
        </g>
        <g id="6ヶ月" fill="#00B9F5" transform="translate(233.9805 9)">
          <path d="M23.3906 13.1123Q23.7305 12.7959 23.7305 12.2275L23.707 10.3174L23.707 4.99121L23.7305 3.41504Q23.7305 3.32129 23.6309 3.32129L22.0605 3.34473L19.3242 3.34473L17.7539 3.32129Q17.6602 3.32129 17.6602 3.41504L17.6836 4.99121L17.6836 6.45605Q17.6836 9.06348 17.332 10.3232Q16.9219 11.7939 15.5449 13.0654Q15.8145 13.1475 16.0605 13.3408Q16.2188 13.458 16.2539 13.458Q16.2949 13.458 16.4063 13.3291Q17.1914 12.5205 17.5898 11.7529Q18.082 10.8154 18.2695 9.44434L22.9629 9.44434L22.9629 12.0693Q22.9629 12.6201 22.418 12.6201Q21.8613 12.6201 21.1582 12.5615Q21.293 12.7783 21.375 13.124Q21.4219 13.2939 21.4512 13.3291Q21.4863 13.3643 21.6738 13.3643Q22.4766 13.3643 22.7402 13.3408Q23.1855 13.2939 23.3906 13.1123ZM22.9629 4.03027L22.9629 6.03418L18.4277 6.03418L18.4277 4.03027L22.9629 4.03027ZM5.98828 9.96582Q5.98828 10.5811 5.78906 11.0967Q5.58984 11.6123 5.23828 11.9873Q4.88672 12.3623 4.40039 12.5703Q3.91406 12.7783 3.3457 12.7783Q2.71289 12.7783 2.21191 12.5146Q1.71094 12.251 1.3623 11.7559Q1.01367 11.2607 0.832031 10.5459Q0.650391 9.83105 0.650391 8.93457Q0.650391 7.83887 0.893555 6.94531Q1.13672 6.05176 1.58496 5.41602Q2.0332 4.78027 2.66602 4.43457Q3.29883 4.08887 4.07813 4.08887Q4.94531 4.08887 5.47266 4.3291L5.47266 5.2373Q4.82227 4.90332 4.10156 4.90332Q3.53906 4.90332 3.08789 5.15527Q2.63672 5.40723 2.31445 5.86719Q1.99219 6.32715 1.81934 6.97754Q1.64648 7.62793 1.64648 8.4248L1.66992 8.4248Q2.25 7.37598 3.58594 7.37598Q4.13672 7.37598 4.5791 7.56348Q5.02148 7.75098 5.33496 8.09375Q5.64844 8.43652 5.81836 8.91113Q5.98828 9.38574 5.98828 9.96582ZM8.98828 7.25293Q8.54883 8.54199 7.74023 9.65527L6.99609 9.27441Q8.28516 7.66895 8.67773 4.79785L9.53906 4.9502Q9.41602 5.75293 9.2168 6.48535L13.957 6.48535L13.957 7.25293L11.9063 7.25293Q11.8887 9.19238 11.6074 10.2471Q11.332 11.3018 10.6641 11.9814Q10.1133 12.5381 8.88281 13.2178L8.2793 12.5732Q9.42773 12.0049 9.92578 11.5244Q10.5234 10.9443 10.7637 9.98926Q10.998 9.05762 11.0156 7.25293L8.98828 7.25293ZM22.9629 6.70801L22.9629 8.77051L18.3398 8.77051Q18.4043 7.95606 18.4277 6.70801L22.9629 6.70801ZM5.00391 10.0889Q5.00391 9.64941 4.89258 9.29785Q4.78125 8.94629 4.57324 8.7002Q4.36523 8.4541 4.06055 8.32227Q3.75586 8.19043 3.36914 8.19043Q3.01172 8.19043 2.70703 8.3252Q2.40234 8.45996 2.17969 8.69141Q1.95703 8.92285 1.83105 9.23047Q1.70508 9.53809 1.70508 9.88379Q1.70508 10.3174 1.82813 10.6953Q1.95117 11.0732 2.17383 11.3545Q2.39648 11.6357 2.7041 11.7969Q3.01172 11.958 3.38672 11.958Q3.75 11.958 4.04883 11.8203Q4.34766 11.6826 4.55859 11.4365Q4.76953 11.1904 4.88672 10.8477Q5.00391 10.5049 5.00391 10.0889Z" />
        </g>
        <g id="3ヶ月" fill="#00B9F5" transform="translate(172.9805 9)">
          <path d="M23.3906 13.1123Q23.7305 12.7959 23.7305 12.2275L23.707 10.3174L23.707 4.99121L23.7305 3.41504Q23.7305 3.32129 23.6309 3.32129L22.0605 3.34473L19.3242 3.34473L17.7539 3.32129Q17.6602 3.32129 17.6602 3.41504L17.6836 4.99121L17.6836 6.45605Q17.6836 9.06348 17.332 10.3232Q16.9219 11.7939 15.5449 13.0654Q15.8145 13.1475 16.0605 13.3408Q16.2188 13.458 16.2539 13.458Q16.2949 13.458 16.4063 13.3291Q17.1914 12.5205 17.5898 11.7529Q18.082 10.8154 18.2695 9.44434L22.9629 9.44434L22.9629 12.0693Q22.9629 12.6201 22.418 12.6201Q21.8613 12.6201 21.1582 12.5615Q21.293 12.7783 21.375 13.124Q21.4219 13.2939 21.4512 13.3291Q21.4863 13.3643 21.6738 13.3643Q22.4766 13.3643 22.7402 13.3408Q23.1855 13.2939 23.3906 13.1123ZM22.9629 4.03027L22.9629 6.03418L18.4277 6.03418L18.4277 4.03027L22.9629 4.03027ZM5.58398 10.2529Q5.58398 10.8213 5.37012 11.2871Q5.15625 11.7529 4.7666 12.084Q4.37695 12.415 3.83203 12.5967Q3.28711 12.7783 2.63086 12.7783Q1.42969 12.7783 0.720703 12.3213L0.720703 11.29Q1.57031 11.958 2.66602 11.958Q3.10547 11.958 3.45996 11.8467Q3.81445 11.7354 4.06934 11.5244Q4.32422 11.3135 4.46191 11.0146Q4.59961 10.7158 4.59961 10.3408Q4.59961 8.69434 2.25586 8.69434L1.55859 8.69434L1.55859 7.87988L2.2207 7.87988Q4.29492 7.87988 4.29492 6.33301Q4.29492 4.90332 2.71289 4.90332Q1.82227 4.90332 1.04297 5.50098L1.04297 4.56934Q1.8457 4.08887 2.95313 4.08887Q3.48047 4.08887 3.9082 4.23535Q4.33594 4.38184 4.64063 4.64551Q4.94531 4.90918 5.1123 5.27832Q5.2793 5.64746 5.2793 6.09277Q5.2793 7.75098 3.60352 8.22559L3.60352 8.24902Q4.03125 8.2959 4.39453 8.45703Q4.75781 8.61816 5.02148 8.87598Q5.28516 9.13379 5.43457 9.48242Q5.58398 9.83105 5.58398 10.2529ZM8.98828 7.25293Q8.54883 8.54199 7.74023 9.65527L6.99609 9.27441Q8.28516 7.66895 8.67773 4.79785L9.53906 4.9502Q9.41602 5.75293 9.2168 6.48535L13.957 6.48535L13.957 7.25293L11.9063 7.25293Q11.8887 9.19238 11.6074 10.2471Q11.332 11.3018 10.6641 11.9814Q10.1133 12.5381 8.88281 13.2178L8.2793 12.5732Q9.42773 12.0049 9.92578 11.5244Q10.5234 10.9443 10.7637 9.98926Q10.998 9.05762 11.0156 7.25293L8.98828 7.25293ZM22.9629 6.70801L22.9629 8.77051L18.3398 8.77051Q18.4043 7.95606 18.4277 6.70801L22.9629 6.70801Z" />
        </g>
        <g id="1年" fill="#00B9F5" transform="translate(293 9)">
          <path d="M17.5664 10.6514Q17.6602 10.6514 17.6602 10.5576L17.6602 10.0127Q17.6602 9.91895 17.5664 9.91895L15.9961 9.94238L13.2949 9.94238L13.2949 7.72754L14.748 7.72754L16.4121 7.75098Q16.5 7.75098 16.5 7.65723L16.5 7.13574Q16.5 7.04199 16.4121 7.04199L14.748 7.06543L13.2949 7.06543L13.2949 5.08496L15.2637 5.08496L16.9336 5.1084Q16.9805 5.1084 17.0039 5.08496Q17.0273 5.06152 17.0273 5.01465L17.0273 4.49316Q17.0273 4.39941 16.9336 4.39941L15.2637 4.42285L10.2129 4.42285Q10.3535 4.1709 10.6172 3.64355Q10.7754 3.32129 10.9219 3.20996Q11.0273 3.12207 11.0273 3.0459Q11.0273 2.94043 10.9102 2.8877Q10.4707 2.73535 10.166 2.65918Q10.1133 2.99316 9.91406 3.4502Q9.11719 5.19629 7.55859 6.6084Q7.79883 6.72559 7.96875 6.93066Q8.0918 7.07715 8.13281 7.07715Q8.17969 7.07715 8.29102 6.94824Q9.1582 6.0752 9.81445 5.08496L12.5508 5.08496L12.5508 7.06543L11.0156 7.06543L9.33398 7.04199Q9.24023 7.04199 9.24023 7.13574L9.26367 8.18457L9.26367 9.94238L8.90625 9.94238L7.33008 9.91895Q7.23633 9.91895 7.23633 10.0127L7.23633 10.5576Q7.23633 10.6514 7.33008 10.6514L8.90625 10.6279L12.5508 10.6279L12.5508 11.4307L12.5273 13.4111Q12.5273 13.4932 12.6328 13.4932L13.2363 13.4932Q13.3184 13.4932 13.3184 13.4111L13.2949 11.4307L13.2949 10.6279L15.9961 10.6279L17.5664 10.6514ZM3.28125 12.6318L4.24219 12.6318L4.24219 4.04199L3.87891 4.04199Q3.65625 4.23535 3.35156 4.4375Q3.04688 4.63965 2.7041 4.82422Q2.36133 5.00879 2.00684 5.1582Q1.65234 5.30762 1.33594 5.39551L1.33594 6.36816Q1.61719 6.29785 1.91309 6.1748Q2.20898 6.05176 2.47559 5.91113Q2.74219 5.77051 2.95605 5.62695Q3.16992 5.4834 3.28125 5.37207L3.28125 12.6318ZM12.5508 7.72754L12.5508 9.94238L9.99609 9.94238L9.99609 7.72754L12.5508 7.72754Z" />
        </g>
      </g>
    </g>
    <g id="12/1" transform="translate(23 124)">
      <g id="1" fill="#909090">
        <path d="M4.24219 12.6318L3.28125 12.6318L3.28125 5.37207Q3.16992 5.4834 2.95605 5.62695Q2.74219 5.77051 2.47559 5.91113Q2.20898 6.05176 1.91309 6.1748Q1.61719 6.29785 1.33594 6.36816L1.33594 5.39551Q1.65234 5.30762 2.00684 5.1582Q2.36133 5.00879 2.7041 4.82422Q3.04688 4.63965 3.35156 4.4375Q3.65625 4.23535 3.87891 4.04199L4.24219 4.04199L4.24219 12.6318Z" />
      </g>
      <g id="2/1" fill="#909090">
        <path d="M20.8945 12.6318L21.8555 12.6318L21.8555 4.04199L21.4922 4.04199Q21.2695 4.23535 20.9648 4.4375Q20.6602 4.63965 20.3174 4.82422Q19.9746 5.00879 19.6201 5.1582Q19.2656 5.30762 18.9492 5.39551L18.9492 6.36816Q19.2305 6.29785 19.5264 6.1748Q19.8223 6.05176 20.0889 5.91113Q20.3555 5.77051 20.5693 5.62695Q20.7832 5.4834 20.8945 5.37207L20.8945 12.6318ZM10.9922 6.43262Q10.9922 6.0459 10.8721 5.75879Q10.752 5.47168 10.5439 5.28125Q10.3359 5.09082 10.0547 4.99707Q9.77344 4.90332 9.44531 4.90332Q9.16406 4.90332 8.89453 4.97949Q8.625 5.05567 8.37012 5.19043Q8.11523 5.3252 7.87793 5.5127Q7.64063 5.7002 7.43555 5.92871L7.43555 4.89746Q7.83984 4.50488 8.34082 4.29688Q8.8418 4.08887 9.5625 4.08887Q10.0781 4.08887 10.5176 4.23828Q10.957 4.3877 11.2793 4.6748Q11.6016 4.96192 11.7861 5.38379Q11.9707 5.80566 11.9707 6.35059Q11.9707 6.84863 11.8564 7.25293Q11.7422 7.65723 11.5107 8.01465Q11.2793 8.37207 10.9277 8.7002Q10.5762 9.02832 10.1016 9.36816Q9.50977 9.79004 9.12598 10.0889Q8.74219 10.3877 8.5166 10.6484Q8.29102 10.9092 8.2002 11.1699Q8.10938 11.4307 8.10938 11.7705L12.293 11.7705L12.293 12.6318L7.10742 12.6318L7.10742 12.2158Q7.10742 11.6768 7.22461 11.2666Q7.3418 10.8564 7.61133 10.4873Q7.88086 10.1182 8.31738 9.74902Q8.75391 9.37988 9.38672 8.91699Q9.84375 8.58887 10.1514 8.29004Q10.459 7.99121 10.6465 7.69238Q10.834 7.39356 10.9131 7.08594Q10.9922 6.77832 10.9922 6.43262ZM17.7012 4.22949L13.6699 14.0264L12.7734 14.0264L16.793 4.22949L17.7012 4.22949Z" />
      </g>
    </g>
    <g id="500" fill="#909090" transform="translate(5 58.00153)">
      <path d="M10.3711 6.82959Q10.3711 7.7085 10.2124 8.38721Q10.0537 9.06592 9.75342 9.53223Q9.45313 9.99854 9.01611 10.2402Q8.5791 10.4819 8.02246 10.4819Q7.49512 10.4819 7.08252 10.25Q6.66992 10.0181 6.38672 9.57373Q6.10352 9.12939 5.95703 8.48242Q5.81055 7.83545 5.81055 7.00049Q5.81055 6.08252 5.96436 5.37939Q6.11816 4.67627 6.41602 4.2002Q6.71387 3.72412 7.15576 3.48242Q7.59766 3.24072 8.16895 3.24072Q10.3711 3.24072 10.3711 6.82959ZM15.603 8.38721Q15.7617 7.7085 15.7617 6.82959Q15.7617 3.24072 13.5596 3.24072Q12.9883 3.24072 12.5464 3.48242Q12.1045 3.72412 11.8066 4.2002Q11.5088 4.67627 11.355 5.37939Q11.2012 6.08252 11.2012 7.00049Q11.2012 7.83545 11.3477 8.48242Q11.4941 9.12939 11.7773 9.57373Q12.0605 10.0181 12.4731 10.25Q12.8857 10.4819 13.4131 10.4819Q13.9697 10.4819 14.4067 10.2402Q14.8438 9.99854 15.144 9.53223Q15.4443 9.06592 15.603 8.38721ZM4.73145 8.22119Q4.73144 8.73389 4.55566 9.14893Q4.37988 9.56396 4.05518 9.86182Q3.73047 10.1597 3.27148 10.3208Q2.8125 10.4819 2.25098 10.4819Q1.27441 10.4819 0.800781 10.189L0.800781 9.33936Q1.51367 9.79834 2.26074 9.79834Q2.6416 9.79834 2.94678 9.68604Q3.25195 9.57373 3.4668 9.37354Q3.68164 9.17334 3.79639 8.89014Q3.91113 8.60693 3.91113 8.27002Q3.91113 7.58643 3.45215 7.19824Q2.99316 6.81006 2.11914 6.81006Q1.97754 6.81006 1.82129 6.81494Q1.66504 6.81982 1.50879 6.82715Q1.35254 6.83447 1.20361 6.84424Q1.05469 6.854 0.932617 6.86865L1.17188 3.35791L4.40918 3.35791L4.40918 4.08057L1.86523 4.08057L1.72363 6.13623Q1.87988 6.12647 2.05566 6.11914Q2.23145 6.11182 2.36816 6.11182Q2.9248 6.11182 3.36426 6.2583Q3.80371 6.40479 4.10889 6.67578Q4.41406 6.94678 4.57275 7.33984Q4.73144 7.73291 4.73145 8.22119ZM9.55078 6.90771Q9.55078 3.91943 8.12988 3.91943Q6.63086 3.91943 6.63086 6.96143Q6.63086 9.79834 8.10059 9.79834Q9.55078 9.79834 9.55078 6.90771ZM13.5205 3.91943Q14.9414 3.91943 14.9414 6.90771Q14.9414 9.79834 13.4912 9.79834Q12.0215 9.79834 12.0215 6.96143Q12.0215 3.91943 13.5205 3.91943Z" />
    </g>
    <g id="1000" fill="#909090" transform="translate(0 5.001526)">
      <path d="M2.73438 10.3599L3.53516 10.3599L3.53516 3.20166L3.23242 3.20166Q3.04687 3.36279 2.79297 3.53125Q2.53906 3.69971 2.25342 3.85352Q1.96777 4.00732 1.67236 4.13184Q1.37695 4.25635 1.11328 4.32959L1.11328 5.14014Q1.34766 5.08154 1.59424 4.979Q1.84082 4.87646 2.06299 4.75928Q2.28516 4.64209 2.46338 4.52246Q2.6416 4.40283 2.73438 4.31006L2.73438 10.3599ZM10.2124 8.38721Q10.3711 7.7085 10.3711 6.82959Q10.3711 3.24072 8.16895 3.24072Q7.59766 3.24072 7.15576 3.48242Q6.71387 3.72412 6.41602 4.2002Q6.11816 4.67627 5.96436 5.37939Q5.81055 6.08252 5.81055 7.00049Q5.81055 7.83545 5.95703 8.48242Q6.10352 9.12939 6.38672 9.57373Q6.66992 10.0181 7.08252 10.25Q7.49512 10.4819 8.02246 10.4819Q8.5791 10.4819 9.01611 10.2402Q9.45313 9.99854 9.75342 9.53223Q10.0537 9.06592 10.2124 8.38721ZM15.7617 6.82959Q15.7617 7.7085 15.603 8.38721Q15.4443 9.06592 15.144 9.53223Q14.8438 9.99854 14.4067 10.2402Q13.9697 10.4819 13.4131 10.4819Q12.8857 10.4819 12.4731 10.25Q12.0605 10.0181 11.7773 9.57373Q11.4941 9.12939 11.3477 8.48242Q11.2012 7.83545 11.2012 7.00049Q11.2012 6.08252 11.355 5.37939Q11.5088 4.67627 11.8066 4.2002Q12.1045 3.72412 12.5464 3.48242Q12.9883 3.24072 13.5596 3.24072Q15.7617 3.24072 15.7617 6.82959ZM20.9937 8.38721Q21.1523 7.7085 21.1523 6.82959Q21.1523 3.24072 18.9502 3.24072Q18.3789 3.24072 17.937 3.48242Q17.4951 3.72412 17.1973 4.2002Q16.8994 4.67627 16.7456 5.37939Q16.5918 6.08252 16.5918 7.00049Q16.5918 7.83545 16.7383 8.48242Q16.8848 9.12939 17.168 9.57373Q17.4512 10.0181 17.8638 10.25Q18.2764 10.4819 18.8037 10.4819Q19.3604 10.4819 19.7974 10.2402Q20.2344 9.99854 20.5347 9.53223Q20.835 9.06592 20.9937 8.38721ZM8.12988 3.91943Q9.55078 3.91943 9.55078 6.90771Q9.55078 9.79834 8.10059 9.79834Q6.63086 9.79834 6.63086 6.96143Q6.63086 3.91943 8.12988 3.91943ZM14.9414 6.90771Q14.9414 3.91943 13.5205 3.91943Q12.0215 3.91943 12.0215 6.96143Q12.0215 9.79834 13.4912 9.79834Q14.9414 9.79834 14.9414 6.90771ZM18.9111 3.91943Q20.332 3.91943 20.332 6.90771Q20.332 9.79834 18.8818 9.79834Q17.4121 9.79834 17.4121 6.96143Q17.4121 3.91943 18.9111 3.91943Z" />
    </g>
    <g id="12/11" fill="#909090" transform="translate(111.2246 124)">
      <path d="M4.24219 12.6318L3.28125 12.6318L3.28125 5.37207Q3.16992 5.4834 2.95605 5.62695Q2.74219 5.77051 2.47559 5.91113Q2.20898 6.05176 1.91309 6.1748Q1.61719 6.29785 1.33594 6.36816L1.33594 5.39551Q1.65234 5.30762 2.00684 5.1582Q2.36133 5.00879 2.7041 4.82422Q3.04688 4.63965 3.35156 4.4375Q3.65625 4.23535 3.87891 4.04199L4.24219 4.04199L4.24219 12.6318ZM21.8555 12.6318L20.8945 12.6318L20.8945 5.37207Q20.7832 5.4834 20.5693 5.62695Q20.3555 5.77051 20.0889 5.91113Q19.8223 6.05176 19.5264 6.1748Q19.2305 6.29785 18.9492 6.36816L18.9492 5.39551Q19.2656 5.30762 19.6201 5.1582Q19.9746 5.00879 20.3174 4.82422Q20.6602 4.63965 20.9648 4.4375Q21.2695 4.23535 21.4922 4.04199L21.8555 4.04199L21.8555 12.6318ZM27.3633 12.6318L28.3242 12.6318L28.3242 4.04199L27.9609 4.04199Q27.7383 4.23535 27.4336 4.4375Q27.1289 4.63965 26.7861 4.82422Q26.4434 5.00879 26.0889 5.1582Q25.7344 5.30762 25.418 5.39551L25.418 6.36816Q25.6992 6.29785 25.9951 6.1748Q26.291 6.05176 26.5576 5.91113Q26.8242 5.77051 27.0381 5.62695Q27.252 5.4834 27.3633 5.37207L27.3633 12.6318ZM10.9922 6.43262Q10.9922 6.0459 10.8721 5.75879Q10.752 5.47168 10.5439 5.28125Q10.3359 5.09082 10.0547 4.99707Q9.77344 4.90332 9.44531 4.90332Q9.16406 4.90332 8.89453 4.97949Q8.625 5.05567 8.37012 5.19043Q8.11523 5.3252 7.87793 5.5127Q7.64063 5.7002 7.43555 5.92871L7.43555 4.89746Q7.83984 4.50488 8.34082 4.29688Q8.8418 4.08887 9.5625 4.08887Q10.0781 4.08887 10.5176 4.23828Q10.957 4.3877 11.2793 4.6748Q11.6016 4.96192 11.7861 5.38379Q11.9707 5.80566 11.9707 6.35059Q11.9707 6.84863 11.8564 7.25293Q11.7422 7.65723 11.5107 8.01465Q11.2793 8.37207 10.9277 8.7002Q10.5762 9.02832 10.1016 9.36816Q9.50977 9.79004 9.12598 10.0889Q8.74219 10.3877 8.5166 10.6484Q8.29102 10.9092 8.2002 11.1699Q8.10938 11.4307 8.10938 11.7705L12.293 11.7705L12.293 12.6318L7.10742 12.6318L7.10742 12.2158Q7.10742 11.6768 7.22461 11.2666Q7.3418 10.8564 7.61133 10.4873Q7.88086 10.1182 8.31738 9.74902Q8.75391 9.37988 9.38672 8.91699Q9.84375 8.58887 10.1514 8.29004Q10.459 7.99121 10.6465 7.69238Q10.834 7.39356 10.9131 7.08594Q10.9922 6.77832 10.9922 6.43262ZM13.6699 14.0264L17.7012 4.22949L16.793 4.22949L12.7734 14.0264L13.6699 14.0264Z" />
    </g>
    <g id="12/21" fill="#909090" transform="translate(209.7246 124)">
      <path d="M4.24219 12.6318L3.28125 12.6318L3.28125 5.37207Q3.16992 5.4834 2.95605 5.62695Q2.74219 5.77051 2.47559 5.91113Q2.20898 6.05176 1.91309 6.1748Q1.61719 6.29785 1.33594 6.36816L1.33594 5.39551Q1.65234 5.30762 2.00684 5.1582Q2.36133 5.00879 2.7041 4.82422Q3.04688 4.63965 3.35156 4.4375Q3.65625 4.23535 3.87891 4.04199L4.24219 4.04199L4.24219 12.6318ZM27.3633 12.6318L28.3242 12.6318L28.3242 4.04199L27.9609 4.04199Q27.7383 4.23535 27.4336 4.4375Q27.1289 4.63965 26.7861 4.82422Q26.4434 5.00879 26.0889 5.1582Q25.7344 5.30762 25.418 5.39551L25.418 6.36816Q25.6992 6.29785 25.9951 6.1748Q26.291 6.05176 26.5576 5.91113Q26.8242 5.77051 27.0381 5.62695Q27.252 5.4834 27.3633 5.37207L27.3633 12.6318ZM10.9922 6.43262Q10.9922 6.0459 10.8721 5.75879Q10.752 5.47168 10.5439 5.28125Q10.3359 5.09082 10.0547 4.99707Q9.77344 4.90332 9.44531 4.90332Q9.16406 4.90332 8.89453 4.97949Q8.625 5.05567 8.37012 5.19043Q8.11523 5.3252 7.87793 5.5127Q7.64063 5.7002 7.43555 5.92871L7.43555 4.89746Q7.83984 4.50488 8.34082 4.29688Q8.8418 4.08887 9.5625 4.08887Q10.0781 4.08887 10.5176 4.23828Q10.957 4.3877 11.2793 4.6748Q11.6016 4.96192 11.7861 5.38379Q11.9707 5.80566 11.9707 6.35059Q11.9707 6.84863 11.8564 7.25293Q11.7422 7.65723 11.5107 8.01465Q11.2793 8.37207 10.9277 8.7002Q10.5762 9.02832 10.1016 9.36816Q9.50977 9.79004 9.12598 10.0889Q8.74219 10.3877 8.5166 10.6484Q8.29102 10.9092 8.2002 11.1699Q8.10938 11.4307 8.10938 11.7705L12.293 11.7705L12.293 12.6318L7.10742 12.6318L7.10742 12.2158Q7.10742 11.6768 7.22461 11.2666Q7.3418 10.8564 7.61133 10.4873Q7.88086 10.1182 8.31738 9.74902Q8.75391 9.37988 9.38672 8.91699Q9.84375 8.58887 10.1514 8.29004Q10.459 7.99121 10.6465 7.69238Q10.834 7.39356 10.9131 7.08594Q10.9922 6.77832 10.9922 6.43262ZM22.1367 6.43262Q22.1367 6.0459 22.0166 5.75879Q21.8965 5.47168 21.6885 5.28125Q21.4805 5.09082 21.1992 4.99707Q20.918 4.90332 20.5898 4.90332Q20.3086 4.90332 20.0391 4.97949Q19.7695 5.05567 19.5146 5.19043Q19.2598 5.3252 19.0225 5.5127Q18.7852 5.7002 18.5801 5.92871L18.5801 4.89746Q18.9844 4.50488 19.4854 4.29688Q19.9863 4.08887 20.707 4.08887Q21.2227 4.08887 21.6621 4.23828Q22.1016 4.3877 22.4238 4.6748Q22.7461 4.96192 22.9307 5.38379Q23.1152 5.80566 23.1152 6.35059Q23.1152 6.84863 23.001 7.25293Q22.8867 7.65723 22.6553 8.01465Q22.4238 8.37207 22.0723 8.7002Q21.7207 9.02832 21.2461 9.36816Q20.6543 9.79004 20.2705 10.0889Q19.8867 10.3877 19.6611 10.6484Q19.4355 10.9092 19.3447 11.1699Q19.2539 11.4307 19.2539 11.7705L23.4375 11.7705L23.4375 12.6318L18.252 12.6318L18.252 12.2158Q18.252 11.6768 18.3691 11.2666Q18.4863 10.8564 18.7559 10.4873Q19.0254 10.1182 19.4619 9.74902Q19.8984 9.37988 20.5313 8.91699Q20.9883 8.58887 21.2959 8.29004Q21.6035 7.99121 21.791 7.69238Q21.9785 7.39356 22.0576 7.08594Q22.1367 6.77832 22.1367 6.43262ZM13.6699 14.0264L17.7012 4.22949L16.793 4.22949L12.7734 14.0264L13.6699 14.0264Z" />
    </g>
    <g id="12/31" fill="#909090" transform="translate(308.7246 124)">
      <path d="M4.24219 12.6318L3.28125 12.6318L3.28125 5.37207Q3.16992 5.4834 2.95605 5.62695Q2.74219 5.77051 2.47559 5.91113Q2.20898 6.05176 1.91309 6.1748Q1.61719 6.29785 1.33594 6.36816L1.33594 5.39551Q1.65234 5.30762 2.00684 5.1582Q2.36133 5.00879 2.7041 4.82422Q3.04688 4.63965 3.35156 4.4375Q3.65625 4.23535 3.87891 4.04199L4.24219 4.04199L4.24219 12.6318ZM27.3633 12.6318L28.3242 12.6318L28.3242 4.04199L27.9609 4.04199Q27.7383 4.23535 27.4336 4.4375Q27.1289 4.63965 26.7861 4.82422Q26.4434 5.00879 26.0889 5.1582Q25.7344 5.30762 25.418 5.39551L25.418 6.36816Q25.6992 6.29785 25.9951 6.1748Q26.291 6.05176 26.5576 5.91113Q26.8242 5.77051 27.0381 5.62695Q27.252 5.4834 27.3633 5.37207L27.3633 12.6318ZM10.9922 6.43262Q10.9922 6.0459 10.8721 5.75879Q10.752 5.47168 10.5439 5.28125Q10.3359 5.09082 10.0547 4.99707Q9.77344 4.90332 9.44531 4.90332Q9.16406 4.90332 8.89453 4.97949Q8.625 5.05567 8.37012 5.19043Q8.11523 5.3252 7.87793 5.5127Q7.64063 5.7002 7.43555 5.92871L7.43555 4.89746Q7.83984 4.50488 8.34082 4.29688Q8.8418 4.08887 9.5625 4.08887Q10.0781 4.08887 10.5176 4.23828Q10.957 4.3877 11.2793 4.6748Q11.6016 4.96192 11.7861 5.38379Q11.9707 5.80566 11.9707 6.35059Q11.9707 6.84863 11.8564 7.25293Q11.7422 7.65723 11.5107 8.01465Q11.2793 8.37207 10.9277 8.7002Q10.5762 9.02832 10.1016 9.36816Q9.50977 9.79004 9.12598 10.0889Q8.74219 10.3877 8.5166 10.6484Q8.29102 10.9092 8.2002 11.1699Q8.10938 11.4307 8.10938 11.7705L12.293 11.7705L12.293 12.6318L7.10742 12.6318L7.10742 12.2158Q7.10742 11.6768 7.22461 11.2666Q7.3418 10.8564 7.61133 10.4873Q7.88086 10.1182 8.31738 9.74902Q8.75391 9.37988 9.38672 8.91699Q9.84375 8.58887 10.1514 8.29004Q10.459 7.99121 10.6465 7.69238Q10.834 7.39356 10.9131 7.08594Q10.9922 6.77832 10.9922 6.43262ZM23.1973 10.2529Q23.1973 10.8213 22.9834 11.2871Q22.7695 11.7529 22.3799 12.084Q21.9902 12.415 21.4453 12.5967Q20.9004 12.7783 20.2441 12.7783Q19.043 12.7783 18.334 12.3213L18.334 11.29Q19.1836 11.958 20.2793 11.958Q20.7188 11.958 21.0732 11.8467Q21.4277 11.7354 21.6826 11.5244Q21.9375 11.3135 22.0752 11.0146Q22.2129 10.7158 22.2129 10.3408Q22.2129 8.69434 19.8691 8.69434L19.1719 8.69434L19.1719 7.87988L19.834 7.87988Q21.9082 7.87988 21.9082 6.33301Q21.9082 4.90332 20.3262 4.90332Q19.4355 4.90332 18.6563 5.50098L18.6563 4.56934Q19.459 4.08887 20.5664 4.08887Q21.0938 4.08887 21.5215 4.23535Q21.9492 4.38184 22.2539 4.64551Q22.5586 4.90918 22.7256 5.27832Q22.8926 5.64746 22.8926 6.09277Q22.8926 7.75098 21.2168 8.22559L21.2168 8.24902Q21.6445 8.2959 22.0078 8.45703Q22.3711 8.61816 22.6348 8.87598Q22.8984 9.13379 23.0479 9.48242Q23.1973 9.83105 23.1973 10.2529ZM13.6699 14.0264L17.7012 4.22949L16.793 4.22949L12.7734 14.0264L13.6699 14.0264Z" />
    </g>
    <path d="M0.0771484 95.0015C18.04 87.6246 33.3682 58.4918 52.8037 58.3433C72.2393 58.1949 78.2373 78.0992 93.7236 77.4566C109.21 76.814 116.983 49.2213 142.11 48.9312C167.238 48.6411 170.575 23.9784 188.995 23.4996C207.415 23.0208 211.308 47.9176 234.073 48.0484C256.839 48.1793 272.456 -0.314865 291.077 0.00154162C290.959 -0.000462708 291.077 119.002 291.077 119.002L0.0771484 119.002C0.0771484 119.002 -0.0771484 102.521 0.0771484 95.0015Z" transform="translate(27.92285 0)" id="Path-14" fill="url(#gradient_1)" fill-opacity="0" stroke="none" />
    <path d="M0 0.5L313 0.5" transform="translate(29 64.50153)" id="Path-15" fill="none" stroke="#E6E6E6" stroke-width="1" />
    <path d="M0 0.5L313 0.5" transform="translate(29 10.50153)" id="Path-15-Copy" fill="none" stroke="#E6E6E6" stroke-width="1" />
    <path d="M-1.89992e-13 69.7705L9.53333 39.0246L19.0667 41.106L28.6 37.197L38.1333 40.066L47.6667 36.0339L57.2 36.9712L66.7333 11.9078L76.2667 15.2468L85.8 7.2942L95.3333 4.77052L104.867 10.6553L114.4 7.26399L123.933 50.1207L133.467 56.0661L143 54.0535L152.533 56.3672L162.067 55.8927L171.6 58.2482L181.133 18.8167L190.667 19.6599L200.2 15.494L209.733 17.3168L219.267 13.9635L228.8 16.1485L238.333 5.57038L247.867 7.94272L257.4 2.89943L266.933 0L276.467 4.93421L286 1.35652" transform="translate(38 40.89661)" id="Path-7" fill="none" stroke="#002970" stroke-width="3" stroke-linecap="round" stroke-linejoin="round" />
    <g id="Oval">
      <use stroke="none" fill="#FFFFFF" xlink:href="#path_1" />
      <g clip-path="url(#clip_1)">
        <use xlink:href="#path_1" fill="none" stroke="#002970" stroke-width="12" />
      </g>
    </g>
  </g>
</svg>