<?xml version="1.0" standalone="no"?>
<!DOCTYPE svg PUBLIC "-//W3C//DTD SVG 20010904//EN"
 "http://www.w3.org/TR/2001/REC-SVG-20010904/DTD/svg10.dtd">
<svg version="1.0" xmlns="http://www.w3.org/2000/svg"
 width="700.000000pt" height="700.000000pt" viewBox="0 0 700.000000 700.000000"
 preserveAspectRatio="xMidYMid meet">
<metadata>
Created by potrace 1.11, written by Peter Selinger 2001-2013
</metadata>
<g transform="translate(0.000000,700.000000) scale(0.100000,-0.100000)"
fill="#000000" stroke="none">
<path d="M152 6982 c-23 -9 -60 -34 -82 -55 -77 -76 -71 216 -67 -3143 2
-2845 3 -3013 20 -3074 88 -322 311 -561 619 -664 42 -15 105 -30 140 -35 38
-6 1257 -9 3053 -8 2855 2 2992 3 3026 20 180 90 183 334 4 430 l-40 22 -2950
1 c-1622 0 -2979 4 -3014 8 -35 4 -71 11 -80 15 -9 5 -29 15 -46 22 -124 54
-232 198 -251 335 -4 27 -7 1381 -8 3009 l-1 2960 -22 40 c-60 111 -190 162
-301 117z"/>
<path d="M6147 6403 c-10 -3 -154 -74 -321 -158 -167 -84 -449 -226 -627 -316
-178 -89 -339 -176 -357 -193 -141 -131 -33 -370 158 -352 40 4 121 41 395
180 l344 174 -591 -1183 -592 -1182 -614 614 c-457 456 -627 620 -663 639
-192 97 -407 50 -531 -116 -15 -19 -362 -706 -772 -1527 -780 -1561 -767
-1531 -743 -1611 14 -45 72 -109 116 -128 86 -38 204 -5 251 70 11 19 348 689
747 1488 400 799 728 1455 730 1457 2 3 284 -274 626 -615 583 -582 626 -622
687 -649 52 -23 82 -29 152 -32 129 -4 216 30 308 121 46 45 101 150 652 1253
331 661 605 1203 608 1203 3 0 6 -9 7 -20 1 -11 9 -55 17 -98 8 -42 17 -90 20
-107 5 -34 42 -244 51 -290 3 -16 12 -66 20 -110 23 -122 22 -121 38 -152 36
-68 107 -112 183 -113 90 0 183 78 201 169 5 31 -9 143 -43 326 -3 16 -14 77
-24 135 -15 85 -50 281 -85 475 -3 17 -10 55 -15 85 -14 80 -19 111 -26 145
-3 17 -16 86 -28 156 -14 80 -31 141 -47 170 -41 75 -143 115 -232 92z"/>
</g>
</svg>
