<?xml version="1.0" encoding="utf-8"?>
<svg width="24px" height="24px" viewBox="0 0 24 24" version="1.1" xmlns:xlink="http://www.w3.org/1999/xlink" xmlns="http://www.w3.org/2000/svg">
  <defs>
    <path d="M6.70499 5.28692C7.09834 5.68074 7.09834 6.31926 6.70499 6.71308L1.71945 11.7046C1.3261 12.0985 0.688359 12.0985 0.295011 11.7046C-0.098337 11.3108 -0.098337 10.6723 0.295011 10.2785L4.56833 6L0.295011 1.72153C-0.098337 1.3277 -0.098337 0.68919 0.295011 0.295367C0.688359 -0.0984557 1.3261 -0.0984557 1.71945 0.295367L6.70499 5.28692Z" transform="matrix(-4.371139E-08 1 -1 -4.371139E-08 18 9)" id="path_1" />
    <clipPath id="mask_1">
      <use xlink:href="#path_1" />
    </clipPath>
  </defs>
  <g id="Icon/SingleColor/Arrow/SmallTop">
    <path d="M6.70499 5.28692C7.09834 5.68074 7.09834 6.31926 6.70499 6.71308L1.71945 11.7046C1.3261 12.0985 0.688359 12.0985 0.295011 11.7046C-0.098337 11.3108 -0.098337 10.6723 0.295011 10.2785L4.56833 6L0.295011 1.72153C-0.098337 1.3277 -0.098337 0.68919 0.295011 0.295367C0.688359 -0.0984557 1.3261 -0.0984557 1.71945 0.295367L6.70499 5.28692Z" transform="matrix(-4.371139E-08 1 -1 -4.371139E-08 18 9)" id="Mask" fill="#C7C7CC" stroke="none" />
    <g clip-path="url(#mask_1)">
      <g id="Color">
        <path d="M0 0L24 0L24 24L0 24L0 0Z" id="Rectangle" fill="#CCCCCC" stroke="none" />
      </g>
    </g>
  </g>
</svg>