<?xml version="1.0" encoding="utf-8"?>
<svg width="27px" height="27px" viewBox="0 0 27 27" version="1.1" xmlns:xlink="http://www.w3.org/1999/xlink" xmlns="http://www.w3.org/2000/svg">
  <defs>
    <path d="M1.999 0L16.001 0Q16.0992 0 16.1969 0.00962573Q16.2947 0.0192515 16.391 0.0384102Q16.4873 0.057569 16.5813 0.0860763Q16.6753 0.114584 16.766 0.152165Q16.8567 0.189746 16.9433 0.236039Q17.0299 0.282333 17.1116 0.336892Q17.1932 0.391452 17.2691 0.453752Q17.3451 0.516052 17.4145 0.585494Q17.4839 0.654935 17.5462 0.730848Q17.6085 0.806761 17.6631 0.888415Q17.7177 0.970069 17.764 1.05668Q17.8103 1.14329 17.8478 1.23402Q17.8854 1.32474 17.9139 1.41872Q17.9424 1.5127 17.9616 1.60901Q17.9807 1.70533 17.9904 1.80306Q18 1.9008 18 1.999L18 20.001Q18 20.0992 17.9904 20.1969Q17.9807 20.2947 17.9616 20.391Q17.9424 20.4873 17.9139 20.5813Q17.8854 20.6753 17.8478 20.766Q17.8103 20.8567 17.764 20.9433Q17.7177 21.0299 17.6631 21.1116Q17.6085 21.1932 17.5462 21.2691Q17.4839 21.3451 17.4145 21.4145Q17.3451 21.4839 17.2691 21.5462Q17.1932 21.6085 17.1116 21.6631Q17.0299 21.7177 16.9433 21.764Q16.8567 21.8103 16.766 21.8478Q16.6753 21.8854 16.5813 21.9139Q16.4873 21.9424 16.391 21.9616Q16.2947 21.9807 16.1969 21.9904Q16.0992 22 16.001 22L1.999 22Q1.9008 22 1.80306 21.9904Q1.70533 21.9807 1.60901 21.9616Q1.5127 21.9424 1.41872 21.9139Q1.32474 21.8854 1.23402 21.8478Q1.14329 21.8103 1.05668 21.764Q0.970069 21.7177 0.888415 21.6631Q0.806761 21.6085 0.730848 21.5462Q0.654935 21.4839 0.585494 21.4145Q0.516052 21.3451 0.453752 21.2691Q0.391452 21.1932 0.336892 21.1116Q0.282333 21.0299 0.236039 20.9433Q0.189746 20.8567 0.152165 20.766Q0.114584 20.6753 0.0860763 20.5813Q0.057569 20.4873 0.0384102 20.391Q0.0192515 20.2947 0.00962573 20.1969Q0 20.0992 0 20.001L0 1.999Q0 1.9008 0.00962573 1.80306Q0.0192515 1.70533 0.0384102 1.60901Q0.057569 1.5127 0.0860763 1.41872Q0.114584 1.32474 0.152165 1.23402Q0.189746 1.14329 0.236039 1.05668Q0.282333 0.970069 0.336892 0.888415Q0.391452 0.806761 0.453752 0.730848Q0.516052 0.654935 0.585494 0.585494Q0.654935 0.516052 0.730848 0.453752Q0.806761 0.391452 0.888415 0.336892Q0.970069 0.282333 1.05668 0.236039Q1.14329 0.189746 1.23402 0.152165Q1.32474 0.114584 1.41872 0.0860763Q1.5127 0.057569 1.60901 0.0384102Q1.70533 0.0192515 1.80306 0.00962573Q1.9008 0 1.999 0Z" id="path_1" />
    <path d="M0 3.53418L2.46582 6L8.46582 0" transform="translate(13.42212 11)" id="path_2" />
    <clipPath id="clip_1">
      <use xlink:href="#path_1" />
    </clipPath>
  </defs>
  <g id="Icon" transform="translate(2.5 2.5)">
    <g id="Rectangle">
      <use stroke="none" fill="#FFFFFF" xlink:href="#path_1" />
      <g clip-path="url(#clip_1)">
        <use xlink:href="#path_1" fill="none" stroke="#002970" stroke-width="3" />
      </g>
    </g>
    <g id="Path-11">
      <use xlink:href="#path_2" fill="none" stroke="#FFFFFF" stroke-width="5" stroke-linecap="round" stroke-linejoin="round" />
      <use xlink:href="#path_2" fill="none" stroke="#00B9F5" stroke-width="1.5" stroke-linecap="round" stroke-linejoin="round" />
    </g>
    <path d="M0 0.5L10 0.5" transform="translate(4 6)" id="Path-10" fill="none" stroke="#002970" stroke-width="1.5" stroke-linecap="round" />
    <path d="M0 0.5L10 0.5" transform="translate(4 10)" id="Path-10" fill="none" stroke="#002970" stroke-width="1.5" stroke-linecap="round" />
    <path d="M0 0.5L6 0.5" transform="translate(4 14)" id="Path-10" fill="none" stroke="#002970" stroke-width="1.5" stroke-linecap="round" />
  </g>
</svg>