<?xml version="1.0" encoding="utf-8"?>
<svg width="42px" height="26px" viewBox="0 0 42 26" version="1.1" xmlns:xlink="http://www.w3.org/1999/xlink" xmlns="http://www.w3.org/2000/svg">
  <g id="Icon">
    <g id="Icon">
      <g id="balance">
        <path d="M2.33479 0.000488281L8.08073 0.000488281C8.09215 0.000163498 8.10361 0 8.11511 0C8.12661 0 8.13808 0.000163498 8.1495 0.000488281L33.514 0.000488281C33.5254 0.000163498 33.5369 0 33.5484 0C33.5599 0 33.5713 0.000163498 33.5827 0.000488281L39.3288 0.000488281C40.6191 0.000488281 41.6636 1.03725 41.6636 2.31799L41.6636 22.973C41.6636 24.2528 40.6189 25.2905 39.3288 25.2905L2.33479 25.2905C1.04471 25.2905 0 24.2528 0 22.973L0 2.31799C0 1.03725 1.0445 0.000488281 2.33479 0.000488281ZM39.3061 16.1499C35.7683 16.6611 32.9697 19.4389 32.4547 22.9505L9.20882 22.9505C8.69378 19.4389 5.89525 16.6611 2.35742 16.1499L2.35742 9.14064C5.89537 8.62957 8.69364 5.85242 9.20877 2.34052L32.4547 2.34052C32.9698 5.85244 35.7681 8.62961 39.3061 9.14065L39.3061 16.1499ZM2.35742 2.34052L6.81549 2.34052C6.35049 4.55766 4.59106 6.30378 2.35742 6.76511L2.35742 2.34052ZM39.3061 6.76512C37.0724 6.30382 35.313 4.55768 34.848 2.34052L39.3061 2.34052L39.3061 6.76512ZM9.27102 13.8155L13.8953 13.8155C14.5463 13.8155 15.074 13.2916 15.074 12.6455C15.074 11.9993 14.5463 11.4755 13.8953 11.4755L9.27102 11.4755C8.62002 11.4755 8.09229 11.9993 8.09229 12.6455C8.09229 13.2916 8.62002 13.8155 9.27102 13.8155ZM32.3923 13.8155L27.7681 13.8155C27.1171 13.8155 26.5894 13.2916 26.5894 12.6455C26.5894 11.9993 27.1171 11.4755 27.7681 11.4755L32.3923 11.4755C33.0433 11.4755 33.5711 11.9993 33.5711 12.6455C33.5711 13.2916 33.0433 13.8155 32.3923 13.8155ZM34.8479 22.9505L39.3061 22.9505L39.3061 18.5254C37.0726 18.9869 35.3129 20.7335 34.8479 22.9505ZM2.35742 22.9505L2.35742 18.5254C4.59094 18.9869 6.35059 20.7335 6.81554 22.9505L2.35742 22.9505Z" id="Combined-Shape" fill="#002970" fill-rule="evenodd" stroke="none" />
        <path d="M8.60854 10.2288L6.14716 10.2288L6.14716 12.5732L4.54869 12.5732L4.54869 10.2288L2.0873 10.2288L2.0873 9.04459L4.54869 9.04459L4.54869 7.5976L2.0873 7.5976L2.0873 6.41338L4.06903 6.41338L0 0L1.82108 0L5.27735 5.58488L5.41964 5.58488L8.87362 0L10.6958 0L6.62681 6.41338L8.60854 6.41338L8.60854 7.5976L6.14716 7.5976L6.14716 9.04459L8.60854 9.04459L8.60854 10.2288Z" transform="translate(16.2002 7.134399)" id="Fill-17" fill="#00B9F5" stroke="none" />
      </g>
    </g>
  </g>
</svg>