<?xml version="1.0" encoding="UTF-8"?>
<svg width="64px" height="55px" viewBox="0 0 64 55" version="1.1" xmlns="http://www.w3.org/2000/svg" xmlns:xlink="http://www.w3.org/1999/xlink">
    <!-- Generator: Sketch 62 (91390) - https://sketch.com -->
    <title>Group 2</title>
    <desc>Created with Sketch.</desc>
    <g id="Phase.1" stroke="none" stroke-width="1" fill="none" fill-rule="evenodd">
        <g id="E_6_セッション切れエラー" transform="translate(-156.000000, -240.000000)">
            <g id="Group" transform="translate(152.000000, 235.000000)">
                <g id="Group-2">
                    <path d="M41.1449576,8.57492926 L66.5478153,50.9130255 C68.2527042,53.7545071 67.3313139,57.4400686 64.4898323,59.1449576 C63.5573398,59.704453 62.4903214,60 61.4028577,60 L10.5971423,60 C7.28343377,60 4.59714227,57.3137085 4.59714227,54 C4.59714227,52.9125363 4.89268927,51.8455179 5.45218472,50.9130255 L30.8550424,8.57492926 C32.5599314,5.73344766 36.2454929,4.81205728 39.0869745,6.51694624 C39.9314722,7.02364481 40.638259,7.73043163 41.1449576,8.57492926 Z" id="Triangle" fill="#F5B800"></path>
                    <path d="M36,42.048 C36.96,42.048 37.6,41.44 37.632,40.512 L38.368,23.904 C38.432,22.624 37.472,21.728 36,21.728 C34.528,21.728 33.568,22.624 33.632,23.904 L34.368,40.512 C34.4,41.44 35.04,42.048 36,42.048 Z M36,49.92 C37.504,49.92 38.72,48.704 38.72,47.2 C38.72,45.728 37.472,44.48 36,44.48 C34.496,44.48 33.28,45.696 33.28,47.2 C33.28,48.704 34.496,49.92 36,49.92 Z" id="！" fill="#242323" fill-rule="nonzero"></path>
                </g>
            </g>
        </g>
    </g>
</svg>