<?xml version="1.0" encoding="utf-8"?>
<svg width="17px" height="16px" viewBox="0 0 17 16" version="1.1" xmlns:xlink="http://www.w3.org/1999/xlink" xmlns="http://www.w3.org/2000/svg">
  <defs>
    <path d="M11.8996 0L11.8996 4.5679L7.19852 4.5679L9.16101 2.66071C8.34753 1.9039 7.23903 1.43812 6.01722 1.43812C3.52067 1.43812 1.49682 3.38261 1.49682 5.78125C1.49682 8.17989 3.52067 10.1244 6.01722 10.1244C8.00089 10.1244 9.68586 8.89662 10.2945 7.18896L10.3469 7.03242L11.8931 7.03242C11.298 9.62381 8.89328 11.5625 6.01722 11.5625C2.69399 11.5625 0 8.97414 0 5.78125C0 2.58836 2.69399 0 6.01722 0C7.64952 0 9.13 0.624473 10.214 1.63833L11.8996 0Z" transform="translate(2.283437 2.21875)" id="path_1" />
    <clipPath id="mask_1">
      <use xlink:href="#path_1" />
    </clipPath>
  </defs>
  <g id="Group">
    <g id="Group">
      <path d="M11.8996 0L11.8996 4.5679L7.19852 4.5679L9.16101 2.66071C8.34753 1.9039 7.23903 1.43812 6.01722 1.43812C3.52067 1.43812 1.49682 3.38261 1.49682 5.78125C1.49682 8.17989 3.52067 10.1244 6.01722 10.1244C8.00089 10.1244 9.68586 8.89662 10.2945 7.18896L10.3469 7.03242L11.8931 7.03242C11.298 9.62381 8.89328 11.5625 6.01722 11.5625C2.69399 11.5625 0 8.97414 0 5.78125C0 2.58836 2.69399 0 6.01722 0C7.64952 0 9.13 0.624473 10.214 1.63833L11.8996 0Z" transform="translate(2.283437 2.21875)" id="reload" fill="#9B9B9B" stroke="none" />
      <g clip-path="url(#mask_1)">
        <g id="Color" transform="translate(2.058309 2)" />
      </g>
    </g>
  </g>
</svg>