<?xml version="1.0" encoding="UTF-8" standalone="no"?>
<svg
   xmlns:dc="http://purl.org/dc/elements/1.1/"
   xmlns:cc="http://creativecommons.org/ns#"
   xmlns:rdf="http://www.w3.org/1999/02/22-rdf-syntax-ns#"
   xmlns:svg="http://www.w3.org/2000/svg"
   xmlns="http://www.w3.org/2000/svg"
   xmlns:sodipodi="http://sodipodi.sourceforge.net/DTD/sodipodi-0.dtd"
   xmlns:inkscape="http://www.inkscape.org/namespaces/inkscape"
   width="49px"
   height="49px"
   viewBox="0 0 49 49"
   version="1.1"
   id="svg5"
   sodipodi:docname="icon_money_2.svg"
   inkscape:version="0.92.4 (5da689c313, 2019-01-14)">
  <metadata
     id="metadata11">
    <rdf:RDF>
      <cc:Work
         rdf:about="">
        <dc:format>image/svg+xml</dc:format>
        <dc:type
           rdf:resource="http://purl.org/dc/dcmitype/StillImage" />
        <dc:title></dc:title>
      </cc:Work>
    </rdf:RDF>
  </metadata>
  <defs
     id="defs9" />
  <sodipodi:namedview
     pagecolor="#ffffff"
     bordercolor="#666666"
     borderopacity="1"
     objecttolerance="10"
     gridtolerance="10"
     guidetolerance="10"
     inkscape:pageopacity="0"
     inkscape:pageshadow="2"
     inkscape:window-width="1920"
     inkscape:window-height="1057"
     id="namedview7"
     showgrid="false"
     inkscape:zoom="4.8163265"
     inkscape:cx="-8.720339"
     inkscape:cy="24.5"
     inkscape:window-x="-8"
     inkscape:window-y="-8"
     inkscape:window-maximized="1"
     inkscape:current-layer="svg5" />
  <g
     id="g6"
     transform="translate(3.6682,11.85475)">
    <g
       id="Icon">
      <g
         id="balance">
        <path
           d="M 2.33479,4.88281e-4 H 8.08073 C 8.09215,1.63498e-4 8.10361,0 8.11511,0 8.12661,0 8.13808,1.63498e-4 8.1495,4.88281e-4 H 33.514 C 33.5254,1.63498e-4 33.5369,0 33.5484,0 c 0.0115,0 0.0229,1.63498e-4 0.0343,4.88281e-4 h 5.7461 c 1.2903,0 2.3348,1.036761719 2.3348,2.317501719 V 22.973 c 0,1.2798 -1.0447,2.3175 -2.3348,2.3175 H 2.33479 C 1.04471,25.2905 0,24.2528 0,22.973 V 2.31799 C 0,1.03725 1.0445,4.88281e-4 2.33479,4.88281e-4 Z M 39.3061,16.1499 c -3.5378,0.5112 -6.3364,3.289 -6.8514,6.8006 H 9.20882 C 8.69378,19.4389 5.89525,16.6611 2.35742,16.1499 V 9.14064 C 5.89537,8.62957 8.69364,5.85242 9.20877,2.34052 H 32.4547 c 0.5151,3.51192 3.3134,6.28909 6.8514,6.80013 z M 2.35742,2.34052 H 6.81549 C 6.35049,4.55766 4.59106,6.30378 2.35742,6.76511 Z M 39.3061,6.76512 C 37.0724,6.30382 35.313,4.55768 34.848,2.34052 h 4.4581 z M 9.27102,13.8155 h 4.62428 c 0.651,0 1.1787,-0.5239 1.1787,-1.17 0,-0.6462 -0.5277,-1.17 -1.1787,-1.17 H 9.27102 c -0.651,0 -1.17873,0.5238 -1.17873,1.17 0,0.6461 0.52773,1.17 1.17873,1.17 z m 23.12128,0 h -4.6242 c -0.651,0 -1.1787,-0.5239 -1.1787,-1.17 0,-0.6462 0.5277,-1.17 1.1787,-1.17 h 4.6242 c 0.651,0 1.1788,0.5238 1.1788,1.17 0,0.6461 -0.5278,1.17 -1.1788,1.17 z m 2.4556,9.135 h 4.4582 v -4.4251 c -2.2335,0.4615 -3.9932,2.2081 -4.4582,4.4251 z m -32.49048,0 v -4.4251 c 2.23352,0.4615 3.99317,2.2081 4.45812,4.4251 z"
           id="Combined-Shape"
           inkscape:connector-curvature="0"
           style="fill:#002970;fill-rule:evenodd;stroke:none" />
        <path
           d="M 8.60854,10.2288 H 6.14716 v 2.3444 H 4.54869 V 10.2288 H 2.0873 V 9.04459 H 4.54869 V 7.5976 H 2.0873 V 6.41338 H 4.06903 L 0,0 H 1.82108 L 5.27735,5.58488 H 5.41964 L 8.87362,0 H 10.6958 L 6.62681,6.41338 H 8.60854 V 7.5976 H 6.14716 v 1.44699 h 2.46138 z"
           transform="translate(16.2002,7.134399)"
           id="Fill-17"
           inkscape:connector-curvature="0"
           style="fill:#00b9f5;stroke:none" />
      </g>
    </g>
  </g>
</svg>
