<?xml version="1.0" encoding="utf-8"?>
<svg width="22px" height="27px" viewBox="0 0 22 27" version="1.1" xmlns:xlink="http://www.w3.org/1999/xlink" xmlns="http://www.w3.org/2000/svg">
  <defs>
    <path d="M10 24.5C10 24.5 8.00684 23.92 6 22.5C3.99316 21.08 0 17.1491 0 17.1491L-2.45862e-14 6.53195Q-2.47875e-14 6.44501 0.00754897 6.35839Q0.0150979 6.27178 0.0301389 6.18614Q0.0451798 6.10051 0.0675991 6.0165Q0.0900184 5.9325 0.119647 5.85076Q0.149275 5.76901 0.185889 5.69016Q0.222502 5.61129 0.265824 5.53591Q0.309147 5.46053 0.358851 5.38919Q0.408554 5.31785 0.464264 5.2511Q0.519974 5.18435 0.58127 5.12269Q0.642565 5.06102 0.708983 5.00491Q0.7754 4.9488 0.846439 4.89868Q0.917477 4.84855 0.9926 4.80477Q1.06772 4.761 1.14636 4.72392Q1.225 4.68683 1.30656 4.65671Q1.38813 4.6266 1.472 4.60367Q1.55587 4.58075 1.64141 4.5652L3.29539 4.26448Q3.95386 4.14475 4.58832 3.93173Q5.22278 3.7187 5.82008 3.41679Q6.41739 3.11487 6.96515 2.73032Q7.51291 2.34578 7.99978 1.88657L8.62841 1.29366Q8.69719 1.22879 8.77178 1.1707Q8.84638 1.11261 8.92612 1.06182Q9.00586 1.01103 9.09004 0.967993Q9.17422 0.924956 9.26209 0.890056Q9.34996 0.855156 9.44072 0.828704Q9.53149 0.802253 9.62435 0.784487Q9.71721 0.76672 9.81133 0.757797Q9.90546 0.748874 10 0.748874Q10.0945 0.748874 10.1887 0.757797Q10.2828 0.76672 10.3756 0.784487Q10.4685 0.802253 10.5593 0.828704Q10.65 0.855156 10.7379 0.890056Q10.8258 0.924956 10.91 0.967993Q10.9941 1.01103 11.0739 1.06182Q11.1536 1.11261 11.2282 1.1707Q11.3028 1.22879 11.3716 1.29366L12.0002 1.88657Q12.4871 2.34578 13.0349 2.73032Q13.5826 3.11487 14.1799 3.41679Q14.7772 3.7187 15.4117 3.93173Q16.0461 4.14475 16.7046 4.26447L18.3586 4.5652Q18.4441 4.58075 18.528 4.60367Q18.6119 4.6266 18.6934 4.65671Q18.775 4.68683 18.8536 4.72392Q18.9323 4.761 19.0074 4.80477Q19.0825 4.84855 19.1536 4.89868Q19.2246 4.9488 19.291 5.00491Q19.3574 5.06102 19.4187 5.12269Q19.48 5.18435 19.5357 5.2511Q19.5914 5.31785 19.6412 5.38919Q19.6909 5.46053 19.7342 5.53591Q19.7775 5.61129 19.8141 5.69015Q19.8507 5.76901 19.8804 5.85076Q19.91 5.9325 19.9324 6.0165Q19.9548 6.10051 19.9699 6.18614Q19.9849 6.27178 19.9925 6.35839Q20 6.44501 20 6.53195L20 8.17938C20 13.1332 20 17.1491 20 17.1491C20 17.1491 15.8397 21.1477 14 22.5C12.1603 23.8523 10 24.5 10 24.5Z" transform="translate(0 0.5)" id="path_1" />
    <clipPath id="clip_1">
      <use xlink:href="#path_1" />
    </clipPath>
  </defs>
  <g id="Icon" transform="translate(0.75 0.75)">
    <path d="M3 6C4.65685 6 6 4.65685 6 3C6 1.34315 4.65685 0 3 0C1.34315 0 0 1.34315 0 3C0 4.65685 1.34315 6 3 6Z" transform="translate(7 7)" id="Oval" fill="#FFFFFF" stroke="#00B9F5" stroke-width="1.5" />
    <path d="M12 6C12 2.68629 9.31371 0 6 0C2.68629 0 0 2.68629 0 6" transform="translate(4 14)" id="Oval" fill="#FFFFFF" stroke="#00B9F5" stroke-width="1.5" stroke-linecap="round" />
    <g id="Path-12">
      <g clip-path="url(#clip_1)">
        <use xlink:href="#path_1" fill="none" stroke="#002970" stroke-width="3" />
      </g>
    </g>
  </g>
</svg>