<?xml version="1.0" encoding="utf-8"?>
<svg width="25px" height="25px" viewBox="0 0 25 25" version="1.1" xmlns:xlink="http://www.w3.org/1999/xlink" xmlns="http://www.w3.org/2000/svg">
  <g id="Icon" transform="translate(0.75 0.75)">
    <path d="M5.63394 6.50835L4.02307 6.50835L4.02307 8L2.97693 8L2.97693 6.50835L1.36606 6.50835L1.36606 5.75486L2.97693 5.75486L2.97693 4.83417L1.36606 4.83417L1.36606 4.08068L2.66302 4.08068L0 0L1.19182 0L3.45381 3.55353L3.54694 3.55353L5.80742 0L7 0L4.33698 4.08068L5.63394 4.08068L5.63394 4.83417L4.02307 4.83417L4.02307 5.75486L5.63394 5.75486L5.63394 6.50835Z" transform="translate(6.2 5.966883)" id="Fill-17" fill="#00B9F5" stroke="none" />
    <path d="M19 9.5C19 4.25329 14.7467 0 9.5 0C4.25329 0 0 4.25329 0 9.5C0 14.7467 4.25329 19 9.5 19C14.7467 19 19 14.7467 19 9.5ZM1.5 9.5C1.5 5.08172 5.08172 1.5 9.5 1.5C13.9183 1.5 17.5 5.08172 17.5 9.5C17.5 13.9183 13.9183 17.5 9.5 17.5C5.08172 17.5 1.5 13.9183 1.5 9.5Z" id="Oval" fill="#002970" fill-rule="evenodd" stroke="none" />
    <path d="M2.87605 0L7.9946 5.28674C8.75823 6.08156 8.73487 7.34437 7.94237 8.1104C7.14623 8.87996 5.8839 8.85852 5.11855 8.06672C5.11715 8.06527 5.11576 8.06382 5.11436 8.06237L-2.74051e-13 2.77999" transform="translate(14 14)" id="Path-2" fill="none" stroke="#002970" stroke-width="1.5" />
  </g>
</svg>