<?xml version="1.0" encoding="utf-8"?>
<svg width="21px" height="24px" viewBox="0 0 21 24" version="1.1" xmlns:xlink="http://www.w3.org/1999/xlink" xmlns="http://www.w3.org/2000/svg">
  <defs>
    <path d="M19.001 0L1.999 0Q1.9008 0 1.80306 0.00962573Q1.70533 0.0192515 1.60901 0.0384102Q1.5127 0.057569 1.41872 0.0860763Q1.32474 0.114584 1.23402 0.152165Q1.14329 0.189746 1.05668 0.236039Q0.970069 0.282333 0.888415 0.336892Q0.806761 0.391452 0.730848 0.453752Q0.654935 0.516052 0.585493 0.585494Q0.516052 0.654935 0.453752 0.730848Q0.391452 0.806761 0.336892 0.888415Q0.282333 0.970069 0.236039 1.05668Q0.189746 1.14329 0.152165 1.23402Q0.114584 1.32474 0.0860763 1.41872Q0.057569 1.5127 0.0384102 1.60901Q0.0192515 1.70533 0.00962573 1.80306Q0 1.9008 0 1.999L0 16.001Q0 16.0992 0.00962573 16.1969Q0.0192515 16.2947 0.0384102 16.391Q0.057569 16.4873 0.0860763 16.5813Q0.114584 16.6753 0.152165 16.766Q0.189746 16.8567 0.236039 16.9433Q0.282333 17.0299 0.336892 17.1116Q0.391452 17.1932 0.453752 17.2691Q0.516052 17.3451 0.585494 17.4145Q0.654935 17.4839 0.730848 17.5462Q0.806761 17.6085 0.888415 17.6631Q0.970069 17.7177 1.05668 17.764Q1.14329 17.8103 1.23402 17.8478Q1.32474 17.8854 1.41872 17.9139Q1.5127 17.9424 1.60901 17.9616Q1.70533 17.9807 1.80306 17.9904Q1.9008 18 1.999 18L7.21973 18L7.21973 22.7953Q7.21973 22.8693 7.24121 22.9402Q7.2627 23.011 7.30382 23.0725Q7.34495 23.1341 7.40216 23.181Q7.45938 23.228 7.52777 23.2563Q7.59615 23.2846 7.66982 23.2919Q7.74348 23.2992 7.81608 23.2847Q7.88867 23.2703 7.95395 23.2354Q8.01923 23.2005 8.07157 23.1482L13.2197 18L19.001 18Q19.0992 18 19.1969 17.9904Q19.2947 17.9807 19.391 17.9616Q19.4873 17.9424 19.5813 17.9139Q19.6753 17.8854 19.766 17.8478Q19.8567 17.8103 19.9433 17.764Q20.0299 17.7177 20.1116 17.6631Q20.1932 17.6085 20.2691 17.5462Q20.3451 17.4839 20.4145 17.4145Q20.4839 17.3451 20.5462 17.2691Q20.6085 17.1932 20.6631 17.1116Q20.7177 17.0299 20.764 16.9433Q20.8103 16.8567 20.8478 16.766Q20.8854 16.6753 20.9139 16.5813Q20.9424 16.4873 20.9616 16.391Q20.9807 16.2947 20.9904 16.1969Q21 16.0992 21 16.001L21 1.999Q21 1.9008 20.9904 1.80306Q20.9807 1.70533 20.9616 1.60901Q20.9424 1.5127 20.9139 1.41872Q20.8854 1.32474 20.8478 1.23402Q20.8103 1.14329 20.764 1.05668Q20.7177 0.970069 20.6631 0.888415Q20.6085 0.806761 20.5462 0.730848Q20.4839 0.654935 20.4145 0.585494Q20.3451 0.516052 20.2691 0.453752Q20.1932 0.391452 20.1116 0.336892Q20.0299 0.282333 19.9433 0.236039Q19.8567 0.189746 19.766 0.152165Q19.6753 0.114584 19.5813 0.0860763Q19.4873 0.057569 19.391 0.0384102Q19.2947 0.0192515 19.1969 0.00962573Q19.0992 0 19.001 0Z" id="path_1" />
    <clipPath id="clip_1">
      <use xlink:href="#path_1" />
    </clipPath>
  </defs>
  <g id="Icon">
    <g id="Combined-Shape">
      <use stroke="none" fill="#FFFFFF" xlink:href="#path_1" fill-rule="evenodd" />
      <g clip-path="url(#clip_1)">
        <use xlink:href="#path_1" fill="none" stroke="#002970" stroke-width="3" />
      </g>
    </g>
    <g id="?" fill="#00B9F5" transform="translate(7.836426 1.5)">
      <path d="M2.12646 10.9915Q2.06934 10.8264 2.0249 10.563Q1.98047 10.2996 1.98047 10.0393Q1.98047 9.63306 2.14233 9.30615Q2.3042 8.97925 2.54541 8.6936Q2.78662 8.40796 3.07227 8.14453Q3.35791 7.8811 3.59912 7.61133Q3.84033 7.34155 4.0022 7.04639Q4.16406 6.75122 4.16406 6.39575Q4.16406 6.09106 4.04663 5.8562Q3.9292 5.62134 3.72607 5.46265Q3.52295 5.30396 3.25635 5.22461Q2.98975 5.14526 2.69141 5.14526Q1.61865 5.14526 0.831543 5.9895L0.831543 4.87231Q1.80273 4.26294 2.84375 4.26294Q3.32617 4.26294 3.75146 4.38989Q4.17676 4.51685 4.49731 4.76758Q4.81787 5.01831 5.00195 5.39282Q5.18604 5.76733 5.18604 6.26245Q5.18604 6.73218 5.021 7.10034Q4.85596 7.46851 4.60522 7.77637Q4.35449 8.08423 4.0625 8.35083Q3.77051 8.61743 3.51978 8.88086Q3.26904 9.14429 3.104 9.42993Q2.93896 9.71558 2.93896 10.0583Q2.93896 10.3503 3.00879 10.5884Q3.07861 10.8264 3.14844 10.9915L2.12646 10.9915ZM2.69775 13.6321Q2.41846 13.6321 2.20264 13.429Q1.99316 13.2258 1.99316 12.9338Q1.99316 12.6355 2.20264 12.4387Q2.41211 12.2292 2.69775 12.2292Q2.9834 12.2292 3.19287 12.4387Q3.40234 12.6355 3.40234 12.9338Q3.40234 13.2258 3.19287 13.429Q2.97705 13.6321 2.69775 13.6321Z" />
    </g>
  </g>
</svg>