<?xml version="1.0" encoding="utf-8"?>
<svg width="31px" height="31px" viewBox="0 0 31 31" version="1.1" xmlns:xlink="http://www.w3.org/1999/xlink" xmlns="http://www.w3.org/2000/svg">
  <g id="Icon" transform="translate(0.5 0.5)">
    <path d="M0 10.5C0 4.7011 4.7011 0 10.5 0L10.5025 0C10.907 0 11.235 0.327951 11.235 0.7325C11.235 1.13705 10.907 1.465 10.5025 1.465L10.5 1.465L10.5 1.46512C5.51026 1.46512 1.46512 5.51026 1.46512 10.5C1.46512 13.1653 2.62835 15.6634 4.64224 17.3789L4.5306 16.746C4.45844 16.337 4.73737 15.9464 5.15296 15.8731C5.56853 15.7999 5.96428 16.0716 6.03643 16.4806L6.53874 19.3281C6.62957 19.8431 6.17137 20.292 5.64909 20.2015L2.647 19.6811C2.2317 19.6091 1.95605 19.2188 2.03204 18.8094C2.10794 18.4005 2.50572 18.1279 2.92047 18.1998L3.46387 18.294C1.26258 16.3072 0 13.4914 0 10.5ZM21.3895 10.7251C21.3895 16.524 16.6884 21.2251 10.8895 21.2251L10.887 21.2251C10.4824 21.2251 10.1545 20.8972 10.1545 20.4926C10.1545 20.0881 10.4824 19.7601 10.887 19.7601L10.8895 19.7601L10.8895 19.76C15.8792 19.76 19.9243 15.7149 19.9243 10.7251C19.9243 8.05981 18.7611 5.56177 16.7472 3.84621L16.8589 4.4791C16.931 4.88815 16.6521 5.27876 16.2365 5.35201C15.8209 5.42525 15.4252 5.15358 15.353 4.74453L14.8507 1.89699C14.7599 1.38207 15.2181 0.933121 15.7404 1.02366L18.7425 1.54407C19.1578 1.61607 19.4334 2.0063 19.3574 2.41573C19.2815 2.8246 18.8837 3.0972 18.469 3.0253L17.9256 2.9311C20.1269 4.91793 21.3895 7.73374 21.3895 10.7251Z" transform="matrix(0.5000001 -0.8660254 -0.8660254 -0.5000001 18.8815 29.63638)" id="Combined-Shape" fill="#012C73" fill-rule="evenodd" stroke="none" />
    <path d="M6.43879 7.32189L4.59779 7.32189L4.59779 9L3.40221 9L3.40221 7.32189L1.56121 7.32189L1.56121 6.47422L3.40221 6.47422L3.40221 5.43844L1.56121 5.43844L1.56121 4.59076L3.04345 4.59076L0 0L1.36209 0L3.94722 3.99772L4.05364 3.99772L6.63706 0L8 0L4.95655 4.59076L6.43879 4.59076L6.43879 5.43844L4.59779 5.43844L4.59779 6.47422L6.43879 6.47422L6.43879 7.32189Z" transform="translate(11 11)" id="Fill" fill="#00B9F5" stroke="none" />
  </g>
</svg>