<?xml version="1.0" encoding="utf-8"?>
<svg width="23px" height="25px" viewBox="0 0 23 25" version="1.1" xmlns:xlink="http://www.w3.org/1999/xlink" xmlns="http://www.w3.org/2000/svg">
  <g id="home/topBtn/el/icon/bank_color2" transform="translate(0.4958496 0.4960938)">
    <path d="M5 0C5 1.65685 3.88071 3 2.5 3C1.11929 3 0 1.65685 0 0L5 0Z" transform="translate(8.125 21)" id="Combined-Shape" fill="#00B9F5" fill-rule="evenodd" stroke="none" />
    <path d="M13.8686 2.1438C13.3071 0.860512 11.9921 0 10.5139 0C9.04374 0 7.73439 0.851382 7.16799 2.12415C3.28136 3.43363 0.872302 7.01921 0.872302 11.4432L0.872302 17.0099C-1.05835 19.4318 0.363955 22 3.68112 22L17.3222 22C20.6325 22 22.0573 19.4291 20.131 17.0101L20.131 11.9796C20.131 7.43836 17.6659 3.50449 13.8686 2.1438ZM8.56309 2.9939C8.80441 2.17907 9.59895 1.6 10.5139 1.6C11.4321 1.6 12.2286 2.18299 12.4671 3.00162L12.5881 3.41711L13.0053 3.54436C16.3015 4.54972 18.5159 7.95073 18.5159 11.9796L18.5159 17.6034L18.7188 17.8305C19.9859 19.2481 19.3951 20.4 17.3222 20.4L3.68112 20.4C1.60164 20.4 1.01334 19.2518 2.28429 17.8306L2.48737 17.6035L2.48737 11.4432C2.48737 7.5596 4.6111 4.5244 8.01525 3.53641L8.43882 3.41347L8.56309 2.9939Z" transform="translate(0.125 0)" id="Combined-Shape" fill="#002970" fill-rule="evenodd" stroke="none" />
  </g>
</svg>