<?xml version="1.0" encoding="utf-8"?>
<svg width="26px" height="26px" viewBox="0 0 26 26" version="1.1" xmlns:xlink="http://www.w3.org/1999/xlink" xmlns="http://www.w3.org/2000/svg">
  <g id="Group" transform="translate(0.6430664 0.6428833)">
    <path d="M23.0769 22.1538C23.5867 22.1538 24 22.5671 24 23.0769C24 23.5867 23.5867 24 23.0769 24L3.38462 24C1.51534 24 0 22.4847 0 20.6154L0 0.923077C0 0.413276 0.413276 0 0.923077 0C1.43288 0 1.84615 0.413276 1.84615 0.923077L1.84615 20.6154C1.84615 21.4651 2.53495 22.1538 3.38462 22.1538L23.0769 22.1538Z" id="Path" fill="#002970" stroke="none" />
    <path d="M0 13.7143L5.02041 4.28571L9.55102 10.2857L14.5714 0" transform="translate(6.857143 3.428571)" id="Path-3" fill="none" stroke="#00B9F5" stroke-width="1.28571427" stroke-linecap="round" stroke-linejoin="round" />
    <path d="M2.14286 4.28571C3.32632 4.28571 4.28571 3.32632 4.28571 2.14286C4.28571 0.95939 3.32632 0 2.14286 0C0.95939 0 0 0.95939 0 2.14286C0 3.32632 0.95939 4.28571 2.14286 4.28571Z" transform="translate(4.714286 15)" id="Oval" fill="#00B9F5" stroke="none" />
    <path d="M2.14286 4.28571C3.32632 4.28571 4.28571 3.32632 4.28571 2.14286C4.28571 0.95939 3.32632 0 2.14286 0C0.95939 0 0 0.95939 0 2.14286C0 3.32632 0.95939 4.28571 2.14286 4.28571Z" transform="translate(9.857142 5.571429)" id="Oval" fill="#00B9F5" stroke="none" />
    <path d="M2.14286 4.28571C3.32632 4.28571 4.28571 3.32632 4.28571 2.14286C4.28571 0.95939 3.32632 0 2.14286 0C0.95939 0 0 0.95939 0 2.14286C0 3.32632 0.95939 4.28571 2.14286 4.28571Z" transform="translate(14.14286 11.14286)" id="Oval" fill="#00B9F5" stroke="none" />
    <path d="M2.14286 4.28571C3.32632 4.28571 4.28572 3.32632 4.28572 2.14286C4.28572 0.95939 3.32632 0 2.14286 0C0.95939 0 0 0.95939 0 2.14286C0 3.32632 0.95939 4.28571 2.14286 4.28571Z" transform="translate(19.28572 1.285714)" id="Oval" fill="#00B9F5" stroke="none" />
  </g>
</svg>