<?xml version="1.0" encoding="utf-8"?>
<svg width="58px" height="58px" viewBox="0 0 58 58" version="1.1" xmlns:xlink="http://www.w3.org/1999/xlink" xmlns="http://www.w3.org/2000/svg">
  <defs>
    <path d="M29 58C45.0163 58 58 45.0163 58 29C58 12.9837 45.0163 0 29 0C12.9837 0 0 12.9837 0 29C0 45.0163 12.9837 58 29 58Z" id="path_1" />
    <clipPath id="clip_1">
      <use xlink:href="#path_1" />
    </clipPath>
  </defs>
  <g id="UP">
    <g id="Combined-Shape">
      <g clip-path="url(#clip_1)">
        <use xlink:href="#path_1" fill="none" stroke="#20BF7A" stroke-width="6" />
      </g>
    </g>
    <path d="M20.2881 15.5625L11.0694 0.477297Q11.0024 0.367776 10.91 0.278732Q10.8176 0.189687 10.7056 0.126902Q10.5937 0.0641179 10.4695 0.0316718Q10.3453 -0.000774285 10.2169 -0.000774298Q10.0886 -0.000774312 9.96441 0.0316718Q9.84022 0.0641178 9.72827 0.126902Q9.61633 0.189687 9.52388 0.278732Q9.43144 0.367776 9.36451 0.477297L0.145788 15.5625Q0.0763801 15.6761 0.0391313 15.8039Q0.00188239 15.9316 -0.000608256 16.0647Q-0.0030989 16.1978 0.0293425 16.3269Q0.0617838 16.456 0.126894 16.5721Q0.192003 16.6882 0.285239 16.7832Q0.378474 16.8782 0.49333 16.9454Q0.608186 17.0127 0.736648 17.0476Q0.865111 17.0824 0.998217 17.0824L8.21694 17.0824L8.21694 30.0834Q8.21694 30.1818 8.23614 30.2783Q8.25533 30.3748 8.29299 30.4657Q8.33064 30.5566 8.3853 30.6384Q8.43997 30.7202 8.50954 30.7898Q8.57912 30.8594 8.66093 30.914Q8.74274 30.9687 8.83364 31.0064Q8.92454 31.044 9.02105 31.0632Q9.11755 31.0824 9.21594 31.0824L11.2179 31.0824Q11.3163 31.0824 11.4128 31.0632Q11.5093 31.044 11.6002 31.0064Q11.6911 30.9687 11.773 30.914Q11.8548 30.8594 11.9243 30.7898Q11.9939 30.7202 12.0486 30.6384Q12.1032 30.5566 12.1409 30.4657Q12.1785 30.3748 12.1977 30.2783Q12.2169 30.1818 12.2169 30.0834L12.2169 17.0824L19.4357 17.0824Q19.5688 17.0824 19.6972 17.0476Q19.8257 17.0127 19.9406 16.9454Q20.0554 16.8782 20.1486 16.7832Q20.2419 16.6882 20.307 16.5721Q20.3721 16.456 20.4045 16.3269Q20.437 16.1978 20.4345 16.0647Q20.432 15.9316 20.3948 15.8039Q20.3575 15.6761 20.2881 15.5625Z" transform="translate(18.78306 13.91759)" id="Combined-Shape" fill="#20BF7A" fill-rule="evenodd" stroke="none" />
  </g>
</svg>