<?xml version="1.0" encoding="utf-8"?>
<svg width="56px" height="56px" viewBox="0 0 56 56" version="1.1" xmlns:xlink="http://www.w3.org/1999/xlink" xmlns="http://www.w3.org/2000/svg">
  <defs>
    <path d="M28 56C43.464 56 56 43.464 56 28C56 12.536 43.464 0 28 0C12.536 0 0 12.536 0 28C0 43.464 12.536 56 28 56Z" id="path_1" />
    <clipPath id="clip_1">
      <use xlink:href="#path_1" />
    </clipPath>
  </defs>
  <g id="Icon">
    <g id="Oval">
      <g clip-path="url(#clip_1)">
        <use xlink:href="#path_1" fill="none" stroke="#EAEAEA" stroke-width="2" />
      </g>
    </g>
  </g>
  <g id="Group-3" transform="translate(10 10)">
    <path d="M8.77982 11.8339L6.27001 11.8339L6.27001 14.5455L4.63908 14.5455L4.63908 11.8339L2.12927 11.8339L2.12927 10.4631L4.63908 10.4631L4.63908 8.78977L2.12927 8.78977L2.12927 7.41889L4.1498 7.41889L0 0L1.85744 0L5.38206 6.46129L5.52703 6.46129L9.05165 0L10.9091 0L6.75929 7.41889L8.77982 7.41889L8.77982 8.78977L6.27001 8.78977L6.27001 10.4631L8.77982 10.4631L8.77982 11.8339Z" transform="translate(12.09091 10.86364)" id="¥-copy" fill="#00B9F5" stroke="none" />
    <path d="M27.2536 20.3911L25.4354 21.3613L25.4354 2.72727C25.4354 2.2252 25.0284 1.81818 24.5264 1.81818L4.54563 1.81818C4.04356 1.81818 3.63654 2.2252 3.63654 2.72727L3.63654 21.3498L14.5525 27.1686L25.4354 21.3613L25.4354 2.72727C25.4354 2.2252 25.0284 1.81818 24.5264 1.81818L4.54563 1.81818C4.04356 1.81818 3.63654 2.2252 3.63654 2.72727L3.63654 21.3498L1.81836 20.3806L1.81836 2.72727C1.81836 1.22104 3.0394 6.26569e-13 4.54563 6.26569e-13L24.5264 0C26.0326 0 27.2536 1.22104 27.2536 2.72727L27.2536 20.3911L27.754 20.1241C28.197 19.8878 28.7477 20.0552 28.984 20.4982C29.2204 20.9412 29.0529 21.4919 28.61 21.7282L14.9807 29.001C14.7133 29.1436 14.3924 29.1437 14.125 29.0011L0.481635 21.7284C0.0385751 21.4922 -0.129137 20.9416 0.10704 20.4985C0.343217 20.0555 0.893847 19.8878 1.33691 20.1239L1.81836 20.3806L1.81836 2.72727C1.81836 1.22104 3.0394 6.26569e-13 4.54563 6.26569e-13L24.5264 0C26.0326 0 27.2536 1.22104 27.2536 2.72727L27.2536 20.3911Z" transform="translate(3 4.5)" id="Path" fill="#012C73" stroke="none" />
  </g>
</svg>