<?xml version="1.0" encoding="utf-8"?>
<svg width="48px" height="48px" viewBox="0 0 48 48" version="1.1" xmlns:xlink="http://www.w3.org/1999/xlink" xmlns="http://www.w3.org/2000/svg">
  <g id="Icon_Challenge">
    <g id="Icon_Standard">
      <g id="Icon">
        <path d="M24 48C37.2548 48 48 37.2548 48 24C48 10.7452 37.2548 0 24 0C10.7452 0 0 10.7452 0 24C0 37.2548 10.7452 48 24 48Z" id="Oval" fill="#FFC800" stroke="none" />
      </g>
      <path d="M32.6775 1.92593C32.6787 1.29396 32.2022 0.750805 31.5604 0.68214L25.2513 0.00719619L25.1236 1.81198e-05C24.49 -0.00338197 23.9443 0.4736 23.8755 1.11714L23.8683 1.2449C23.8649 1.87846 24.3419 2.42417 24.9854 2.49301L28.4073 2.85904L23.5441 6.91913L18.7137 3.89367L18.5866 3.82391C18.1536 3.61792 17.6348 3.67692 17.2574 3.98644L12.3841 7.98213L7.5592 4.65869L7.43652 4.58414C7.01727 4.36122 6.50213 4.39393 6.11217 4.67913L0.512168 8.77482L0.406562 8.86114C-0.0588876 9.28564 -0.139235 10.0016 0.241136 10.5217L0.327461 10.6273C0.751957 11.0927 1.46792 11.1731 1.988 10.7927L6.87009 7.22013L11.741 10.5751L11.8587 10.647C12.3005 10.8846 12.848 10.836 13.2428 10.5122L18.1471 6.48913L22.9865 9.52057L23.1037 9.58557C23.5423 9.79896 24.0708 9.73857 24.4514 9.42064L29.863 4.90052L29.5359 8.07595L29.5291 8.20375C29.5281 8.83731 30.0071 9.38124 30.6509 9.44769C31.3376 9.51857 31.9518 9.01935 32.0226 8.33264L32.6708 2.05339L32.6775 1.92593Z" transform="translate(6.749915 17.13087)" id="Combined-Shape" fill="#FFFFFF" fill-rule="evenodd" stroke="none" />
    </g>
  </g>
</svg>